<svg width="24" height="24" viewBox="0 0 24 24" fill="none" xmlns="http://www.w3.org/2000/svg">
<mask id="mask0_565_4815" style="mask-type:alpha" maskUnits="userSpaceOnUse" x="4" y="4" width="16" height="16">
<path fill-rule="evenodd" clip-rule="evenodd" d="M11.75 4C12.1642 4 12.5 4.33579 12.5 4.75V11L18.75 11C19.1642 11 19.5 11.3358 19.5 11.75C19.5 12.1642 19.1642 12.5 18.75 12.5H12.5V18.75C12.5 19.1642 12.1642 19.5 11.75 19.5C11.3358 19.5 11 19.1642 11 18.75V12.5L4.75 12.5C4.33579 12.5 4 12.1642 4 11.75C4 11.3358 4.33579 11 4.75 11L11 11V4.75C11 4.33579 11.3358 4 11.75 4Z" fill="#383641"/>
</mask>
<g mask="url(#mask0_565_4815)">
<rect width="24" height="24" fill="#383641"/>
</g>
</svg>
