<svg width="24" height="24" viewBox="0 0 24 24" fill="none" xmlns="http://www.w3.org/2000/svg">
<mask id="mask0_565_4812" style="mask-type:alpha" maskUnits="userSpaceOnUse" x="2" y="2" width="19" height="20">
<path fill-rule="evenodd" clip-rule="evenodd" d="M15.099 3.5C14.376 3.5 13.6826 3.7872 13.1714 4.29842L5.18979 12.2801C4.35263 13.1172 3.88232 14.2526 3.88232 15.4366C3.88232 16.6205 4.35263 17.7559 5.18979 18.5931C6.02695 19.4302 7.16238 19.9005 8.3463 19.9005C9.53022 19.9005 10.6656 19.4302 11.5028 18.5931L19.4844 10.6114C19.7773 10.3185 20.2522 10.3185 20.5451 10.6114C20.838 10.9043 20.838 11.3792 20.5451 11.6721L12.5635 19.6537C11.445 20.7722 9.92805 21.4005 8.3463 21.4005C6.76456 21.4005 5.24759 20.7722 4.12913 19.6537C3.01067 18.5353 2.38232 17.0183 2.38232 15.4366C2.38232 13.8548 3.01067 12.3379 4.12913 11.2194L12.1108 3.23776C12.9033 2.44524 13.9782 2 15.099 2C16.2198 2 17.2947 2.44524 18.0872 3.23776C18.8797 4.03029 19.325 5.10518 19.325 6.22598C19.325 7.34678 18.8797 8.42168 18.0872 9.21421L10.0969 17.1958C10.0968 17.1959 10.097 17.1957 10.0969 17.1958C9.63033 17.6623 8.99734 17.9246 8.33762 17.9246C7.67776 17.9246 7.04493 17.6624 6.57834 17.1958C6.11175 16.7293 5.84962 16.0964 5.84962 15.4366C5.84962 14.7767 6.11175 14.1439 6.57834 13.6773L13.9523 6.31199C14.2454 6.01927 14.7203 6.01955 15.013 6.31261C15.3057 6.60568 15.3054 7.08055 15.0124 7.37327L7.639 14.7379C7.45391 14.9232 7.34962 15.1747 7.34962 15.4366C7.34962 15.6986 7.45371 15.9499 7.639 16.1352C7.82428 16.3205 8.07558 16.4246 8.33762 16.4246C8.59965 16.4246 8.85095 16.3205 9.03623 16.1352L17.0266 8.15355C17.0265 8.15364 17.0266 8.15345 17.0266 8.15355C17.5376 7.64235 17.825 6.94882 17.825 6.22598C17.825 5.50301 17.5378 4.80964 17.0266 4.29842C16.5153 3.7872 15.822 3.5 15.099 3.5Z" fill="#383641"/>
</mask>
<g mask="url(#mask0_565_4812)">
<rect width="24" height="24" fill="#383641"/>
</g>
</svg>
