<svg width="24" height="24" viewBox="0 0 24 24" fill="none" xmlns="http://www.w3.org/2000/svg">
<mask id="mask0_512_1041" style="mask-type:alpha" maskUnits="userSpaceOnUse" x="5" y="5" width="14" height="14">
<path fill-rule="evenodd" clip-rule="evenodd" d="M5.71967 5.21967C6.01256 4.92678 6.48744 4.92678 6.78033 5.21967L12.25 10.6893L17.7197 5.21967C18.0126 4.92678 18.4874 4.92678 18.7803 5.21967C19.0732 5.51256 19.0732 5.98744 18.7803 6.28033L13.3107 11.75L18.7803 17.2197C19.0732 17.5126 19.0732 17.9874 18.7803 18.2803C18.4874 18.5732 18.0126 18.5732 17.7197 18.2803L12.25 12.8107L6.78033 18.2803C6.48744 18.5732 6.01256 18.5732 5.71967 18.2803C5.42678 17.9874 5.42678 17.5126 5.71967 17.2197L11.1893 11.75L5.71967 6.28033C5.42678 5.98744 5.42678 5.51256 5.71967 5.21967Z" fill="#383641"/>
</mask>
<g mask="url(#mask0_512_1041)">
<rect width="24" height="24" fill="#383641"/>
</g>
</svg>
