<svg width="24" height="24" viewBox="0 0 24 24" fill="none" xmlns="http://www.w3.org/2000/svg">
<path fill-rule="evenodd" clip-rule="evenodd" d="M13.5 3.75C9.21981 3.75 5.75002 7.21979 5.75002 11.5C5.75002 12.2946 5.86935 13.0599 6.09054 13.7797C6.13681 13.9303 6.13449 14.0916 6.0839 14.2408L4.20107 19.7935L8.99111 18.1451C9.19708 18.0742 9.42369 18.0963 9.61202 18.2058C10.7542 18.8696 12.0816 19.25 13.5 19.25C17.7802 19.25 21.25 15.7802 21.25 11.5C21.25 7.21979 17.7802 3.75 13.5 3.75ZM4.25002 11.5C4.25002 6.39137 8.39139 2.25 13.5 2.25C18.6087 2.25 22.75 6.39137 22.75 11.5C22.75 16.6086 18.6087 20.75 13.5 20.75C11.9341 20.75 10.4573 20.3603 9.16311 19.6722L3.24408 21.7092C2.97356 21.8023 2.67364 21.7334 2.47089 21.5315C2.26814 21.3297 2.19787 21.0301 2.28974 20.7592L4.58735 13.9833C4.36738 13.1923 4.25002 12.3593 4.25002 11.5Z" fill="#383641"/>
</svg>
