<svg width="24" height="24" viewBox="0 0 24 24" fill="none" xmlns="http://www.w3.org/2000/svg">
<path fill-rule="evenodd" clip-rule="evenodd" d="M3.75 2.5C3.41848 2.5 3.10054 2.6317 2.86612 2.86612C2.6317 3.10054 2.5 3.41848 2.5 3.75V12.75C2.5 13.0815 2.6317 13.3995 2.86612 13.6339C3.10054 13.8683 3.41848 14 3.75 14H4.75C5.16421 14 5.5 14.3358 5.5 14.75C5.5 15.1642 5.16421 15.5 4.75 15.5H3.75C3.02065 15.5 2.32118 15.2103 1.80546 14.6945C1.28973 14.1788 1 13.4793 1 12.75V3.75C1 3.02065 1.28973 2.32118 1.80546 1.80546C2.32118 1.28973 3.02065 1 3.75 1H12.75C13.4793 1 14.1788 1.28973 14.6945 1.80546C15.2103 2.32118 15.5 3.02065 15.5 3.75V4.75C15.5 5.16421 15.1642 5.5 14.75 5.5C14.3358 5.5 14 5.16421 14 4.75V3.75C14 3.41848 13.8683 3.10054 13.6339 2.86612C13.3995 2.6317 13.0815 2.5 12.75 2.5H3.75ZM10.75 9.5C10.0596 9.5 9.5 10.0596 9.5 10.75V19.75C9.5 20.4404 10.0596 21 10.75 21H19.75C20.4404 21 21 20.4404 21 19.75V10.75C21 10.0596 20.4404 9.5 19.75 9.5H10.75ZM8 10.75C8 9.23122 9.23122 8 10.75 8H19.75C21.2688 8 22.5 9.23122 22.5 10.75V19.75C22.5 21.2688 21.2688 22.5 19.75 22.5H10.75C9.23122 22.5 8 21.2688 8 19.75V10.75Z" fill="#383641"/>
</svg>
