<svg width="24" height="24" viewBox="0 0 24 24" fill="none" xmlns="http://www.w3.org/2000/svg">
<path fill-rule="evenodd" clip-rule="evenodd" d="M9.75098 3.5C9.4725 3.5 9.20543 3.61062 9.00851 3.80754C8.8116 4.00445 8.70098 4.27152 8.70098 4.55V5.59981H14.401V4.55C14.401 4.27152 14.2904 4.00445 14.0934 3.80754C13.8965 3.61062 13.6295 3.5 13.351 3.5H9.75098ZM15.901 5.59981V4.55C15.901 3.8737 15.6323 3.22509 15.1541 2.74688C14.6759 2.26866 14.0273 2 13.351 2H9.75098C9.07467 2 8.42607 2.26866 7.94785 2.74688C7.46964 3.2251 7.20098 3.8737 7.20098 4.55V5.59981H3.4502C3.03598 5.59981 2.7002 5.9356 2.7002 6.34981C2.7002 6.76403 3.03598 7.09981 3.4502 7.09981H4.50024L4.50098 18.95C4.50098 18.95 4.50098 18.95 4.50098 18.95C4.50099 19.6263 4.76965 20.2749 5.24785 20.7531C5.72607 21.2313 6.37467 21.5 7.05098 21.5H16.051C16.7273 21.5 17.3759 21.2313 17.8541 20.7531C18.3323 20.2749 18.601 19.6263 18.601 18.95V7.09981H19.6502C20.0644 7.09981 20.4002 6.76403 20.4002 6.34981C20.4002 5.9356 20.0644 5.59981 19.6502 5.59981H15.901ZM15.1342 7.09981C15.1397 7.09994 15.1454 7.1 15.151 7.1C15.1566 7.1 15.1622 7.09994 15.1678 7.09981H17.101V18.95C17.101 19.2285 16.9904 19.4955 16.7934 19.6925C16.5965 19.8894 16.3295 20 16.051 20H7.05098C6.7725 20 6.50543 19.8894 6.30851 19.6925C6.1116 19.4955 6.00098 19.2285 6.00098 18.95L6.00024 7.09981H7.93415C7.93974 7.09994 7.94535 7.1 7.95098 7.1C7.9566 7.1 7.96221 7.09994 7.9678 7.09981H15.1342ZM9.75098 10.0996C10.1652 10.0996 10.501 10.4354 10.501 10.8496V16.2496C10.501 16.6638 10.1652 16.9996 9.75098 16.9996C9.33676 16.9996 9.00098 16.6638 9.00098 16.2496V10.8496C9.00098 10.4354 9.33676 10.0996 9.75098 10.0996ZM13.3504 10.0998C13.7646 10.0998 14.1004 10.4356 14.1004 10.8498V16.2498C14.1004 16.664 13.7646 16.9998 13.3504 16.9998C12.9362 16.9998 12.6004 16.664 12.6004 16.2498V10.8498C12.6004 10.4356 12.9362 10.0998 13.3504 10.0998Z" fill="#383641"/>
</svg>
