<svg width="24" height="24" viewBox="0 0 24 24" fill="none" xmlns="http://www.w3.org/2000/svg">
<path fill-rule="evenodd" clip-rule="evenodd" d="M6.5 6C6.5 5.58579 6.83579 5.25 7.25 5.25H21.25C21.6642 5.25 22 5.58579 22 6C22 6.41421 21.6642 6.75 21.25 6.75H7.25C6.83579 6.75 6.5 6.41421 6.5 6ZM2.5 10C2.5 9.58579 2.83579 9.25 3.25 9.25H21.25C21.6642 9.25 22 9.58579 22 10C22 10.4142 21.6642 10.75 21.25 10.75H3.25C2.83579 10.75 2.5 10.4142 2.5 10ZM2.5 14C2.5 13.5858 2.83579 13.25 3.25 13.25H21.25C21.6642 13.25 22 13.5858 22 14C22 14.4142 21.6642 14.75 21.25 14.75H3.25C2.83579 14.75 2.5 14.4142 2.5 14ZM2.5 18C2.5 17.5858 2.83579 17.25 3.25 17.25H21.25C21.6642 17.25 22 17.5858 22 18C22 18.4142 21.6642 18.75 21.25 18.75H3.25C2.83579 18.75 2.5 18.4142 2.5 18Z" fill="#383641"/>
</svg>
