<svg width="24" height="24" viewBox="0 0 24 24" fill="none" xmlns="http://www.w3.org/2000/svg">
<path fill-rule="evenodd" clip-rule="evenodd" d="M12.0002 22.8C17.9649 22.8 22.8002 17.9646 22.8002 12C22.8002 6.03528 17.9649 1.19995 12.0002 1.19995C6.03552 1.19995 1.2002 6.03528 1.2002 12C1.2002 17.9646 6.03552 22.8 12.0002 22.8ZM15.4728 8.42212C15.0531 8.22878 14.5785 8.19022 14.1331 8.31327C13.6877 8.43632 13.3002 8.71304 13.0392 9.09441C12.7586 9.50463 12.1985 9.60965 11.7882 9.32896C11.378 9.04828 11.273 8.48819 11.5537 8.07797C12.0547 7.34577 12.7986 6.8145 13.6538 6.57826C14.509 6.34201 15.4201 6.41604 16.2259 6.78724C17.0317 7.15843 17.6802 7.80283 18.0564 8.6063C18.4325 9.40959 18.5123 10.32 18.2816 11.1765C17.9168 12.5366 16.6841 13.2157 15.8207 13.5444C15.394 13.7069 14.9881 13.8109 14.6776 13.8759L14.5809 14.2368C14.4523 14.717 13.9588 15.0019 13.4787 14.8732C12.9985 14.7446 12.7136 14.2511 12.8423 13.771L13.0887 12.8512C13.1854 12.4903 13.4951 12.2267 13.8668 12.1888L13.8825 12.1869C13.8981 12.185 13.9235 12.1818 13.9575 12.1769C14.0256 12.167 14.1272 12.1507 14.2521 12.1257C14.5044 12.0753 14.839 11.9922 15.1801 11.8623C15.9205 11.5804 16.4148 11.1889 16.5431 10.7099L16.5435 10.7086C16.6637 10.2624 16.6222 9.7881 16.4262 9.3696C16.2303 8.9511 15.8925 8.61546 15.4728 8.42212ZM13.269 15.7193C12.6949 15.5655 12.1048 15.9062 11.951 16.4803C11.7972 17.0543 12.1378 17.6444 12.7119 17.7982C13.286 17.9521 13.8761 17.6114 14.0299 17.0373C14.1837 16.4632 13.843 15.8731 13.269 15.7193ZM8.12663 10.0881C7.88013 10.1109 7.64964 10.2201 7.47596 10.3965C7.30228 10.5729 7.19664 10.805 7.17773 11.0518C7.14482 11.4813 6.76995 11.8029 6.34043 11.77C5.9109 11.7371 5.58938 11.3622 5.62229 10.9327C5.66933 10.3185 5.93222 9.74084 6.36438 9.30195C6.79653 8.86305 7.37008 8.59126 7.98342 8.53472C8.59677 8.47818 9.21033 8.64053 9.71545 8.99302C10.2204 9.34539 10.5844 9.86503 10.743 10.46C11.0028 11.4304 10.4807 12.2712 10.0979 12.7414C9.93865 12.937 9.77477 13.1042 9.63414 13.2356L9.7817 13.8285C9.88574 14.2466 9.6312 14.6698 9.21317 14.7738C8.79514 14.8778 8.37192 14.6233 8.26788 14.2053L8.00321 13.1418C7.92635 12.833 8.04483 12.5085 8.30247 12.3218L8.30852 12.3173C8.31541 12.3121 8.32726 12.3031 8.34327 12.2905C8.37538 12.2652 8.4236 12.226 8.48173 12.1749C8.59972 12.0712 8.74989 11.9262 8.88822 11.7564C9.19888 11.3748 9.29137 11.0698 9.23601 10.8632L9.23571 10.8621C9.172 10.6229 9.02569 10.414 8.82269 10.2723C8.6197 10.1307 8.37312 10.0654 8.12663 10.0881ZM9.53694 15.5483C9.05432 15.6776 8.7679 16.1737 8.89722 16.6563C9.02654 17.139 9.52262 17.4254 10.0052 17.2961C10.4879 17.1667 10.7743 16.6707 10.645 16.188C10.5156 15.7054 10.0196 15.419 9.53694 15.5483Z" fill="#9EBFF7"/>
</svg>
