<svg width="24" height="24" viewBox="0 0 24 24" fill="none" xmlns="http://www.w3.org/2000/svg">
<path fill-rule="evenodd" clip-rule="evenodd" d="M5.22391 18.3761C8.85578 22.008 14.7442 22.008 18.3761 18.3761C22.008 14.7442 22.008 8.85578 18.3761 5.22391C14.7442 1.59203 8.85578 1.59203 5.22391 5.22391C1.59203 8.85578 1.59203 14.7442 5.22391 18.3761ZM4.16325 19.4368C8.38091 23.6544 15.2191 23.6544 19.4368 19.4368C23.6544 15.2191 23.6544 8.38091 19.4368 4.16325C15.2191 -0.0544157 8.38091 -0.0544157 4.16325 4.16325C-0.0544157 8.38091 -0.0544157 15.2191 4.16325 19.4368Z" fill="#5C96F8"/>
<path d="M15.6521 8.50599C15.2323 8.31265 14.7577 8.27409 14.3123 8.39714C13.8669 8.52019 13.4794 8.79691 13.2185 9.17829C12.9378 9.58851 12.3777 9.69352 11.9675 9.41284C11.5572 9.13216 11.4522 8.57207 11.7329 8.16185C12.2339 7.42965 12.9779 6.89838 13.833 6.66213C14.6882 6.42589 15.5993 6.49992 16.4052 6.87111C17.211 7.24231 17.8594 7.8867 18.2356 8.69018C18.6117 9.49347 18.6915 10.4039 18.4608 11.2604C18.096 12.6205 16.8634 13.2995 15.9999 13.6283C15.5732 13.7908 15.1673 13.8948 14.8569 13.9598L14.7602 14.3207C14.6315 14.8008 14.138 15.0858 13.6579 14.9571C13.1778 14.8285 12.8928 14.335 13.0215 13.8548L13.2679 12.9351C13.3646 12.5742 13.6743 12.3106 14.046 12.2727L14.0617 12.2708C14.0773 12.2689 14.1028 12.2657 14.1367 12.2607C14.2049 12.2509 14.3064 12.2346 14.4313 12.2096C14.6837 12.1592 15.0182 12.0761 15.3594 11.9462C16.0997 11.6642 16.594 11.2728 16.7223 10.7938L16.7227 10.7925C16.8429 10.3463 16.8014 9.87197 16.6055 9.45347C16.4095 9.03498 16.0718 8.69933 15.6521 8.50599Z" fill="#5C96F8"/>
<path d="M12.1302 16.5641C12.284 15.9901 12.8741 15.6494 13.4482 15.8032C14.0222 15.957 14.3629 16.5471 14.2091 17.1212C14.0553 17.6952 13.4652 18.0359 12.8911 17.8821C12.3171 17.7283 11.9764 17.1382 12.1302 16.5641Z" fill="#5C96F8"/>
<path d="M7.65517 10.4803C7.82885 10.304 8.05935 10.1947 8.30584 10.172C8.55233 10.1493 8.79891 10.2145 9.00191 10.3562C9.2049 10.4979 9.35121 10.7068 9.41492 10.946L9.41523 10.9471C9.47058 11.1537 9.3781 11.4587 9.06743 11.8402C8.9291 12.0101 8.77893 12.1551 8.66095 12.2588C8.60281 12.3098 8.55459 12.349 8.52248 12.3743C8.50648 12.3869 8.49463 12.396 8.48773 12.4012L8.48169 12.4057C8.22405 12.5923 8.10557 12.9168 8.18243 13.2257L8.4471 14.2892C8.55113 14.7072 8.97435 14.9617 9.39238 14.8577C9.81041 14.7537 10.065 14.3304 9.96092 13.9124L9.81335 13.3195C9.95399 13.188 10.1179 13.0208 10.2771 12.8252C10.6599 12.3551 11.182 11.5143 10.9222 10.5438C10.7636 9.94891 10.3996 9.42927 9.89466 9.0769C9.38955 8.72441 8.77598 8.56206 8.16264 8.6186C7.54929 8.67514 6.97575 8.94693 6.54359 9.38582C6.11143 9.82472 5.84855 10.4024 5.8015 11.0165C5.7686 11.4461 6.09012 11.8209 6.51964 11.8538C6.94917 11.8867 7.32404 11.5652 7.35694 11.1357C7.37585 10.8889 7.4815 10.6567 7.65517 10.4803Z" fill="#5C96F8"/>
<path d="M9.71615 15.6322C9.23352 15.7615 8.94711 16.2576 9.07643 16.7402C9.20575 17.2228 9.70183 17.5093 10.1845 17.3799C10.6671 17.2506 10.9535 16.7545 10.8242 16.2719C10.6949 15.7893 10.1988 15.5029 9.71615 15.6322Z" fill="#5C96F8"/>
</svg>
