<svg width="24" height="24" viewBox="0 0 24 24" fill="none" xmlns="http://www.w3.org/2000/svg">
<path fill-rule="evenodd" clip-rule="evenodd" d="M12.25 2C12.6642 2 13 2.33579 13 2.75V12.9393L16.7197 9.21967C17.0126 8.92678 17.4874 8.92678 17.7803 9.21967C18.0732 9.51256 18.0732 9.98744 17.7803 10.2803L12.7803 15.2803C12.4874 15.5732 12.0126 15.5732 11.7197 15.2803L6.71967 10.2803C6.42678 9.98744 6.42678 9.51256 6.71967 9.21967C7.01256 8.92678 7.48744 8.92678 7.78033 9.21967L11.5 12.9393V2.75C11.5 2.33579 11.8358 2 12.25 2ZM3.25 14C3.66421 14 4 14.3358 4 14.75V18.75C4 19.0815 4.1317 19.3995 4.36612 19.6339C4.60054 19.8683 4.91848 20 5.25 20H19.25C19.5815 20 19.8995 19.8683 20.1339 19.6339C20.3683 19.3995 20.5 19.0815 20.5 18.75V14.75C20.5 14.3358 20.8358 14 21.25 14C21.6642 14 22 14.3358 22 14.75V18.75C22 19.4793 21.7103 20.1788 21.1945 20.6945C20.6788 21.2103 19.9793 21.5 19.25 21.5H5.25C4.52065 21.5 3.82118 21.2103 3.30546 20.6945C2.78973 20.1788 2.5 19.4793 2.5 18.75V14.75C2.5 14.3358 2.83579 14 3.25 14Z" fill="#383641"/>
</svg>
