<svg width="24" height="24" viewBox="0 0 24 24" fill="none" xmlns="http://www.w3.org/2000/svg">
<path fill-rule="evenodd" clip-rule="evenodd" d="M19.0398 3.25C18.7823 3.25 18.5274 3.3007 18.2896 3.39922C18.0518 3.49773 17.8357 3.64212 17.6537 3.82415L4.85851 16.6193L3.81893 20.4311L7.63074 19.3915L20.4259 6.59637C20.6079 6.41434 20.7523 6.19824 20.8508 5.96041C20.9493 5.72259 21 5.46768 21 5.21026C21 4.95283 20.9493 4.69793 20.8508 4.4601C20.7523 4.22227 20.6079 4.00617 20.4259 3.82415C20.2438 3.64212 20.0277 3.49773 19.7899 3.39922C19.5521 3.3007 19.2972 3.25 19.0398 3.25ZM17.7156 2.0134C18.1354 1.8395 18.5854 1.75 19.0398 1.75C19.4942 1.75 19.9441 1.8395 20.3639 2.0134C20.7838 2.18729 21.1652 2.44217 21.4865 2.76349C21.8078 3.0848 22.0627 3.46625 22.2366 3.88607C22.4105 4.30589 22.5 4.75585 22.5 5.21026C22.5 5.66466 22.4105 6.11462 22.2366 6.53444C22.0627 6.95426 21.8078 7.33571 21.4865 7.65703L8.55056 20.593C8.45827 20.6853 8.34349 20.7519 8.21757 20.7862L2.94736 22.2236C2.6877 22.2944 2.41 22.2206 2.21969 22.0303C2.02937 21.84 1.95563 21.5623 2.02644 21.3027L3.46377 16.0325C3.49812 15.9065 3.56473 15.7917 3.65702 15.6995L16.593 2.76349C16.9143 2.44217 17.2958 2.18729 17.7156 2.0134Z" fill="#383641"/>
</svg>
