<svg width="24" height="24" viewBox="0 0 24 24" fill="none" xmlns="http://www.w3.org/2000/svg">
<mask id="mask0_2215_2514" style="mask-type:alpha" maskUnits="userSpaceOnUse" x="1" y="1" width="22" height="22">
<path fill-rule="evenodd" clip-rule="evenodd" d="M19.75 2.5C19.3863 2.5 19.0375 2.64448 18.7803 2.90165L9.42722 12.2548L8.78078 14.8405L11.3666 14.1941L20.7197 4.84099C20.9768 4.58382 21.1213 4.23502 21.1213 3.87132C21.1213 3.50762 20.9768 3.15882 20.7197 2.90165C20.4625 2.64448 20.1137 2.5 19.75 2.5ZM17.7197 1.84099C18.2581 1.30251 18.9885 1 19.75 1C20.5115 1 21.2419 1.30251 21.7803 1.84099C22.3188 2.37947 22.6213 3.1098 22.6213 3.87132C22.6213 4.63284 22.3188 5.36317 21.7803 5.90165L12.2803 15.4017C12.1842 15.4978 12.0638 15.566 11.9319 15.5989L7.9319 16.5989C7.67632 16.6628 7.40596 16.5879 7.21967 16.4017C7.03338 16.2154 6.9585 15.945 7.02239 15.6894L8.02239 11.6894C8.05536 11.5575 8.12355 11.4371 8.21967 11.341L17.7197 1.84099ZM1.80546 3.92655C2.32118 3.41082 3.02065 3.12109 3.75 3.12109H10.75C11.1642 3.12109 11.5 3.45688 11.5 3.87109C11.5 4.28531 11.1642 4.62109 10.75 4.62109H3.75C3.41848 4.62109 3.10054 4.75279 2.86612 4.98721C2.6317 5.22163 2.5 5.53957 2.5 5.87109V19.8711C2.5 20.2026 2.6317 20.5206 2.86612 20.755C3.10054 20.9894 3.41848 21.1211 3.75 21.1211H17.75C18.0815 21.1211 18.3995 20.9894 18.6339 20.755C18.8683 20.5206 19 20.2026 19 19.8711V12.8711C19 12.4569 19.3358 12.1211 19.75 12.1211C20.1642 12.1211 20.5 12.4569 20.5 12.8711V19.8711C20.5 20.6004 20.2103 21.2999 19.6945 21.8156C19.1788 22.3314 18.4793 22.6211 17.75 22.6211H3.75C3.02065 22.6211 2.32118 22.3314 1.80546 21.8156C1.28973 21.2999 1 20.6004 1 19.8711V5.87109C1 5.14175 1.28973 4.44228 1.80546 3.92655Z" fill="#383641"/>
</mask>
<g mask="url(#mask0_2215_2514)">
<rect width="24" height="24" fill="#383641"/>
</g>
</svg>
