<svg width="24" height="24" viewBox="0 0 24 24" fill="none" xmlns="http://www.w3.org/2000/svg">
<path fill-rule="evenodd" clip-rule="evenodd" d="M1.06967 2.43434C1.19257 2.16947 1.45802 2 1.75001 2H21.75C22.042 2 22.3075 2.16947 22.4303 2.43434C22.5532 2.69922 22.5112 3.01134 22.3227 3.23429L14.5 12.4846V20.75C14.5 21.0099 14.3654 21.2513 14.1443 21.388C13.9232 21.5246 13.6471 21.5371 13.4146 21.4208L9.4146 19.4208C9.16051 19.2938 9.00001 19.0341 9.00001 18.75V12.4846L1.17733 3.23429C0.988784 3.01134 0.946778 2.69922 1.06967 2.43434ZM3.36649 3.5L10.3227 11.7257C10.4372 11.8611 10.5 12.0327 10.5 12.21V18.2865L13 19.5365V12.21C13 12.0327 13.0628 11.8611 13.1773 11.7257L20.1335 3.5H3.36649Z" fill="#383641"/>
</svg>
