<svg width="24" height="24" viewBox="0 0 24 24" fill="none" xmlns="http://www.w3.org/2000/svg">
<mask id="mask0_565_4809" style="mask-type:alpha" maskUnits="userSpaceOnUse" x="1" y="3" width="22" height="19">
<path fill-rule="evenodd" clip-rule="evenodd" d="M14.1208 3.45593C14.8472 3.15493 15.6259 3 16.4122 3C17.1985 3 17.9772 3.15493 18.7036 3.45593C19.4301 3.75693 20.0901 4.19812 20.646 4.75427C21.202 5.31011 21.6431 5.97005 21.9441 6.69638C22.2451 7.42283 22.4 8.20146 22.4 8.9878C22.4 9.77414 22.2451 10.5528 21.9441 11.2792C21.6431 12.0056 21.202 12.6656 20.6459 13.2215C20.6458 13.2215 20.6459 13.2214 20.6459 13.2215L12.2301 21.6372C11.9372 21.9301 11.4623 21.9301 11.1694 21.6372L2.75364 13.2215C1.6308 12.0986 1 10.5757 1 8.9878C1 7.39987 1.6308 5.87698 2.75364 4.75415C3.87647 3.63131 5.39936 3.00051 6.98729 3.00051C8.57522 3.00051 10.0981 3.63131 11.2209 4.75415L11.6997 5.23295L12.1784 4.75427C12.7343 4.19812 13.3943 3.75693 14.1208 3.45593ZM16.4122 4.5C15.8229 4.5 15.2394 4.61611 14.695 4.84168C14.1506 5.06726 13.6559 5.39789 13.2393 5.81468L12.2301 6.82394C11.9372 7.11683 11.4623 7.11683 11.1694 6.82394L10.1603 5.81481C9.31875 4.97328 8.17739 4.50051 6.98729 4.50051C5.79719 4.50051 4.65583 4.97328 3.8143 5.81481C2.97277 6.65634 2.5 7.7977 2.5 8.9878C2.5 10.1779 2.97277 11.3193 3.8143 12.1608L11.6997 20.0462L19.5852 12.1608C20.002 11.7442 20.3327 11.2494 20.5583 10.705C20.7839 10.1606 20.9 9.57709 20.9 8.9878C20.9 8.3985 20.7839 7.81498 20.5583 7.27057C20.3327 6.72616 20.0021 6.23153 19.5853 5.81493C19.1687 5.39814 18.6738 5.06726 18.1294 4.84168C17.585 4.61611 17.0015 4.5 16.4122 4.5Z" fill="#383641"/>
</mask>
<g mask="url(#mask0_565_4809)">
<rect width="24" height="24" fill="#383641"/>
</g>
</svg>
