<svg width="24" height="24" viewBox="0 0 24 24" fill="none" xmlns="http://www.w3.org/2000/svg">
<mask id="mask0_610_152" style="mask-type:alpha" maskUnits="userSpaceOnUse" x="1" y="2" width="22" height="20">
<path d="M16.5465 2.80005C15.7775 2.80005 15.016 2.95206 14.3057 3.24734C13.5954 3.54259 12.9501 3.97539 12.4068 4.52064L11.9999 4.92886L11.5928 4.52051C10.4953 3.41953 9.00632 2.80054 7.45316 2.80054C5.90001 2.80054 4.41098 3.41953 3.31352 4.52051C2.21614 5.6214 1.6001 7.11399 1.6001 8.66979C1.6001 10.2256 2.21614 11.7182 3.31352 12.8191L11.4333 20.9648C11.5834 21.1154 11.7872 21.2 11.9999 21.2C12.2125 21.2 12.4163 21.1154 12.5664 20.9648L20.6862 12.8191C21.2297 12.2741 21.6607 11.6271 21.9547 10.9152C22.2488 10.2033 22.4001 9.44028 22.4001 8.66979C22.4001 7.89931 22.2488 7.13632 21.9547 6.42438C21.6607 5.71256 21.2295 5.06537 20.6861 4.52038C20.1428 3.97519 19.4977 3.54257 18.7874 3.24734C18.0771 2.95206 17.3156 2.80005 16.5465 2.80005Z" fill="#EC7D7D"/>
</mask>
<g mask="url(#mask0_610_152)">
<rect width="24" height="24" fill="#EC7D7D"/>
</g>
</svg>
