<svg width="24" height="24" viewBox="0 0 24 24" fill="none" xmlns="http://www.w3.org/2000/svg">
<path fill-rule="evenodd" clip-rule="evenodd" d="M11.75 2.5C9.40279 2.5 7.5 4.40279 7.5 6.75V10.0049H18.75C20.2688 10.0049 21.5 11.2361 21.5 12.7549V19.7549C21.5 21.2737 20.2688 22.5049 18.75 22.5049H4.75C3.23122 22.5049 2 21.2737 2 19.7549V12.7549C2 11.2361 3.23122 10.0049 4.75 10.0049H6V6.75C6 3.57436 8.57436 1 11.75 1C14.9256 1 17.5 3.57436 17.5 6.75C17.5 7.16421 17.1642 7.5 16.75 7.5C16.3358 7.5 16 7.16421 16 6.75C16 4.40279 14.0972 2.5 11.75 2.5ZM4.75 11.5049C4.05964 11.5049 3.5 12.0645 3.5 12.7549V19.7549C3.5 20.4452 4.05964 21.0049 4.75 21.0049H18.75C19.4404 21.0049 20 20.4452 20 19.7549V12.7549C20 12.0645 19.4404 11.5049 18.75 11.5049H4.75Z" fill="#383641"/>
<path fill-rule="evenodd" clip-rule="evenodd" d="M16.75 6.25C17.1642 6.25 17.5 6.58579 17.5 7V10.5C17.5 10.9142 17.1642 11.25 16.75 11.25C16.3358 11.25 16 10.9142 16 10.5V7C16 6.58579 16.3358 6.25 16.75 6.25Z" fill="#383641"/>
</svg>
