<svg width="24" height="24" viewBox="0 0 24 24" fill="none" xmlns="http://www.w3.org/2000/svg">
<mask id="mask0_512_1016" style="mask-type:alpha" maskUnits="userSpaceOnUse" x="2" y="2" width="20" height="20">
<path fill-rule="evenodd" clip-rule="evenodd" d="M5.25 3.5C4.55964 3.5 4 4.05964 4 4.75V18.75C4 19.4404 4.55964 20 5.25 20H9.75C10.1642 20 10.5 20.3358 10.5 20.75C10.5 21.1642 10.1642 21.5 9.75 21.5H5.25C3.73122 21.5 2.5 20.2688 2.5 18.75V4.75C2.5 3.23122 3.73122 2 5.25 2H9.25C9.66421 2 10 2.33579 10 2.75C10 3.16421 9.66421 3.5 9.25 3.5H5.25ZM17.0074 6.4467L21.7803 11.2197C22.0732 11.5126 22.0732 11.9874 21.7803 12.2803L17.0074 17.0533C16.7145 17.3462 16.2396 17.3462 15.9467 17.0533C15.6538 16.7604 15.6538 16.2855 15.9467 15.9926L19.4393 12.5H9.25C8.83579 12.5 8.5 12.1642 8.5 11.75C8.5 11.3358 8.83579 11 9.25 11H19.4393L15.9467 7.50736C15.6538 7.21447 15.6538 6.73959 15.9467 6.4467C16.2396 6.15381 16.7145 6.15381 17.0074 6.4467Z" fill="#383641"/>
</mask>
<g mask="url(#mask0_512_1016)">
<rect width="24" height="24" fill="#383641"/>
</g>
</svg>
