<svg width="24" height="24" viewBox="0 0 24 24" fill="none" xmlns="http://www.w3.org/2000/svg">
<path d="M19.7046 2.70435L21.4152 4.41491C21.8176 4.8174 22.1195 5.42112 22.1195 6.02485C22.1195 6.62858 21.9183 7.23231 21.5158 7.63479L10.9505 19.5081L4.51077 13.0683L16.3841 2.60373C16.8872 2.20124 17.3903 2 18.0947 2C18.6984 2 19.3021 2.30186 19.7046 2.70435Z" fill="#F7C072"/>
<path d="M9.48772 20.2809L3.80558 14.5988C3.80964 14.6057 4.21039 16.9335 3.50118 17.6428C3.09531 18.0486 1.84389 19.3677 1.26891 19.9765C0.575796 20.6696 1.34604 21.6 2.18211 21.6H4.82025C5.46454 21.6 5.90385 21.2266 6.44372 20.6868C7.09311 20.0374 9.48772 20.2809 9.48772 20.2809Z" fill="#F7C072"/>
</svg>
