<svg width="24" height="24" viewBox="0 0 24 24" fill="none" xmlns="http://www.w3.org/2000/svg">
<path fill-rule="evenodd" clip-rule="evenodd" d="M18.2531 3.18825C18.55 2.9256 19 2.93936 19.2804 3.21967L22.2804 6.21967C22.5524 6.49172 22.5745 6.9255 22.3314 7.22376L11.3314 20.7238C11.1974 20.8882 11 20.9883 10.7881 20.999C10.5763 21.0098 10.3697 20.9304 10.2197 20.7803C9.94163 20.5023 9.37583 20.4198 8.45962 20.7039C7.60407 20.9691 6.72612 21.4745 6.18595 21.8603C6.05875 21.9512 5.90634 22 5.75002 22H2.75002C2.44668 22 2.1732 21.8173 2.05711 21.537C1.94103 21.2568 2.00519 20.9342 2.21969 20.7197C4.91918 18.0202 5.11403 15.8943 5.01459 15.3971C4.96221 15.1352 5.05305 14.8652 5.25309 14.6883L18.2531 3.18825ZM10.6932 19.1325L6.84414 15.2835L18.7185 4.77919L20.7407 6.80136L10.6932 19.1325ZM6.35272 16.9134L8.56675 19.1274C8.37476 19.1675 8.18956 19.2172 8.01542 19.2711C7.069 19.5646 6.14741 20.0748 5.5157 20.5H4.43051C5.50768 19.1528 6.08856 17.9141 6.35272 16.9134Z" fill="#383641"/>
</svg>
