<svg width="24" height="24" viewBox="0 0 24 24" fill="none" xmlns="http://www.w3.org/2000/svg">
<mask id="mask0_1020_206" style="mask-type:alpha" maskUnits="userSpaceOnUse" x="2" y="2" width="20" height="20">
<path fill-rule="evenodd" clip-rule="evenodd" d="M2.80546 2.80546C3.32118 2.28973 4.02065 2 4.75 2H7.75C8.16421 2 8.5 2.33579 8.5 2.75C8.5 3.16421 8.16421 3.5 7.75 3.5H4.75C4.41848 3.5 4.10054 3.6317 3.86612 3.86612C3.6317 4.10054 3.5 4.41848 3.5 4.75V7.75C3.5 8.16421 3.16421 8.5 2.75 8.5C2.33579 8.5 2 8.16421 2 7.75V4.75C2 4.02065 2.28973 3.32118 2.80546 2.80546ZM15 2.75C15 2.33579 15.3358 2 15.75 2H18.75C19.4793 2 20.1788 2.28973 20.6945 2.80546C21.2103 3.32118 21.5 4.02065 21.5 4.75V7.75C21.5 8.16421 21.1642 8.5 20.75 8.5C20.3358 8.5 20 8.16421 20 7.75V4.75C20 4.41848 19.8683 4.10054 19.6339 3.86612C19.3995 3.6317 19.0815 3.5 18.75 3.5H15.75C15.3358 3.5 15 3.16421 15 2.75ZM2.75 15C3.16421 15 3.5 15.3358 3.5 15.75V18.75C3.5 19.0815 3.6317 19.3995 3.86612 19.6339C4.10054 19.8683 4.41848 20 4.75 20H7.75C8.16421 20 8.5 20.3358 8.5 20.75C8.5 21.1642 8.16421 21.5 7.75 21.5H4.75C4.02065 21.5 3.32118 21.2103 2.80546 20.6945C2.28973 20.1788 2 19.4793 2 18.75V15.75C2 15.3358 2.33579 15 2.75 15ZM20.75 15C21.1642 15 21.5 15.3358 21.5 15.75V18.75C21.5 19.4793 21.2103 20.1788 20.6945 20.6945C20.1788 21.2103 19.4793 21.5 18.75 21.5H15.75C15.3358 21.5 15 21.1642 15 20.75C15 20.3358 15.3358 20 15.75 20H18.75C19.0815 20 19.3995 19.8683 19.6339 19.6339C19.8683 19.3995 20 19.0815 20 18.75V15.75C20 15.3358 20.3358 15 20.75 15Z" fill="#383641"/>
</mask>
<g mask="url(#mask0_1020_206)">
<rect width="24" height="24" fill="#383641"/>
</g>
</svg>
