<svg width="24" height="24" viewBox="0 0 24 24" fill="none" xmlns="http://www.w3.org/2000/svg">
<path fill-rule="evenodd" clip-rule="evenodd" d="M11.75 4.5C11.6119 4.5 11.5 4.61193 11.5 4.75C11.5 4.88807 11.6119 5 11.75 5C11.8881 5 12 4.88807 12 4.75C12 4.61193 11.8881 4.5 11.75 4.5ZM10 4.75C10 3.7835 10.7835 3 11.75 3C12.7165 3 13.5 3.7835 13.5 4.75C13.5 5.7165 12.7165 6.5 11.75 6.5C10.7835 6.5 10 5.7165 10 4.75ZM11.75 11.5C11.6119 11.5 11.5 11.6119 11.5 11.75C11.5 11.8881 11.6119 12 11.75 12C11.8881 12 12 11.8881 12 11.75C12 11.6119 11.8881 11.5 11.75 11.5ZM10 11.75C10 10.7835 10.7835 10 11.75 10C12.7165 10 13.5 10.7835 13.5 11.75C13.5 12.7165 12.7165 13.5 11.75 13.5C10.7835 13.5 10 12.7165 10 11.75ZM11.75 18.5C11.6119 18.5 11.5 18.6119 11.5 18.75C11.5 18.8881 11.6119 19 11.75 19C11.8881 19 12 18.8881 12 18.75C12 18.6119 11.8881 18.5 11.75 18.5ZM10 18.75C10 17.7835 10.7835 17 11.75 17C12.7165 17 13.5 17.7835 13.5 18.75C13.5 19.7165 12.7165 20.5 11.75 20.5C10.7835 20.5 10 19.7165 10 18.75Z" fill="#383641"/>
</svg>
