<svg width="24" height="24" viewBox="0 0 24 24" fill="none" xmlns="http://www.w3.org/2000/svg">
<path fill-rule="evenodd" clip-rule="evenodd" d="M2.5 5.75C2.5 5.33579 2.83579 5 3.25 5H21.25C21.6642 5 22 5.33579 22 5.75C22 6.16421 21.6642 6.5 21.25 6.5H3.25C2.83579 6.5 2.5 6.16421 2.5 5.75ZM2.5 11.75C2.5 11.3358 2.83579 11 3.25 11H21.25C21.6642 11 22 11.3358 22 11.75C22 12.1642 21.6642 12.5 21.25 12.5H3.25C2.83579 12.5 2.5 12.1642 2.5 11.75ZM2.5 17.75C2.5 17.3358 2.83579 17 3.25 17H21.25C21.6642 17 22 17.3358 22 17.75C22 18.1642 21.6642 18.5 21.25 18.5H3.25C2.83579 18.5 2.5 18.1642 2.5 17.75Z" fill="#383641"/>
</svg>
