<svg width="24" height="24" viewBox="0 0 24 24" fill="none" xmlns="http://www.w3.org/2000/svg">
<mask id="mask0_512_1005" style="mask-type:alpha" maskUnits="userSpaceOnUse" x="3" y="10" width="18" height="4">
<path fill-rule="evenodd" clip-rule="evenodd" d="M4.75 11.5C4.61193 11.5 4.5 11.6119 4.5 11.75C4.5 11.8881 4.61193 12 4.75 12C4.88807 12 5 11.8881 5 11.75C5 11.6119 4.88807 11.5 4.75 11.5ZM3 11.75C3 10.7835 3.7835 10 4.75 10C5.7165 10 6.5 10.7835 6.5 11.75C6.5 12.7165 5.7165 13.5 4.75 13.5C3.7835 13.5 3 12.7165 3 11.75ZM11.75 11.5C11.6119 11.5 11.5 11.6119 11.5 11.75C11.5 11.8881 11.6119 12 11.75 12C11.8881 12 12 11.8881 12 11.75C12 11.6119 11.8881 11.5 11.75 11.5ZM10 11.75C10 10.7835 10.7835 10 11.75 10C12.7165 10 13.5 10.7835 13.5 11.75C13.5 12.7165 12.7165 13.5 11.75 13.5C10.7835 13.5 10 12.7165 10 11.75ZM18.75 11.5C18.6119 11.5 18.5 11.6119 18.5 11.75C18.5 11.8881 18.6119 12 18.75 12C18.8881 12 19 11.8881 19 11.75C19 11.6119 18.8881 11.5 18.75 11.5ZM17 11.75C17 10.7835 17.7835 10 18.75 10C19.7165 10 20.5 10.7835 20.5 11.75C20.5 12.7165 19.7165 13.5 18.75 13.5C17.7835 13.5 17 12.7165 17 11.75Z" fill="#383641"/>
</mask>
<g mask="url(#mask0_512_1005)">
<rect width="24" height="24" fill="#383641"/>
</g>
</svg>
