<svg width="24" height="24" viewBox="0 0 24 24" fill="none" xmlns="http://www.w3.org/2000/svg">
<path fill-rule="evenodd" clip-rule="evenodd" d="M11.75 2.5C6.64137 2.5 2.5 6.64137 2.5 11.75C2.5 16.8586 6.64137 21 11.75 21C16.8586 21 21 16.8586 21 11.75C21 6.64137 16.8586 2.5 11.75 2.5ZM1 11.75C1 5.81294 5.81294 1 11.75 1C17.6871 1 22.5 5.81294 22.5 11.75C22.5 17.6871 17.6871 22.5 11.75 22.5C5.81294 22.5 1 17.6871 1 11.75ZM9.39611 7.08874C9.63997 6.95823 9.93588 6.97253 10.166 7.12596L16.166 11.126C16.3747 11.2651 16.5 11.4992 16.5 11.75C16.5 12.0008 16.3747 12.2349 16.166 12.374L10.166 16.374C9.93588 16.5275 9.63997 16.5418 9.39611 16.4113C9.15224 16.2807 9 16.0266 9 15.75V7.75C9 7.4734 9.15224 7.21926 9.39611 7.08874ZM10.5 9.15139V14.3486L14.3979 11.75L10.5 9.15139Z" fill="#383641"/>
</svg>
