<svg width="24" height="24" viewBox="0 0 24 24" fill="none" xmlns="http://www.w3.org/2000/svg">
<mask id="mask0_4738_125" style="mask-type:alpha" maskUnits="userSpaceOnUse" x="3" y="1" width="18" height="22">
<path fill-rule="evenodd" clip-rule="evenodd" d="M15.4356 1.50613C15.7083 1.1944 16.1822 1.16282 16.4939 1.43558L20.3601 4.81851C20.5925 4.94593 20.75 5.19285 20.75 5.47657C20.75 5.4805 20.75 5.48443 20.7499 5.48835C20.75 5.49223 20.75 5.49612 20.75 5.50001C20.75 5.71628 20.6566 5.92203 20.4939 6.06444L16.4939 9.56444C16.1822 9.8372 15.7083 9.80562 15.4356 9.49389C15.1628 9.18216 15.1944 8.70834 15.5061 8.43558L18.0307 6.22657H7.55556C6.84189 6.22657 6.13678 6.54475 5.60195 7.14642C5.06458 7.75097 4.75 8.58797 4.75 9.47657V11.4766C4.75 11.8908 4.41421 12.2266 4 12.2266C3.58579 12.2266 3.25 11.8908 3.25 11.4766V9.47657C3.25 8.24345 3.68463 7.04561 4.48084 6.14987C5.27961 5.25126 6.38323 4.72657 7.55556 4.72657H17.9771L15.5061 2.56444C15.1944 2.29168 15.1628 1.81786 15.4356 1.50613ZM20 11.25C20.4142 11.25 20.75 11.5858 20.75 12V14C20.75 15.2331 20.3154 16.431 19.5192 17.3267C18.7204 18.2253 17.6168 18.75 16.4444 18.75H5.81066L8.53033 21.4697C8.82322 21.7626 8.82322 22.2374 8.53033 22.5303C8.23744 22.8232 7.76256 22.8232 7.46967 22.5303L3.46967 18.5303C3.17678 18.2374 3.17678 17.7626 3.46967 17.4697L7.46967 13.4697C7.76256 13.1768 8.23744 13.1768 8.53033 13.4697C8.82322 13.7626 8.82322 14.2374 8.53033 14.5303L5.81066 17.25H16.4444C17.1581 17.25 17.8632 16.9318 18.398 16.3302C18.9354 15.7256 19.25 14.8886 19.25 14V12C19.25 11.5858 19.5858 11.25 20 11.25Z" fill="#383641"/>
</mask>
<g mask="url(#mask0_4738_125)">
<rect width="24" height="24" fill="#383641"/>
</g>
</svg>
