<svg width="24" height="24" viewBox="0 0 24 24" fill="none" xmlns="http://www.w3.org/2000/svg">
<mask id="mask0_1016_200" style="mask-type:alpha" maskUnits="userSpaceOnUse" x="2" y="2" width="20" height="20">
<path fill-rule="evenodd" clip-rule="evenodd" d="M5.25 3.5C4.91848 3.5 4.60054 3.6317 4.36612 3.86612C4.1317 4.10054 4 4.41848 4 4.75V18.75C4 19.0815 4.1317 19.3995 4.36612 19.6339C4.60054 19.8683 4.91848 20 5.25 20H6.5V12.75C6.5 12.3358 6.83579 12 7.25 12H17.25C17.6642 12 18 12.3358 18 12.75V20H19.25C19.5815 20 19.8995 19.8683 20.1339 19.6339C20.3683 19.3995 20.5 19.0815 20.5 18.75V8.06066L15.9393 3.5H8V7H15.25C15.6642 7 16 7.33579 16 7.75C16 8.16421 15.6642 8.5 15.25 8.5H7.25C6.83579 8.5 6.5 8.16421 6.5 7.75V3.5H5.25ZM5.25 2C4.52065 2 3.82118 2.28973 3.30546 2.80546C2.78973 3.32118 2.5 4.02065 2.5 4.75V18.75C2.5 19.4793 2.78973 20.1788 3.30546 20.6945C3.82118 21.2103 4.52065 21.5 5.25 21.5H19.25C19.9793 21.5 20.6788 21.2103 21.1945 20.6945C21.7103 20.1788 22 19.4793 22 18.75V7.75C22 7.55109 21.921 7.36032 21.7803 7.21967L16.7803 2.21967C16.6397 2.07902 16.4489 2 16.25 2H5.25ZM16.5 20V13.5H8V20H16.5Z" fill="#383641"/>
</mask>
<g mask="url(#mask0_1016_200)">
<rect width="24" height="24" fill="#383641"/>
</g>
</svg>
