<svg width="24" height="24" viewBox="0 0 24 24" fill="none" xmlns="http://www.w3.org/2000/svg">
<path fill-rule="evenodd" clip-rule="evenodd" d="M10.861 4.5C7.3479 4.5 4.5 7.3479 4.5 10.861C4.5 14.374 7.3479 17.2219 10.861 17.2219C12.5779 17.2219 14.1359 16.5417 15.2803 15.436C15.302 15.4069 15.326 15.3789 15.3525 15.3525C15.3789 15.326 15.4069 15.302 15.436 15.2803C16.5417 14.1359 17.2219 12.5779 17.2219 10.861C17.2219 7.3479 14.374 4.5 10.861 4.5ZM16.9246 15.864C18.0474 14.5047 18.7219 12.7616 18.7219 10.861C18.7219 6.51947 15.2024 3 10.861 3C6.51947 3 3 6.51947 3 10.861C3 15.2024 6.51947 18.7219 10.861 18.7219C12.7616 18.7219 14.5047 18.0474 15.864 16.9246L19.2191 20.2797C19.512 20.5726 19.9868 20.5726 20.2797 20.2797C20.5726 19.9868 20.5726 19.512 20.2797 19.2191L16.9246 15.864Z" fill="#383641"/>
</svg>
