<svg width="24" height="24" viewBox="0 0 24 24" fill="none" xmlns="http://www.w3.org/2000/svg">
<path fill-rule="evenodd" clip-rule="evenodd" d="M2.21967 2.21967C2.51256 1.92678 2.98744 1.92678 3.28033 2.21967L7.48896 6.4283C7.49394 6.43314 7.49886 6.43806 7.50372 6.44306L17.3889 16.3282C17.3939 16.3331 17.3989 16.3381 17.4038 16.3432L21.6137 20.553C21.9066 20.8459 21.9066 21.3208 21.6137 21.6137C21.3208 21.9066 20.8459 21.9066 20.553 21.6137L16.783 17.8436C15.3419 18.7861 13.6596 19.305 11.9289 19.3333L11.9167 19.3335V19.3334C8.70037 19.3334 6.22419 17.4969 4.59868 15.763C3.77908 14.8887 3.15311 14.0174 2.73195 13.3652C2.5209 13.0385 2.36006 12.7648 2.25094 12.5708C2.19635 12.4738 2.15462 12.3965 2.12595 12.3423C2.11161 12.3152 2.10053 12.2939 2.09273 12.2787L2.08349 12.2606L2.08072 12.2552L2.07979 12.2533L2.07945 12.2526C2.07931 12.2524 2.07918 12.2521 2.75 11.9167L2.07918 12.2521C1.9702 12.0341 1.97391 11.7768 2.08913 11.5621C3.04141 9.78742 4.31647 8.20913 5.84634 6.907L2.21967 3.28033C1.92678 2.98744 1.92678 2.51256 2.21967 2.21967ZM6.91078 7.97144C5.58491 9.0812 4.46578 10.4178 3.60599 11.9194C3.69997 12.0832 3.82899 12.299 3.99201 12.5515C4.37814 13.1493 4.95008 13.9446 5.69299 14.7371C7.1913 16.3353 9.29635 17.831 11.9105 17.8334C13.2493 17.8104 14.5533 17.4363 15.6947 16.7553L13.6363 14.697C13.4905 14.7925 13.337 14.8764 13.177 14.9477C12.7784 15.1253 12.348 15.2208 11.9116 15.2285C11.4753 15.2362 11.0418 15.156 10.6371 14.9925C10.2324 14.8291 9.86483 14.5858 9.55621 14.2771C9.2476 13.9685 9.0043 13.6009 8.84084 13.1962C8.67739 12.7916 8.59711 12.3581 8.60481 11.9217C8.61251 11.4853 8.70803 11.055 8.88566 10.6563C8.95693 10.4964 9.04084 10.3428 9.1364 10.1971L6.91078 7.97144ZM10.2408 11.3015C10.1548 11.5063 10.1085 11.7258 10.1046 11.9482C10.1004 12.1831 10.1437 12.4166 10.2317 12.6345C10.3197 12.8524 10.4507 13.0503 10.6169 13.2165C10.783 13.3827 10.981 13.5137 11.1989 13.6017C11.4168 13.6897 11.6502 13.7329 11.8852 13.7288C12.1076 13.7249 12.327 13.6786 12.5319 13.5925L10.2408 11.3015ZM11.9149 6.00002C11.3839 5.99877 10.8546 6.05926 10.3376 6.18028C9.93429 6.27469 9.53081 6.02427 9.43641 5.62096C9.342 5.21764 9.59242 4.81416 9.99573 4.71976C10.6257 4.57231 11.2706 4.49857 11.9176 4.50002C11.9179 4.50002 11.9181 4.50002 11.9184 4.50002L11.9167 5.25002V4.50002C11.917 4.50002 11.9173 4.50002 11.9176 4.50002C15.1334 4.50036 17.6093 6.33668 19.2347 8.0704C20.0543 8.94463 20.6802 9.816 21.1014 10.4681C21.3124 10.7949 21.4733 11.0685 21.5824 11.2625C21.637 11.3596 21.6787 11.4368 21.7074 11.491C21.7217 11.5181 21.7328 11.5395 21.7406 11.5546L21.7498 11.5727L21.7526 11.5782L21.7535 11.5801L21.7539 11.5807C21.754 11.581 21.7542 11.5813 21.0833 11.9167L20.4219 11.5631C20.3588 11.6812 20.294 11.7984 20.2277 11.9147C20.1337 11.7508 20.0046 11.5347 19.8413 11.2819C19.4552 10.684 18.8833 9.88874 18.1404 9.09631C16.6409 7.49686 14.5337 6.00002 11.9167 6.00002L11.9149 6.00002ZM20.2277 11.9147C19.7886 12.6847 19.2805 13.4135 18.7095 14.0921C18.4428 14.4091 18.4835 14.8822 18.8005 15.1489C19.1174 15.4156 19.5905 15.3748 19.8572 15.0579C20.5817 14.1969 21.2143 13.2626 21.7448 12.2702C21.8595 12.0557 21.8629 11.7989 21.7542 11.5813L21.0833 11.9167C20.4125 12.2521 20.4126 12.2523 20.4127 12.2525L20.4119 12.251L20.4066 12.2405C20.4014 12.2304 20.3931 12.2143 20.3816 12.1926C20.3586 12.1491 20.323 12.0832 20.275 11.9979C20.2604 11.9719 20.2446 11.9442 20.2277 11.9147Z" fill="#383641"/>
</svg>
