<svg width="24" height="24" viewBox="0 0 24 24" fill="none" xmlns="http://www.w3.org/2000/svg">
<path fill-rule="evenodd" clip-rule="evenodd" d="M2.6036 12.0227C2.70812 12.2063 2.8566 12.4564 3.04764 12.7522C3.47047 13.4069 4.09686 14.2779 4.91079 15.1461C6.55232 16.8971 8.86781 18.5455 11.75 18.5455C14.6322 18.5455 16.9477 16.8971 18.5892 15.1461C19.4031 14.2779 20.0295 13.4069 20.4524 12.7522C20.6434 12.4564 20.7919 12.2063 20.8964 12.0227C20.7919 11.8391 20.6434 11.5891 20.4524 11.2933C20.0295 10.6386 19.4031 9.76751 18.5892 8.89932C16.9477 7.14835 14.6322 5.5 11.75 5.5C8.86781 5.5 6.55232 7.14835 4.91079 8.89932C4.09686 9.76751 3.47047 10.6386 3.04764 11.2933C2.8566 11.5891 2.70812 11.8391 2.6036 12.0227ZM21.75 12.0227C22.4208 11.6873 22.4207 11.6871 22.4205 11.6868L22.4192 11.6841L22.4163 11.6783L22.4064 11.6589C22.398 11.6426 22.386 11.6196 22.3705 11.5903C22.3395 11.5316 22.2943 11.4479 22.235 11.3425C22.1166 11.132 21.9418 10.8347 21.7124 10.4795C21.2546 9.77053 20.5741 8.8234 19.6835 7.87341C17.916 5.98801 15.2314 4 11.75 4C8.26855 4 5.58404 5.98801 3.81648 7.87341C2.92586 8.8234 2.24544 9.77053 1.78758 10.4795C1.55819 10.8347 1.38344 11.132 1.265 11.3425C1.20575 11.4479 1.16051 11.5316 1.12948 11.5903C1.11397 11.6196 1.102 11.6426 1.09361 11.6589L1.08371 11.6783L1.08077 11.6841L1.07981 11.6861C1.07966 11.6864 1.07918 11.6873 1.75 12.0227L1.07918 11.6873C0.973607 11.8985 0.973607 12.147 1.07918 12.3581L1.75 12.0227C1.07918 12.3581 1.07904 12.3579 1.07918 12.3581L1.08077 12.3613L1.08371 12.3671L1.09361 12.3865C1.102 12.4028 1.11397 12.4259 1.12948 12.4552C1.16051 12.5138 1.20575 12.5976 1.265 12.7029C1.38344 12.9135 1.55819 13.2108 1.78758 13.566C2.24544 14.2749 2.92586 15.2221 3.81648 16.172C5.58404 18.0574 8.26855 20.0455 11.75 20.0455C15.2314 20.0455 17.916 18.0574 19.6835 16.172C20.5741 15.2221 21.2546 14.2749 21.7124 13.566C21.9418 13.2108 22.1166 12.9135 22.235 12.7029C22.2943 12.5976 22.3395 12.5138 22.3705 12.4552C22.386 12.4259 22.398 12.4028 22.4064 12.3865L22.4163 12.3671L22.4192 12.3613L22.4202 12.3594C22.4203 12.3591 22.4208 12.3581 21.75 12.0227ZM21.75 12.0227L22.4208 12.3581C22.5264 12.147 22.5261 11.8979 22.4205 11.6868L21.75 12.0227ZM11.7507 10.0449C10.6587 10.0449 9.77344 10.9302 9.77344 12.0222C9.77344 13.1142 10.6587 13.9995 11.7507 13.9995C12.8427 13.9995 13.728 13.1142 13.728 12.0222C13.728 10.9302 12.8427 10.0449 11.7507 10.0449ZM8.27344 12.0222C8.27344 10.1017 9.83027 8.54492 11.7507 8.54492C13.6712 8.54492 15.228 10.1017 15.228 12.0222C15.228 13.9426 13.6712 15.4995 11.7507 15.4995C9.83027 15.4995 8.27344 13.9426 8.27344 12.0222Z" fill="#383641"/>
</svg>
