<svg width="24" height="24" viewBox="0 0 24 24" fill="none" xmlns="http://www.w3.org/2000/svg">
<mask id="mask0_512_1011" style="mask-type:alpha" maskUnits="userSpaceOnUse" x="2" y="2" width="20" height="20">
<path fill-rule="evenodd" clip-rule="evenodd" d="M10.75 3.5C6.74594 3.5 3.5 6.74594 3.5 10.75C3.5 14.7541 6.74594 18 10.75 18C12.7118 18 14.4916 17.2208 15.7968 15.955C15.8188 15.9253 15.8432 15.8969 15.8701 15.8701C15.8969 15.8432 15.9253 15.8188 15.955 15.7968C17.2208 14.4916 18 12.7118 18 10.75C18 6.74594 14.7541 3.5 10.75 3.5ZM17.4449 16.3842C18.7273 14.862 19.5 12.8962 19.5 10.75C19.5 5.91751 15.5825 2 10.75 2C5.91751 2 2 5.91751 2 10.75C2 15.5825 5.91751 19.5 10.75 19.5C12.8962 19.5 14.862 18.7273 16.3842 17.4449L20.2201 21.2807C20.513 21.5736 20.9878 21.5736 21.2807 21.2807C21.5736 20.9878 21.5736 20.513 21.2807 20.2201L17.4449 16.3842ZM7 10.75C7 10.3358 7.33579 10 7.75 10H13.75C14.1642 10 14.5 10.3358 14.5 10.75C14.5 11.1642 14.1642 11.5 13.75 11.5H7.75C7.33579 11.5 7 11.1642 7 10.75Z" fill="#383641"/>
</mask>
<g mask="url(#mask0_512_1011)">
<rect width="24" height="24" fill="#383641"/>
</g>
</svg>
