<svg width="24" height="24" viewBox="0 0 24 24" fill="none" xmlns="http://www.w3.org/2000/svg">
<mask id="mask0_1_41" style="mask-type:alpha" maskUnits="userSpaceOnUse" x="0" y="3" width="24" height="19">
<path fill-rule="evenodd" clip-rule="evenodd" d="M14.1208 3.45593C14.8472 3.15493 15.6259 3 16.4122 3C17.1985 3 17.9772 3.15493 18.7036 3.45593C19.4301 3.75693 20.0901 4.19812 20.646 4.75427C21.202 5.31011 21.6431 5.97005 21.9441 6.69638C22.2451 7.42283 22.4 8.20146 22.4 8.9878C22.4 9.77414 22.2451 10.5528 21.9441 11.2792C21.8676 11.4637 21.7821 11.644 21.688 11.8193H22.75C23.1642 11.8193 23.5 12.1551 23.5 12.5693C23.5 12.9835 23.1642 13.3193 22.75 13.3193H20.548L12.2301 21.6372C11.9372 21.9301 11.4623 21.9301 11.1694 21.6372L2.85152 13.3193H0.75C0.335786 13.3193 0 12.9835 0 12.5693C0 12.1551 0.335786 11.8193 0.75 11.8193H1.71186C1.24874 10.9564 1 9.98494 1 8.9878C1 7.39987 1.6308 5.87698 2.75364 4.75415C3.87647 3.63131 5.39936 3.00051 6.98729 3.00051C8.57522 3.00051 10.0981 3.63131 11.2209 4.75415L11.6997 5.23295L12.1784 4.75427C12.7343 4.19812 13.3943 3.75693 14.1208 3.45593ZM4.97284 13.3193L11.6997 20.0462L18.4267 13.3193H17.75C17.45 13.3193 17.1788 13.1405 17.0606 12.8648L16.3916 11.3037L15.9711 12.7754C15.8791 13.0974 15.5849 13.3193 15.25 13.3193H12.625L11.35 15.0193C11.1911 15.2312 10.9322 15.3436 10.6688 15.3149C10.4055 15.2863 10.1768 15.1208 10.0672 14.8797L8.27018 10.9262L7.43936 12.8648C7.32117 13.1405 7.05002 13.3193 6.75 13.3193H4.97284ZM19.8935 11.8193C20.1674 11.4827 20.3916 11.1075 20.5583 10.705C20.7839 10.1606 20.9 9.57709 20.9 8.9878C20.9 8.3985 20.7839 7.81498 20.5583 7.27057C20.3327 6.72616 20.0021 6.23153 19.5853 5.81493C19.1687 5.39814 18.6738 5.06726 18.1294 4.84168C17.585 4.61611 17.0015 4.5 16.4122 4.5C15.8229 4.5 15.2394 4.61611 14.695 4.84168C14.1506 5.06726 13.6559 5.39789 13.2393 5.81468L12.2301 6.82394C11.9372 7.11683 11.4623 7.11683 11.1694 6.82394L10.1603 5.81481C9.31875 4.97328 8.17739 4.50051 6.98729 4.50051C5.79719 4.50051 4.65583 4.97328 3.8143 5.81481C2.97277 6.65634 2.5 7.7977 2.5 8.9878C2.5 10.0238 2.85825 11.0228 3.50615 11.8193H6.25545L7.56064 8.7739C7.67766 8.50085 7.94481 8.32261 8.24185 8.31938C8.53889 8.31615 8.80985 8.48855 8.93277 8.75898L10.9092 13.1071L11.65 12.1193C11.7916 11.9305 12.0139 11.8193 12.25 11.8193H14.6843L15.5289 8.8633C15.616 8.55815 15.8858 8.34091 16.2026 8.32084C16.5193 8.30076 16.8143 8.4822 16.9394 8.7739L18.2445 11.8193H19.8935Z" fill="#383641"/>
</mask>
<g mask="url(#mask0_1_41)">
<rect width="24" height="24" fill="#383641"/>
</g>
</svg>
