<svg width="24" height="24" viewBox="0 0 24 24" fill="none" xmlns="http://www.w3.org/2000/svg">
<g clip-path="url(#clip0_1_41)">
<mask id="mask0_1_41" style="mask-type:alpha" maskUnits="userSpaceOnUse" x="0" y="1" width="24" height="22">
<path d="M24 13.2201C23.9982 13.0734 23.9483 12.9313 23.858 12.8157C23.7677 12.7001 23.6419 12.6173 23.5 12.5801H22.18C23.1068 11.2382 23.5671 9.62906 23.49 8.00008C23.4591 6.40047 22.8227 4.8721 21.7092 3.72331C20.5956 2.57451 19.0878 1.89079 17.49 1.81008C16.3808 1.79978 15.2896 2.09115 14.3332 2.65303C13.3767 3.21491 12.591 4.02618 12.06 5.00008C11.5296 4.03148 10.7462 3.22503 9.79346 2.66674C8.84068 2.10846 7.75422 1.81929 6.64998 1.83008C5.05195 1.90561 3.54203 2.58437 2.4248 3.72944C1.30756 4.87451 0.666163 6.40068 0.629977 8.00008C0.563899 9.61218 1.02367 11.2021 1.93998 12.5301H0.619977C0.457651 12.55 0.308225 12.6286 0.199861 12.7511C0.0914963 12.8736 0.0316772 13.0315 0.0316772 13.1951C0.0316772 13.3586 0.0914963 13.5165 0.199861 13.639C0.308225 13.7615 0.457651 13.8401 0.619977 13.8601H2.99998C4.74998 15.9401 6.99998 17.6601 12.11 22.1201C17.11 17.8101 19.46 15.9501 21.22 13.8601H23.55C23.681 13.8115 23.7941 13.7243 23.8745 13.61C23.9548 13.4957 23.9986 13.3598 24 13.2201ZM12.06 20.3701C9.05998 17.7601 6.51998 15.7501 4.74998 13.8901H7.14998L8.14998 11.5101L10.68 16.5101L12.46 13.8401H15.23L16.12 11.6301L17 13.8901H19.4C17.6 15.7501 15.06 17.7701 12.06 20.3701ZM20.53 12.5501H17.87L16.08 8.07008L14.29 12.5501H11.7L10.8 13.9001L7.99998 8.24008L6.24998 12.5501H3.57998C2.51852 11.3107 1.95541 9.72123 1.99998 8.09008C2.01717 6.83471 2.506 5.63175 3.36936 4.72022C4.23271 3.8087 5.40739 3.25533 6.65998 3.17008C7.7177 3.20028 8.73972 3.55937 9.58387 4.19741C10.428 4.83546 11.0523 5.72072 11.37 6.73008L12 8.73008L12.65 6.73008C12.969 5.712 13.6006 4.82022 14.455 4.18123C15.3093 3.54223 16.3432 3.18846 17.41 3.17008C18.6679 3.24809 19.85 3.79829 20.7196 4.71056C21.5892 5.62283 22.0822 6.82986 22.1 8.09008C22.1502 9.72037 21.5904 11.3107 20.53 12.5501Z" fill="#383641"/>
</mask>
<g mask="url(#mask0_1_41)">
<rect width="24" height="24" fill="#383641"/>
</g>
</g>
<defs>
<clipPath id="clip0_1_41">
<rect width="24" height="24" fill="white"/>
</clipPath>
</defs>
</svg>
