<svg width="24" height="24" viewBox="0 0 24 24" fill="none" xmlns="http://www.w3.org/2000/svg">
<mask id="mask0_1_6" style="mask-type:alpha" maskUnits="userSpaceOnUse" x="1" y="1" width="22" height="23">
<path d="M15.41 11.42H5.64001C5.50741 11.42 5.38023 11.3673 5.28646 11.2736C5.19269 11.1798 5.14001 11.0526 5.14001 10.92C5.14001 10.7874 5.19269 10.6602 5.28646 10.5664C5.38023 10.4727 5.50741 10.42 5.64001 10.42H15.41C15.5426 10.42 15.6698 10.4727 15.7636 10.5664C15.8573 10.6602 15.91 10.7874 15.91 10.92C15.91 11.0526 15.8573 11.1798 15.7636 11.2736C15.6698 11.3673 15.5426 11.42 15.41 11.42Z" fill="#383641"/>
<path d="M5.64001 13.91H15.41C15.5426 13.91 15.6698 13.9627 15.7636 14.0564C15.8573 14.1502 15.91 14.2774 15.91 14.41C15.91 14.5426 15.8573 14.6698 15.7636 14.7636C15.6698 14.8573 15.5426 14.91 15.41 14.91H5.64001C5.50741 14.91 5.38023 14.8573 5.28646 14.7636C5.19269 14.6698 5.14001 14.5426 5.14001 14.41C5.14001 14.2774 5.19269 14.1502 5.28646 14.0564C5.38023 13.9627 5.50741 13.91 5.64001 13.91Z" fill="#383641"/>
<path d="M5.64001 17.4H15.41C15.5426 17.4 15.6698 17.4527 15.7636 17.5464C15.8573 17.6402 15.91 17.7674 15.91 17.9C15.91 18.0326 15.8573 18.1598 15.7636 18.2536C15.6698 18.3473 15.5426 18.4 15.41 18.4H5.64001C5.50741 18.4 5.38023 18.3473 5.28646 18.2536C5.19269 18.1598 5.14001 18.0326 5.14001 17.9C5.14001 17.7674 5.19269 17.6402 5.28646 17.5464C5.38023 17.4527 5.50741 17.4 5.64001 17.4Z" fill="#383641"/>
<path fill-rule="evenodd" clip-rule="evenodd" d="M5.00001 1H18.74C19.8665 1.00524 20.9455 1.45437 21.743 2.24998C22.5405 3.0456 22.9921 4.12354 23 5.25V7C22.9865 7.17039 22.9119 7.33017 22.79 7.45C22.7259 7.51792 22.6483 7.57168 22.5622 7.60785C22.4761 7.64401 22.3834 7.66178 22.29 7.66H19.55V20.02C19.55 20.8156 19.2339 21.5787 18.6713 22.1413C18.1087 22.7039 17.3457 23.02 16.55 23.02H4.72001C4.22503 23.0189 3.73064 22.9855 3.24001 22.92L3.09001 22.87C2.34656 22.6303 1.72591 22.1101 1.36001 21.42C1.12212 20.9846 0.998274 20.4961 1.00001 20V5.37C0.993742 4.27169 1.40223 3.21147 2.14381 2.40129C2.88539 1.59111 3.90543 1.09067 5.00001 1ZM3.95001 21.62H16.55C16.9771 21.6148 17.3851 21.4421 17.6862 21.1391C17.9873 20.8362 18.1574 20.4271 18.16 20V7.7H8.83001C8.73725 7.70132 8.64515 7.6842 8.55906 7.64961C8.47297 7.61503 8.39462 7.56368 8.32856 7.49854C8.2625 7.43341 8.21004 7.35579 8.17423 7.27021C8.13843 7.18462 8.12 7.09277 8.12001 7V5.25C8.12266 4.8719 8.0503 4.49702 7.90713 4.14706C7.76396 3.7971 7.55282 3.47901 7.28592 3.21118C7.01902 2.94335 6.70166 2.7311 6.3522 2.58671C6.00274 2.44233 5.62812 2.36867 5.25001 2.37H5.07001C4.32571 2.43586 3.63441 2.78265 3.1366 3.33989C2.6388 3.89713 2.37185 4.62301 2.39001 5.37V20C2.3872 20.4202 2.54878 20.8249 2.84026 21.1275C3.13173 21.4302 3.53 21.607 3.95001 21.62ZM9.53001 6.25H21.61V5.25C21.6074 4.48964 21.3042 3.76117 20.7665 3.22352C20.2288 2.68586 19.5004 2.38264 18.74 2.38H8.44001L8.60001 2.59C9.20138 3.34627 9.52915 4.28378 9.53001 5.25V6.25Z" fill="#383641"/>
</mask>
<g mask="url(#mask0_1_6)">
<rect width="24" height="24" fill="#383641"/>
</g>
</svg>
