<svg width="24" height="24" viewBox="0 0 24 24" fill="none" xmlns="http://www.w3.org/2000/svg">
<mask id="mask0_1_6" style="mask-type:alpha" maskUnits="userSpaceOnUse" x="1" y="1" width="23" height="22">
<path fill-rule="evenodd" clip-rule="evenodd" d="M3.05865 3.50073C2.64516 4.07502 2.5 4.78668 2.5 5.25V21H18V7.5H8.75C8.33579 7.5 8 7.16421 8 6.75V5.25C8 4.73238 7.98688 4.05527 7.66467 3.5029C7.39008 3.03219 6.79513 2.5 5.25 2.5C4.09444 2.5 3.4446 2.96468 3.05865 3.50073ZM8.80102 2.5C8.85796 2.58011 8.91102 2.66255 8.96033 2.7471C9.50092 3.67381 9.5003 4.7203 9.50001 5.21719C9.50001 5.22841 9.5 5.23935 9.5 5.25V6H22V4.75C22 4.37002 21.8798 3.78335 21.5413 3.31323C21.2304 2.88135 20.7056 2.5 19.75 2.5H8.80102ZM5.25 1H19.75C21.1944 1 22.1696 1.61865 22.7586 2.43677C23.3202 3.21665 23.5 4.12998 23.5 4.75V6.75C23.5 7.16421 23.1642 7.5 22.75 7.5H19.5V21.75C19.5 22.1642 19.1642 22.5 18.75 22.5H1.75C1.33579 22.5 1 22.1642 1 21.75V5.25C1 4.54665 1.20484 3.50832 1.84135 2.62427C2.5054 1.70198 3.60556 1 5.25 1ZM4.25 10.75C4.25 10.3358 4.58579 10 5 10H15.75C16.1642 10 16.5 10.3358 16.5 10.75C16.5 11.1642 16.1642 11.5 15.75 11.5H5C4.58579 11.5 4.25 11.1642 4.25 10.75ZM4.25 13.75C4.25 13.3358 4.58579 13 5 13H15.75C16.1642 13 16.5 13.3358 16.5 13.75C16.5 14.1642 16.1642 14.5 15.75 14.5H5C4.58579 14.5 4.25 14.1642 4.25 13.75ZM4.25 16.75C4.25 16.3358 4.58579 16 5 16H15.75C16.1642 16 16.5 16.3358 16.5 16.75C16.5 17.1642 16.1642 17.5 15.75 17.5H5C4.58579 17.5 4.25 17.1642 4.25 16.75Z" fill="black"/>
</mask>
<g mask="url(#mask0_1_6)">
<rect width="24" height="24" fill="#383641"/>
</g>
</svg>
