<svg width="24" height="24" viewBox="0 0 24 24" fill="none" xmlns="http://www.w3.org/2000/svg">
<g clip-path="url(#clip0_1_25)">
<path d="M7.19001 15.55H19.92C20.06 15.55 20.1967 15.5068 20.3112 15.4262C20.4258 15.3457 20.5126 15.2318 20.56 15.1L24 5.99998C24.039 5.89303 24.0521 5.77835 24.0382 5.66536C24.0243 5.55237 23.9838 5.44428 23.92 5.34998C23.856 5.24499 23.7666 5.15787 23.6599 5.09668C23.5533 5.03549 23.4329 5.00223 23.31 4.99998H5.67001L5.32001 3.28998C5.29004 3.13369 5.20697 2.99257 5.08487 2.89051C4.96276 2.78846 4.80914 2.73175 4.65001 2.72998H0.650012C0.464361 2.72998 0.286313 2.80373 0.155037 2.93501C0.023762 3.06628 -0.0499878 3.24433 -0.0499878 3.42998C-0.0499878 3.61563 0.023762 3.79368 0.155037 3.92496C0.286313 4.05623 0.464361 4.12998 0.650012 4.12998H4.08001L6.08001 14.39C5.7786 14.5213 5.50658 14.7117 5.28001 14.95C4.92405 15.3069 4.67553 15.7566 4.56277 16.2479C4.45 16.7391 4.47754 17.2522 4.64225 17.7286C4.80695 18.205 5.10219 18.6255 5.4943 18.9422C5.88642 19.259 6.35964 19.4592 6.86001 19.52C7.0008 20.0162 7.2996 20.4529 7.71108 20.7638C8.12256 21.0748 8.62424 21.2431 9.14001 21.2431C9.65578 21.2431 10.1575 21.0748 10.5689 20.7638C10.9804 20.4529 11.2792 20.0162 11.42 19.52H15.91C16.0508 20.0162 16.3496 20.4529 16.7611 20.7638C17.1726 21.0748 17.6742 21.2431 18.19 21.2431C18.7058 21.2431 19.2075 21.0748 19.6189 20.7638C20.0304 20.4529 20.3292 20.0162 20.47 19.52C20.6495 19.5148 20.8199 19.4398 20.945 19.3109C21.0701 19.1821 21.1401 19.0096 21.14 18.83C21.1402 18.6494 21.0706 18.4758 20.9457 18.3453C20.8208 18.2149 20.6504 18.1377 20.47 18.13C20.3231 17.6394 20.022 17.2093 19.6112 16.9036C19.2005 16.5978 18.7021 16.4326 18.19 16.4326C17.6779 16.4326 17.1795 16.5978 16.7688 16.9036C16.3581 17.2093 16.0569 17.6394 15.91 18.13H11.45C11.3035 17.6418 11.0036 17.2139 10.5947 16.9097C10.1858 16.6055 9.68968 16.4412 9.18001 16.4412C8.67035 16.4412 8.17426 16.6055 7.76535 16.9097C7.35645 17.2139 7.0565 17.6418 6.91001 18.13C6.59661 18.0615 6.31961 17.8795 6.13229 17.619C5.94498 17.3586 5.86057 17.0381 5.89532 16.7192C5.93007 16.4003 6.08151 16.1054 6.32051 15.8915C6.55952 15.6775 6.86921 15.5594 7.19001 15.56V15.55ZM7.48001 14.16L6.00001 6.40998H22.31L19.44 14.16H7.48001ZM8.16001 18.86C8.16001 18.6622 8.21866 18.4689 8.32854 18.3044C8.43842 18.14 8.5946 18.0118 8.77733 17.9361C8.96005 17.8604 9.16112 17.8406 9.3551 17.8792C9.54908 17.9178 9.72727 18.013 9.86712 18.1529C10.007 18.2927 10.1022 18.4709 10.1408 18.6649C10.1794 18.8589 10.1596 19.0599 10.0839 19.2427C10.0082 19.4254 9.88003 19.5816 9.71558 19.6915C9.55113 19.8013 9.35779 19.86 9.16001 19.86C8.8948 19.86 8.64044 19.7546 8.45291 19.5671C8.26537 19.3796 8.16001 19.1252 8.16001 18.86ZM17.21 18.86C17.21 18.6622 17.2687 18.4689 17.3785 18.3044C17.4884 18.14 17.6446 18.0118 17.8273 17.9361C18.0101 17.8604 18.2111 17.8406 18.4051 17.8792C18.5991 17.9178 18.7773 18.013 18.9171 18.1529C19.057 18.2927 19.1522 18.4709 19.1908 18.6649C19.2294 18.8589 19.2096 19.0599 19.1339 19.2427C19.0582 19.4254 18.93 19.5816 18.7656 19.6915C18.6011 19.8013 18.4078 19.86 18.21 19.86C17.9448 19.86 17.6904 19.7546 17.5029 19.5671C17.3154 19.3796 17.21 19.1252 17.21 18.86Z" fill="#383641"/>
<mask id="mask0_1_25" style="mask-type:alpha" maskUnits="userSpaceOnUse" x="0" y="0" width="24" height="24">
<rect width="24" height="24" fill="#383641"/>
</mask>
<g mask="url(#mask0_1_25)">
</g>
</g>
<defs>
<clipPath id="clip0_1_25">
<rect width="24" height="24" fill="white"/>
</clipPath>
</defs>
</svg>
