<svg width="24" height="24" viewBox="0 0 24 24" fill="none" xmlns="http://www.w3.org/2000/svg">
<mask id="mask0_1_25" style="mask-type:alpha" maskUnits="userSpaceOnUse" x="1" y="1" width="23" height="22">
<path fill-rule="evenodd" clip-rule="evenodd" d="M1 1.75C1 1.33579 1.33579 1 1.75 1H5.49545C5.85293 1 6.16071 1.25229 6.23087 1.60281L7.04728 5.68182H22.35C22.5735 5.68182 22.7854 5.78151 22.9279 5.95373C23.0704 6.12595 23.1286 6.35275 23.0867 6.57231L21.5875 14.434C21.4676 15.0378 21.1391 15.5801 20.6596 15.9661C20.1821 16.3504 19.5852 16.5554 18.9725 16.5455H9.88424C9.27153 16.5554 8.6746 16.3504 8.19713 15.9661C7.71788 15.5803 7.38952 15.0383 7.26946 14.4349C7.2694 14.4346 7.26952 14.4352 7.26946 14.4349L5.70414 6.61416C5.69849 6.59154 5.69386 6.56851 5.69032 6.54513L4.88069 2.5H1.75C1.33579 2.5 1 2.16421 1 1.75ZM7.3475 7.18182L8.74054 14.1418C8.79187 14.4002 8.93247 14.6324 9.13773 14.7976C9.34299 14.9629 9.59982 15.0506 9.86327 15.0456L9.87764 15.0455H18.9791L18.9935 15.0456C19.2569 15.0506 19.5137 14.9629 19.719 14.7976C19.9236 14.6329 20.064 14.4017 20.1157 14.1442C20.1159 14.1434 20.116 14.1426 20.1162 14.1418L21.4435 7.18182H7.3475ZM9.24018 20.2909C9.13726 20.2909 9.05382 20.3743 9.05382 20.4772C9.05382 20.5802 9.13726 20.6636 9.24018 20.6636C9.34311 20.6636 9.42655 20.5802 9.42655 20.4772C9.42655 20.3743 9.34311 20.2909 9.24018 20.2909ZM7.55382 20.4772C7.55382 19.5459 8.30883 18.7909 9.24018 18.7909C10.1715 18.7909 10.9265 19.5459 10.9265 20.4772C10.9265 21.4086 10.1715 22.1636 9.24018 22.1636C8.30883 22.1636 7.55382 21.4086 7.55382 20.4772ZM19.5415 20.2909C19.4386 20.2909 19.3552 20.3743 19.3552 20.4772C19.3552 20.5802 19.4386 20.6636 19.5415 20.6636C19.6445 20.6636 19.7279 20.5802 19.7279 20.4772C19.7279 20.3743 19.6445 20.2909 19.5415 20.2909ZM17.8552 20.4772C17.8552 19.5459 18.6102 18.7909 19.5415 18.7909C20.4729 18.7909 21.2279 19.5459 21.2279 20.4772C21.2279 21.4086 20.4729 22.1636 19.5415 22.1636C18.6102 22.1636 17.8552 21.4086 17.8552 20.4772Z" fill="#383641"/>
</mask>
<g mask="url(#mask0_1_25)">
<rect width="24" height="24" fill="#383641"/>
</g>
</svg>
