<svg width="24" height="24" viewBox="0 0 24 24" fill="none" xmlns="http://www.w3.org/2000/svg">
<mask id="mask0_1_13" style="mask-type:alpha" maskUnits="userSpaceOnUse" x="2" y="2" width="21" height="21">
<path fill-rule="evenodd" clip-rule="evenodd" d="M2.21967 2.21967C2.51256 1.92678 2.98744 1.92678 3.28033 2.21967L12.25 11.1893L21.2197 2.21967C21.5126 1.92678 21.9874 1.92678 22.2803 2.21967C22.5732 2.51256 22.5732 2.98744 22.2803 3.28033L13.3107 12.25L18.7812 17.7206L21.2822 15.2197C21.5751 14.9268 22.0499 14.9268 22.3428 15.2197C22.6357 15.5126 22.6357 15.9874 22.3428 16.2803L19.8419 18.7812L22.2803 21.2197C22.5732 21.5126 22.5732 21.9874 22.2803 22.2803C21.9874 22.5732 21.5126 22.5732 21.2197 22.2803L18.7812 19.8419L16.3428 22.2803C16.0499 22.5732 15.5751 22.5732 15.2822 22.2803C14.9893 21.9874 14.9893 21.5126 15.2822 21.2197L17.7206 18.7812L12.25 13.3107L7.07629 18.4844L9.81158 21.2197C10.1045 21.5126 10.1045 21.9874 9.81158 22.2803C9.51869 22.5732 9.04381 22.5732 8.75092 22.2803L6.01562 19.545L3.28033 22.2803C2.98744 22.5732 2.51256 22.5732 2.21967 22.2803C1.92678 21.9874 1.92678 21.5126 2.21967 21.2197L4.95496 18.4844L2.21967 15.7491C1.92678 15.4562 1.92678 14.9813 2.21967 14.6884C2.51256 14.3955 2.98744 14.3955 3.28033 14.6884L6.01562 17.4237L11.1893 12.25L2.21967 3.28033C1.92678 2.98744 1.92678 2.51256 2.21967 2.21967Z" fill="#383641"/>
</mask>
<g mask="url(#mask0_1_13)">
<rect width="24" height="24" fill="#383641"/>
</g>
</svg>
