<svg width="24" height="24" viewBox="0 0 24 24" fill="none" xmlns="http://www.w3.org/2000/svg">
<mask id="mask0_4543_157" style="mask-type:alpha" maskUnits="userSpaceOnUse" x="4" y="1" width="17" height="22">
<path fill-rule="evenodd" clip-rule="evenodd" d="M5.75 3.66725V13.1537C6.3969 12.8287 7.23917 12.5833 8.26087 12.5833C9.54514 12.5833 10.7946 13.2021 11.8816 13.7405C11.9407 13.7697 11.9993 13.7988 12.0574 13.8274C13.2636 14.4227 14.3326 14.9167 15.4348 14.9167C16.625 14.9167 17.4648 14.6649 18.0846 14.3661C18.5703 14.1319 18.9226 13.8721 19.25 13.6248V4.05065C19.0076 4.17419 18.7488 4.29302 18.4834 4.40206C17.5896 4.7693 16.4824 5.08333 15.4348 5.08333C14.0961 5.08333 12.6322 4.41129 11.4112 3.84761C11.3643 3.82595 11.3176 3.80439 11.2712 3.78296C10.6825 3.51089 10.1367 3.25867 9.62389 3.06721C9.06552 2.85875 8.61538 2.75 8.26087 2.75C7.16176 2.75 6.22252 3.28895 5.75 3.66725ZM5.75 14.9518C6.09552 14.6267 6.93216 14.0833 8.26087 14.0833C9.18645 14.0833 10.1504 14.5591 11.3819 15.1668L11.3936 15.1726C12.5516 15.744 13.9283 16.4167 15.4348 16.4167C16.8533 16.4167 17.9156 16.1128 18.7361 15.7172C19.3962 15.3989 19.8997 15.0163 20.2443 14.7544C20.3175 14.6988 20.3835 14.6487 20.4423 14.6057C20.6357 14.4645 20.75 14.2395 20.75 14V2.66667C20.75 2.36182 20.5655 2.0873 20.2832 1.97219C20.0009 1.85708 19.6771 1.92428 19.4639 2.1422C19.3014 2.30831 18.7322 2.67815 17.9133 3.0146C17.1169 3.34181 16.2133 3.58333 15.4348 3.58333C14.4909 3.58333 13.346 3.08871 12.0399 2.48573C11.9899 2.46266 11.9398 2.43947 11.8895 2.41621C11.3142 2.15024 10.7174 1.87433 10.1485 1.66195C9.53502 1.43291 8.88462 1.25 8.26087 1.25C6.43478 1.25 4.99223 2.26876 4.46387 2.80886C4.32677 2.94901 4.25 3.13728 4.25 3.33333V22C4.25 22.4142 4.58579 22.75 5 22.75C5.41421 22.75 5.75 22.4142 5.75 22V14.9518Z" fill="#383641"/>
</mask>
<g mask="url(#mask0_4543_157)">
<rect width="24" height="24" fill="#383641"/>
</g>
</svg>
