<svg width="24" height="24" viewBox="0 0 24 24" fill="none" xmlns="http://www.w3.org/2000/svg">
<g clip-path="url(#clip0_1_33)">
<mask id="mask0_1_33" style="mask-type:alpha" maskUnits="userSpaceOnUse" x="-1" y="1" width="25" height="22">
<path fill-rule="evenodd" clip-rule="evenodd" d="M23.73 19.2601L22.13 16.2601V13.7201C22.1094 13.5476 22.0263 13.3886 21.8963 13.2732C21.7664 13.1579 21.5987 13.0942 21.425 13.0942C21.2512 13.0942 21.0835 13.1579 20.9536 13.2732C20.8237 13.3886 20.7406 13.5476 20.72 13.7201V15.7201H3.35998V3.00008H20.72V8.90008C20.7406 9.07259 20.8237 9.23157 20.9536 9.34692C21.0835 9.46226 21.2512 9.52596 21.425 9.52596C21.5987 9.52596 21.7664 9.46226 21.8963 9.34692C22.0263 9.23157 22.1094 9.07259 22.13 8.90008V2.28008C22.1274 2.09523 22.0528 1.91868 21.9221 1.78796C21.7914 1.65724 21.6148 1.58266 21.43 1.58008H2.65998C2.47433 1.58008 2.29628 1.65383 2.165 1.7851C2.03373 1.91638 1.95998 2.09443 1.95998 2.28008V16.2001L0.259978 19.2601C0.0783937 19.5766 -0.0171509 19.9352 -0.0171509 20.3001C-0.0171509 20.665 0.0783937 21.0236 0.259978 21.3401C0.450351 21.6698 0.724503 21.9434 1.05466 22.133C1.38481 22.3227 1.75923 22.4217 2.13998 22.4201H21.85C22.2235 22.4236 22.5913 22.3283 22.9162 22.1439C23.2411 21.9595 23.5115 21.6926 23.7 21.3701C23.8907 21.0523 23.994 20.6897 23.9993 20.3191C24.0045 19.9485 23.9116 19.5831 23.73 19.2601ZM22.49 20.6501C22.4254 20.762 22.3319 20.8545 22.2193 20.9178C22.1067 20.9811 21.9791 21.013 21.85 21.0101H15.05V20.7701C15.0398 20.5914 14.9615 20.4235 14.8313 20.3008C14.7011 20.178 14.5289 20.1098 14.35 20.1101H9.59998C9.42105 20.1098 9.24881 20.178 9.11863 20.3008C8.98844 20.4235 8.9102 20.5914 8.89998 20.7701V21.0001H2.17998C2.04477 21.0011 1.91166 20.9666 1.79405 20.8999C1.67643 20.8332 1.57846 20.7367 1.50998 20.6201C1.44854 20.5137 1.4162 20.393 1.4162 20.2701C1.4162 20.1472 1.44854 20.0265 1.50998 19.9201L2.99998 17.1501H21L22.52 19.9301C22.5797 20.0418 22.6084 20.1676 22.6031 20.2942C22.5978 20.4208 22.5588 20.5437 22.49 20.6501Z" fill="#383641"/>
<path d="M17.47 12.4001H13.47C13.287 12.4001 13.1115 12.4728 12.9821 12.6022C12.8527 12.7316 12.78 12.9071 12.78 13.0901C12.78 13.2731 12.8527 13.4486 12.9821 13.578C13.1115 13.7074 13.287 13.7801 13.47 13.7801H17.47C17.653 13.7801 17.8285 13.7074 17.9579 13.578C18.0873 13.4486 18.16 13.2731 18.16 13.0901C18.16 12.9071 18.0873 12.7316 17.9579 12.6022C17.8285 12.4728 17.653 12.4001 17.47 12.4001Z" fill="#383641"/>
<path d="M17.47 7.10008H13.47C13.287 7.10008 13.1115 7.17277 12.9821 7.30218C12.8527 7.43158 12.78 7.60708 12.78 7.79008C12.78 7.97308 12.8527 8.14858 12.9821 8.27798C13.1115 8.40738 13.287 8.48008 13.47 8.48008H17.47C17.653 8.48008 17.8285 8.40738 17.9579 8.27798C18.0873 8.14858 18.16 7.97308 18.16 7.79008C18.16 7.60708 18.0873 7.43158 17.9579 7.30218C17.8285 7.17277 17.653 7.10008 17.47 7.10008Z" fill="#383641"/>
<path d="M8.06998 8.00008L9.78998 5.77008C9.8466 5.69471 9.91807 5.63175 9.99997 5.58507C10.0819 5.5384 10.1725 5.509 10.2662 5.49869C10.3599 5.48838 10.4547 5.49739 10.5448 5.52514C10.6349 5.5529 10.7183 5.59882 10.79 5.66008C10.8679 5.71477 10.9333 5.78543 10.9817 5.86735C11.0302 5.94928 11.0606 6.04059 11.071 6.13521C11.0814 6.22983 11.0716 6.32558 11.0421 6.41608C11.0126 6.50658 10.9641 6.58976 10.9 6.66008L9.17998 8.85008C9.0575 8.99948 8.90543 9.12192 8.73333 9.20969C8.56123 9.29746 8.37283 9.34867 8.17998 9.36008H8.08998C7.71725 9.36217 7.35844 9.21864 7.08998 8.96008L6.08998 7.96008C5.9663 7.82706 5.8983 7.6517 5.89998 7.47008C5.89914 7.37978 5.91742 7.29033 5.95361 7.2076C5.9898 7.12488 6.04309 7.05074 6.10998 6.99008C6.17262 6.92644 6.24735 6.87596 6.32978 6.84161C6.41221 6.80727 6.50068 6.78974 6.58998 6.79008C6.77045 6.79827 6.94148 6.8731 7.06998 7.00008L8.06998 8.00008Z" fill="#383641"/>
<path d="M8.06998 13.2501L9.78998 11.0701C9.84106 10.9879 9.90885 10.9174 9.98894 10.8632C10.069 10.8089 10.1596 10.7721 10.2549 10.7551C10.3501 10.7381 10.4479 10.7414 10.5418 10.7646C10.6357 10.7879 10.7237 10.8306 10.8 10.8901C10.8779 10.9448 10.9433 11.0154 10.9917 11.0974C11.0402 11.1793 11.0706 11.2706 11.081 11.3652C11.0914 11.4598 11.0816 11.5556 11.0521 11.6461C11.0226 11.7366 10.9741 11.8198 10.91 11.8901L9.18998 14.0801C9.06644 14.2291 8.91432 14.3519 8.74257 14.4412C8.57082 14.5305 8.38293 14.5845 8.18998 14.6001H8.09998C7.72725 14.6022 7.36844 14.4586 7.09998 14.2001L6.09998 13.2001C6.03089 13.1364 5.97575 13.0591 5.93803 12.973C5.90032 12.887 5.88085 12.794 5.88085 12.7001C5.88085 12.6061 5.90032 12.5132 5.93803 12.4271C5.97575 12.3411 6.03089 12.2638 6.09998 12.2001C6.16114 12.1345 6.2356 12.0827 6.31838 12.0482C6.40116 12.0138 6.49034 11.9973 6.57998 12.0001C6.67456 12.0053 6.76701 12.0303 6.85139 12.0733C6.93577 12.1164 7.01022 12.1766 7.06998 12.2501L8.06998 13.2501Z" fill="#383641"/>
</mask>
<g mask="url(#mask0_1_33)">
<rect width="24" height="24" fill="#383641"/>
</g>
</g>
<defs>
<clipPath id="clip0_1_33">
<rect width="24" height="24" fill="white"/>
</clipPath>
</defs>
</svg>
