<svg width="24" height="24" viewBox="0 0 24 24" fill="none" xmlns="http://www.w3.org/2000/svg">
<mask id="mask0_1_33" style="mask-type:alpha" maskUnits="userSpaceOnUse" x="4" y="1" width="17" height="22">
<path fill-rule="evenodd" clip-rule="evenodd" d="M6.50001 2.59827C6.296 2.67482 6.10857 2.79448 5.95153 2.95153C5.66242 3.24063 5.5 3.63275 5.5 4.04161V14.2173C5.80836 14.036 6.1469 13.9101 6.50001 13.8462V2.59827ZM8.00001 2.5V13.7976H18.6663V2.5H8.00001ZM20.1663 1.75C20.1663 1.33579 19.8305 1 19.4163 1H7.04161C6.23492 1 5.46128 1.32045 4.89087 1.89087C4.32045 2.46128 4 3.23492 4 4.04161V16.8393C4 17.6461 4.32055 18.4193 4.89087 18.9896C5.46128 19.56 6.23492 19.8805 7.04161 19.8805H8.08334C8.49755 19.8805 8.83334 19.5447 8.83334 19.1305C8.83334 18.7163 8.49755 18.3805 8.08334 18.3805H7.04161C6.63275 18.3805 6.24063 18.2181 5.95153 17.9289C5.66232 17.6397 5.5 17.248 5.5 16.8393C5.5 16.4304 5.66242 16.0383 5.95153 15.7492C6.24063 15.4601 6.63275 15.2976 7.04161 15.2976H7.22093C7.23058 15.298 7.24027 15.2982 7.25001 15.2982C7.25974 15.2982 7.26943 15.298 7.27908 15.2976H18.6663V18.3805H16.6548C16.2406 18.3805 15.9048 18.7163 15.9048 19.1305C15.9048 19.5447 16.2406 19.8805 16.6548 19.8805H19.4163C19.8305 19.8805 20.1663 19.5447 20.1663 19.1305V1.75ZM9.83356 17.5834C9.83356 17.1692 10.1694 16.8334 10.5836 16.8334H13.9161C14.3304 16.8334 14.6668 17.1692 14.6668 17.5834V21.7499C14.6668 22.0377 14.5021 22.3001 14.243 22.4253C13.9839 22.5504 13.676 22.5163 13.4506 22.3374L12.2502 21.3847L11.0498 22.3374C10.8244 22.5163 10.5165 22.5504 10.2574 22.4253C9.99823 22.3001 9.83356 22.0377 9.83356 21.7499V17.5834ZM11.3336 18.3334V20.1972L11.7839 19.8397C12.057 19.623 12.4434 19.623 12.7164 19.8397L13.1668 20.1972V18.3334H11.3336Z" fill="#383641"/>
</mask>
<g mask="url(#mask0_1_33)">
<rect width="24" height="24" fill="#383641"/>
</g>
</svg>
