<svg width="24" height="24" viewBox="0 0 24 24" fill="none" xmlns="http://www.w3.org/2000/svg">
<path fill-rule="evenodd" clip-rule="evenodd" d="M7.3659 2.40425C6.86933 2.40425 6.3931 2.60151 6.04197 2.95264C5.69084 3.30377 5.49357 3.78001 5.49357 4.27658C5.49357 4.77315 5.69084 5.24939 6.04197 5.60052C6.3931 5.95165 6.86933 6.14891 7.3659 6.14891L11.078 6.14895C10.9336 5.71056 10.7191 5.16 10.4193 4.61497C9.75242 3.40245 8.77757 2.40425 7.3659 2.40425ZM4.67699 6.14896C4.29703 5.6033 4.08932 4.95064 4.08932 4.27658C4.08932 3.40758 4.43453 2.57417 5.04901 1.95969C5.66349 1.34521 6.4969 1 7.3659 1C9.55848 1 10.9007 2.57628 11.6497 3.93824C11.7807 4.1764 11.8971 4.41379 12 4.64355C12.1028 4.41379 12.2192 4.1764 12.3502 3.93824C13.0992 2.57628 14.4414 1 16.634 1C17.503 1 18.3364 1.34521 18.9509 1.95969C19.5654 2.57417 19.9106 3.40758 19.9106 4.27658C19.9106 4.95064 19.7029 5.6033 19.3229 6.14896H22.2978C22.6855 6.14896 22.9999 6.46332 22.9999 6.85109V12C22.9999 12.3878 22.6855 12.7021 22.2978 12.7021H20.9403V22.2979C20.9403 22.6856 20.626 23 20.2382 23H3.76167C3.3739 23 3.05955 22.6856 3.05955 22.2979V12.7021H1.70212C1.31435 12.7021 1 12.3878 1 12V6.85109C1 6.46332 1.31435 6.14896 1.70212 6.14896H4.67699ZM11.2978 7.55321H2.40425V11.2979H11.2978V7.55321ZM11.2978 12.7021H4.4638V21.5958H11.2978V12.7021ZM12.7021 21.5958V12.7021H19.5361V21.5958H12.7021ZM12.7021 11.2979V7.55321H21.5956V11.2979H12.7021ZM12.9219 6.14895L16.634 6.14891C17.1306 6.14891 17.6068 5.95165 17.9579 5.60052C18.3091 5.24939 18.5063 4.77315 18.5063 4.27658C18.5063 3.78001 18.3091 3.30377 17.9579 2.95264C17.6068 2.60151 17.1306 2.40425 16.634 2.40425C15.2223 2.40425 14.2475 3.40245 13.5806 4.61497C13.2808 5.16 13.0663 5.71056 12.9219 6.14895Z" fill="#383641"/>
</svg>
