<svg width="24" height="24" viewBox="0 0 24 24" fill="none" xmlns="http://www.w3.org/2000/svg">
<g clip-path="url(#clip0_1_9)">
<mask id="mask0_1_9" style="mask-type:alpha" maskUnits="userSpaceOnUse" x="0" y="-1" width="24" height="25">
<path d="M22.66 6.04998H18.28C21.1 4.55998 21.4 3.04998 21.28 2.23998C21.1567 1.6073 20.8166 1.03743 20.3182 0.628548C19.8199 0.21967 19.1946 -0.00261592 18.55 -1.6043e-05C17.099 -0.0845882 15.6699 0.383466 14.55 1.30998C13.441 2.23986 12.5673 3.41852 12 4.74998C11.4283 3.42137 10.5471 2.24876 9.43001 1.32998C8.31054 0.393864 6.87701 -0.0815932 5.42 -1.6043e-05C4.76858 -0.0120317 4.13377 0.205959 3.62716 0.615639C3.12055 1.02532 2.77456 1.60047 2.65 2.23998C2.57 3.03998 2.87 4.55998 5.65 6.04998H1.31C1.13046 6.05257 0.958999 6.12504 0.83203 6.25201C0.705061 6.37898 0.632589 6.55044 0.630005 6.72998V11.29C0.632589 11.4695 0.705061 11.641 0.83203 11.768C0.958999 11.8949 1.13046 11.9674 1.31 11.97H1.37V23.32C1.37 23.5003 1.44165 23.6733 1.56917 23.8008C1.6967 23.9283 1.86966 24 2.05 24H21.92C22.1004 24 22.2733 23.9283 22.4008 23.8008C22.5284 23.6733 22.6 23.5003 22.6 23.32V12H22.66C22.8395 11.9974 23.011 11.9249 23.138 11.798C23.2649 11.671 23.3374 11.4995 23.34 11.32V6.72998C23.3374 6.55044 23.2649 6.37898 23.138 6.25201C23.011 6.12504 22.8395 6.05257 22.66 6.04998ZM9 12V22.64H2.73V12H9ZM9 7.40998V10.61H2V7.40998H9ZM11 6.04998H9.32C5.51 4.85998 3.9 3.34998 4 2.38998C4.06 1.85998 4.68 1.44998 5.54 1.38998C7.25 1.21998 9.69001 2.36998 11.05 6.04998H11ZM13.53 7.40998V22.64H10.39V7.40998H13.53ZM19.92 2.40998C20.02 3.40998 18.41 4.87998 14.6 6.06998H12.92C14.28 2.38998 16.71 1.24998 18.43 1.38998C19.29 1.44998 19.91 1.85998 20 2.38998L19.92 2.40998ZM21.92 7.40998V10.61H14.92V7.40998H21.92ZM21.24 12V22.64H14.94V12H21.24Z" fill="#383641"/>
</mask>
<g mask="url(#mask0_1_9)">
<rect width="24" height="24" fill="#383641"/>
</g>
</g>
<defs>
<clipPath id="clip0_1_9">
<rect width="24" height="24" fill="white"/>
</clipPath>
</defs>
</svg>
