<svg width="24" height="24" viewBox="0 0 24 24" fill="none" xmlns="http://www.w3.org/2000/svg">
<g clip-path="url(#clip0_1_43)">
<path fill-rule="evenodd" clip-rule="evenodd" d="M11.2197 1.21967C11.508 0.931368 11.9738 0.926193 12.2684 1.20802L23.7684 12.208C24.0677 12.4943 24.0783 12.9691 23.792 13.2684C23.5057 13.5677 23.0309 13.5783 22.7316 13.292L22 12.5922V22.75C22 23.1642 21.6642 23.5 21.25 23.5H16.25C15.9658 23.5 15.7061 23.3394 15.5791 23.0852C15.4521 22.8309 15.4797 22.5268 15.6503 22.2996C16.1839 21.5892 16.5 20.7075 16.5 19.75C16.5 19.333 16.4402 18.9312 16.3291 18.5522C16.2126 18.1547 16.4404 17.738 16.8379 17.6215C17.2354 17.505 17.652 17.7328 17.7685 18.1303C17.9194 18.6449 18 19.1887 18 19.75C18 20.548 17.837 21.3087 17.5426 22H20.5V11.25C20.5 11.2203 20.5017 11.1911 20.5051 11.1623L11.7617 2.79901L3.98065 10.58C3.99331 10.6346 4 10.6915 4 10.75V22H6.95711C6.66281 21.3085 6.5 20.5477 6.5 19.75C6.5 16.5744 9.07436 14 12.25 14C13.2276 14 14.1503 14.2446 14.958 14.6765C15.3233 14.8718 15.4611 15.3263 15.2657 15.6915C15.0704 16.0568 14.616 16.1946 14.2507 15.9993C13.6552 15.6808 12.9748 15.5 12.25 15.5C9.90279 15.5 8 17.4028 8 19.75C8 20.5925 8.24435 21.3756 8.66578 22.035C8.69565 22.0817 8.71968 22.1305 8.73808 22.1805C8.89842 22.3181 9 22.5222 9 22.75C9 23.1642 8.66421 23.5 8.25 23.5H3.25C2.83579 23.5 2.5 23.1642 2.5 22.75V12.0607L1.28033 13.2803C0.987437 13.5732 0.512563 13.5732 0.21967 13.2803C-0.0732233 12.9874 -0.0732233 12.5126 0.21967 12.2197L11.2197 1.21967ZM18.7803 13.7197C19.0732 14.0126 19.0732 14.4874 18.7803 14.7803L12.7803 20.7803C12.4874 21.0732 12.0126 21.0732 11.7197 20.7803L9.5 18.5C9.20711 18.2071 9.20711 17.7322 9.5 17.4393C9.79289 17.1464 10.2678 17.1464 10.5607 17.4393L12.25 19.1893L17.7197 13.7197C18.0126 13.4268 18.4874 13.4268 18.7803 13.7197Z" fill="#383641"/>
</g>
<defs>
<clipPath id="clip0_1_43">
<rect width="24" height="24" fill="white"/>
</clipPath>
</defs>
</svg>
