<svg width="24" height="24" viewBox="0 0 24 24" fill="none" xmlns="http://www.w3.org/2000/svg">
<g clip-path="url(#clip0_1_43)">
<mask id="mask0_1_43" style="mask-type:alpha" maskUnits="userSpaceOnUse" x="0" y="-1" width="25" height="26">
<path d="M23.88 11.4L20 7.37996V1.66996C19.9951 1.49553 19.9243 1.32942 19.8018 1.2051C19.6794 1.08078 19.5143 1.00748 19.34 0.999964H17.54C17.3605 1.00255 17.189 1.07502 17.062 1.20199C16.9351 1.32896 16.8626 1.50042 16.86 1.67996V4.44996L12.78 0.189964C12.6458 0.0604283 12.4665 -0.0119629 12.28 -0.0119629C12.0935 -0.0119629 11.9142 0.0604283 11.78 0.189964L0.670002 11.79C0.607703 11.8531 0.55877 11.9281 0.526125 12.0106C0.49348 12.0931 0.477793 12.1813 0.480002 12.27C0.488196 12.4504 0.563019 12.6215 0.690002 12.75C0.818807 12.8739 0.991247 12.9422 1.17 12.94C1.35139 12.9358 1.52383 12.8603 1.65 12.73L2.07 12.29V23.29C2.07 23.4703 2.14164 23.6433 2.26917 23.7708C2.39669 23.8983 2.56965 23.97 2.75 23.97H9.63C9.77124 23.9692 9.90875 23.9246 10.0234 23.8421C10.1381 23.7597 10.2243 23.6436 10.27 23.51C10.3146 23.375 10.3164 23.2296 10.2753 23.0936C10.2341 22.9575 10.1519 22.8375 10.04 22.75C9.47846 22.2454 9.07631 21.588 8.88282 20.8583C8.68933 20.1286 8.71292 19.3583 8.95069 18.6418C9.18846 17.9253 9.63009 17.2937 10.2214 16.8245C10.8128 16.3552 11.5282 16.0687 12.28 16C12.8088 15.9521 13.3418 16.0115 13.847 16.1748C14.3522 16.338 14.8192 16.6017 15.22 16.95L15.28 17.01L12.6 19.85L10.85 18.08C10.7174 17.9474 10.5375 17.8729 10.35 17.8729C10.1625 17.8729 9.98261 17.9474 9.85 18.08C9.71739 18.2126 9.64289 18.3924 9.64289 18.58C9.64289 18.7675 9.71739 18.9474 9.85 19.08L12.1 21.35C12.1645 21.4177 12.242 21.4717 12.328 21.5086C12.4139 21.5455 12.5065 21.5645 12.6 21.5645C12.6935 21.5645 12.7861 21.5455 12.872 21.5086C12.958 21.4717 13.0355 21.4177 13.1 21.35L19 15.06C19.0638 14.9979 19.1137 14.9231 19.1464 14.8403C19.1792 14.7576 19.194 14.6689 19.19 14.58C19.1922 14.4012 19.124 14.2288 19 14.1C18.8666 13.9847 18.6963 13.9209 18.52 13.92C18.4301 13.9215 18.3414 13.9408 18.259 13.9769C18.1766 14.0129 18.1021 14.065 18.04 14.13L16.2 16.06C15.6693 15.5776 15.047 15.2069 14.3702 14.9698C13.6933 14.7327 12.9757 14.6342 12.26 14.68C10.9275 14.7422 9.67167 15.321 8.75878 16.2936C7.84589 17.2662 7.34775 18.5562 7.37 19.89C7.37117 20.8611 7.64114 21.8129 8.15 22.64H3.43V10.87L12.29 1.63996L17.05 6.63996C17.1439 6.73759 17.2649 6.80493 17.3974 6.83335C17.5298 6.86177 17.6678 6.84997 17.7935 6.79947C17.9192 6.74897 18.027 6.66207 18.103 6.54991C18.1789 6.43775 18.2197 6.30544 18.22 6.16996V2.34996H18.66V7.64996C18.6591 7.73696 18.6755 7.82327 18.7081 7.90393C18.7407 7.98459 18.7889 8.05801 18.85 8.11996L21.18 10.55V22.64H17.18C17.6169 22.0065 17.8872 21.2731 17.9659 20.5076C18.0445 19.7421 17.929 18.9691 17.63 18.26C17.5477 18.1029 17.4073 17.9841 17.2387 17.9291C17.0701 17.874 16.8867 17.887 16.7275 17.9653C16.5684 18.0436 16.4461 18.1809 16.3868 18.3481C16.3275 18.5152 16.3358 18.6989 16.41 18.86C16.6548 19.5046 16.6959 20.2089 16.5278 20.8777C16.3597 21.5465 15.9905 22.1476 15.47 22.6L14.33 21.41C14.2679 21.345 14.1934 21.2929 14.111 21.2569C14.0286 21.2208 13.9399 21.2015 13.85 21.2C13.7628 21.1974 13.676 21.2129 13.595 21.2456C13.5141 21.2783 13.4409 21.3275 13.38 21.39C13.3109 21.4536 13.2558 21.531 13.2181 21.617C13.1803 21.7031 13.1609 21.796 13.1609 21.89C13.1609 21.9839 13.1803 22.0769 13.2181 22.1629C13.2558 22.249 13.3109 22.3263 13.38 22.39L14.76 23.83C14.8899 23.961 15.0656 24.0363 15.25 24.04H21.89C22.0703 24.04 22.2433 23.9683 22.3708 23.8408C22.4984 23.7133 22.57 23.5403 22.57 23.36V12L22.93 12.37C22.9911 12.4364 23.0653 12.4893 23.1479 12.5255C23.2305 12.5616 23.3198 12.5802 23.41 12.58C23.5431 12.5797 23.6732 12.5404 23.7841 12.4669C23.895 12.3934 23.982 12.2889 24.0342 12.1665C24.0863 12.0441 24.1014 11.909 24.0776 11.7781C24.0537 11.6472 23.992 11.5261 23.9 11.43L23.88 11.4Z" fill="#383641"/>
</mask>
<g mask="url(#mask0_1_43)">
<rect width="24" height="24" fill="#383641"/>
</g>
</g>
<defs>
<clipPath id="clip0_1_43">
<rect width="24" height="24" fill="white"/>
</clipPath>
</defs>
</svg>
