<svg width="24" height="24" viewBox="0 0 24 24" fill="none" xmlns="http://www.w3.org/2000/svg">
<g clip-path="url(#clip0_1_37)">
<mask id="mask0_1_37" style="mask-type:alpha" maskUnits="userSpaceOnUse" x="0" y="0" width="24" height="24">
<path d="M7 0H19.51C20.1009 0.00131176 20.6859 0.119007 21.2313 0.346366C21.7768 0.573725 22.2721 0.906295 22.6891 1.32509C23.106 1.74388 23.4364 2.24069 23.6613 2.78716C23.8862 3.33363 24.0013 3.91905 24 4.51V19.51C23.9974 20.7 23.5235 21.8405 22.682 22.682C21.8405 23.5235 20.7 23.9974 19.51 24H7C5.80826 24 4.66518 23.5273 3.82155 22.6855C2.97792 21.8438 2.50265 20.7017 2.5 19.51V17C2.5 16.8011 2.57902 16.6103 2.71967 16.4697C2.86032 16.329 3.05109 16.25 3.25 16.25C3.44891 16.25 3.63968 16.329 3.78033 16.4697C3.92098 16.6103 4 16.8011 4 17V19.49C4 20.2856 4.31607 21.0487 4.87868 21.6113C5.44129 22.1739 6.20435 22.49 7 22.49H19.51C20.3056 22.49 21.0687 22.1739 21.6313 21.6113C22.1939 21.0487 22.51 20.2856 22.51 19.49V4.49C22.51 3.69435 22.1939 2.93129 21.6313 2.36868C21.0687 1.80607 20.3056 1.49 19.51 1.49H7C6.20435 1.49 5.44129 1.80607 4.87868 2.36868C4.31607 2.93129 4 3.69435 4 4.49V7C4 7.19891 3.92098 7.38968 3.78033 7.53033C3.63968 7.67098 3.44891 7.75 3.25 7.75C3.05109 7.75 2.86032 7.67098 2.71967 7.53033C2.57902 7.38968 2.5 7.19891 2.5 7V4.49C2.50265 3.29826 2.97792 2.15623 3.82155 1.31448C4.66518 0.47273 5.80826 -2.94255e-06 7 0Z" fill="#383641"/>
<path d="M10.23 15.23L12.71 12.74H0.74C0.54374 12.74 0.355518 12.662 0.216741 12.5233C0.0779641 12.3845 0 12.1963 0 12C0 11.8037 0.0779641 11.6155 0.216741 11.4767C0.355518 11.338 0.54374 11.26 0.74 11.26H12.71L12 10.55L10.24 8.76C10.117 8.62249 10.049 8.44448 10.049 8.26C10.049 8.07552 10.117 7.89751 10.24 7.76C10.3765 7.63492 10.5549 7.56553 10.74 7.56553C10.9251 7.56553 11.1035 7.63492 11.24 7.76L14.97 11.49C15.1061 11.6327 15.1814 11.8228 15.18 12.02C15.181 12.1186 15.1621 12.2164 15.1243 12.3075C15.0865 12.3986 15.0306 12.4811 14.96 12.55L11.23 16.28C11.0855 16.3705 10.9141 16.4083 10.7449 16.387C10.5757 16.3657 10.4191 16.2866 10.3015 16.1631C10.1839 16.0396 10.1125 15.8793 10.0995 15.7093C10.0865 15.5393 10.1326 15.37 10.23 15.23Z" fill="#383641"/>
</mask>
<g mask="url(#mask0_1_37)">
<rect width="24" height="24" fill="#383641"/>
</g>
</g>
<defs>
<clipPath id="clip0_1_37">
<rect width="24" height="24" fill="white"/>
</clipPath>
</defs>
</svg>
