<svg width="24" height="24" viewBox="0 0 24 24" fill="none" xmlns="http://www.w3.org/2000/svg">
<path fill-rule="evenodd" clip-rule="evenodd" d="M4.75 3.5C4.05964 3.5 3.5 4.05964 3.5 4.75V18.75C3.5 19.4404 4.05964 20 4.75 20H9.25C9.66421 20 10 20.3358 10 20.75C10 21.1642 9.66421 21.5 9.25 21.5H4.75C3.23122 21.5 2 20.2688 2 18.75V4.75C2 3.23122 3.23122 2 4.75 2H8.75C9.16421 2 9.5 2.33579 9.5 2.75C9.5 3.16421 9.16421 3.5 8.75 3.5H4.75ZM16.5074 6.4467L21.2803 11.2197C21.5732 11.5126 21.5732 11.9874 21.2803 12.2803L16.5074 17.0533C16.2145 17.3462 15.7396 17.3462 15.4467 17.0533C15.1538 16.7604 15.1538 16.2855 15.4467 15.9926L18.9393 12.5H8.75C8.33579 12.5 8 12.1642 8 11.75C8 11.3358 8.33579 11 8.75 11H18.9393L15.4467 7.50736C15.1538 7.21447 15.1538 6.73959 15.4467 6.4467C15.7396 6.15381 16.2145 6.15381 16.5074 6.4467Z" fill="#383641"/>
</svg>
