<svg width="24" height="24" viewBox="0 0 24 24" fill="none" xmlns="http://www.w3.org/2000/svg">
<mask id="mask0_565_4805" style="mask-type:alpha" maskUnits="userSpaceOnUse" x="1" y="1" width="21" height="21">
<path fill-rule="evenodd" clip-rule="evenodd" d="M11.4247 1.06082C12.6461 1.0019 13.8605 1.27587 14.9383 1.85346C16.0161 2.43106 16.9168 3.29058 17.5441 4.34022C18.1713 5.3897 18.5021 6.58989 18.5003 7.81288L18.5003 7.82375C18.4745 9.44103 18.6776 11.0538 19.1038 12.6141C19.213 13.0137 18.9775 13.4261 18.578 13.5353C18.1784 13.6444 17.766 13.409 17.6568 13.0094C17.1938 11.3143 16.9728 9.56235 17.0003 7.80542C17.0008 6.85635 16.7436 5.92478 16.2565 5.10972C15.7686 4.29334 15.0681 3.62482 14.2298 3.17558C13.3915 2.72634 12.447 2.51325 11.497 2.55908C10.547 2.6049 9.62735 2.90792 8.8362 3.43577C8.49164 3.66566 8.02595 3.5727 7.79606 3.22813C7.56618 2.88357 7.65914 2.41788 8.0037 2.18799C9.02089 1.50934 10.2033 1.11974 11.4247 1.06082Z" fill="#383641"/>
<path fill-rule="evenodd" clip-rule="evenodd" d="M9.6432 19.163C10.0015 18.9552 10.4604 19.0771 10.6683 19.4354C10.7782 19.6249 10.9359 19.7821 11.1256 19.8914C11.3154 20.0007 11.5305 20.0582 11.7495 20.0582C11.9685 20.0582 12.1837 20.0007 12.3734 19.8914C12.5632 19.7821 12.7209 19.6249 12.8308 19.4354C13.0386 19.0771 13.4976 18.9552 13.8559 19.163C14.2142 19.3709 14.3361 19.8298 14.1283 20.1881C13.8865 20.6048 13.5396 20.9507 13.1221 21.1912C12.7046 21.4317 12.2313 21.5582 11.7495 21.5582C11.2678 21.5582 10.7944 21.4317 10.377 21.1912C9.9595 20.9507 9.61252 20.6048 9.37078 20.1881C9.16294 19.8298 9.28491 19.3709 9.6432 19.163Z" fill="#383641"/>
<path fill-rule="evenodd" clip-rule="evenodd" d="M6.23093 5.35475C6.62677 5.47677 6.84874 5.89657 6.72672 6.2924C6.57522 6.78388 6.49879 7.29541 6.5 7.80971L6.5 7.81147C6.5 11.422 5.7253 13.798 4.90842 15.2956C4.75135 15.5836 4.5933 15.838 4.43982 16.0615H16.75C17.1642 16.0615 17.5 16.3973 17.5 16.8115C17.5 17.2257 17.1642 17.5615 16.75 17.5615H2.75C2.4195 17.5615 2.12795 17.3451 2.03218 17.0288C1.9372 16.7151 2.05697 16.3764 2.3272 16.192L2.33583 16.1857C2.3471 16.1773 2.36855 16.1609 2.39877 16.1357C2.45919 16.0853 2.55477 15.9999 2.67429 15.8738C2.91292 15.6219 3.24898 15.2054 3.59158 14.5773C4.27464 13.325 5 10.5 5 7.81229" fill="#383641"/>
<path fill-rule="evenodd" clip-rule="evenodd" d="M1.21967 1.21967C1.51256 0.926777 1.98744 0.926777 2.28033 1.21967L21.7803 20.7197C22.0732 21.0126 22.0732 21.4874 21.7803 21.7803C21.4874 22.0732 21.0126 22.0732 20.7197 21.7803L1.21967 2.28033C0.926777 1.98744 0.926777 1.51256 1.21967 1.21967Z" fill="#383641"/>
</mask>
<g mask="url(#mask0_565_4805)">
<path d="M0 0H24V24H0V0Z" fill="#383641"/>
</g>
</svg>
