<svg width="24" height="24" viewBox="0 0 24 24" fill="none" xmlns="http://www.w3.org/2000/svg">
<mask id="mask0_512_993" style="mask-type:alpha" maskUnits="userSpaceOnUse" x="2" y="1" width="20" height="21">
<path fill-rule="evenodd" clip-rule="evenodd" d="M6.97709 2.97703C8.24296 1.71116 9.95985 1 11.7501 1C13.5403 1 15.2572 1.71116 16.523 2.97703C17.7889 4.2429 18.5001 5.95979 18.5001 7.75C18.5001 11.1395 19.2254 13.2635 19.9085 14.5159C20.2511 15.144 20.5871 15.5604 20.8258 15.8123C20.9453 15.9385 21.0409 16.0239 21.1013 16.0742C21.1315 16.0994 21.153 16.1158 21.1642 16.1242L21.1729 16.1305C21.4431 16.3149 21.5629 16.6536 21.4679 16.9673C21.3721 17.2837 21.0806 17.5 20.7501 17.5H2.75006C2.41956 17.5 2.12801 17.2837 2.03224 16.9673C1.93726 16.6536 2.05703 16.3149 2.32726 16.1305L2.33589 16.1242C2.34716 16.1158 2.36861 16.0994 2.39883 16.0742C2.45925 16.0239 2.55483 15.9385 2.67434 15.8123C2.91298 15.5604 3.24904 15.144 3.59164 14.5159C4.27476 13.2635 5.00006 11.1395 5.00006 7.75C5.00006 5.95979 5.71122 4.2429 6.97709 2.97703ZM4.43988 16H19.0602C18.9068 15.7765 18.7487 15.5221 18.5916 15.2341C17.7748 13.7365 17.0001 11.3605 17.0001 7.75C17.0001 6.35761 16.4469 5.02225 15.4624 4.03769C14.4778 3.05312 13.1424 2.5 11.7501 2.5C10.3577 2.5 9.02231 3.05312 8.03775 4.03769C7.05318 5.02226 6.50006 6.35761 6.50006 7.75C6.50006 11.3605 5.72536 13.7365 4.90848 15.2341C4.7514 15.5221 4.59336 15.7765 4.43988 16ZM9.64326 19.1012C10.0016 18.8934 10.4605 19.0154 10.6683 19.3737C10.7782 19.5631 10.9359 19.7203 11.1257 19.8296C11.3155 19.9389 11.5306 19.9965 11.7496 19.9965C11.9686 19.9965 12.1837 19.9389 12.3735 19.8296C12.5632 19.7203 12.721 19.5631 12.8308 19.3737C13.0387 19.0154 13.4976 18.8934 13.8559 19.1012C14.2142 19.3091 14.3362 19.768 14.1283 20.1263C13.8866 20.5431 13.5396 20.889 13.1222 21.1294C12.7047 21.3699 12.2314 21.4965 11.7496 21.4965C11.2678 21.4965 10.7945 21.3699 10.377 21.1294C9.95956 20.889 9.61258 20.5431 9.37084 20.1263C9.163 19.768 9.28497 19.3091 9.64326 19.1012Z" fill="#383641"/>
</mask>
<g mask="url(#mask0_512_993)">
<rect width="24" height="24" fill="#383641"/>
</g>
</svg>
