<svg width="24" height="24" viewBox="0 0 24 24" fill="none" xmlns="http://www.w3.org/2000/svg">
<mask id="mask0_1_23" style="mask-type:alpha" maskUnits="userSpaceOnUse" x="0" y="1" width="24" height="22">
<path d="M23.54 5.14008L12.1 1.19008C11.9473 1.14042 11.7828 1.14042 11.63 1.19008L0.470022 5.36008C0.383521 5.38907 0.303629 5.43494 0.234969 5.49502C0.16631 5.55509 0.110246 5.62819 0.0700222 5.71008C0.0353685 5.79238 0.0175171 5.88078 0.0175171 5.97008C0.0175171 6.05938 0.0353685 6.14778 0.0700222 6.23008C0.100564 6.32306 0.151401 6.40808 0.218853 6.47899C0.286306 6.5499 0.368684 6.60493 0.460022 6.64008H0.500022L2.87002 7.42008V13.9301C3.18002 15.2301 4.87002 16.0001 6.16002 16.4201L6.34002 16.4801V18.0001L6.21002 18.0801C5.93366 18.2249 5.70308 18.4438 5.54412 18.7122C5.38516 18.9807 5.3041 19.2881 5.31002 19.6001V21.1201C5.34305 21.5523 5.53807 21.9561 5.85605 22.2507C6.17403 22.5453 6.59154 22.709 7.02502 22.709C7.45851 22.709 7.87601 22.5453 8.19399 22.2507C8.51198 21.9561 8.70699 21.5523 8.74002 21.1201V19.6301C8.73894 19.3222 8.65475 19.0203 8.49635 18.7563C8.33794 18.4923 8.11118 18.2759 7.84002 18.1301L7.71002 18.0601V16.8801L8.01002 16.9301C9.3075 17.1586 10.6226 17.2724 11.94 17.2701C15.94 17.2701 20.47 16.2701 21.01 14.0001L21.08 7.46008V7.28008L23.48 6.43008C23.6499 6.36741 23.7894 6.2422 23.87 6.08008C23.9121 5.99356 23.9352 5.89912 23.9381 5.80298C23.9409 5.70684 23.9233 5.61119 23.8865 5.52235C23.8496 5.43351 23.7943 5.3535 23.7243 5.28761C23.6542 5.22171 23.571 5.17143 23.48 5.14008H23.54ZM6.40002 15.0801L6.05002 14.9401C4.83002 14.4801 4.24002 14.0001 4.24002 13.4701V7.89008L6.40002 8.61008V15.0801ZM19.77 13.5501C19.64 14.5501 16.63 15.8801 12 15.8801H11.85C10.5569 15.8781 9.26724 15.7475 8.00002 15.4901H7.80002V9.07008L11.89 10.4301C11.9585 10.4509 12.0316 10.4509 12.1 10.4301C12.1759 10.4452 12.2541 10.4452 12.33 10.4301L19.8 7.75008L19.77 13.5501ZM12.08 9.06008L8.81002 8.00008L11.11 6.79008C11.1921 6.74911 11.2647 6.69149 11.3232 6.6209C11.3818 6.55031 11.4249 6.46829 11.45 6.38008C11.4898 6.2482 11.4892 6.10743 11.4483 5.9759C11.4074 5.84436 11.328 5.72809 11.2205 5.64204C11.1129 5.55599 10.982 5.5041 10.8447 5.49306C10.7074 5.48202 10.57 5.51232 10.45 5.58008L7.00002 7.38008L2.78002 6.00008L11.89 2.62008L21.23 5.80008L12.08 9.06008Z" fill="#383641"/>
</mask>
<g mask="url(#mask0_1_23)">
<rect width="24" height="24" fill="#383641"/>
</g>
</svg>
