<svg width="24" height="24" viewBox="0 0 24 24" fill="none" xmlns="http://www.w3.org/2000/svg">
<path fill-rule="evenodd" clip-rule="evenodd" d="M11.7327 1.05584C11.911 0.982893 12.1106 0.981363 12.29 1.05157L23.0233 5.25157C23.3157 5.36598 23.5059 5.65042 23.4999 5.96434C23.4939 6.27827 23.2929 6.55522 22.9964 6.65837L12.2631 10.3917C12.1001 10.4484 11.9225 10.4471 11.7604 10.3882L1.49369 6.65485C1.2024 6.54892 1.00628 6.27472 1.00015 5.96483C0.994019 5.65494 1.17915 5.3732 1.46603 5.25584L11.7327 1.05584ZM12.0229 2.5578L3.83143 5.90884L12.0223 8.88732L20.586 5.90861L12.0229 2.5578Z" fill="#383641"/>
<path fill-rule="evenodd" clip-rule="evenodd" d="M4.08323 6.65736C4.49744 6.65736 4.83323 6.99315 4.83323 7.40736V13.474C4.83323 13.6407 4.91233 13.8543 5.23591 14.1153C5.5672 14.3826 6.08784 14.6391 6.7869 14.8584C8.17786 15.2948 10.0795 15.524 12.0166 15.524C13.9537 15.524 15.8553 15.2948 17.2462 14.8584C17.9453 14.6391 18.4659 14.3826 18.7972 14.1153C19.1208 13.8543 19.1999 13.6407 19.1999 13.474V7.40736C19.1999 6.99315 19.5357 6.65736 19.9499 6.65736C20.3641 6.65736 20.6999 6.99315 20.6999 7.40736V13.474C20.6999 14.2407 20.2832 14.8438 19.739 15.2828C19.2026 15.7155 18.4837 16.0423 17.6952 16.2896C16.1112 16.7866 14.0461 17.024 12.0166 17.024C9.987 17.024 7.92194 16.7866 6.33789 16.2896C5.54945 16.0423 4.83051 15.7155 4.29409 15.2828C3.74996 14.8438 3.33323 14.2407 3.33323 13.474V7.40736C3.33323 6.99315 3.66902 6.65736 4.08323 6.65736Z" fill="#383641"/>
<path fill-rule="evenodd" clip-rule="evenodd" d="M12.2314 5.638C12.4039 6.01458 12.2385 6.45971 11.8619 6.63223L8.09957 8.35583V18.2502C8.09957 18.6644 7.76378 19.0002 7.34957 19.0002C6.93535 19.0002 6.59957 18.6644 6.59957 18.2502V7.39309L11.2372 5.26852C11.6138 5.096 12.0589 5.26143 12.2314 5.638Z" fill="#383641"/>
<path fill-rule="evenodd" clip-rule="evenodd" d="M7.34994 20.9167C7.81017 20.9167 8.18327 20.5436 8.18327 20.0833C8.18327 19.6231 7.81017 19.25 7.34994 19.25C6.8897 19.25 6.5166 19.6231 6.5166 20.0833C6.5166 20.5436 6.8897 20.9167 7.34994 20.9167ZM7.34994 22.4167C8.6386 22.4167 9.68327 21.372 9.68327 20.0833C9.68327 18.7947 8.6386 17.75 7.34994 17.75C6.06127 17.75 5.0166 18.7947 5.0166 20.0833C5.0166 21.372 6.06127 22.4167 7.34994 22.4167Z" fill="#383641"/>
</svg>
