<svg width="24" height="24" viewBox="0 0 24 24" fill="none" xmlns="http://www.w3.org/2000/svg">
<g clip-path="url(#clip0_1_21)">
<mask id="mask0_1_21" style="mask-type:alpha" maskUnits="userSpaceOnUse" x="0" y="1" width="24" height="22">
<path d="M23.33 21.2H22V9.71997C22.0075 9.62351 21.9941 9.52656 21.9605 9.43579C21.927 9.34503 21.8742 9.26261 21.8058 9.19419C21.7374 9.12577 21.655 9.07298 21.5642 9.03946C21.4734 9.00593 21.3765 8.99246 21.28 8.99997H17.21C17.1212 8.99996 17.0332 9.01762 16.9513 9.05191C16.8693 9.08621 16.795 9.13645 16.7327 9.19973C16.6703 9.26301 16.6212 9.33806 16.5881 9.4205C16.555 9.50295 16.5387 9.59115 16.54 9.67997V21.2H15V14.38C15 14.1996 14.9284 14.0267 14.8008 13.8991C14.6733 13.7716 14.5004 13.7 14.32 13.7H10.25C10.1603 13.6986 10.0713 13.7153 9.9882 13.749C9.90509 13.7827 9.82959 13.8327 9.76618 13.8961C9.70276 13.9595 9.65272 14.035 9.61903 14.1182C9.58533 14.2013 9.56866 14.2903 9.57001 14.38V21.2H8.00001V17.59C8.00003 17.4113 7.92976 17.2399 7.80439 17.1126C7.67902 16.9854 7.50862 16.9126 7.33001 16.91H3.28001C3.1014 16.9126 2.931 16.9854 2.80563 17.1126C2.68026 17.2399 2.60999 17.4113 2.61001 17.59V21.2H1.34001V13.3H1.45001C4.2327 12.8061 6.88439 11.7463 9.24092 10.1862C11.5975 8.62606 13.6087 6.59882 15.15 4.22997L15.32 3.95997L16 7.19997C16.0177 7.28664 16.0524 7.36898 16.1019 7.44227C16.1515 7.51556 16.215 7.57837 16.2888 7.62712C16.3626 7.67587 16.4453 7.70961 16.5322 7.72639C16.619 7.74318 16.7083 7.7427 16.795 7.72497C16.8817 7.70724 16.964 7.67262 17.0373 7.62307C17.1106 7.57352 17.1734 7.51003 17.2222 7.4362C17.2709 7.36238 17.3046 7.27968 17.3214 7.19282C17.3382 7.10596 17.3377 7.01664 17.32 6.92997L16.3 1.99997C16.2853 1.90646 16.251 1.81711 16.1993 1.73782C16.1476 1.65853 16.0797 1.5911 16 1.53997C15.9275 1.49108 15.8456 1.45783 15.7595 1.44234C15.6734 1.42684 15.585 1.42944 15.5 1.44997L10.58 2.44997C10.4934 2.46661 10.4111 2.50043 10.3378 2.54942C10.2645 2.59842 10.2018 2.6616 10.1533 2.73523C10.1048 2.80887 10.0716 2.89147 10.0556 2.97816C10.0396 3.06485 10.0411 3.15387 10.06 3.23997C10.0727 3.32877 10.1039 3.41391 10.1516 3.48986C10.1994 3.56581 10.2625 3.63089 10.337 3.68086C10.4115 3.73084 10.4957 3.76459 10.584 3.77994C10.6724 3.7953 10.763 3.7919 10.85 3.76997L14.26 3.08997L14.11 3.32997C12.6923 5.53187 10.8447 7.42496 8.67788 8.89582C6.51111 10.3667 4.06973 11.3851 1.50001 11.89H1.34001V6.76997C1.34003 6.59134 1.26976 6.41988 1.14439 6.29264C1.01902 6.1654 0.848622 6.0926 0.670014 6.08997C0.491405 6.0926 0.321002 6.1654 0.195633 6.29264C0.0702626 6.41988 -5.71473e-06 6.59134 1.36016e-05 6.76997V21.87C-0.00131227 21.9588 0.0150387 22.047 0.0481152 22.1294C0.0811918 22.2119 0.130333 22.2869 0.192681 22.3502C0.255029 22.4135 0.329338 22.4637 0.411285 22.498C0.493232 22.5323 0.58118 22.55 0.670014 22.55H23.33C23.4949 22.5299 23.6467 22.4501 23.7568 22.3258C23.8669 22.2014 23.9277 22.0411 23.9277 21.875C23.9277 21.7089 23.8669 21.5485 23.7568 21.4242C23.6467 21.2998 23.4949 21.2201 23.33 21.2ZM6.67001 21.2H4.00001V18.27H6.67001V21.2ZM13.67 21.2H10.92V15.05H13.64L13.67 21.2ZM20.67 21.2H17.88V10.39H20.61L20.67 21.2Z" fill="#383641"/>
</mask>
<g mask="url(#mask0_1_21)">
<rect width="24" height="24" fill="#383641"/>
</g>
</g>
<defs>
<clipPath id="clip0_1_21">
<rect width="24" height="24" fill="white"/>
</clipPath>
</defs>
</svg>
