<svg width="24" height="24" viewBox="0 0 24 24" fill="none" xmlns="http://www.w3.org/2000/svg">
<g clip-path="url(#clip0_1_15)">
<mask id="mask0_1_15" style="mask-type:alpha" maskUnits="userSpaceOnUse" x="0" y="0" width="24" height="24">
<path d="M23.3 16.92H16.92V12C16.92 11.8144 16.8463 11.6363 16.715 11.5051C16.5837 11.3738 16.4057 11.3 16.22 11.3H7.78C7.59435 11.3 7.4163 11.3738 7.28503 11.5051C7.15375 11.6363 7.08 11.8144 7.08 12V14.11H0.7C0.514348 14.11 0.336301 14.1838 0.205025 14.3151C0.0737498 14.4463 0 14.6244 0 14.81L0 23.3C0 23.4857 0.0737498 23.6637 0.205025 23.795C0.336301 23.9263 0.514348 24 0.7 24H23.3C23.4857 24 23.6637 23.9263 23.795 23.795C23.9263 23.6637 24 23.4857 24 23.3V17.62C24 17.4344 23.9263 17.2563 23.795 17.1251C23.6637 16.9938 23.4857 16.92 23.3 16.92ZM22.59 22.59H1.41V15.52H7.78C7.87277 15.52 7.96462 15.5016 8.05021 15.4658C8.13579 15.43 8.21341 15.3775 8.27854 15.3115C8.34368 15.2454 8.39503 15.1671 8.42961 15.081C8.4642 14.9949 8.48133 14.9028 8.48 14.81V12.7H15.48V17.62C15.4787 17.7128 15.4958 17.8049 15.5304 17.891C15.565 17.9771 15.6163 18.0554 15.6815 18.1215C15.7466 18.1875 15.8242 18.24 15.9098 18.2758C15.9954 18.3116 16.0872 18.33 16.18 18.33H22.55L22.59 22.59ZM9.24 5.82003L8.82 8.21003C8.80046 8.33958 8.81614 8.47201 8.86541 8.59341C8.91467 8.71482 8.9957 8.82073 9.1 8.90003C9.20189 8.98378 9.32509 9.0375 9.45579 9.05517C9.5865 9.07283 9.71954 9.05374 9.84 9.00003L12 7.83003L14.15 9.00003C14.2666 9.05856 14.3967 9.0848 14.5268 9.07601C14.657 9.06721 14.7824 9.02371 14.89 8.95003C14.9951 8.87146 15.0768 8.76565 15.1261 8.64404C15.1755 8.52242 15.1906 8.38964 15.17 8.26003L14.76 5.86003L16.5 4.13003C16.5945 4.03895 16.6614 3.92315 16.6933 3.79585C16.7251 3.66854 16.7205 3.53485 16.68 3.41003C16.6427 3.28463 16.5701 3.17264 16.4707 3.08751C16.3714 3.00237 16.2496 2.94769 16.12 2.93003L13.71 2.57003L12.64 0.390027C12.5803 0.271798 12.4887 0.17262 12.3757 0.103702C12.2626 0.0347838 12.1324 -0.00112737 12 2.6978e-05C11.8693 0.000727307 11.7413 0.0375128 11.6301 0.106329C11.5189 0.175144 11.4289 0.273318 11.37 0.390027L10.3 2.57003L7.89 2.92003C7.75901 2.93708 7.63567 2.99138 7.53463 3.07646C7.43359 3.16155 7.3591 3.27385 7.32 3.40003C7.2818 3.52507 7.27837 3.65816 7.31008 3.78501C7.3418 3.91185 7.40745 4.02767 7.5 4.12003L9.24 5.82003ZM10.86 3.91003C10.9725 3.89446 11.0796 3.85172 11.172 3.78552C11.2643 3.71931 11.3391 3.63162 11.39 3.53003L12 2.29003L12.61 3.53003C12.6609 3.63162 12.7357 3.71931 12.828 3.78552C12.9204 3.85172 13.0275 3.89446 13.14 3.91003L14.5 4.11003L13.5 5.11003C13.4171 5.18843 13.3547 5.28591 13.3181 5.39397C13.2815 5.50203 13.2718 5.61739 13.29 5.73003L13.52 7.09003L12.31 6.45003C12.2085 6.39575 12.0951 6.36736 11.98 6.36736C11.8649 6.36736 11.7515 6.39575 11.65 6.45003L10.43 7.09003L10.67 5.73003C10.6873 5.61742 10.6773 5.50229 10.6407 5.39438C10.6042 5.28647 10.5422 5.18894 10.46 5.11003L9.46 4.11003L10.86 3.91003ZM13.41 18.33H12.7V14.81C12.6995 14.6716 12.6586 14.5362 12.5822 14.4208C12.5058 14.3053 12.3973 14.2146 12.27 14.16C12.1406 14.1051 11.9976 14.091 11.86 14.1196C11.7224 14.1482 11.5968 14.2181 11.5 14.32L10.1 15.72C9.96739 15.8526 9.89289 16.0325 9.89289 16.22C9.89289 16.4076 9.96739 16.5874 10.1 16.72C10.2326 16.8526 10.4125 16.9271 10.6 16.9271C10.7875 16.9271 10.9674 16.8526 11.1 16.72L11.31 16.51V18.33H10.6C10.4143 18.33 10.2363 18.4038 10.105 18.5351C9.97375 18.6663 9.9 18.8444 9.9 19.03C9.9 19.2157 9.97375 19.3937 10.105 19.525C10.2363 19.6563 10.4143 19.73 10.6 19.73H13.42C13.6057 19.73 13.7837 19.6563 13.915 19.525C14.0463 19.3937 14.12 19.2157 14.12 19.03C14.12 18.8444 14.0463 18.6663 13.915 18.5351C13.7837 18.4038 13.6057 18.33 13.42 18.33H13.41Z" fill="#383641"/>
</mask>
<g mask="url(#mask0_1_15)">
<rect width="24" height="24" fill="#383641"/>
</g>
</g>
<defs>
<clipPath id="clip0_1_15">
<rect width="24" height="24" fill="white"/>
</clipPath>
</defs>
</svg>
