<svg width="24" height="24" viewBox="0 0 24 24" fill="none" xmlns="http://www.w3.org/2000/svg">
<path fill-rule="evenodd" clip-rule="evenodd" d="M11.8807 1C12.1863 1 12.4614 1.18547 12.576 1.46881L13.417 3.54846L15.6548 3.70569C15.9597 3.72711 16.221 3.9314 16.3155 4.22208C16.4099 4.51276 16.3186 4.83168 16.0845 5.02822L14.3665 6.47074L14.9085 8.64756C14.9823 8.94415 14.8688 9.25587 14.6215 9.43553C14.3743 9.61518 14.0427 9.62681 13.7835 9.46493L11.8807 8.27681L9.97788 9.46493C9.71863 9.62681 9.38708 9.61518 9.13981 9.43553C8.89254 9.25587 8.77902 8.94415 8.85287 8.64756L9.39484 6.47074L7.67687 5.02822C7.4428 4.83168 7.35141 4.51276 7.44586 4.22208C7.54031 3.9314 7.8017 3.72711 8.10659 3.70569L10.3443 3.54846L11.1854 1.46881C11.3 1.18547 11.575 1 11.8807 1ZM11.8807 3.75045L11.5594 4.54498C11.4519 4.81065 11.2025 4.99187 10.9166 5.01195L10.0617 5.07202L10.718 5.62314C10.9375 5.80741 11.0328 6.10063 10.9635 6.37871L10.7565 7.21036L11.4835 6.75644C11.7265 6.60467 12.0348 6.60467 12.2779 6.75644L13.0049 7.21036L12.7978 6.37871C12.7286 6.10063 12.8239 5.80741 13.0433 5.62314L13.6997 5.07202L12.8447 5.01195C12.5589 4.99187 12.3094 4.81065 12.202 4.54498L11.8807 3.75045ZM7.65217 12.1843C7.65217 11.7701 7.98796 11.4343 8.40217 11.4343H14.4891C14.9033 11.4343 15.2391 11.7701 15.2391 12.1843V13.1735H20.5761C20.9903 13.1735 21.3261 13.5093 21.3261 13.9235V21.7496C21.3261 22.1638 20.9903 22.4996 20.5761 22.4996H14.5004C14.4967 22.4996 14.493 22.4996 14.4892 22.4996C14.4855 22.4996 14.4817 22.4996 14.478 22.4996H8.43438C8.42397 22.5 8.41351 22.5002 8.403 22.5002C8.39242 22.5002 8.3819 22.5 8.37143 22.4996H2.75C2.33579 22.4996 2 22.1638 2 21.7496V16.0974C2 15.6832 2.33579 15.3474 2.75 15.3474H7.65217V12.1843ZM7.65227 16.8474H3.5V20.9996H7.65281L7.65227 16.8474ZM9.15281 20.9996H13.7392L13.7391 12.9343H9.15217L9.15281 20.9996ZM15.2392 20.9996H19.8261V14.6735H15.2391L15.2392 20.9996Z" fill="#383641"/>
</svg>
