<svg width="24" height="24" viewBox="0 0 24 24" fill="none" xmlns="http://www.w3.org/2000/svg">
<g clip-path="url(#clip0_1_17)">
<mask id="mask0_1_17" style="mask-type:alpha" maskUnits="userSpaceOnUse" x="-1" y="3" width="26" height="18">
<path d="M11.89 11.0001C12.644 10.9883 13.3777 10.7542 13.9992 10.3271C14.6206 9.89997 15.1022 9.29893 15.3835 8.59929C15.6648 7.89965 15.7333 7.13253 15.5804 6.39412C15.4275 5.6557 15.0601 4.97885 14.5241 4.4484C13.9882 3.91795 13.3076 3.55752 12.5676 3.41228C11.8277 3.26705 11.0613 3.34348 10.3646 3.63199C9.66789 3.9205 9.07186 4.40825 8.65122 5.0341C8.23058 5.65995 8.00404 6.39604 8.00001 7.15011C8.00131 7.6587 8.10311 8.16202 8.29956 8.63115C8.496 9.10028 8.78322 9.52596 9.14471 9.88372C9.50619 10.2415 9.93482 10.5243 10.4059 10.7159C10.8771 10.9075 11.3814 11.0041 11.89 11.0001ZM11.89 4.70011C12.3801 4.70406 12.858 4.85312 13.2634 5.12846C13.6688 5.4038 13.9835 5.79308 14.1678 6.24716C14.3522 6.70123 14.3979 7.19974 14.2991 7.67976C14.2004 8.15977 13.9616 8.59977 13.613 8.9442C13.2644 9.28864 12.8215 9.52206 12.3404 9.61501C11.8592 9.70796 11.3613 9.65627 10.9094 9.46646C10.4576 9.27665 10.0722 8.95723 9.80175 8.54853C9.53133 8.13983 9.38805 7.66017 9.39001 7.17011C9.39266 6.5088 9.65721 5.87548 10.1258 5.4088C10.5943 4.94212 11.2287 4.6801 11.89 4.68011V4.70011ZM4.35001 13.3001C4.92378 13.2922 5.48242 13.1149 5.95568 12.7904C6.42893 12.4658 6.79568 12.0087 7.00981 11.4763C7.22394 10.9439 7.27589 10.3601 7.15913 9.79827C7.04237 9.23645 6.76212 8.72168 6.3536 8.3187C5.94508 7.91572 5.42654 7.64252 4.86317 7.53344C4.29981 7.42436 3.71676 7.48428 3.18736 7.70566C2.65795 7.92703 2.20581 8.29999 1.88779 8.77763C1.56977 9.25527 1.40006 9.81628 1.40001 10.3901C1.40263 10.7749 1.48101 11.1554 1.63068 11.5099C1.78035 11.8643 1.99837 12.1859 2.27231 12.4561C2.54624 12.7263 2.87072 12.9399 3.22721 13.0847C3.58371 13.2296 3.96523 13.3027 4.35001 13.3001ZM4.35001 8.82011C4.66009 8.82208 4.96265 8.91584 5.21951 9.08955C5.47638 9.26326 5.67605 9.50914 5.79335 9.79619C5.91065 10.0832 5.94032 10.3986 5.87861 10.7025C5.81691 11.0064 5.6666 11.2852 5.44664 11.5038C5.22668 11.7223 4.94692 11.8709 4.64264 11.9306C4.33837 11.9904 4.02321 11.9587 3.73691 11.8396C3.45061 11.7205 3.206 11.5193 3.03392 11.2613C2.86185 11.0033 2.77002 10.7002 2.77001 10.3901C2.77265 9.9728 2.94028 9.57348 3.2363 9.27934C3.53232 8.98519 3.93269 8.8201 4.35001 8.82011ZM19.43 13.3001C20.0042 13.2942 20.5639 13.1185 21.0385 12.7952C21.513 12.4718 21.8814 12.0153 22.097 11.4831C22.3127 10.9509 22.366 10.3667 22.2504 9.80423C22.1347 9.24173 21.8553 8.72603 21.4471 8.32206C21.039 7.91808 20.5204 7.64389 19.9568 7.53402C19.3931 7.42415 18.8096 7.4835 18.2796 7.70461C17.7496 7.92571 17.2969 8.29868 16.9784 8.77656C16.66 9.25443 16.49 9.81585 16.49 10.3901C16.4953 11.1655 16.8077 11.9071 17.3588 12.4525C17.9098 12.998 18.6546 13.3028 19.43 13.3001ZM19.43 8.82011C19.7401 8.82208 20.0426 8.91584 20.2995 9.08955C20.5564 9.26326 20.7561 9.50914 20.8734 9.79619C20.9906 10.0832 21.0203 10.3986 20.9586 10.7025C20.8969 11.0064 20.7466 11.2852 20.5266 11.5038C20.3067 11.7223 20.0269 11.8709 19.7226 11.9306C19.4184 11.9904 19.1032 11.9587 18.8169 11.8396C18.5306 11.7205 18.286 11.5193 18.1139 11.2613C17.9418 11.0033 17.85 10.7002 17.85 10.3901C17.8527 9.9728 18.0203 9.57348 18.3163 9.27934C18.6123 8.98519 19.0127 8.8201 19.43 8.82011ZM19.54 15.1601C18.8422 15.158 18.1548 15.3299 17.54 15.6601L17.43 15.7201L17.37 15.6201C16.7865 14.7118 15.9869 13.9624 15.0428 13.4388C14.0987 12.9153 13.0395 12.634 11.96 12.6201C10.8805 12.634 9.82134 12.9153 8.87722 13.4388C7.9331 13.9624 7.13351 14.7118 6.55001 15.6201L6.49001 15.7201L6.38001 15.6601C5.76523 15.3299 5.07786 15.158 4.38001 15.1601C3.16243 15.235 2.02248 15.7833 1.20395 16.6878C0.385424 17.5923 -0.0466959 18.7811 9.64361e-06 20.0001C-1.04541e-07 20.0903 0.0179144 20.1795 0.0527113 20.2627C0.0875081 20.3458 0.138493 20.4212 0.202699 20.4845C0.266906 20.5478 0.343054 20.5977 0.426713 20.6312C0.510372 20.6648 0.599873 20.6814 0.69001 20.6801C0.870357 20.6801 1.04332 20.6085 1.17084 20.4809C1.29837 20.3534 1.37001 20.1805 1.37001 20.0001C1.32061 19.1301 1.61631 18.2757 2.19293 17.6223C2.76956 16.9689 3.58058 16.5693 4.45001 16.5101C4.91963 16.5074 5.38172 16.628 5.79001 16.8601L5.89001 16.9101V17.0101C5.49205 17.957 5.28476 18.973 5.28001 20.0001C5.30027 20.1675 5.38115 20.3217 5.50736 20.4336C5.63357 20.5454 5.79637 20.6072 5.96501 20.6072C6.13365 20.6072 6.29645 20.5454 6.42266 20.4336C6.54887 20.3217 6.62974 20.1675 6.65001 20.0001C6.65001 16.7001 9.05001 14.0001 12 14.0001C14.95 14.0001 17.35 16.6901 17.35 20.0001C17.3703 20.1675 17.4511 20.3217 17.5774 20.4336C17.7036 20.5454 17.8664 20.6072 18.035 20.6072C18.2036 20.6072 18.3665 20.5454 18.4927 20.4336C18.6189 20.3217 18.6997 20.1675 18.72 20.0001C18.7293 18.9723 18.5356 17.9529 18.15 17.0001V16.9001L18.25 16.8501C18.6557 16.6206 19.1139 16.5 19.58 16.5001C20.4449 16.5692 21.2484 16.9742 21.8185 17.6284C22.3885 18.2825 22.6798 19.1339 22.63 20.0001C22.6503 20.1675 22.7311 20.3217 22.8574 20.4336C22.9836 20.5454 23.1464 20.6072 23.315 20.6072C23.4837 20.6072 23.6465 20.5454 23.7727 20.4336C23.8989 20.3217 23.9797 20.1675 24 20.0001C24.0461 18.768 23.6031 17.5676 22.7675 16.6609C21.932 15.7542 20.7718 15.2147 19.54 15.1601Z" fill="#383641"/>
</mask>
<g mask="url(#mask0_1_17)">
<rect width="24" height="24" fill="#383641"/>
</g>
</g>
<defs>
<clipPath id="clip0_1_17">
<rect width="24" height="24" fill="white"/>
</clipPath>
</defs>
</svg>
