<svg width="24" height="24" viewBox="0 0 24 24" fill="none" xmlns="http://www.w3.org/2000/svg">
<mask id="mask0_1_17" style="mask-type:alpha" maskUnits="userSpaceOnUse" x="2" y="1" width="20" height="22">
<path fill-rule="evenodd" clip-rule="evenodd" d="M17.75 2.5C16.5074 2.5 15.5 3.50736 15.5 4.75C15.5 5.1447 15.6016 5.51567 15.7802 5.83816C15.7897 5.85227 15.7989 5.8668 15.8076 5.88174C15.8163 5.89661 15.8244 5.91165 15.8319 5.92683C16.2278 6.57067 16.9388 7 17.75 7C18.9926 7 20 5.99264 20 4.75C20 3.50736 18.9926 2.5 17.75 2.5ZM14.9535 7.24853C15.6402 8.01657 16.6387 8.5 17.75 8.5C19.8211 8.5 21.5 6.82107 21.5 4.75C21.5 2.67893 19.8211 1 17.75 1C15.6789 1 14 2.67893 14 4.75C14 5.17085 14.0693 5.57551 14.1972 5.95318L8.54607 9.25105C7.85939 8.48325 6.86113 8 5.75 8C3.67893 8 2 9.67893 2 11.75C2 13.8211 3.67893 15.5 5.75 15.5C6.86144 15.5 7.85994 15.0165 8.54664 14.2483L14.1988 17.542C14.0699 17.921 14 18.3274 14 18.75C14 20.8211 15.6789 22.5 17.75 22.5C19.8211 22.5 21.5 20.8211 21.5 18.75C21.5 16.6789 19.8211 15 17.75 15C16.6405 15 15.6435 15.4818 14.957 16.2477L9.30291 12.9529C9.43071 12.5753 9.5 12.1708 9.5 11.75C9.5 11.3289 9.43061 10.9241 9.30263 10.5463L14.9535 7.24853ZM7.66766 10.5725C7.67523 10.5878 7.68337 10.6029 7.69208 10.6178C7.70088 10.6329 7.71013 10.6475 7.7198 10.6618C7.89835 10.9843 8 11.3553 8 11.75C8 12.1437 7.89888 12.5138 7.72119 12.8357C7.71093 12.8507 7.70114 12.8662 7.69184 12.8822C7.68277 12.8977 7.67433 12.9135 7.6665 12.9294C7.27032 13.5718 6.56016 14 5.75 14C4.50736 14 3.5 12.9926 3.5 11.75C3.5 10.5074 4.50736 9.5 5.75 9.5C6.56095 9.5 7.2717 9.92903 7.66766 10.5725ZM15.7543 17.71C15.7774 17.6811 15.7987 17.6503 15.8179 17.6174C15.8363 17.5857 15.8522 17.5532 15.8656 17.5201C16.2673 16.9058 16.9613 16.5 17.75 16.5C18.9926 16.5 20 17.5074 20 18.75C20 19.9926 18.9926 21 17.75 21C16.5074 21 15.5 19.9926 15.5 18.75C15.5 18.3748 15.5918 18.021 15.7543 17.71Z" fill="#383641"/>
</mask>
<g mask="url(#mask0_1_17)">
<rect width="24" height="24" fill="#383641"/>
</g>
</svg>
