<svg width="24" height="24" viewBox="0 0 24 24" fill="none" xmlns="http://www.w3.org/2000/svg">
<g clip-path="url(#clip0_1_11)">
<mask id="mask0_1_11" style="mask-type:alpha" maskUnits="userSpaceOnUse" x="1" y="0" width="20" height="25">
<path d="M20.63 0.7C20.63 0.514348 20.5562 0.336301 20.4249 0.205025C20.2937 0.0737498 20.1156 0 19.93 0H5.48997C5.00802 0.00131143 4.53104 0.0975379 4.08628 0.283185C3.64152 0.468833 3.23768 0.740265 2.89781 1.08199C2.55795 1.42371 2.28872 1.82902 2.1055 2.27479C1.92228 2.72056 1.82865 3.19805 1.82997 3.68V19C1.82997 19.969 2.2142 20.8984 2.89842 21.5845C3.58264 22.2706 4.51101 22.6574 5.47997 22.66H10.48V23.34C10.4802 23.4657 10.5148 23.589 10.58 23.6965C10.6452 23.804 10.7386 23.8917 10.85 23.95C10.9564 24.0165 11.0794 24.0518 11.205 24.0518C11.3305 24.0518 11.4535 24.0165 11.56 23.95L12.83 23.13L14.1 23.95C14.2147 24.0196 14.3458 24.0575 14.48 24.06C14.596 24.0595 14.7098 24.0285 14.81 23.97C14.9214 23.9117 15.0147 23.824 15.0799 23.7165C15.1451 23.609 15.1797 23.4857 15.18 23.36V22.68H19.88C20.0656 22.68 20.2437 22.6063 20.3749 22.475C20.5062 22.3437 20.58 22.1657 20.58 21.98V0.7H20.63ZM19.23 15.29H6.22997V1.41H19.23V15.29ZM4.78997 1.52V15.36C4.21886 15.4686 3.68317 15.7159 3.22997 16.08V3.68C3.22915 3.20149 3.37956 2.73496 3.65972 2.34705C3.93989 1.95913 4.33547 1.66966 4.78997 1.52ZM13.79 22.01L13.22 21.65C13.1063 21.578 12.9745 21.5397 12.84 21.5397C12.7054 21.5397 12.5736 21.578 12.46 21.65L11.9 22.01V19.71H13.79V22V22.01ZM19.19 21.21H15.19V19.66H17.09C17.2756 19.66 17.4537 19.5863 17.5849 19.455C17.7162 19.3237 17.79 19.1457 17.79 18.96C17.7913 18.8672 17.7742 18.7751 17.7396 18.689C17.705 18.603 17.6536 18.5246 17.5885 18.4585C17.5234 18.3925 17.4458 18.34 17.3602 18.3042C17.2746 18.2684 17.1827 18.25 17.09 18.25H5.48997C5.3034 18.2526 5.12537 18.3286 4.99438 18.4615C4.86338 18.5943 4.78995 18.7734 4.78997 18.96C4.78997 19.1457 4.86372 19.3237 4.99499 19.455C5.12627 19.5863 5.30432 19.66 5.48997 19.66H10.49V21.21H5.48997C4.91786 21.1719 4.38162 20.9177 3.98989 20.499C3.59816 20.0803 3.38022 19.5284 3.38022 18.955C3.38022 18.3816 3.59816 17.8297 3.98989 17.411C4.38162 16.9923 4.91786 16.7381 5.48997 16.7H19.23V21.21H19.19Z" fill="#383641"/>
</mask>
<g mask="url(#mask0_1_11)">
<rect width="24" height="24" fill="#383641"/>
</g>
</g>
<defs>
<clipPath id="clip0_1_11">
<rect width="24" height="24" fill="white"/>
</clipPath>
</defs>
</svg>
