<svg width="24" height="24" viewBox="0 0 24 24" fill="none" xmlns="http://www.w3.org/2000/svg">
<mask id="mask0_1_30" style="mask-type:alpha" maskUnits="userSpaceOnUse" x="1" y="3" width="21" height="18">
<path fill-rule="evenodd" clip-rule="evenodd" d="M4.95604 3.02886L4.75 3.75001C4.95604 3.02886 4.95594 3.02883 4.95604 3.02886L4.97766 3.03507L5.03782 3.05248C5.09021 3.0677 5.16661 3.09003 5.2636 3.11872C5.45753 3.17611 5.73398 3.25905 6.06551 3.36167C6.72766 3.56662 7.61364 3.85134 8.50225 4.1687C9.38525 4.48406 10.2942 4.83986 10.9917 5.18856C11.2594 5.32244 11.5157 5.46488 11.734 5.6139C11.9351 5.46823 12.1681 5.3293 12.4101 5.19903C13.0619 4.84804 13.9097 4.49079 14.7308 4.175C15.5575 3.857 16.3816 3.57182 16.9972 3.36662C17.3055 3.26386 17.5626 3.1808 17.743 3.12331C17.8332 3.09455 17.9043 3.07218 17.9531 3.05692L18.0092 3.03944L18.0289 3.03332C18.029 3.03329 18.0294 3.03317 18.25 3.75001L18.0289 3.03332C18.2564 2.96333 18.5041 3.00531 18.6956 3.14671C18.887 3.28812 19 3.512 19 3.75001V6.04268C19.0782 6.01504 19.1623 6.00001 19.25 6.00001H21.25C21.6642 6.00001 22 6.33579 22 6.75001V17.75C22 18.1259 21.7217 18.4437 21.3491 18.4934C20.1144 18.6581 18.2549 18.9555 16.458 19.3108C14.6419 19.6698 12.9558 20.0755 12.0285 20.4464C11.8694 20.51 11.6933 20.5172 11.5294 20.4668C11.4828 20.4525 11.4354 20.4379 11.387 20.423C9.16053 19.7374 5.14195 18.5 1.75 18.5C1.33579 18.5 1 18.1642 1 17.75V6.75001C1 6.33579 1.33579 6.00001 1.75 6.00001H3.75C3.83766 6.00001 3.92181 6.01504 4 6.04268V3.75001C4 3.51466 4.11047 3.29297 4.29835 3.15124C4.48624 3.00952 4.72975 2.96421 4.95604 3.02886ZM4 7.45733C3.92181 7.48497 3.83766 7.50001 3.75 7.50001H2.5V17.0175C4.68347 17.1169 7.00721 17.6238 8.93753 18.1423C8.62363 17.9858 8.29217 17.8341 7.95456 17.6894C7.10508 17.3253 6.25108 17.0201 5.60658 16.8053C5.28513 16.6981 5.01764 16.6141 4.83125 16.557C4.73808 16.5285 4.66528 16.5067 4.61625 16.4923L4.56097 16.4761L4.54752 16.4722L4.54448 16.4713C4.22257 16.3793 4 16.0848 4 15.75V7.45733ZM5.5 15.194C5.66443 15.2457 5.86069 15.3088 6.08092 15.3822C6.74892 15.6049 7.64492 15.9247 8.54544 16.3106C9.40075 16.6772 10.2925 17.117 11 17.6062V6.93501C10.9955 6.9314 10.9908 6.92764 10.9859 6.92373C10.8533 6.81956 10.6322 6.68589 10.3208 6.5302C9.70575 6.22266 8.86475 5.89096 7.99775 5.58131C7.13636 5.27367 6.27234 4.9959 5.62199 4.7946C5.58042 4.78173 5.53973 4.76918 5.5 4.75696V15.194ZM14.1527 18.2714C14.7979 18.1198 15.4829 17.9745 16.167 17.8392C17.7033 17.5355 19.2837 17.2734 20.5 17.0973V7.50001H19.25C19.1623 7.50001 19.0782 7.48497 19 7.45733V15.75C19 16.0792 18.7853 16.3699 18.4707 16.4668L18.4675 16.4678L18.4552 16.4716L18.4043 16.4877C18.359 16.5021 18.2917 16.5237 18.2055 16.5521C18.0331 16.609 17.7854 16.6928 17.4878 16.7997C16.8908 17.0139 16.1002 17.3182 15.3143 17.681C14.9093 17.8679 14.5145 18.0663 14.1527 18.2714ZM17.5 15.2065V4.78017C17.4906 4.78331 17.4811 4.78647 17.4715 4.78964C16.8684 4.99069 16.0675 5.26801 15.2692 5.57502C14.4653 5.88422 13.6881 6.21448 13.1212 6.51973C12.8342 6.67425 12.6331 6.80559 12.5138 6.90653C12.5089 6.91065 12.5043 6.9146 12.5 6.91836V17.5445C13.1435 17.0827 13.9308 16.6674 14.6857 16.319C15.5248 15.9318 16.3592 15.6111 16.981 15.3879C17.1763 15.3177 17.3514 15.257 17.5 15.2065ZM6.57918 8.4146C6.76442 8.04411 7.21493 7.89394 7.58541 8.07919L9.58541 9.07919C9.95589 9.26443 10.1061 9.71493 9.92082 10.0854C9.73558 10.4559 9.28507 10.6061 8.91459 10.4208L6.91459 9.42083C6.54411 9.23559 6.39394 8.78508 6.57918 8.4146ZM16.6708 8.4146C16.8561 8.78508 16.7059 9.23559 16.3354 9.42083L14.3354 10.4208C13.9649 10.6061 13.5144 10.4559 13.3292 10.0854C13.1439 9.71493 13.2941 9.26443 13.6646 9.07919L15.6646 8.07919C16.0351 7.89394 16.4856 8.04411 16.6708 8.4146ZM6.57918 11.4146C6.76442 11.0441 7.21493 10.8939 7.58541 11.0792L9.58541 12.0792C9.95589 12.2644 10.1061 12.7149 9.92082 13.0854C9.73558 13.4559 9.28507 13.6061 8.91459 13.4208L6.91459 12.4208C6.54411 12.2356 6.39394 11.7851 6.57918 11.4146ZM16.6708 11.4146C16.8561 11.7851 16.7059 12.2356 16.3354 12.4208L14.3354 13.4208C13.9649 13.6061 13.5144 13.4559 13.3292 13.0854C13.1439 12.7149 13.2941 12.2644 13.6646 12.0792L15.6646 11.0792C16.0351 10.8939 16.4856 11.0441 16.6708 11.4146Z" fill="#383641"/>
</mask>
<g mask="url(#mask0_1_30)">
<rect width="24" height="24" fill="#383641"/>
</g>
</svg>
