<svg width="24" height="24" viewBox="0 0 24 24" fill="none" xmlns="http://www.w3.org/2000/svg">
<g clip-path="url(#clip0_1_30)">
<mask id="mask0_1_30" style="mask-type:alpha" maskUnits="userSpaceOnUse" x="0" y="2" width="25" height="20">
<path d="M17.5 12.0299C16.7834 12.1718 16.103 12.4575 15.5 12.8699L15.46 12.8199C15.3788 12.877 15.2871 12.9173 15.1901 12.9387C15.0932 12.96 14.993 12.9619 14.8953 12.9442C14.7977 12.9266 14.7045 12.8897 14.6212 12.8357C14.5379 12.7818 14.4661 12.7118 14.41 12.6299C14.3124 12.4693 14.2778 12.2781 14.3129 12.0934C14.348 11.9087 14.4503 11.7436 14.6 11.6299C15.3961 11.0808 16.2991 10.706 17.25 10.5299C17.4489 10.4968 17.6529 10.544 17.817 10.6612C17.9811 10.7784 18.0919 10.956 18.125 11.1549C18.1582 11.3538 18.111 11.5578 17.9937 11.7219C17.8765 11.886 17.6989 11.9968 17.5 12.0299Z" fill="#383641"/>
<path d="M14.7 14.6699C15.4899 14.1612 16.3633 13.7956 17.28 13.5899C17.4671 13.5651 17.6566 13.6107 17.8119 13.7179C17.9671 13.8251 18.077 13.9862 18.12 14.1699C18.1521 14.3685 18.1052 14.5718 17.9894 14.7363C17.8735 14.9007 17.6978 15.0133 17.5 15.0499C16.7719 15.2254 16.0787 15.5229 15.45 15.9299C15.2824 16.0256 15.084 16.0519 14.8971 16.0033C14.7103 15.9548 14.5499 15.8351 14.45 15.6699C14.3607 15.5018 14.3368 15.3066 14.383 15.1219C14.4292 14.9372 14.5421 14.7762 14.7 14.6699Z" fill="#383641"/>
<path d="M14.7 8.28992C15.4899 7.78121 16.3633 7.41562 17.28 7.20992C17.4674 7.18271 17.6581 7.22739 17.8139 7.33496C17.9697 7.44254 18.0791 7.60506 18.12 7.78992C18.1521 7.98852 18.1052 8.1918 17.9894 8.35626C17.8735 8.52072 17.6978 8.6333 17.5 8.66992C16.7719 8.84535 16.0787 9.1429 15.45 9.54992C15.2818 9.64303 15.0842 9.66797 14.8981 9.61959C14.712 9.5712 14.5516 9.45318 14.45 9.28992C14.3607 9.12181 14.3368 8.92658 14.383 8.74191C14.4292 8.55724 14.5421 8.39622 14.7 8.28992Z" fill="#383641"/>
<path d="M6.58003 10.5299C7.53399 10.7061 8.44026 11.0809 9.24003 11.6299L9.19003 11.6499C9.33977 11.7636 9.44207 11.9287 9.47716 12.1134C9.51226 12.2981 9.47765 12.4893 9.38003 12.6499C9.26779 12.8015 9.10253 12.9053 8.91719 12.9405C8.73186 12.9757 8.54006 12.9398 8.38003 12.8399C7.76128 12.4228 7.06358 12.1369 6.33003 11.9999C6.16557 11.9373 6.02794 11.8196 5.94061 11.6668C5.85328 11.514 5.82167 11.3357 5.85118 11.1622C5.88068 10.9887 5.96947 10.8309 6.10239 10.7156C6.23531 10.6003 6.40412 10.5346 6.58003 10.5299Z" fill="#383641"/>
<path d="M6.65003 13.3099C7.56735 13.5138 8.441 13.8795 9.23003 14.3899L9.15003 14.4399C9.30974 14.5447 9.42414 14.7058 9.47046 14.8911C9.51679 15.0764 9.49164 15.2723 9.40003 15.4399C9.29857 15.6034 9.1374 15.721 8.95071 15.7677C8.76402 15.8143 8.5665 15.7864 8.40003 15.6899C7.78662 15.288 7.11077 14.9906 6.40003 14.8099C6.30176 14.7931 6.20784 14.7568 6.12375 14.7033C6.03967 14.6497 5.9671 14.5799 5.9103 14.498C5.85351 14.416 5.81362 14.3236 5.79296 14.2261C5.77231 14.1285 5.77131 14.0278 5.79003 13.9299C5.82194 13.7337 5.93044 13.5582 6.0917 13.4419C6.25296 13.3257 6.45378 13.2782 6.65003 13.3099Z" fill="#383641"/>
<path d="M6.65003 7.31992C7.56735 7.52381 8.441 7.88952 9.23003 8.39992L9.15003 8.44992C9.30974 8.55469 9.42414 8.71575 9.47046 8.90106C9.51679 9.08636 9.49164 9.28231 9.40003 9.44992C9.29687 9.61149 9.13575 9.72744 8.94978 9.77393C8.7638 9.82042 8.56708 9.79394 8.40003 9.69992C7.78662 9.29799 7.11077 9.00062 6.40003 8.81992C6.30176 8.80308 6.20784 8.76682 6.12375 8.71325C6.03967 8.65969 5.9671 8.5899 5.9103 8.50796C5.85351 8.42603 5.81362 8.33359 5.79296 8.23605C5.77231 8.13852 5.77131 8.03784 5.79003 7.93992C5.82194 7.7437 5.93044 7.56817 6.0917 7.45192C6.25296 7.33566 6.45378 7.28818 6.65003 7.31992Z" fill="#383641"/>
<path fill-rule="evenodd" clip-rule="evenodd" d="M20.99 5.63992H23.32C23.504 5.65015 23.677 5.7305 23.8035 5.86444C23.93 5.99837 24.0003 6.17569 24 6.35992V19.3599C24.0029 19.5406 23.9358 19.7153 23.8128 19.8476C23.6898 19.98 23.5204 20.0596 23.34 20.0699C22.9091 20.1006 22.4337 20.127 21.9248 20.1553C19.1155 20.3116 15.2856 20.5246 12.28 21.8199C12.1917 21.8585 12.0964 21.8784 12 21.8784C11.9037 21.8784 11.8083 21.8585 11.72 21.8199C8.71447 20.5246 4.88459 20.3116 2.07527 20.1553C1.56638 20.127 1.09098 20.1006 0.660029 20.0699C0.479655 20.0596 0.310249 19.98 0.187242 19.8476C0.0642348 19.7153 -0.00284624 19.5406 2.76349e-05 19.3599V6.35992C-0.00135888 6.26413 0.0166508 6.16906 0.0529735 6.08042C0.0892962 5.99178 0.143181 5.9114 0.211383 5.84414C0.279585 5.77687 0.360694 5.7241 0.449827 5.689C0.53896 5.65391 0.634273 5.63721 0.730029 5.63992L3.00003 5.71992V2.81992C2.99968 2.7201 3.02009 2.6213 3.05997 2.52979C3.09985 2.43828 3.15831 2.35606 3.23166 2.28835C3.30501 2.22065 3.39164 2.16893 3.48604 2.13649C3.58044 2.10405 3.68056 2.0916 3.78003 2.09992C6.85998 2.33601 9.76379 3.62894 12 5.75992C14.2363 3.62894 17.1401 2.33601 20.22 2.09992C20.3187 2.09305 20.4177 2.10658 20.5109 2.13968C20.6041 2.17277 20.6895 2.22472 20.7618 2.29227C20.834 2.35983 20.8916 2.44155 20.9309 2.53233C20.9701 2.62311 20.9903 2.72101 20.99 2.81992V5.63992ZM19.57 15.8699V3.61992C17.18 3.99992 14.25 5.15992 12.71 7.10992V19.3999C14.6455 17.639 17.0121 16.4212 19.57 15.8699ZM11.29 7.10992C9.75003 5.15992 6.82003 3.99992 4.43003 3.63992V15.8699C6.98792 16.4212 9.35456 17.639 11.29 19.3999V7.10992ZM1.43003 18.7006V7.08992L3.00003 7.14992V16.4499C3.00147 16.6155 3.05994 16.7755 3.16559 16.903C3.27123 17.0305 3.4176 17.1177 3.58003 17.1499C5.62204 17.5237 7.55537 18.3469 9.24003 19.5599C6.66568 19.053 4.05297 18.7656 1.43003 18.7006ZM14.77 19.5799C17.3543 19.0716 19.977 18.7839 22.61 18.7199V7.06992H21.01V16.4699C21.0086 16.6355 20.9501 16.7955 20.8445 16.923C20.7388 17.0505 20.5925 17.1377 20.43 17.1699C18.388 17.5437 16.4547 18.3669 14.77 19.5799Z" fill="#383641"/>
</mask>
<g mask="url(#mask0_1_30)">
<rect width="24" height="24" fill="#383641"/>
</g>
</g>
<defs>
<clipPath id="clip0_1_30">
<rect width="24" height="24" fill="white"/>
</clipPath>
</defs>
</svg>
