<svg width="24" height="24" viewBox="0 0 24 24" fill="none" xmlns="http://www.w3.org/2000/svg">
<g clip-path="url(#clip0_1_27)">
<mask id="mask0_1_27" style="mask-type:alpha" maskUnits="userSpaceOnUse" x="0" y="0" width="24" height="24">
<path fill-rule="evenodd" clip-rule="evenodd" d="M8.98325 7.48512C9.87621 6.88846 10.926 6.57 12 6.57C13.4401 6.57 14.8213 7.14209 15.8396 8.16041C16.8579 9.17873 17.43 10.5599 17.43 12C17.43 13.074 17.1115 14.1238 16.5149 15.0167C15.9182 15.9097 15.0702 16.6057 14.078 17.0167C13.0858 17.4277 11.994 17.5352 10.9407 17.3257C9.88734 17.1161 8.9198 16.599 8.1604 15.8396C7.40101 15.0802 6.88385 14.1127 6.67433 13.0593C6.46481 12.006 6.57234 10.9142 6.98333 9.92203C7.39431 8.92982 8.09029 8.08178 8.98325 7.48512ZM15.3552 14.2384C15.7875 13.5727 16.0119 12.7936 16 12C15.9842 10.9496 15.5559 9.9475 14.8074 9.21028C14.059 8.47306 13.0505 8.05988 12 8.06C11.2063 8.06009 10.4306 8.29628 9.7716 8.73851C9.11257 9.18075 8.59999 9.80904 8.29908 10.5434C7.99818 11.2779 7.92254 12.0852 8.08181 12.8627C8.24108 13.6402 8.62804 14.3528 9.19347 14.9097C9.7589 15.4667 10.4772 15.8428 11.2571 15.9903C12.0369 16.1378 12.843 16.05 13.5728 15.738C14.3025 15.426 14.923 14.904 15.3552 14.2384Z" fill="#383641"/>
<path fill-rule="evenodd" clip-rule="evenodd" d="M24 9.52V14.52L20.67 15.01C20.55 15.3514 20.4098 15.6853 20.25 16.01L22.25 18.69L18.68 22.26L16 20.26C15.6753 20.4198 15.3414 20.56 15 20.68L14.48 24H9.48L8.98 20.69C8.63931 20.5682 8.30549 20.428 7.98 20.27L5.3 22.27L1.74 18.68L3.74 16C3.58201 15.6745 3.44181 15.3407 3.32 15L0 14.48V9.48L3.32 9C3.44181 8.65931 3.58201 8.32549 3.74 8L1.73 5.3L5.32 1.74L8 3.74C8.32549 3.58201 8.65931 3.44181 9 3.32L9.52 0H14.52L15 3.32C15.3414 3.43999 15.6753 3.58024 16 3.74L18.7 1.73L22.26 5.32L20.26 8C20.4198 8.32469 20.56 8.65861 20.68 9L24 9.52ZM18.73 15.73C19.0137 15.2217 19.2352 14.6812 19.39 14.12L19.53 13.66L22.53 13.23V10.77L19.53 10.35L19.39 9.88C19.2352 9.31885 19.0137 8.77831 18.73 8.27L18.49 7.85L20.3 5.44L18.56 3.7L16.15 5.51L15.73 5.27C15.2197 4.99057 14.6796 4.76919 14.12 4.61L13.66 4.48L13.23 1.48H10.77L10.34 4.48L9.88 4.61C9.32037 4.76919 8.78034 4.99057 8.27 5.27L7.85 5.51L5.44 3.7L3.7 5.44L5.5 7.85L5.27 8.27C4.98885 8.77951 4.76739 9.31975 4.61 9.88L4.47 10.35L1.47 10.77V13.23L4.47 13.66L4.61 14.12C4.76739 14.6803 4.98885 15.2205 5.27 15.73L5.5 16.15L3.7 18.56L5.44 20.3L7.85 18.49L8.27 18.73C8.78034 19.0094 9.32037 19.2308 9.88 19.39L10.34 19.53L10.77 22.53H13.23L13.66 19.53L14.12 19.39C14.6796 19.2308 15.2197 19.0094 15.73 18.73L16.15 18.49L18.56 20.3L20.3 18.56L18.49 16.15L18.73 15.73Z" fill="#383641"/>
</mask>
<g mask="url(#mask0_1_27)">
<rect width="24" height="24" fill="#383641"/>
</g>
</g>
<defs>
<clipPath id="clip0_1_27">
<rect width="24" height="24" fill="white"/>
</clipPath>
</defs>
</svg>
