<svg width="24" height="24" viewBox="0 0 24 24" fill="none" xmlns="http://www.w3.org/2000/svg">
<mask id="mask0_1_27" style="mask-type:alpha" maskUnits="userSpaceOnUse" x="1" y="1" width="22" height="22">
<path fill-rule="evenodd" clip-rule="evenodd" d="M12 2.53488C11.7101 2.53488 11.4321 2.65004 11.2271 2.85502C11.0221 3.06 10.907 3.33802 10.907 3.62791V3.78605L10.907 3.78911C10.9052 4.23811 10.7721 4.67679 10.5242 5.05115C10.2763 5.42551 9.92432 5.71921 9.51162 5.89608C9.44169 5.92606 9.36783 5.9454 9.2925 5.95362C8.91287 6.08979 8.50312 6.12417 8.10439 6.05188C7.65175 5.96981 7.23407 5.75402 6.90522 5.43234L6.89916 5.42642L6.84338 5.37057C6.74187 5.26895 6.62102 5.18802 6.48833 5.13302C6.35564 5.07801 6.21341 5.0497 6.06977 5.0497C5.92613 5.0497 5.7839 5.07801 5.65121 5.13302C5.51851 5.18802 5.39797 5.26864 5.29645 5.37027C5.19483 5.47178 5.1136 5.59293 5.0586 5.72562C5.00359 5.85831 4.97528 6.00055 4.97528 6.14419C4.97528 6.28783 5.00359 6.43006 5.0586 6.56275C5.1136 6.69544 5.19422 6.81599 5.29585 6.9175L5.35795 6.9796C5.67963 7.30846 5.89539 7.72617 5.97746 8.17881C6.05809 8.6235 6.00603 9.0819 5.82806 9.49693C5.66703 9.92091 5.38429 10.2881 5.01511 10.5521C4.63935 10.8209 4.19143 10.9704 3.72957 10.9812L3.71163 10.9814H3.62791C3.33802 10.9814 3.06 11.0966 2.85502 11.3015C2.65004 11.5065 2.53488 11.7845 2.53488 12.0744C2.53488 12.3643 2.65004 12.6423 2.85502 12.8473C3.06 13.0523 3.33802 13.1674 3.62791 13.1674H3.78911C4.23811 13.1692 4.67679 13.3023 5.05115 13.5502C5.42437 13.7974 5.71742 14.148 5.89447 14.559C6.07887 14.9789 6.13371 15.4443 6.05188 15.8956C5.96981 16.3483 5.75402 16.7659 5.43234 17.0948L5.42641 17.1008L5.37057 17.1566C5.26894 17.2581 5.18802 17.379 5.13302 17.5117C5.07801 17.6444 5.0497 17.7866 5.0497 17.9302C5.0497 18.0739 5.07801 18.2161 5.13302 18.3488C5.18802 18.4815 5.26864 18.602 5.37027 18.7035C5.47178 18.8052 5.59293 18.8864 5.72562 18.9414C5.85832 18.9964 6.00055 19.0247 6.14419 19.0247C6.28783 19.0247 6.43006 18.9964 6.56275 18.9414C6.69544 18.8864 6.81599 18.8058 6.9175 18.7042L6.9796 18.642C7.30846 18.3204 7.72617 18.1046 8.17881 18.0225C8.6235 17.9419 9.08189 17.994 9.49692 18.1719C9.92091 18.333 10.2881 18.6157 10.5521 18.9849C10.8209 19.3607 10.9704 19.8086 10.9812 20.2704L10.9814 20.2884V20.3721C10.9814 20.662 11.0966 20.94 11.3015 21.145C11.5065 21.35 11.7845 21.4651 12.0744 21.4651C12.3643 21.4651 12.6423 21.35 12.8473 21.145C13.0523 20.94 13.1674 20.662 13.1674 20.3721V20.214L13.1674 20.2109C13.1692 19.7619 13.3023 19.3232 13.5502 18.9488C13.7974 18.5756 14.148 18.2826 14.559 18.1055C14.9789 17.9211 15.4443 17.8663 15.8956 17.9481C16.3482 18.0302 16.7659 18.246 17.0948 18.5677L17.1008 18.5736L17.1566 18.6294C17.2581 18.7311 17.379 18.812 17.5117 18.867C17.6444 18.922 17.7866 18.9503 17.9302 18.9503C18.0739 18.9503 18.2161 18.922 18.3488 18.867C18.4815 18.812 18.602 18.7314 18.7035 18.6297C18.8052 18.5282 18.8864 18.4071 18.9414 18.2744C18.9964 18.1417 19.0247 17.9995 19.0247 17.8558C19.0247 17.7122 18.9964 17.5699 18.9414 17.4373C18.8864 17.3046 18.8058 17.184 18.7042 17.0825L18.642 17.0204C18.3204 16.6915 18.1046 16.2738 18.0225 15.8212C17.9407 15.3699 17.9955 14.9045 18.18 14.4846C18.357 14.0735 18.6501 13.7229 19.0233 13.4758C19.3976 13.2279 19.8363 13.0948 20.2853 13.093L20.2884 13.093L20.3721 13.093C20.662 13.093 20.94 12.9779 21.145 12.7729C21.35 12.5679 21.4651 12.2899 21.4651 12C21.4651 11.7101 21.35 11.4321 21.145 11.2271C20.94 11.0221 20.662 10.907 20.3721 10.907H20.214L20.2109 10.907C19.7619 10.9052 19.3232 10.7721 18.9488 10.5242C18.5745 10.2763 18.2808 9.92432 18.1039 9.51162C18.0739 9.44169 18.0546 9.36783 18.0464 9.2925C17.9102 8.91287 17.8758 8.50312 17.9481 8.10439C18.0302 7.65175 18.246 7.23407 18.5677 6.90522L18.5736 6.89917L18.6294 6.84339C18.7311 6.74187 18.812 6.62102 18.867 6.48833C18.922 6.35564 18.9503 6.21341 18.9503 6.06977C18.9503 5.92613 18.922 5.7839 18.867 5.65121C18.812 5.51852 18.7314 5.39797 18.6297 5.29645C18.5282 5.19483 18.4071 5.1136 18.2744 5.0586C18.1417 5.00359 17.9995 4.97528 17.8558 4.97528C17.7122 4.97528 17.5699 5.00359 17.4373 5.0586C17.3046 5.1136 17.184 5.19423 17.0825 5.29585L17.0204 5.35795C16.6915 5.67963 16.2738 5.89539 15.8212 5.97746C15.3699 6.05929 14.9045 6.00445 14.4846 5.82003C14.0735 5.64298 13.7229 5.34994 13.4758 4.97673C13.2279 4.60238 13.0948 4.16369 13.093 3.71469L13.093 3.71163V3.62791C13.093 3.33802 12.9779 3.06 12.7729 2.85502C12.5679 2.65004 12.2899 2.53488 12 2.53488ZM10.1418 1.7697C10.6346 1.27687 11.303 1 12 1C12.697 1 13.3654 1.27687 13.8582 1.7697C14.351 2.26252 14.6279 2.93094 14.6279 3.62791V3.70979C14.6287 3.85903 14.6731 4.0048 14.7555 4.12925C14.8381 4.25403 14.9555 4.35193 15.093 4.41089L15.1006 4.41413C15.2409 4.47605 15.3965 4.49456 15.5473 4.4672C15.6971 4.44005 15.8353 4.36901 15.9446 4.26313L15.9966 4.21113C15.9965 4.21123 15.9967 4.21103 15.9966 4.21113C16.2406 3.96693 16.5306 3.77291 16.8495 3.64071C17.1685 3.50847 17.5105 3.4404 17.8558 3.4404C18.2012 3.4404 18.5431 3.50847 18.8621 3.64071C19.1809 3.77285 19.4705 3.96647 19.7145 4.21052C19.9588 4.45458 20.1526 4.74441 20.2849 5.06344C20.4171 5.38246 20.4852 5.72442 20.4852 6.06977C20.4852 6.41512 20.4171 6.75708 20.2849 7.0761C20.1527 7.39499 19.9589 7.68471 19.7148 7.92871C19.7147 7.92881 19.7149 7.92861 19.7148 7.92871L19.6624 7.98106C19.5566 8.09028 19.4855 8.22852 19.4584 8.37823C19.431 8.52911 19.4495 8.68473 19.5114 8.82502C19.537 8.88296 19.5552 8.94368 19.5658 9.00578C19.6241 9.10084 19.7026 9.18246 19.7963 9.24451C19.9208 9.32693 20.0666 9.37126 20.2158 9.37209H20.3721C21.0691 9.37209 21.7375 9.64896 22.2303 10.1418C22.7231 10.6346 23 11.303 23 12C23 12.697 22.7231 13.3654 22.2303 13.8582C21.7375 14.351 21.0691 14.6279 20.3721 14.6279H20.2902C20.141 14.6287 19.9952 14.6731 19.8708 14.7555C19.746 14.8381 19.6481 14.9555 19.5891 15.093L19.5859 15.1006C19.524 15.2409 19.5054 15.3965 19.5328 15.5473C19.5599 15.6971 19.631 15.8353 19.7369 15.9446L19.7889 15.9966C20.0332 16.2406 20.227 16.5305 20.3593 16.8495C20.4915 17.1685 20.5596 17.5105 20.5596 17.8558C20.5596 18.2012 20.4915 18.5431 20.3593 18.8621C20.2271 19.181 20.0334 19.4708 19.7892 19.7148C19.5452 19.9589 19.2555 20.1527 18.9366 20.2849C18.6175 20.4171 18.2756 20.4852 17.9302 20.4852C17.5849 20.4852 17.2429 20.4171 16.9239 20.2849C16.6049 20.1526 16.315 19.9588 16.071 19.7145L16.0189 19.6624C15.9097 19.5566 15.7715 19.4855 15.6218 19.4584C15.4709 19.431 15.3153 19.4495 15.175 19.5114L15.1675 19.5147C15.0299 19.5737 14.9125 19.6715 14.8299 19.7963C14.7475 19.9208 14.7032 20.0666 14.7023 20.2158V20.3721C14.7023 21.0691 14.4255 21.7375 13.9326 22.2303C13.4398 22.7231 12.7714 23 12.0744 23C11.3775 23 10.709 22.7231 10.2162 22.2303C9.72338 21.7375 9.44651 21.0691 9.44651 20.3721V20.2989C9.44151 20.1476 9.39185 20.001 9.3037 19.8778C9.21412 19.7526 9.08892 19.6571 8.9444 19.604C8.92922 19.5984 8.91423 19.5924 8.89944 19.5858C8.75915 19.5239 8.60353 19.5054 8.45265 19.5328C8.30292 19.5599 8.16466 19.631 8.05543 19.7369L8.00343 19.7889C7.75937 20.0332 7.46954 20.227 7.15052 20.3593C6.8315 20.4915 6.48953 20.5596 6.14419 20.5596C5.79884 20.5596 5.45688 20.4915 5.13786 20.3593C4.81883 20.227 4.52901 20.0332 4.28494 19.7889C4.04089 19.5449 3.84727 19.2553 3.71513 18.9366C3.58289 18.6175 3.51482 18.2756 3.51482 17.9302C3.51482 17.5849 3.58289 17.2429 3.71513 16.9239C3.84733 16.605 4.04105 16.3153 4.28525 16.0713L4.33755 16.019C4.44343 15.9098 4.51447 15.7715 4.54162 15.6218C4.56898 15.4709 4.55051 15.3153 4.48859 15.175L4.48527 15.1675C4.42631 15.0299 4.32845 14.9125 4.20367 14.8299C4.07922 14.7475 3.93345 14.7032 3.78421 14.7023H3.62791C2.93094 14.7023 2.26252 14.4255 1.7697 13.9326C1.27687 13.4398 1 12.7714 1 12.0744C1 11.3775 1.27687 10.709 1.7697 10.2162C2.26252 9.72338 2.93094 9.44651 3.62791 9.44651H3.70111C3.85243 9.44151 3.99896 9.39185 4.12219 9.3037C4.24745 9.21412 4.34285 9.08892 4.39601 8.9444C4.40159 8.92922 4.40765 8.91423 4.41418 8.89944C4.47609 8.75915 4.49456 8.60353 4.4672 8.45265C4.44005 8.30292 4.36901 8.16466 4.26313 8.05543L4.21113 8.00343C3.96679 7.75937 3.77296 7.46954 3.64071 7.15052C3.50847 6.83149 3.4404 6.48953 3.4404 6.14419C3.4404 5.79884 3.50847 5.45688 3.64071 5.13786C3.77291 4.81896 3.96663 4.52924 4.21082 4.28524C4.45482 4.04105 4.74454 3.84733 5.06344 3.71513C5.38246 3.58289 5.72442 3.51482 6.06977 3.51482C6.41512 3.51482 6.75708 3.58289 7.0761 3.71513C7.39512 3.84738 7.68495 4.04121 7.92901 4.28555L7.98101 4.33755C8.09024 4.44342 8.2285 4.51447 8.37823 4.54162C8.52911 4.56898 8.68473 4.55051 8.82502 4.48859C8.88296 4.46302 8.94369 4.44479 9.00579 4.43419C9.10085 4.37591 9.18246 4.29737 9.24451 4.20367C9.32693 4.07922 9.37126 3.93345 9.37209 3.78421V3.62791C9.37209 2.93094 9.64896 2.26252 10.1418 1.7697ZM12 9.97674C10.8826 9.97674 9.97674 10.8826 9.97674 12C9.97674 13.1174 10.8826 14.0233 12 14.0233C13.1174 14.0233 14.0233 13.1174 14.0233 12C14.0233 10.8826 13.1174 9.97674 12 9.97674ZM8.44186 12C8.44186 10.0349 10.0349 8.44186 12 8.44186C13.9651 8.44186 15.5581 10.0349 15.5581 12C15.5581 13.9651 13.9651 15.5581 12 15.5581C10.0349 15.5581 8.44186 13.9651 8.44186 12Z" fill="#383641"/>
</mask>
<g mask="url(#mask0_1_27)">
<rect width="24" height="24" fill="#383641"/>
</g>
</svg>
