<svg width="24" height="24" viewBox="0 0 24 24" fill="none" xmlns="http://www.w3.org/2000/svg">
<g clip-path="url(#clip0_1_3)">
<mask id="mask0_1_3" style="mask-type:alpha" maskUnits="userSpaceOnUse" x="-1" y="0" width="25" height="25">
<path d="M12.78 11.23V0C15.7542 0.0105551 18.6034 1.19742 20.7056 3.30145C22.8077 5.40549 23.9921 8.25578 24 11.23H12.78Z" fill="#383641"/>
<path fill-rule="evenodd" clip-rule="evenodd" d="M4.96992 3.41455C6.82095 2.18189 8.99606 1.52604 11.22 1.53V12.77H22.44C22.44 14.9939 21.7802 17.1678 20.5443 19.0167C19.3083 20.8655 17.5517 22.3062 15.4967 23.1563C13.4417 24.0064 11.1807 24.2279 8.99978 23.7925C6.81889 23.3572 4.81615 22.2847 3.24501 20.7108C1.67387 19.1368 0.604943 17.1322 0.173506 14.9505C-0.25793 12.7689 -0.0324852 10.5083 0.821311 8.45476C1.67511 6.40127 3.11888 4.64721 4.96992 3.41455ZM18.8131 19.0589C19.9847 17.6541 20.7419 15.9509 21 14.14H11.22C10.8566 14.14 10.5082 13.9957 10.2512 13.7387C9.9943 13.4818 9.84997 13.1333 9.84997 12.77V3C8.03933 3.25971 6.33679 4.01847 4.93307 5.19125C3.52936 6.36404 2.47994 7.90453 1.90239 9.64012C1.32484 11.3757 1.24198 13.2378 1.66309 15.0179C2.08419 16.7979 2.99264 18.4255 4.28663 19.7183C5.58062 21.0112 7.20905 21.9182 8.98945 22.3377C10.7699 22.7572 12.6319 22.6726 14.367 22.0935C16.1021 21.5144 17.6416 20.4636 18.8131 19.0589Z" fill="#383641"/>
</mask>
<g mask="url(#mask0_1_3)">
<rect width="24" height="24" fill="#383641"/>
</g>
</g>
<defs>
<clipPath id="clip0_1_3">
<rect width="24" height="24" fill="white"/>
</clipPath>
</defs>
</svg>
