<svg width="24" height="24" viewBox="0 0 24 24" fill="none" xmlns="http://www.w3.org/2000/svg">
<g clip-path="url(#clip0_443_4)">
<mask id="mask0_443_4" style="mask-type:alpha" maskUnits="userSpaceOnUse" x="3" y="-1" width="19" height="26">
<path fill-rule="evenodd" clip-rule="evenodd" d="M14 6.89991L15.12 7.07991C15.2885 7.106 15.4462 7.17889 15.5753 7.29027C15.7044 7.40166 15.7996 7.54706 15.85 7.70991C15.9056 7.8698 15.9144 8.04222 15.8754 8.20695C15.8365 8.37167 15.7513 8.52186 15.63 8.63991L14.8 9.46991L15 10.6299C15.0205 10.7641 15.0113 10.9011 14.9732 11.0314C14.9351 11.1616 14.8689 11.282 14.7793 11.3839C14.6897 11.4859 14.5789 11.567 14.4547 11.6216C14.3304 11.6762 14.1957 11.7029 14.06 11.6999C13.9164 11.6977 13.7755 11.6599 13.65 11.5899L12.6 11.0599L11.6 11.5899C11.4444 11.6762 11.2671 11.7155 11.0896 11.7031C10.9122 11.6906 10.7421 11.627 10.6 11.5199C10.4637 11.4188 10.3574 11.2826 10.2923 11.1259C10.2271 10.9692 10.2056 10.7978 10.23 10.6299L10.41 9.46991L9.58001 8.63991C9.46071 8.52054 9.37695 8.37035 9.3381 8.20612C9.29925 8.04188 9.30684 7.87008 9.36001 7.70991C9.41345 7.54877 9.50954 7.4051 9.63807 7.29418C9.7666 7.18325 9.92278 7.10921 10.09 7.07991L11.25 6.89991L11.83 5.84991C11.9055 5.69765 12.0226 5.56988 12.1677 5.48139C12.3129 5.39291 12.4801 5.34732 12.65 5.34991C12.8192 5.35075 12.985 5.39776 13.1295 5.48587C13.274 5.57398 13.3918 5.69985 13.47 5.84991L14 6.89991ZM12.87 9.91991L13.74 10.3599L13.59 9.35991C13.5808 9.26423 13.5951 9.16775 13.6317 9.07886C13.6683 8.98998 13.7261 8.91138 13.8 8.84991L14.48 8.16991L13.53 8.01991C13.4382 8.00431 13.3513 7.96718 13.2766 7.91156C13.2018 7.85594 13.1413 7.78341 13.1 7.69991L12.66 6.83991L12.22 7.69991C12.1764 7.78366 12.114 7.85615 12.0377 7.91168C11.9613 7.96721 11.8731 8.00426 11.78 8.01991L10.78 8.16991L11.46 8.84991C11.5261 8.91584 11.5758 8.99627 11.6053 9.08481C11.6348 9.17334 11.6433 9.26754 11.63 9.35991L11.48 10.3599L12.34 9.91991C12.4245 9.88016 12.5167 9.85966 12.61 9.85991C12.7002 9.85943 12.7892 9.87998 12.87 9.91991Z" fill="#383641"/>
<path fill-rule="evenodd" clip-rule="evenodd" d="M12.61 1.99991C11.3323 2.00189 10.084 2.38269 9.02272 3.09417C7.96148 3.80565 7.13505 4.81585 6.64793 5.99701C6.16082 7.17818 6.0349 8.47726 6.2861 9.72999C6.5373 10.9827 7.15434 12.1328 8.05918 13.0349C8.96403 13.9369 10.116 14.5504 11.3695 14.7977C12.623 15.045 13.9217 14.9151 15.1014 14.4243C16.281 13.9336 17.2887 13.104 17.9969 12.0406C18.705 10.9771 19.082 9.72757 19.08 8.44991C19.0747 6.73743 18.3907 5.09689 17.1779 3.88785C15.9651 2.67881 14.3225 1.9999 12.61 1.99991ZM17.9 8.44991C17.904 9.49701 17.5971 10.5217 17.0182 11.3943C16.4394 12.2669 15.6146 12.948 14.6483 13.3515C13.682 13.7549 12.6178 13.8625 11.5903 13.6607C10.5628 13.4588 9.61837 12.9566 8.87654 12.2176C8.13472 11.4786 7.62891 10.536 7.42317 9.50931C7.21742 8.48261 7.32101 7.41795 7.7208 6.45016C8.1206 5.48237 8.79861 4.655 9.66897 4.07284C10.5393 3.49068 11.5629 3.17992 12.61 3.17991C14.0087 3.18253 15.3497 3.73796 16.3407 4.72514C17.3316 5.71232 17.8921 7.0512 17.9 8.44991Z" fill="#383641"/>
<path fill-rule="evenodd" clip-rule="evenodd" d="M12.61 -0.140095C10.8274 -0.145666 9.08725 0.403476 7.63074 1.4312C6.17423 2.45893 5.07352 3.91433 4.48122 5.59565C3.88891 7.27696 3.83434 9.10091 4.32508 10.8146C4.81581 12.5283 5.82754 14.0469 7.22001 15.1599V23.4099C7.21986 23.5066 7.24349 23.6019 7.28883 23.6874C7.33417 23.7728 7.39982 23.8458 7.48001 23.8999C7.57733 23.9659 7.69241 24.0008 7.81001 23.9999C7.87293 24.0102 7.93709 24.0102 8.00001 23.9999L12.57 22.1399L17.18 23.9999C17.2697 24.036 17.367 24.0494 17.4631 24.0391C17.5593 24.0287 17.6514 23.9949 17.7314 23.9406C17.8115 23.8862 17.8769 23.8131 17.922 23.7275C17.9671 23.642 17.9904 23.5466 17.99 23.4499V15.1599C19.0012 14.359 19.8174 13.3388 20.3769 12.1765C20.9365 11.0141 21.2247 9.73991 21.22 8.44991C21.2147 6.16986 20.3053 3.98501 18.6911 2.37464C17.077 0.764276 14.8901 -0.140101 12.61 -0.140095ZM20 8.44991C19.998 9.92309 19.5587 11.3625 18.7377 12.5858C17.9168 13.809 16.7511 14.761 15.3886 15.3211C14.026 15.8812 12.5278 16.0241 11.0839 15.7318C9.64003 15.4396 8.3154 14.7252 7.27791 13.6793C6.24043 12.6334 5.53681 11.303 5.25622 9.85681C4.97562 8.41059 5.13069 6.91362 5.70177 5.55562C6.27285 4.19763 7.23424 3.03974 8.46408 2.22871C9.69392 1.41767 11.1369 0.990006 12.61 0.999905C14.5771 1.01049 16.4597 1.8007 17.845 3.19728C19.2304 4.59385 20.0053 6.4828 20 8.44991ZM16.81 15.9999V22.5699L12.81 20.9499C12.737 20.9404 12.663 20.9404 12.59 20.9499C12.5136 20.9404 12.4364 20.9404 12.36 20.9499L8.36001 22.5699V15.9999C9.64454 16.7144 11.0901 17.0894 12.56 17.0894C14.0299 17.0894 15.4755 16.7144 16.76 15.9999H16.81Z" fill="#383641"/>
</mask>
<g mask="url(#mask0_443_4)">
<rect width="24" height="24" fill="#383641"/>
</g>
</g>
<defs>
<clipPath id="clip0_443_4">
<rect width="24" height="24" fill="white"/>
</clipPath>
</defs>
</svg>
