<svg width="83" height="16" viewBox="0 0 83 16" fill="none" xmlns="http://www.w3.org/2000/svg">
<path d="M5.83 0.0473633L4.09018 6.54156H6.66504L8.32895 0.0473633L10.235 7.48102H1.19732L0.637207 9.56712H3.27977L2.51654 12.4163H5.1591L5.8895 9.56712H10.7684L11.4988 12.4163H14.1413L10.8258 0.0473633H5.83ZM25.721 0.0473633H28.1358V12.4163H25.721V0.0473633ZM23.3759 4.63186C22.6394 3.74778 21.6423 3.30677 20.3846 3.30677C19.092 3.30677 18.1524 3.73752 17.5635 4.59904V3.51189H15.3354V15.9526H17.7502V11.4645C17.9985 11.7927 18.3534 12.0676 18.813 12.2891C19.2726 12.5106 19.7958 12.6214 20.3846 12.6214C21.6423 12.6214 22.6394 12.1804 23.3759 11.2963C24.1125 10.4122 24.4798 9.30251 24.4818 7.96511C24.4798 6.62771 24.1125 5.51594 23.3759 4.63186ZM21.4617 9.7825C21.0596 10.2584 20.5303 10.4963 19.8717 10.4963C19.2131 10.4963 18.6838 10.2584 18.2816 9.7825C17.8795 9.30661 17.6784 8.69945 17.6784 7.96306C17.6784 7.22667 17.8795 6.6195 18.2816 6.14362C18.6838 5.66773 19.2131 5.42979 19.8717 5.42979C20.5303 5.42979 21.0596 5.66773 21.4617 6.14362C21.8639 6.6195 22.0649 7.22667 22.0649 7.96306C22.0649 8.69945 21.8639 9.30661 21.4617 9.7825ZM69.4279 3.30677C68.2154 3.30677 67.2285 3.72522 66.4694 4.56417C65.9257 3.72522 65.064 3.30677 63.8863 3.30677C62.6389 3.30677 61.7834 3.73752 61.3197 4.59904V3.51189H59.0936V12.4163H61.5084V7.30051C61.5084 6.6995 61.6582 6.22977 61.9598 5.88927C62.2614 5.54876 62.6881 5.37851 63.2421 5.38056C64.1941 5.38056 64.6701 5.96311 64.6701 7.13026V12.4163H67.0849V7.35179C67.0849 6.72822 67.2326 6.24413 67.526 5.89952C67.8194 5.55491 68.2523 5.38056 68.8186 5.38056C69.7705 5.38056 70.2465 5.96311 70.2465 7.13026V12.4163H72.6613V6.85744C72.6613 5.78055 72.3844 4.92108 71.8284 4.27495C71.2703 3.62881 70.4702 3.30677 69.4279 3.30677ZM36.2954 3.50984V4.59699C35.7065 3.73547 34.7648 3.30472 33.4743 3.30472C32.2166 3.30472 31.2195 3.74573 30.483 4.62981C29.7464 5.51389 29.3792 6.62361 29.3771 7.96101C29.3771 9.29841 29.7464 10.4081 30.483 11.2922C31.2195 12.1763 32.2166 12.6173 33.4743 12.6173C34.7669 12.6173 35.7065 12.1865 36.2954 11.325V12.4122H38.5235V3.50984H36.2954ZM35.5732 9.7825C35.171 10.2584 34.6417 10.4963 33.9831 10.4963C33.3266 10.4963 32.7952 10.2584 32.3931 9.7825C31.9909 9.30661 31.7899 8.69945 31.7899 7.96306C31.7899 7.22667 31.9909 6.6195 32.3931 6.14362C32.7952 5.66773 33.3245 5.42979 33.9831 5.42979C34.6397 5.42979 35.171 5.66773 35.5732 6.14362C35.9753 6.6195 36.1764 7.22667 36.1764 7.96306C36.1764 8.69945 35.9753 9.30661 35.5732 9.7825ZM55.0621 3.50984V4.59699C54.4732 3.73547 53.5315 3.30472 52.241 3.30472C50.9833 3.30472 49.9862 3.74573 49.2497 4.62981C48.5131 5.51389 48.1459 6.62361 48.1438 7.96101C48.1438 9.29841 48.511 10.4081 49.2497 11.2922C49.9883 12.1763 50.9833 12.6173 52.241 12.6173C53.5336 12.6173 54.4732 12.1865 55.0621 11.325V12.4122H57.2902V3.50984H55.0621ZM54.3399 9.7825C53.9377 10.2584 53.4084 10.4963 52.7498 10.4963C52.0912 10.4963 51.5619 10.2584 51.1598 9.7825C50.7576 9.30661 50.5566 8.69945 50.5566 7.96306C50.5566 7.22667 50.7576 6.6195 51.1598 6.14362C51.5619 5.66773 52.0912 5.42979 52.7498 5.42979C53.4084 5.42979 53.9377 5.66773 54.3399 6.14362C54.742 6.6195 54.9431 7.22667 54.9431 7.96306C54.9431 8.69945 54.742 9.30661 54.3399 9.7825ZM82.7043 7.94665C82.7043 6.60925 82.294 5.50158 81.4713 4.62366C80.6485 3.74573 79.5878 3.30677 78.2829 3.30677C76.9801 3.30677 75.9091 3.74778 75.07 4.63186C74.2309 5.51594 73.8123 6.6195 73.8123 7.94665C73.8123 9.31892 74.2309 10.4389 75.07 11.3127C75.9091 12.1865 76.9863 12.6214 78.2994 12.6214C79.319 12.6214 80.2115 12.3404 80.9768 11.7804C81.7421 11.2204 82.255 10.4861 82.5155 9.57943H80.0864C79.9551 9.89121 79.7171 10.1476 79.4155 10.3015C79.1036 10.4656 78.7548 10.5476 78.3691 10.5476C77.7577 10.5476 77.2633 10.3856 76.8899 10.0635C76.5164 9.74147 76.2887 9.27379 76.2107 8.66048H82.6715L82.7043 7.94665ZM76.2436 6.92719C76.3462 6.40617 76.5718 5.99593 76.9227 5.6944C77.2735 5.39287 77.7208 5.24313 78.2665 5.24518C78.8225 5.24518 79.276 5.39902 79.6268 5.70465C79.9776 6.01029 80.1992 6.41848 80.2895 6.92924H76.2436V6.92719ZM47.5509 5.48517V3.50984H40.1361V5.60209H44.5226L40.0725 10.4307V12.4163H47.6042V10.3261H43.0659L47.5509 5.48517Z" fill="#0053FF"/>
</svg>
