<svg width="27" height="16" viewBox="0 0 27 16" fill="none" xmlns="http://www.w3.org/2000/svg">
<g clip-path="url(#clip0_100_32)">
<path d="M10.7252 2.79272H16.4656V13.109H10.7252V2.79272Z" fill="#FF5F00"/>
<path d="M11.0897 7.95198C11.0886 6.95831 11.3137 5.97742 11.7478 5.08359C12.1819 4.18976 12.8137 3.40644 13.5954 2.79292C12.6276 2.03232 11.4653 1.55934 10.2414 1.42805C9.01745 1.29676 7.78128 1.51246 6.67415 2.05049C5.56702 2.58851 4.6336 3.42717 3.98056 4.4706C3.32751 5.51402 2.9812 6.72013 2.9812 7.95107C2.9812 9.18201 3.32751 10.3881 3.98056 11.4315C4.6336 12.475 5.56702 13.3136 6.67415 13.8517C7.78128 14.3897 9.01745 14.6054 10.2414 14.4741C11.4653 14.3428 12.6276 13.8698 13.5954 13.1092C12.814 12.4959 12.1823 11.7129 11.7482 10.8194C11.3141 9.92588 11.0889 8.94535 11.0897 7.95198Z" fill="#EB001B"/>
<path d="M24.2106 7.95176C24.2106 9.18279 23.8642 10.389 23.211 11.4324C22.5579 12.4759 21.6243 13.3145 20.517 13.8525C19.4098 14.3905 18.1735 14.606 16.9495 14.4745C15.7255 14.3431 14.5632 13.8698 13.5955 13.109C14.3766 12.4951 15.0081 11.7119 15.4423 10.8183C15.8765 9.9248 16.1021 8.94432 16.1021 7.95085C16.1021 6.95739 15.8765 5.9769 15.4423 5.08336C15.0081 4.18982 14.3766 3.40657 13.5955 2.7927C14.5632 2.03186 15.7255 1.55865 16.9495 1.42718C18.1735 1.2957 19.4098 1.51126 20.517 2.04921C21.6243 2.58716 22.5579 3.4258 23.211 4.46926C23.8642 5.51273 24.2106 6.71891 24.2106 7.94994V7.95176ZM23.5837 12.0156V11.8042H23.6694V11.7605H23.4525V11.8042H23.5455V12.0156H23.5837ZM24.0047 12.0156V11.7605H23.9391L23.8625 11.9427L23.786 11.7605H23.7277V12.0156H23.7751V11.8242L23.8461 11.9901H23.8953L23.9664 11.8242V12.0174L24.0047 12.0156Z" fill="#F79E1B"/>
</g>
<defs>
<clipPath id="clip0_100_32">
<rect width="26.9714" height="16" fill="white"/>
</clipPath>
</defs>
</svg>
