<svg width="22" height="16" viewBox="0 0 22 16" fill="none" xmlns="http://www.w3.org/2000/svg">
<g clip-path="url(#clip0_5310_1859)">
<path d="M8.03491 2.84375H13.9837V13.5345H8.03491V2.84375Z" fill="#FF5F00"/>
<path d="M8.41256 8.19015C8.41146 7.1604 8.64468 6.14391 9.09457 5.21764C9.54445 4.29137 10.1992 3.47961 11.0092 2.84382C10.0063 2.05561 8.8018 1.56546 7.53346 1.42941C6.26512 1.29335 4.98408 1.51688 3.83677 2.07444C2.68945 2.63199 1.72214 3.50109 1.04539 4.58239C0.368648 5.6637 0.00976563 6.91358 0.00976562 8.1892C0.00976562 9.46482 0.368648 10.7147 1.04539 11.796C1.72214 12.8773 2.68945 13.7464 3.83677 14.304C4.98408 14.8615 6.26512 15.085 7.53346 14.949C8.8018 14.8129 10.0063 14.3228 11.0092 13.5346C10.1995 12.899 9.54486 12.0875 9.09498 11.1616C8.64511 10.2357 8.41175 9.21957 8.41256 8.19015Z" fill="#EB001B"/>
<path d="M22.0097 8.18996C22.0097 9.46567 21.6507 10.7156 20.9739 11.797C20.297 12.8783 19.3296 13.7474 18.1821 14.3049C17.0346 14.8624 15.7535 15.0857 14.4851 14.9495C13.2166 14.8132 12.0122 14.3229 11.0093 13.5344C11.8187 12.8982 12.4732 12.0866 12.9231 11.1606C13.3731 10.2346 13.607 9.21854 13.607 8.18901C13.607 7.15949 13.3731 6.14341 12.9231 5.21744C12.4732 4.29147 11.8187 3.47978 11.0093 2.84363C12.0122 2.05517 13.2166 1.56479 14.4851 1.42854C15.7535 1.29229 17.0346 1.51567 18.1821 2.07315C19.3296 2.63063 20.297 3.49971 20.9739 4.58105C21.6507 5.66239 22.0097 6.91236 22.0097 8.18807V8.18996ZM21.3601 12.4013V12.1822H21.4489V12.1369H21.2241V12.1822H21.3204V12.4013H21.3601ZM21.7963 12.4013V12.1369H21.7284L21.649 12.3258L21.5697 12.1369H21.5093V12.4013H21.5584V12.203L21.632 12.3749H21.683L21.7567 12.203V12.4032L21.7963 12.4013Z" fill="#F79E1B"/>
</g>
<defs>
<clipPath id="clip0_5310_1859">
<rect width="22" height="16" fill="white"/>
</clipPath>
</defs>
</svg>
