<svg width="59" height="48" viewBox="0 0 59 48" fill="none" xmlns="http://www.w3.org/2000/svg">
<g clip-path="url(#clip0_100_32)">
<path d="M14.4905 41.9606V39.5688C14.5044 39.3677 14.4753 39.1658 14.4052 38.9768C14.335 38.7878 14.2253 38.6159 14.0835 38.4725C13.9417 38.3292 13.771 38.2177 13.5827 38.1456C13.3944 38.0734 13.1929 38.0422 12.9916 38.054C12.7281 38.0367 12.4649 38.0905 12.2292 38.2097C11.9936 38.3289 11.7944 38.5092 11.6522 38.7317C11.5226 38.5158 11.3372 38.339 11.1155 38.2197C10.8938 38.1004 10.644 38.0432 10.3925 38.054C10.1733 38.0429 9.95492 38.0893 9.75913 38.1886C9.56335 38.2879 9.39691 38.4366 9.27631 38.6201V38.1497H8.44714V41.9606H9.28428V39.8638C9.26648 39.7335 9.27768 39.6008 9.31709 39.4754C9.35651 39.3499 9.42315 39.2346 9.51227 39.1379C9.6014 39.0412 9.71079 38.9653 9.83263 38.9158C9.95447 38.8662 10.0858 38.8442 10.2171 38.8513C10.7672 38.8513 11.0463 39.21 11.0463 39.8558V41.9766H11.8834V39.8638C11.8663 39.7336 11.878 39.6013 11.9177 39.4761C11.9574 39.3509 12.0241 39.236 12.1131 39.1394C12.202 39.0429 12.3111 38.967 12.4326 38.9172C12.5541 38.8674 12.6851 38.8449 12.8162 38.8513C13.3823 38.8513 13.6534 39.21 13.6534 39.8558V41.9766L14.4905 41.9606ZM26.8762 38.1497H25.5128V36.9936H24.6757V38.1497H23.9183V38.9071H24.6916V40.6611C24.6916 41.5461 25.0345 42.0723 26.0151 42.0723C26.3815 42.0735 26.7408 41.9712 27.0516 41.7773L26.8124 41.0677C26.59 41.2003 26.3377 41.2744 26.0789 41.283C25.6803 41.283 25.5288 41.0278 25.5288 40.6451V38.9071H26.8841L26.8762 38.1497ZM33.948 38.054C33.7459 38.048 33.5458 38.0968 33.369 38.195C33.1922 38.2932 33.0452 38.4373 32.9434 38.6121V38.1497H32.1223V41.9606H32.9514V39.8239C32.9514 39.1941 33.2225 38.8433 33.7487 38.8433C33.926 38.8409 34.1021 38.8734 34.2669 38.939L34.5221 38.1417C34.3327 38.074 34.1332 38.0389 33.9321 38.038L33.948 38.054ZM23.2565 38.4526C22.7872 38.1736 22.2476 38.0352 21.7019 38.054C20.7372 38.054 20.1073 38.5164 20.1073 39.2738C20.1073 39.8957 20.5697 40.2784 21.4228 40.398L21.8214 40.4538C22.2759 40.5176 22.4912 40.6372 22.4912 40.8524C22.4912 41.1474 22.1882 41.3149 21.6221 41.3149C21.1668 41.328 20.7203 41.1876 20.3545 40.9162L19.9558 41.562C20.4388 41.8993 21.0173 42.0725 21.6062 42.0563C22.7064 42.0563 23.3442 41.5381 23.3442 40.8126C23.3442 40.087 22.842 39.7921 22.0128 39.6725L21.6142 39.6167C21.2554 39.5688 20.9684 39.4971 20.9684 39.2419C20.9684 38.9868 21.2394 38.7955 21.6939 38.7955C22.1139 38.8003 22.5257 38.9129 22.8898 39.1223L23.2565 38.4526ZM45.4647 38.054C45.2625 38.048 45.0625 38.0968 44.8857 38.195C44.7089 38.2932 44.5619 38.4373 44.4601 38.6121V38.1497H43.6389V41.9606H44.4681V39.8239C44.4681 39.1941 44.7391 38.8433 45.2653 38.8433C45.4427 38.8409 45.6188 38.8734 45.7836 38.939L46.0387 38.1417C45.8493 38.074 45.6498 38.0389 45.4487 38.038L45.4647 38.054ZM34.7812 40.0472C34.7713 40.315 34.8175 40.5819 34.9167 40.8309C35.0159 41.0798 35.166 41.3053 35.3574 41.4929C35.5487 41.6805 35.7771 41.8261 36.028 41.9204C36.2789 42.0147 36.5467 42.0555 36.8142 42.0404C37.3121 42.0657 37.8013 41.9036 38.1855 41.5859L37.7869 40.9162C37.5003 41.1348 37.1507 41.255 36.7903 41.259C36.4838 41.2342 36.1979 41.095 35.9894 40.869C35.7809 40.6429 35.6652 40.3467 35.6652 40.0392C35.6652 39.7317 35.7809 39.4355 35.9894 39.2095C36.1979 38.9834 36.4838 38.8442 36.7903 38.8194C37.1507 38.8234 37.5003 38.9436 37.7869 39.1622L38.1855 38.4925C37.8013 38.1749 37.3121 38.0127 36.8142 38.038C36.5467 38.0229 36.2789 38.0637 36.028 38.158C35.7771 38.2523 35.5487 38.3979 35.3574 38.5855C35.166 38.7731 35.0159 38.9986 34.9167 39.2476C34.8175 39.4965 34.7713 39.7634 34.7812 40.0312V40.0472ZM42.5466 40.0472V38.1497H41.7175V38.6121C41.5767 38.4309 41.3948 38.2858 41.1868 38.1888C40.9789 38.0917 40.7509 38.0455 40.5216 38.054C39.9929 38.054 39.486 38.264 39.1122 38.6378C38.7384 39.0116 38.5284 39.5186 38.5284 40.0472C38.5284 40.5758 38.7384 41.0828 39.1122 41.4566C39.486 41.8304 39.9929 42.0404 40.5216 42.0404C40.7509 42.0488 40.9789 42.0026 41.1868 41.9056C41.3948 41.8086 41.5767 41.6635 41.7175 41.4823V41.9447H42.5466V40.0472ZM39.4612 40.0472C39.4744 39.8229 39.5529 39.6073 39.6871 39.427C39.8213 39.2468 40.0053 39.1097 40.2164 39.0327C40.4275 38.9557 40.6565 38.9421 40.8752 38.9936C41.094 39.045 41.2929 39.1594 41.4474 39.3225C41.602 39.4856 41.7055 39.6903 41.7452 39.9115C41.7849 40.1327 41.759 40.3607 41.6708 40.5673C41.5825 40.774 41.4358 40.9504 41.2486 41.0747C41.0614 41.199 40.8419 41.2658 40.6172 41.267C40.4594 41.269 40.3028 41.2383 40.1574 41.1769C40.012 41.1154 39.8809 41.0246 39.7723 40.91C39.6638 40.7954 39.5801 40.6596 39.5265 40.5111C39.473 40.3627 39.4507 40.2047 39.4612 40.0472ZM29.4554 38.054C28.9267 38.0614 28.4227 38.2785 28.0541 38.6575C27.6856 39.0365 27.4827 39.5465 27.4901 40.0751C27.4975 40.6037 27.7146 41.1077 28.0936 41.4763C28.4726 41.8449 28.9825 42.0478 29.5112 42.0404C30.0847 42.0698 30.6487 41.8851 31.0938 41.5221L30.6951 40.9082C30.3803 41.1607 29.9904 41.301 29.5869 41.3069C29.3128 41.3305 29.0404 41.2462 28.8275 41.072C28.6145 40.8978 28.478 40.6474 28.4468 40.3741H31.2771V40.0552C31.2771 38.8592 30.5357 38.062 29.4673 38.062L29.4554 38.054ZM29.4554 38.7955C29.5794 38.7928 29.7028 38.8146 29.8185 38.8597C29.9341 38.9047 30.0397 38.9721 30.1293 39.058C30.2189 39.1439 30.2907 39.2466 30.3406 39.3602C30.3905 39.4739 30.4175 39.5962 30.4201 39.7203H28.4269C28.4413 39.4644 28.5554 39.2243 28.7446 39.0515C28.9339 38.8786 29.1833 38.7867 29.4394 38.7955H29.4554ZM50.2284 40.0552V36.6189H49.4311V38.6121C49.2903 38.4309 49.1084 38.2858 48.9005 38.1888C48.6925 38.0917 48.4645 38.0455 48.2352 38.054C47.7066 38.054 47.1996 38.264 46.8258 38.6378C46.452 39.0116 46.242 39.5186 46.242 40.0472C46.242 40.5758 46.452 41.0828 46.8258 41.4566C47.1996 41.8304 47.7066 42.0404 48.2352 42.0404C48.4645 42.0488 48.6925 42.0026 48.9005 41.9056C49.1084 41.8086 49.2903 41.6635 49.4311 41.4823V41.9447H50.2284V40.0552ZM51.6117 41.4065C51.6635 41.4059 51.7149 41.4154 51.7631 41.4344C51.8089 41.4531 51.8508 41.4802 51.8867 41.5142C51.9218 41.5485 51.9501 41.5891 51.9704 41.6338C51.9906 41.6803 52.001 41.7305 52.001 41.7813C52.001 41.832 51.9906 41.8822 51.9704 41.9288C51.9501 41.9734 51.9218 42.014 51.8867 42.0483C51.8508 42.0824 51.8089 42.1094 51.7631 42.1281C51.7154 42.1491 51.6638 42.16 51.6117 42.16C51.5361 42.1594 51.4622 42.1374 51.3987 42.0964C51.3352 42.0555 51.2846 41.9973 51.2529 41.9288C51.2329 41.8821 51.2226 41.832 51.2226 41.7813C51.2226 41.7306 51.2329 41.6804 51.2529 41.6338C51.2732 41.5891 51.3016 41.5485 51.3366 41.5142C51.3725 41.4802 51.4144 41.4531 51.4602 41.4344C51.5121 41.4138 51.5678 41.4043 51.6236 41.4065H51.6117ZM51.6117 42.0802C51.6515 42.0805 51.6908 42.0723 51.7273 42.0563C51.7616 42.041 51.7927 42.0194 51.819 41.9925C51.8688 41.9381 51.8965 41.867 51.8965 41.7932C51.8965 41.7194 51.8688 41.6483 51.819 41.5939C51.7927 41.567 51.7616 41.5453 51.7273 41.5301C51.6908 41.5142 51.6514 41.5061 51.6117 41.5062C51.5719 41.5064 51.5326 41.5145 51.4961 41.5301C51.4602 41.5448 51.4277 41.5665 51.4004 41.5939C51.3505 41.6483 51.3229 41.7194 51.3229 41.7932C51.3229 41.867 51.3505 41.9381 51.4004 41.9925C51.4278 42.0199 51.4603 42.0415 51.4961 42.0563C51.5363 42.0737 51.5799 42.0818 51.6236 42.0802H51.6117ZM51.6356 41.6059C51.6728 41.6041 51.7095 41.6153 51.7392 41.6377C51.7514 41.6478 51.7611 41.6607 51.7673 41.6753C51.7735 41.6898 51.7762 41.7057 51.7751 41.7215C51.7757 41.7347 51.7735 41.7479 51.7687 41.7603C51.7639 41.7726 51.7566 41.7838 51.7472 41.7932C51.7241 41.8142 51.6946 41.8268 51.6635 41.8291L51.7791 41.9606H51.6874L51.5798 41.8291H51.5439V41.9606H51.4682V41.6098L51.6356 41.6059ZM51.5479 41.6736V41.7693H51.6356C51.6512 41.774 51.6678 41.774 51.6834 41.7693C51.6862 41.7637 51.6877 41.7576 51.6877 41.7514C51.6877 41.7451 51.6862 41.739 51.6834 41.7334C51.6862 41.7279 51.6877 41.7217 51.6877 41.7155C51.6877 41.7093 51.6862 41.7031 51.6834 41.6975C51.6678 41.6929 51.6512 41.6929 51.6356 41.6975L51.5479 41.6736ZM47.1629 40.0552C47.1761 39.8308 47.2546 39.6153 47.3888 39.435C47.523 39.2548 47.707 39.1177 47.9181 39.0407C48.1292 38.9636 48.3582 38.95 48.5769 39.0015C48.7957 39.053 48.9946 39.1674 49.1491 39.3305C49.3037 39.4936 49.4072 39.6983 49.4469 39.9195C49.4866 40.1407 49.4607 40.3686 49.3725 40.5753C49.2842 40.782 49.1375 40.9583 48.9503 41.0826C48.7631 41.207 48.5436 41.2738 48.3189 41.275C48.1611 41.277 48.0045 41.2463 47.8591 41.1849C47.7137 41.1234 47.5826 41.0326 47.474 40.918C47.3654 40.8034 47.2817 40.6676 47.2282 40.5191C47.1746 40.3706 47.1524 40.2127 47.1629 40.0552ZM19.1665 40.0552V38.1497H18.3374V38.6121C18.1965 38.4309 18.0147 38.2858 17.8067 38.1888C17.5988 38.0917 17.3707 38.0455 17.1414 38.054C16.6128 38.054 16.1058 38.264 15.732 38.6378C15.3582 39.0116 15.1482 39.5186 15.1482 40.0472C15.1482 40.5758 15.3582 41.0828 15.732 41.4566C16.1058 41.8304 16.6128 42.0404 17.1414 42.0404C17.3707 42.0488 17.5988 42.0026 17.8067 41.9056C18.0147 41.8086 18.1965 41.6635 18.3374 41.4823V41.9447H19.1665V40.0552ZM16.0811 40.0552C16.0943 39.8308 16.1728 39.6153 16.307 39.435C16.4412 39.2548 16.6252 39.1177 16.8363 39.0407C17.0474 38.9636 17.2764 38.95 17.4951 39.0015C17.7139 39.053 17.9128 39.1674 18.0673 39.3305C18.2219 39.4936 18.3254 39.6983 18.3651 39.9195C18.4048 40.1407 18.3789 40.3686 18.2907 40.5753C18.2024 40.782 18.0557 40.9583 17.8685 41.0826C17.6813 41.207 17.4618 41.2738 17.2371 41.275C17.0786 41.2781 16.9212 41.2482 16.7748 41.1873C16.6285 41.1263 16.4964 41.0356 16.3869 40.921C16.2775 40.8063 16.1931 40.6701 16.1391 40.521C16.085 40.372 16.0626 40.2133 16.0731 40.0552H16.0811Z" fill="#231F20"/>
<path d="M22.9816 9.10889H35.5387V31.6758H22.9816V9.10889Z" fill="#FF5F00"/>
<path d="M23.7788 20.395C23.7765 18.2213 24.2688 16.0756 25.2184 14.1204C26.1681 12.1651 27.5502 10.4516 29.2601 9.10952C27.1429 7.44569 24.6004 6.41105 21.9231 6.12386C19.2458 5.83667 16.5417 6.3085 14.1198 7.48544C11.698 8.66237 9.65612 10.4969 8.22759 12.7794C6.79906 15.0619 6.0415 17.7003 6.0415 20.393C6.0415 23.0856 6.79906 25.724 8.22759 28.0065C9.65612 30.289 11.698 32.1236 14.1198 33.3005C16.5417 34.4774 19.2458 34.9493 21.9231 34.6621C24.6004 34.3749 27.1429 33.3402 29.2601 31.6764C27.5507 30.3348 26.1689 28.6219 25.2193 26.6674C24.2697 24.7129 23.7771 22.5679 23.7788 20.395Z" fill="#EB001B"/>
<path d="M52.4808 20.3944C52.4807 23.0873 51.723 25.7258 50.2942 28.0084C48.8654 30.291 46.8232 32.1255 44.4011 33.3023C41.9789 34.479 39.2746 34.9506 36.5971 34.663C33.9196 34.3754 31.3771 33.3402 29.2601 31.6759C30.9688 30.333 32.3502 28.6197 33.3001 26.6651C34.25 24.7104 34.7435 22.5656 34.7435 20.3924C34.7435 18.2192 34.25 16.0744 33.3001 14.1198C32.3502 12.1652 30.9688 10.4518 29.2601 9.10898C31.3771 7.44463 33.9196 6.40949 36.5971 6.12189C39.2746 5.83428 41.9789 6.30581 44.4011 7.48258C46.8232 8.65935 48.8654 10.4939 50.2942 12.7765C51.723 15.059 52.4807 17.6976 52.4808 20.3904V20.3944ZM51.1095 29.284V28.8216H51.2968V28.726H50.8225V28.8216H51.0258V29.284H51.1095ZM52.0303 29.284V28.726H51.8868L51.7194 29.1246L51.552 28.726H51.4244V29.284H51.528V28.8655L51.6835 29.2282H51.7911L51.9466 28.8655V29.288L52.0303 29.284Z" fill="#F79E1B"/>
</g>
<defs>
<clipPath id="clip0_100_32">
<rect width="58.5201" height="48" fill="white"/>
</clipPath>
</defs>
</svg>
