<svg width="61" height="16" viewBox="0 0 61 16" fill="none" xmlns="http://www.w3.org/2000/svg">
<g clip-path="url(#clip0_100_33)">
<path d="M22.3796 3.27222H19.0675C18.9579 3.27215 18.8518 3.31129 18.7684 3.38258C18.685 3.45387 18.6298 3.55263 18.6128 3.66107L17.2732 12.1639C17.267 12.2033 17.2695 12.2436 17.2804 12.282C17.2913 12.3205 17.3104 12.3561 17.3364 12.3864C17.3623 12.4167 17.3945 12.441 17.4308 12.4577C17.467 12.4743 17.5065 12.4829 17.5463 12.4829H19.1276C19.2373 12.4829 19.3434 12.4437 19.4268 12.3723C19.5102 12.3009 19.5653 12.2021 19.5823 12.0936L19.9436 9.80022C19.9605 9.69178 20.0156 9.59297 20.0989 9.52159C20.1822 9.45021 20.2882 9.41095 20.3978 9.41088H21.4463C23.6281 9.41088 24.8872 8.35391 25.216 6.25937C25.3642 5.343 25.2223 4.623 24.7937 4.11876C24.323 3.56507 23.4881 3.27222 22.3796 3.27222ZM22.7617 6.37767C22.5805 7.56749 21.6725 7.56749 20.7945 7.56749H20.2947L20.6453 5.34543C20.6556 5.28042 20.6887 5.22121 20.7387 5.17846C20.7886 5.13571 20.8522 5.11222 20.918 5.11222H21.147C21.7451 5.11222 22.3093 5.11222 22.6009 5.45355C22.7747 5.65719 22.828 5.95973 22.7617 6.37767ZM32.2799 6.33937H30.6939C30.6281 6.33937 30.5645 6.36286 30.5145 6.40561C30.4646 6.44836 30.4315 6.50757 30.4212 6.57258L30.351 7.0167L30.2401 6.85573C29.8967 6.35682 29.131 6.19004 28.3668 6.19004C26.6142 6.19004 25.1173 7.51901 24.8257 9.38325C24.6741 10.3132 24.8896 11.2024 25.4165 11.8225C25.8999 12.3927 26.5914 12.6303 27.4142 12.6303C28.8264 12.6303 29.6095 11.7212 29.6095 11.7212L29.5388 12.1624C29.5325 12.2018 29.5348 12.2422 29.5456 12.2807C29.5564 12.3191 29.5754 12.3548 29.6012 12.3852C29.6271 12.4156 29.6592 12.4401 29.6955 12.4568C29.7317 12.4736 29.7711 12.4823 29.811 12.4824H31.2396C31.3494 12.4825 31.4555 12.4432 31.5389 12.3719C31.6223 12.3005 31.6774 12.2016 31.6944 12.0931L32.5516 6.6584C32.5579 6.61904 32.5556 6.57878 32.5448 6.54039C32.5341 6.50201 32.5151 6.46642 32.4893 6.43609C32.4635 6.40575 32.4314 6.3814 32.3952 6.3647C32.3591 6.348 32.3197 6.33936 32.2799 6.33937ZM30.0691 9.42979C29.9161 10.3369 29.1969 10.9459 28.2797 10.9459C27.8191 10.9459 27.451 10.798 27.2147 10.5178C26.9803 10.2395 26.8912 9.84337 26.9658 9.40216C27.1087 8.50276 27.8399 7.87391 28.7431 7.87391C29.1935 7.87391 29.5596 8.02373 29.8008 8.3064C30.0425 8.59197 30.1384 8.99052 30.0691 9.42979ZM40.7269 6.33937H39.1331C39.0579 6.33949 38.9839 6.35796 38.9175 6.3932C38.8511 6.42843 38.7943 6.47935 38.7519 6.54155L36.5538 9.78325L35.622 6.6681C35.5934 6.57308 35.535 6.48982 35.4554 6.43061C35.3759 6.37141 35.2794 6.33942 35.1803 6.33937H33.6141C33.5702 6.33925 33.5268 6.34965 33.4877 6.3697C33.4485 6.38974 33.4147 6.41886 33.3891 6.45462C33.3635 6.49038 33.3467 6.53175 33.3403 6.57529C33.3339 6.61884 33.3379 6.66329 33.3521 6.70494L35.1077 11.8628L33.4572 14.1954C33.4279 14.2367 33.4105 14.2854 33.4069 14.336C33.4034 14.3866 33.4138 14.4372 33.437 14.4822C33.4603 14.5273 33.4955 14.5651 33.5388 14.5914C33.582 14.6178 33.6317 14.6318 33.6824 14.6317H35.2743C35.3486 14.6318 35.4218 14.6139 35.4877 14.5794C35.5536 14.545 35.6101 14.495 35.6525 14.4339L40.9535 6.77331C40.9823 6.73186 40.9991 6.68333 41.0023 6.63298C41.0054 6.58263 40.9947 6.53238 40.9714 6.48767C40.948 6.44296 40.9129 6.40551 40.8698 6.37937C40.8267 6.35322 40.7773 6.33939 40.7269 6.33937Z" fill="#253B80"/>
<path d="M46.0037 3.27221H42.6911C42.5816 3.27226 42.4756 3.31145 42.3923 3.38273C42.3091 3.45402 42.2539 3.55271 42.2369 3.66106L40.8973 12.1638C40.8911 12.2032 40.8935 12.2435 40.9043 12.2819C40.9151 12.3203 40.9341 12.3558 40.9599 12.3862C40.9858 12.4165 41.0179 12.4408 41.0541 12.4575C41.0903 12.4742 41.1297 12.4829 41.1695 12.4829H42.8693C42.946 12.4828 43.0202 12.4553 43.0784 12.4053C43.1366 12.3554 43.1752 12.2862 43.187 12.2104L43.5672 9.80021C43.5842 9.69177 43.6393 9.59296 43.7225 9.52158C43.8058 9.4502 43.9118 9.41094 44.0215 9.41088H45.0695C47.2517 9.41088 48.5103 8.35391 48.8397 6.25936C48.9883 5.343 48.8455 4.623 48.4169 4.11876C47.9466 3.56506 47.1122 3.27221 46.0037 3.27221ZM46.3858 6.37767C46.2051 7.56749 45.2971 7.56749 44.4186 7.56749H43.9193L44.2704 5.34543C44.2805 5.28041 44.3134 5.22116 44.3634 5.17838C44.4133 5.1356 44.4768 5.11213 44.5426 5.11221H44.7716C45.3692 5.11221 45.9339 5.11221 46.2255 5.45355C46.3993 5.65718 46.4521 5.95973 46.3858 6.37767ZM55.9035 6.33936H54.3184C54.2527 6.33918 54.1891 6.36262 54.1391 6.40542C54.0892 6.44821 54.0562 6.50752 54.0463 6.57258L53.976 7.0167L53.8647 6.85573C53.5213 6.35682 52.7561 6.19003 51.9919 6.19003C50.2393 6.19003 48.7428 7.519 48.4513 9.38324C48.3002 10.3132 48.5147 11.2024 49.0416 11.8225C49.5259 12.3927 50.2165 12.6303 51.0393 12.6303C52.4515 12.6303 53.2346 11.7212 53.2346 11.7212L53.1639 12.1624C53.1576 12.2019 53.1599 12.2424 53.1707 12.2809C53.1816 12.3194 53.2006 12.3551 53.2266 12.3856C53.2526 12.416 53.2849 12.4404 53.3212 12.4571C53.3575 12.4739 53.397 12.4825 53.437 12.4824H54.8652C54.9748 12.4823 55.0808 12.4431 55.1641 12.3717C55.2474 12.3003 55.3025 12.2015 55.3195 12.0931L56.1771 6.65839C56.1832 6.61891 56.1807 6.57858 56.1697 6.54016C56.1588 6.50175 56.1396 6.46617 56.1136 6.43586C56.0876 6.40555 56.0554 6.38123 56.0191 6.36457C55.9829 6.34792 55.9434 6.33932 55.9035 6.33936ZM53.6927 9.42979C53.5407 10.3369 52.8205 10.9459 51.9033 10.9459C51.4437 10.9459 51.0747 10.798 50.8383 10.5178C50.6039 10.2395 50.5158 9.84336 50.5894 9.40215C50.7332 8.50276 51.4635 7.87391 52.3667 7.87391C52.8171 7.87391 53.1833 8.02373 53.4244 8.3064C53.6671 8.59197 53.763 8.99052 53.6927 9.42979ZM57.7734 3.50543L56.414 12.1638C56.4077 12.2032 56.4101 12.2435 56.4209 12.2819C56.4317 12.3203 56.4507 12.3558 56.4766 12.3862C56.5025 12.4165 56.5346 12.4408 56.5708 12.4575C56.6069 12.4742 56.6463 12.4829 56.6861 12.4829H58.0528C58.2799 12.4829 58.4727 12.318 58.5075 12.0935L59.8481 3.59124C59.8543 3.55183 59.8519 3.51154 59.8411 3.47313C59.8303 3.43473 59.8113 3.39912 59.7854 3.36876C59.7596 3.3384 59.7275 3.31401 59.6913 3.29726C59.6551 3.28051 59.6157 3.2718 59.5759 3.27173H58.0455C57.9798 3.27196 57.9164 3.29561 57.8665 3.33843C57.8166 3.38125 57.7836 3.44045 57.7734 3.50543Z" fill="#179BD7"/>
<path d="M3.51881 14.1354L3.7721 12.5247L3.2079 12.5116H0.513794L2.38606 0.626524C2.39163 0.590209 2.41006 0.557109 2.43797 0.533258C2.46588 0.509406 2.50143 0.49639 2.53813 0.496584H7.08076C8.58884 0.496584 9.62958 0.810766 10.173 1.43089C10.4277 1.7218 10.5899 2.0258 10.6684 2.36034C10.7507 2.71137 10.7522 3.13077 10.6718 3.64228L10.666 3.67962V4.00737L10.9207 4.15186C11.1152 4.25049 11.29 4.38392 11.4365 4.54555C11.6544 4.79428 11.7953 5.1104 11.8549 5.48519C11.9164 5.87065 11.8961 6.32931 11.7953 6.84859C11.6791 7.44592 11.4912 7.96616 11.2374 8.39186C11.0135 8.77321 10.7125 9.10351 10.3536 9.36156C10.0165 9.60107 9.61602 9.78289 9.16321 9.89925C8.72444 10.0137 8.22417 10.0714 7.67547 10.0714H7.32194C7.06914 10.0714 6.82361 10.1625 6.63086 10.3259C6.43839 10.4911 6.3107 10.7192 6.27055 10.9698L6.24391 11.1148L5.79643 13.9536L5.77609 14.0578C5.77076 14.0908 5.76156 14.1073 5.748 14.1184C5.73486 14.1292 5.71847 14.1351 5.70151 14.1354H3.51881Z" fill="#253B80"/>
<path d="M11.1619 3.71729C11.1483 3.80407 11.1328 3.8928 11.1154 3.98395C10.5163 7.06322 8.46683 8.12698 5.84924 8.12698H4.51648C4.19636 8.12698 3.92661 8.35971 3.87673 8.67583L3.19437 13.0084L3.00114 14.2366C2.99344 14.2853 2.99638 14.3351 3.00975 14.3825C3.02312 14.43 3.04661 14.474 3.0786 14.5115C3.11059 14.549 3.15032 14.5792 3.19505 14.5998C3.23978 14.6205 3.28845 14.6312 3.33772 14.6312H5.70154C5.98146 14.6312 6.21924 14.4276 6.26331 14.1512L6.28656 14.031L6.73162 11.2033L6.76019 11.0482C6.80378 10.7709 7.04205 10.5672 7.32197 10.5672H7.6755C9.96571 10.5672 11.7586 9.63632 12.2826 6.9425C12.5015 5.81716 12.3881 4.87753 11.8089 4.21668C11.6253 4.01225 11.4061 3.84302 11.1619 3.71729Z" fill="#179BD7"/>
<path d="M10.5352 3.46715C10.3439 3.41176 10.1493 3.36852 9.95261 3.3377C9.56388 3.27789 9.17101 3.24919 8.77772 3.25188H5.21722C5.08172 3.25178 4.95065 3.30021 4.84771 3.38842C4.74477 3.47663 4.67674 3.5988 4.65593 3.73285L3.8985 8.53576L3.87671 8.67588C3.90031 8.52299 3.97778 8.38359 4.09512 8.28292C4.21247 8.18225 4.36192 8.12696 4.51646 8.12703H5.84922C8.46681 8.12703 10.5163 7.06279 11.1154 3.984C11.1333 3.89285 11.1483 3.80412 11.1619 3.71734C11.0038 3.63434 10.8391 3.56477 10.6694 3.50934C10.6249 3.49456 10.5801 3.4805 10.5352 3.46715Z" fill="#222D65"/>
<path d="M4.65604 3.73285C4.67667 3.59876 4.74466 3.47653 4.84766 3.38837C4.95065 3.3002 5.08182 3.25194 5.21733 3.25236H8.77783C9.19965 3.25236 9.59338 3.28 9.95272 3.33818C10.1959 3.37644 10.4357 3.43367 10.67 3.50933C10.8467 3.568 11.0109 3.63733 11.1625 3.71733C11.3407 2.57939 11.161 1.80461 10.5465 1.10303C9.86894 0.330667 8.6461 0 7.08136 0H2.53873C2.21909 0 1.94644 0.232727 1.89704 0.549333L0.00492124 12.5566C-0.00389194 12.6124 -0.000538823 12.6694 0.0147499 12.7237C0.0300387 12.778 0.0569002 12.8284 0.0934868 12.8713C0.130073 12.9142 0.175517 12.9487 0.226691 12.9724C0.277865 12.9961 0.333556 13.0084 0.389932 13.0085H3.19445L3.89861 8.53576L4.65604 3.73285Z" fill="#253B80"/>
</g>
<defs>
<clipPath id="clip0_100_33">
<rect width="60.0519" height="16" fill="white"/>
</clipPath>
</defs>
</svg>
