<svg width="181" height="48" viewBox="0 0 181 48" fill="none" xmlns="http://www.w3.org/2000/svg">
<g clip-path="url(#clip0_100_33)">
<path d="M67.1386 9.81665H57.2024C56.8734 9.81644 56.5552 9.93386 56.3051 10.1477C56.055 10.3616 55.8894 10.6579 55.8381 10.9832L51.8195 36.4916C51.801 36.6099 51.8084 36.7309 51.8411 36.8461C51.8738 36.9614 51.9311 37.0682 52.0089 37.1591C52.0868 37.2501 52.1835 37.3231 52.2922 37.3731C52.401 37.423 52.5193 37.4488 52.6389 37.4487H57.3825C57.7117 37.4488 58.0301 37.3312 58.2802 37.117C58.5304 36.9028 58.6959 36.6062 58.7468 36.2807L59.8306 29.4007C59.8815 29.0753 60.0468 28.7789 60.2966 28.5648C60.5465 28.3506 60.8645 28.2328 61.1934 28.2327H64.3389C70.8841 28.2327 74.6615 25.0617 75.648 18.7781C76.0926 16.029 75.6669 13.869 74.3811 12.3563C72.9689 10.6952 70.4642 9.81665 67.1386 9.81665ZM68.2849 19.133C67.7415 22.7025 65.0174 22.7025 62.3833 22.7025H60.884L61.9358 16.0363C61.9666 15.8413 62.0659 15.6636 62.2159 15.5354C62.3658 15.4071 62.5566 15.3367 62.7538 15.3367H63.441C65.2353 15.3367 66.9279 15.3367 67.8025 16.3607C68.3241 16.9716 68.4839 17.8792 68.2849 19.133ZM96.8396 19.0181H92.0814C91.8842 19.0181 91.6935 19.0886 91.5435 19.2168C91.3936 19.3451 91.2943 19.5227 91.2635 19.7177L91.0528 21.0501L90.7201 20.5672C89.69 19.0705 87.393 18.5701 85.1004 18.5701C79.8425 18.5701 75.3516 22.557 74.477 28.1497C74.0223 30.9396 74.6688 33.6072 76.2495 35.4676C77.6995 37.1781 79.7742 37.8908 82.2426 37.8908C86.4792 37.8908 88.8285 35.1636 88.8285 35.1636L88.6163 36.4872C88.5974 36.6055 88.6044 36.7266 88.6367 36.842C88.669 36.9574 88.726 37.0644 88.8036 37.1556C88.8812 37.2469 88.9776 37.3202 89.0863 37.3705C89.1949 37.4209 89.3131 37.447 89.4328 37.4472H93.7188C94.048 37.4473 94.3663 37.3297 94.6165 37.1156C94.8667 36.9014 95.0321 36.6048 95.0831 36.2792L97.6546 19.9752C97.6736 19.8571 97.6667 19.7363 97.6344 19.6212C97.6021 19.506 97.5453 19.3993 97.4678 19.3083C97.3903 19.2173 97.294 19.1442 97.1855 19.0941C97.0771 19.044 96.959 19.0181 96.8396 19.0181ZM90.2072 28.2894C89.7481 31.0108 87.5906 32.8377 84.8389 32.8377C83.4572 32.8377 82.353 32.3941 81.644 31.5534C80.9408 30.7185 80.6735 29.5301 80.8972 28.2065C81.3258 25.5083 83.5197 23.6217 86.2293 23.6217C87.5804 23.6217 88.6788 24.0712 89.4023 24.9192C90.1273 25.7759 90.415 26.9716 90.2072 28.2894ZM122.181 19.0181H117.399C117.174 19.0185 116.952 19.0739 116.752 19.1796C116.553 19.2853 116.383 19.4381 116.256 19.6247L109.661 29.3497L106.866 20.0043C106.78 19.7193 106.605 19.4694 106.366 19.2918C106.128 19.1142 105.838 19.0182 105.541 19.0181H100.842C100.71 19.0178 100.58 19.0489 100.463 19.1091C100.345 19.1692 100.244 19.2566 100.167 19.3639C100.09 19.4711 100.04 19.5953 100.021 19.7259C100.002 19.8565 100.014 19.9899 100.056 20.1148L105.323 35.5883L100.372 42.5861C100.284 42.7102 100.231 42.8561 100.221 43.0079C100.21 43.1597 100.241 43.3115 100.311 43.4467C100.381 43.5819 100.486 43.6952 100.616 43.7743C100.746 43.8534 100.895 43.8953 101.047 43.8952H105.823C106.046 43.8955 106.265 43.8417 106.463 43.7383C106.661 43.6349 106.83 43.4851 106.957 43.3017L122.86 20.3199C122.947 20.1956 122.997 20.05 123.007 19.8989C123.016 19.7479 122.984 19.5971 122.914 19.463C122.844 19.3289 122.739 19.2165 122.609 19.1381C122.48 19.0597 122.332 19.0182 122.181 19.0181Z" fill="#253B80"/>
<path d="M138.011 9.81688H128.073C127.745 9.81702 127.427 9.93459 127.177 10.1484C126.927 10.3623 126.762 10.6584 126.71 10.9834L122.692 36.4918C122.673 36.61 122.68 36.7308 122.713 36.8459C122.745 36.9611 122.802 37.0678 122.88 37.1588C122.957 37.2497 123.054 37.3228 123.162 37.3729C123.271 37.423 123.389 37.4489 123.508 37.4489H128.608C128.838 37.4485 129.06 37.366 129.235 37.2162C129.41 37.0663 129.525 36.859 129.561 36.6314L130.701 29.4009C130.752 29.0756 130.918 28.7791 131.167 28.565C131.417 28.3509 131.735 28.2331 132.064 28.2329H135.208C141.755 28.2329 145.531 25.062 146.519 18.7783C146.965 16.0292 146.536 13.8692 145.251 12.3565C143.84 10.6954 141.336 9.81688 138.011 9.81688ZM139.157 19.1332C138.615 22.7027 135.891 22.7027 133.256 22.7027H131.758L132.811 16.0365C132.841 15.8415 132.94 15.6637 133.09 15.5354C133.24 15.4071 133.43 15.3366 133.628 15.3369H134.315C136.108 15.3369 137.802 15.3369 138.676 16.3609C139.198 16.9718 139.356 17.8794 139.157 19.1332ZM167.71 19.0183H162.955C162.758 19.0178 162.567 19.0881 162.417 19.2165C162.267 19.3449 162.169 19.5228 162.139 19.718L161.928 21.0503L161.594 20.5674C160.564 19.0707 158.268 18.5703 155.976 18.5703C150.718 18.5703 146.228 22.5572 145.354 28.15C144.9 30.9398 145.544 33.6074 147.125 35.4678C148.578 37.1783 150.649 37.8911 153.118 37.8911C157.354 37.8911 159.704 35.1638 159.704 35.1638L159.492 36.4874C159.473 36.606 159.48 36.7273 159.512 36.8429C159.545 36.9585 159.602 37.0657 159.68 37.157C159.758 37.2483 159.854 37.3215 159.963 37.3717C160.072 37.4218 160.191 37.4477 160.311 37.4474H164.595C164.924 37.4472 165.242 37.3295 165.492 37.1153C165.742 36.9012 165.907 36.6047 165.958 36.2794L168.531 19.9754C168.55 19.857 168.542 19.736 168.509 19.6207C168.476 19.5055 168.419 19.3987 168.341 19.3078C168.263 19.2169 168.166 19.1439 168.057 19.094C167.948 19.044 167.83 19.0182 167.71 19.0183ZM161.078 28.2896C160.622 31.0111 158.461 32.838 155.71 32.838C154.331 32.838 153.224 32.3943 152.515 31.5536C151.812 30.7187 151.547 29.5303 151.768 28.2067C152.2 25.5085 154.391 23.622 157.1 23.622C158.451 23.622 159.55 24.0714 160.273 24.9194C161.001 25.7762 161.289 26.9718 161.078 28.2896ZM173.32 10.5165L169.242 36.4918C169.223 36.61 169.23 36.7308 169.263 36.8459C169.295 36.9611 169.352 37.0678 169.43 37.1588C169.507 37.2497 169.604 37.3228 169.712 37.3729C169.821 37.423 169.939 37.4489 170.058 37.4489H174.158C174.84 37.4489 175.418 36.9543 175.522 36.2809L179.544 10.774C179.563 10.6557 179.556 10.5349 179.523 10.4196C179.491 10.3044 179.434 10.1976 179.356 10.1065C179.279 10.0155 179.182 9.94227 179.074 9.89202C178.965 9.84177 178.847 9.81564 178.728 9.81543H174.136C173.939 9.81613 173.749 9.88706 173.599 10.0155C173.45 10.144 173.351 10.3216 173.32 10.5165Z" fill="#179BD7"/>
<path d="M10.5566 42.4059L11.3164 37.5739L9.62382 37.5346H1.5415L7.1583 1.87933C7.17502 1.77038 7.23029 1.67108 7.31403 1.59953C7.39777 1.52797 7.50441 1.48893 7.6145 1.48951H21.2424C25.7667 1.48951 28.8889 2.43205 30.519 4.29242C31.2832 5.16515 31.7699 6.07715 32.0053 7.08078C32.2523 8.13387 32.2566 9.39205 32.0154 10.9266L31.998 11.0386V12.0219L32.7622 12.4553C33.3456 12.7512 33.87 13.1515 34.3095 13.6364C34.9633 14.3826 35.3861 15.331 35.5648 16.4553C35.7493 17.6117 35.6883 18.9877 35.3861 20.5455C35.0374 22.3375 34.4737 23.8982 33.7124 25.1753C33.0407 26.3194 32.1375 27.3103 31.0609 28.0844C30.0497 28.803 28.8482 29.3484 27.4898 29.6975C26.1735 30.0408 24.6726 30.2139 23.0265 30.2139H21.9659C21.2075 30.2139 20.4709 30.4873 19.8927 30.9775C19.3153 31.4729 18.9322 32.1574 18.8118 32.9091L18.7319 33.3441L17.3894 41.8604L17.3284 42.1731C17.3124 42.2721 17.2848 42.3215 17.2441 42.355C17.2047 42.3872 17.1555 42.4052 17.1046 42.4059H10.5566Z" fill="#253B80"/>
<path d="M33.4856 11.1521C33.4449 11.4125 33.3984 11.6786 33.3461 11.9521C31.5489 21.1899 25.4004 24.3812 17.5476 24.3812H13.5493C12.589 24.3812 11.7797 25.0794 11.6301 26.0277L9.58298 39.0256L9.00329 42.7099C8.98019 42.8561 8.98901 43.0055 9.02913 43.1479C9.06925 43.2903 9.13971 43.4223 9.23568 43.5348C9.33165 43.6474 9.45083 43.7377 9.58502 43.7997C9.71922 43.8617 9.86524 43.8938 10.013 43.8939H17.1045C17.9442 43.8939 18.6576 43.283 18.7898 42.4539L18.8596 42.0932L20.1947 33.6103L20.2805 33.1448C20.4112 32.3128 21.126 31.7019 21.9658 31.7019H23.0264C29.897 31.7019 35.2755 28.9092 36.8475 20.8277C37.5042 17.4517 37.1643 14.6328 35.4266 12.6503C34.8759 12.037 34.2181 11.5293 33.4856 11.1521Z" fill="#179BD7"/>
<path d="M31.6056 10.4015C31.0318 10.2353 30.448 10.1056 29.8578 10.0131C28.6916 9.83367 27.513 9.74758 26.3332 9.75565H15.6517C15.2452 9.75533 14.852 9.90062 14.5431 10.1653C14.2343 10.4299 14.0302 10.7964 13.9678 11.1986L11.6955 25.6073L11.6301 26.0276C11.7009 25.569 11.9333 25.1508 12.2854 24.8488C12.6374 24.5468 13.0858 24.3809 13.5494 24.3811H17.5477C25.4004 24.3811 31.549 21.1884 33.3462 11.952C33.3999 11.6786 33.445 11.4124 33.4856 11.152C33.0114 10.903 32.5172 10.6943 32.0081 10.528C31.8746 10.4837 31.7404 10.4415 31.6056 10.4015Z" fill="#222D65"/>
<path d="M13.9679 11.1985C14.0298 10.7963 14.2337 10.4296 14.5427 10.1651C14.8517 9.9006 15.2452 9.75583 15.6518 9.75709H26.3333C27.5987 9.75709 28.7799 9.84 29.8579 10.0145C30.5874 10.1293 31.3068 10.301 32.0096 10.528C32.5399 10.704 33.0324 10.912 33.4872 11.152C34.0218 7.73818 33.4828 5.41382 31.6391 3.30909C29.6066 0.992 25.9381 0 21.2438 0H7.61593C6.65704 0 5.83907 0.698182 5.69088 1.648L0.0145196 37.6698C-0.01192 37.8371 -0.00186061 38.0081 0.0440057 38.171C0.0898719 38.334 0.170457 38.4851 0.280216 38.6139C0.389976 38.7427 0.526306 38.8462 0.679829 38.9173C0.833351 38.9883 1.00042 39.0252 1.16955 39.0255H9.58312L11.6956 25.6073L13.9679 11.1985Z" fill="#253B80"/>
</g>
<defs>
<clipPath id="clip0_100_33">
<rect width="180.156" height="48" fill="white"/>
</clipPath>
</defs>
</svg>
