<svg width="116" height="48" viewBox="0 0 116 48" fill="none" xmlns="http://www.w3.org/2000/svg">
<path fill-rule="evenodd" clip-rule="evenodd" d="M115.613 24.8011C115.613 16.5981 111.631 10.1255 104.019 10.1255C96.3762 10.1255 91.7517 16.5981 91.7517 24.737C91.7517 34.3818 97.2112 39.2523 105.047 39.2523C108.869 39.2523 111.759 38.3872 113.943 37.1696V30.761C111.759 31.8505 109.254 32.5234 106.075 32.5234C102.96 32.5234 100.198 31.4339 99.8446 27.6529H115.549C115.549 27.2363 115.613 25.5701 115.613 24.8011ZM99.7482 21.757C99.7482 18.1362 101.964 16.6302 103.987 16.6302C105.946 16.6302 108.034 18.1362 108.034 21.757H99.7482ZM79.3554 10.1255C76.2082 10.1255 74.1849 11.5995 73.0609 12.6248L72.6434 10.6382H65.5782V48L73.6069 46.3017L73.639 37.2336C74.7951 38.0668 76.4972 39.2523 79.3233 39.2523C85.0718 39.2523 90.3065 34.6382 90.3065 24.4806C90.2744 15.1883 84.9755 10.1255 79.3554 10.1255ZM77.4285 32.2029C75.5338 32.2029 74.4097 31.53 73.639 30.6969L73.6069 18.8091C74.4419 17.8798 75.598 17.239 77.4285 17.239C80.351 17.239 82.3742 20.5073 82.3742 24.7049C82.3742 28.9987 80.3831 32.2029 77.4285 32.2029ZM54.5308 8.23498L62.5915 6.50467V0L54.5308 1.69826V8.23498ZM54.5308 10.6702H62.5915V38.7076H54.5308V10.6702ZM45.8919 13.0414L45.3781 10.6702H38.4413V38.7076H46.47V19.7063C48.3647 17.239 51.5762 17.6876 52.5718 18.0401V10.6702C51.5441 10.2857 47.7867 9.58077 45.8919 13.0414ZM29.8345 3.71696L21.9986 5.38318L21.9665 31.0494C21.9665 35.7917 25.5312 39.2844 30.2842 39.2844C32.9176 39.2844 34.8444 38.8037 35.9042 38.227V31.7223C34.8766 32.1389 29.8024 33.6128 29.8024 28.8705V17.4953H35.9042V10.6702H29.8024L29.8345 3.71696ZM8.12502 18.8091C8.12502 17.5594 9.15269 17.0788 10.8548 17.0788C13.2955 17.0788 16.3785 17.8158 18.8192 19.1295V11.5995C16.1537 10.5421 13.5203 10.1255 10.8548 10.1255C4.33548 10.1255 0 13.522 0 19.1936C0 28.0374 12.2036 26.6275 12.2036 30.4406C12.2036 31.9146 10.919 32.3952 9.12057 32.3952C6.45505 32.3952 3.0509 31.3057 0.353261 29.8318V37.4579C3.33993 38.7397 6.35871 39.2844 9.12057 39.2844C15.8004 39.2844 20.3928 35.984 20.3928 30.2483C20.3607 20.6996 8.12502 22.3979 8.12502 18.8091Z" fill="#0A2540"/>
</svg>
