<svg width="39" height="16" viewBox="0 0 39 16" fill="none" xmlns="http://www.w3.org/2000/svg">
<path fill-rule="evenodd" clip-rule="evenodd" d="M38.5486 8.26702C38.5486 5.53271 37.2208 3.37517 34.683 3.37517C32.1345 3.37517 30.5926 5.53271 30.5926 8.24566C30.5926 11.4606 32.413 13.0841 35.0257 13.0841C36.2999 13.0841 37.2637 12.7957 37.9918 12.3899V10.2537C37.2637 10.6168 36.4284 10.8411 35.3683 10.8411C34.3297 10.8411 33.4088 10.478 33.291 9.21762H38.5272C38.5272 9.07877 38.5486 8.52337 38.5486 8.26702ZM33.2589 7.25234C33.2589 6.04539 33.9977 5.54339 34.6723 5.54339C35.3255 5.54339 36.0215 6.04539 36.0215 7.25234H33.2589ZM26.4593 3.37517C25.41 3.37517 24.7354 3.86649 24.3606 4.20828L24.2214 3.54606H21.8656V16L24.5426 15.4339L24.5533 12.4112C24.9388 12.6889 25.5063 13.0841 26.4486 13.0841C28.3653 13.0841 30.1107 11.5461 30.1107 8.16021C30.1 5.06275 28.3332 3.37517 26.4593 3.37517ZM25.8169 10.7343C25.1851 10.7343 24.8103 10.51 24.5533 10.2323L24.5426 6.26969C24.821 5.95995 25.2065 5.74633 25.8169 5.74633C26.7913 5.74633 27.4659 6.83578 27.4659 8.23498C27.4659 9.66622 26.802 10.7343 25.8169 10.7343ZM18.1821 2.74499L20.8698 2.16822V0L18.1821 0.566088V2.74499ZM18.1821 3.55674H20.8698V12.9025H18.1821V3.55674ZM15.3017 4.34713L15.1303 3.55674H12.8174V12.9025H15.4944V6.56876C16.1262 5.74633 17.197 5.89586 17.5289 6.01335V3.55674C17.1863 3.42857 15.9334 3.19359 15.3017 4.34713ZM9.94768 1.23899L7.33494 1.79439L7.32424 10.3498C7.32424 11.9306 8.51282 13.0948 10.0976 13.0948C10.9756 13.0948 11.6181 12.9346 11.9715 12.7423V10.5741C11.6288 10.713 9.93697 11.2043 9.93697 9.6235V5.83178H11.9715V3.55674H9.93697L9.94768 1.23899ZM2.70911 6.26969C2.70911 5.85314 3.05176 5.69292 3.61929 5.69292C4.43309 5.69292 5.46105 5.93858 6.27486 6.3765V3.86649C5.3861 3.51402 4.50805 3.37517 3.61929 3.37517C1.44557 3.37517 0 4.50734 0 6.39786C0 9.34579 4.06902 8.87583 4.06902 10.1469C4.06902 10.6382 3.6407 10.7984 3.04106 10.7984C2.1523 10.7984 1.01725 10.4352 0.117787 9.94393V12.486C1.11363 12.9132 2.12017 13.0948 3.04106 13.0948C5.26831 13.0948 6.79955 11.9947 6.79955 10.0828C6.78884 6.89987 2.70911 7.46595 2.70911 6.26969Z" fill="#635BFF"/>
</svg>
