<svg width="39" height="16" viewBox="0 0 39 16" fill="none" xmlns="http://www.w3.org/2000/svg">
<path fill-rule="evenodd" clip-rule="evenodd" d="M38.5376 8.26702C38.5376 5.53271 37.2102 3.37517 34.6732 3.37517C32.1254 3.37517 30.5839 5.53271 30.5839 8.24566C30.5839 11.4606 32.4037 13.0841 35.0157 13.0841C36.2896 13.0841 37.253 12.7957 37.981 12.3899V10.2537C37.253 10.6168 36.4181 10.8411 35.3583 10.8411C34.3199 10.8411 33.3993 10.478 33.2815 9.21762H38.5162C38.5162 9.07877 38.5376 8.52337 38.5376 8.26702ZM33.2494 7.25234C33.2494 6.04539 33.988 5.54339 34.6625 5.54339C35.3155 5.54339 36.0113 6.04539 36.0113 7.25234H33.2494ZM26.4518 3.37517C25.4027 3.37517 24.7283 3.86649 24.3536 4.20828L24.2145 3.54606H21.8594V16L24.5356 15.4339L24.5463 12.4112C24.9317 12.6889 25.4991 13.0841 26.4411 13.0841C28.3573 13.0841 30.1022 11.5461 30.1022 8.16021C30.0915 5.06275 28.3252 3.37517 26.4518 3.37517ZM25.8095 10.7343C25.1779 10.7343 24.8032 10.51 24.5463 10.2323L24.5356 6.26969C24.814 5.95995 25.1993 5.74633 25.8095 5.74633C26.7837 5.74633 27.4581 6.83578 27.4581 8.23498C27.4581 9.66622 26.7944 10.7343 25.8095 10.7343ZM18.1769 2.74499L20.8638 2.16822V0L18.1769 0.566088V2.74499ZM18.1769 3.55674H20.8638V12.9025H18.1769V3.55674ZM15.2973 4.34713L15.126 3.55674H12.8138V12.9025H15.49V6.56876C16.1216 5.74633 17.1921 5.89586 17.5239 6.01335V3.55674C17.1814 3.42857 15.9289 3.19359 15.2973 4.34713ZM9.94485 1.23899L7.33286 1.79439L7.32215 10.3498C7.32215 11.9306 8.51039 13.0948 10.0947 13.0948C10.9725 13.0948 11.6148 12.9346 11.9681 12.7423V10.5741C11.6255 10.713 9.93415 11.2043 9.93415 9.6235V5.83178H11.9681V3.55674H9.93415L9.94485 1.23899ZM2.70834 6.26969C2.70834 5.85314 3.0509 5.69292 3.61826 5.69292C4.43183 5.69292 5.4595 5.93858 6.27307 6.3765V3.86649C5.38456 3.51402 4.50676 3.37517 3.61826 3.37517C1.44516 3.37517 0 4.50734 0 6.39786C0 9.34579 4.06786 8.87583 4.06786 10.1469C4.06786 10.6382 3.63967 10.7984 3.04019 10.7984C2.15168 10.7984 1.01697 10.4352 0.117754 9.94393V12.486C1.11331 12.9132 2.11957 13.0948 3.04019 13.0948C5.26681 13.0948 6.79761 11.9947 6.79761 10.0828C6.78691 6.89987 2.70834 7.46595 2.70834 6.26969Z" fill="#0A2540"/>
</svg>
