<svg width="116" height="48" viewBox="0 0 116 48" fill="none" xmlns="http://www.w3.org/2000/svg">
<path fill-rule="evenodd" clip-rule="evenodd" d="M115.646 24.8011C115.646 16.5981 111.662 10.1255 104.049 10.1255C96.4036 10.1255 91.7778 16.5981 91.7778 24.737C91.7778 34.3818 97.2389 39.2523 105.077 39.2523C108.9 39.2523 111.791 38.3872 113.975 37.1696V30.761C111.791 31.8505 109.285 32.5234 106.105 32.5234C102.989 32.5234 100.226 31.4339 99.873 27.6529H115.582C115.582 27.2363 115.646 25.5701 115.646 24.8011ZM99.7766 21.757C99.7766 18.1362 101.993 16.6302 104.017 16.6302C105.977 16.6302 108.065 18.1362 108.065 21.757H99.7766ZM79.378 10.1255C76.2299 10.1255 74.2061 11.5995 73.0817 12.6248L72.6641 10.6382H65.5969V48L73.6278 46.3017L73.66 37.2336C74.8164 38.0668 76.519 39.2523 79.3459 39.2523C85.0961 39.2523 90.3322 34.6382 90.3322 24.4806C90.3001 15.1883 84.9997 10.1255 79.378 10.1255ZM77.4506 32.2029C75.5553 32.2029 74.4309 31.53 73.66 30.6969L73.6278 18.8091C74.4631 17.8798 75.6195 17.239 77.4506 17.239C80.3738 17.239 82.3977 20.5073 82.3977 24.7049C82.3977 28.9987 80.406 32.2029 77.4506 32.2029ZM54.5463 8.23498L62.6094 6.50467V0L54.5463 1.69826V8.23498ZM54.5463 10.6702H62.6094V38.7076H54.5463V10.6702ZM45.905 13.0414L45.391 10.6702H38.4522V38.7076H46.4832V19.7063C48.3785 17.239 51.5909 17.6876 52.5867 18.0401V10.6702C51.5588 10.2857 47.8003 9.58077 45.905 13.0414ZM29.843 3.71696L22.0048 5.38318L21.9727 31.0494C21.9727 35.7917 25.5385 39.2844 30.2928 39.2844C32.9269 39.2844 34.8544 38.8037 35.9145 38.227V31.7223C34.8865 32.1389 29.8109 33.6128 29.8109 28.8705V17.4953H35.9145V10.6702H29.8109L29.843 3.71696ZM8.12733 18.8091C8.12733 17.5594 9.1553 17.0788 10.8579 17.0788C13.2993 17.0788 16.3832 17.8158 18.8246 19.1295V11.5995C16.1583 10.5421 13.5241 10.1255 10.8579 10.1255C4.33672 10.1255 0 13.522 0 19.1936C0 28.0374 12.2071 26.6275 12.2071 30.4406C12.2071 31.9146 10.9221 32.3952 9.12317 32.3952C6.45689 32.3952 3.05176 31.3057 0.353362 29.8318V37.4579C3.34088 38.7397 6.36052 39.2844 9.12317 39.2844C15.8049 39.2844 20.3986 35.984 20.3986 30.2483C20.3665 20.6996 8.12733 22.3979 8.12733 18.8091Z" fill="#635BFF"/>
</svg>
