<svg width="37" height="16" viewBox="0 0 37 16" fill="none" xmlns="http://www.w3.org/2000/svg">
<path d="M18.32 2.21106L15.8481 13.7677H12.8581L15.3303 2.21106H18.32ZM30.8984 9.67334L32.472 5.33358L33.3776 9.67334H30.8984ZM34.2354 13.7677H37L34.5847 2.21106H32.0346C31.4599 2.21106 30.9754 2.54429 30.7609 3.05817L26.2748 13.7677H29.4148L30.0381 12.0418H33.8733L34.2354 13.7677ZM26.4305 9.99487C26.4435 6.94487 22.2142 6.77592 22.2426 5.41312C22.2517 4.99905 22.6468 4.55795 23.5102 4.44514C23.9383 4.39004 25.1197 4.34533 26.4589 4.9624L26.9826 2.51076C26.2634 2.25057 25.3378 2 24.1861 2C21.2304 2 19.1512 3.56997 19.1346 5.8199C19.1156 7.48371 20.6198 8.41139 21.7508 8.96556C22.9168 9.53194 23.3075 9.89506 23.3018 10.4011C23.2937 11.1765 22.372 11.5199 21.5137 11.5329C20.0098 11.5563 19.138 11.1263 18.4432 10.8025L17.9005 13.336C18.6002 13.6562 19.8894 13.9349 21.2244 13.9492C24.3667 13.9492 26.4212 12.3976 26.4305 9.99487ZM14.0478 2.21106L9.20354 13.7677H6.04359L3.65953 4.5447C3.51501 3.97753 3.38894 3.76907 2.94941 3.52942C2.23044 3.13901 1.04361 2.77381 0 2.54663L0.0707005 2.21106H5.15802C5.80602 2.21106 6.38903 2.64228 6.53745 3.3888L7.79681 10.0767L10.9068 2.21106H14.0478Z" fill="#1A1F71"/>
</svg>
