<svg width="103" height="33" viewBox="0 0 103 33" fill="none" xmlns="http://www.w3.org/2000/svg">
<g clip-path="url(#clip0_100_31)">
<path d="M44.6332 32.524H36.2895L41.5083 0.579139H49.8515L44.6332 32.524ZM74.8799 1.36016C73.2342 0.713727 70.6239 0 67.3962 0C59.1566 0 53.3543 4.34976 53.3187 10.5686C53.2503 15.1568 57.473 17.7052 60.6313 19.2351C63.8593 20.7983 64.9566 21.8187 64.9566 23.2121C64.9237 25.3522 62.3481 26.3387 59.9459 26.3387C56.6147 26.3387 54.8298 25.8301 52.1173 24.6394L51.0187 24.1291L49.851 31.3C51.8079 32.1826 55.4134 32.9657 59.1566 33.0001C67.9114 33.0001 73.611 28.7177 73.6786 22.0906C73.7119 18.454 71.4821 15.6676 66.6749 13.3907C63.7566 11.929 61.9694 10.9435 61.9694 9.44791C62.0036 8.08837 63.4811 6.69588 66.7753 6.69588C69.4878 6.62757 71.4807 7.27308 72.9905 7.91901L73.7452 8.25823L74.8799 1.36016ZM85.9695 21.2071C86.6566 19.3719 89.3007 12.2692 89.3007 12.2692C89.2659 12.3374 89.9864 10.4001 90.3984 9.21085L90.9815 11.9634C90.9815 11.9634 92.5615 19.61 92.9047 21.2072H85.9695V21.2071ZM96.2686 0.579241H89.8149C87.8247 0.579241 86.3127 1.15654 85.454 3.22972L73.0604 32.5236H81.8152C81.8152 32.5236 83.2565 28.5809 83.5663 27.7318H94.2789C94.5185 28.8533 95.2745 32.5236 95.2745 32.5236H103L96.2687 0.579241H96.2686ZM29.3205 0.579241L21.1492 22.3625L20.2563 17.9445C18.7457 12.8469 14.0078 7.30836 8.72058 4.5544L16.2051 32.4902H25.0284L38.1432 0.579139H29.3205V0.579241Z" fill="#00579F"/>
<path d="M13.5616 0.579204H0.137293L0 1.22462C10.4717 3.8755 17.407 10.2655 20.2564 17.9459L17.3381 3.26435C16.8576 1.22411 15.3812 0.646396 13.5616 0.579102V0.579204Z" fill="#FAA61A"/>
</g>
<defs>
<clipPath id="clip0_100_31">
<rect width="103" height="33" fill="white"/>
</clipPath>
</defs>
</svg>
