<svg width="43" height="16" viewBox="0 0 43 16" fill="none" xmlns="http://www.w3.org/2000/svg">
<g clip-path="url(#clip0_100_31)">
<path d="M21.0187 2.21183L18.5378 13.8103H15.537L18.0181 2.21183H21.0187ZM33.6427 9.70113L35.222 5.34565L36.1308 9.70113H33.6427ZM36.9917 13.8103H39.7663L37.3423 2.21183H34.7829C34.2061 2.21183 33.7199 2.54626 33.5047 3.062L29.0023 13.8103H32.1536L32.7792 12.0782H36.6283L36.9917 13.8103ZM29.1586 10.0238C29.1716 6.96278 24.927 6.79322 24.9555 5.42548C24.9646 5.00991 25.3611 4.56722 26.2277 4.454C26.6574 4.3987 27.843 4.35383 29.187 4.97313L29.7127 2.51261C28.9908 2.25148 28.0619 2 26.906 2C23.9396 2 21.8529 3.57565 21.8362 5.83374C21.8172 7.50356 23.3268 8.43461 24.4619 8.99078C25.6321 9.55922 26.0242 9.92365 26.0185 10.4316C26.0104 11.2097 25.0854 11.5543 24.224 11.5674C22.7146 11.5909 21.8396 11.1594 21.1423 10.8343L20.5976 13.377C21.2999 13.6984 22.5938 13.9781 23.9336 13.9924C27.0873 13.9924 29.1492 12.4353 29.1586 10.0238ZM16.731 2.21183L11.8692 13.8103H8.6978L6.30511 4.55391C6.16006 3.9847 6.03354 3.77548 5.59241 3.53496C4.87085 3.14313 3.67972 2.77661 2.63232 2.54861L2.70328 2.21183H7.80902C8.45937 2.21183 9.0445 2.64461 9.19345 3.39383L10.4574 10.106L13.5787 2.21183H16.731Z" fill="#1A1F71"/>
</g>
<defs>
<clipPath id="clip0_100_31">
<rect width="37.3043" height="12" fill="white" transform="translate(2.63232 2)"/>
</clipPath>
</defs>
</svg>
