<svg width="24" height="24" viewBox="0 0 24 24" fill="none" xmlns="http://www.w3.org/2000/svg">
<mask id="mask0_2474_2518" style="mask-type:alpha" maskUnits="userSpaceOnUse" x="2" y="3" width="21" height="19">
<path fill-rule="evenodd" clip-rule="evenodd" d="M12.267 4.99793L3.86872 19.5041H20.6654L12.267 4.99793ZM13.1325 3.49896C12.7473 2.83368 11.7868 2.83368 11.4016 3.49896L2.13607 19.5031C1.7501 20.1698 2.23116 21.0041 3.0015 21.0041H21.5326C22.3029 21.0041 22.784 20.1698 22.398 19.5031L13.1325 3.49896Z" fill="#383641"/>
<path fill-rule="evenodd" clip-rule="evenodd" d="M12.2671 9.25415C12.6813 9.25415 13.0171 9.58994 13.0171 10.0042V15.5042C13.0171 15.9184 12.6813 16.2542 12.2671 16.2542C11.8529 16.2542 11.5171 15.9184 11.5171 15.5042V10.0042C11.5171 9.58994 11.8529 9.25415 12.2671 9.25415Z" fill="#383641"/>
<path d="M13.017 17.7541C13.017 18.1683 12.6813 18.5041 12.267 18.5041C11.8528 18.5041 11.517 18.1683 11.517 17.7541C11.517 17.3399 11.8528 17.0041 12.267 17.0041C12.6813 17.0041 13.017 17.3399 13.017 17.7541Z" fill="#383641"/>
</mask>
<g mask="url(#mask0_2474_2518)">
<rect width="24" height="24" fill="#383641"/>
</g>
</svg>
