<svg width="24" height="24" viewBox="0 0 24 24" fill="none" xmlns="http://www.w3.org/2000/svg">
<mask id="mask0_565_4804" style="mask-type:alpha" maskUnits="userSpaceOnUse" x="2" y="2" width="20" height="20">
<path fill-rule="evenodd" clip-rule="evenodd" d="M5.98959 18.0104C9.30905 21.3299 14.6909 21.3299 18.0104 18.0104C21.3299 14.691 21.3299 9.30905 18.0104 5.98959C14.691 2.67014 9.30905 2.67014 5.98959 5.98959C2.67014 9.30905 2.67014 14.691 5.98959 18.0104ZM4.92893 19.0711C8.83418 22.9763 15.1658 22.9763 19.0711 19.0711C22.9763 15.1658 22.9763 8.83418 19.0711 4.92893C15.1658 1.02369 8.83418 1.02369 4.92893 4.92893C1.02369 8.83418 1.02369 15.1658 4.92893 19.0711Z" fill="#383641"/>
<path fill-rule="evenodd" clip-rule="evenodd" d="M12 8.10786C10.7574 8.10786 9.75 9.11522 9.75 10.3579C9.75 10.7721 9.41421 11.1079 9 11.1079C8.58579 11.1079 8.25 10.7721 8.25 10.3579C8.25 8.2868 9.92893 6.60786 12 6.60786C14.0711 6.60786 15.75 8.2868 15.75 10.3579C15.75 12.1721 14.4617 13.6854 12.75 14.0329V14.8579C12.75 15.2721 12.4142 15.6079 12 15.6079C11.5858 15.6079 11.25 15.2721 11.25 14.8579V12.6079H12C13.2426 12.6079 14.25 11.6005 14.25 10.3579C14.25 9.11522 13.2426 8.10786 12 8.10786Z" fill="#383641"/>
<path d="M12.7 17.1079C12.7 17.5221 12.3642 17.8579 11.95 17.8579C11.5358 17.8579 11.2 17.5221 11.2 17.1079C11.2 16.6937 11.5358 16.3579 11.95 16.3579C12.3642 16.3579 12.7 16.6937 12.7 17.1079Z" fill="#383641"/>
</mask>
<g mask="url(#mask0_565_4804)">
<rect width="24" height="24" fill="#383641"/>
</g>
</svg>
