<svg width="24" height="24" viewBox="0 0 24 24" fill="none" xmlns="http://www.w3.org/2000/svg">
<path fill-rule="evenodd" clip-rule="evenodd" d="M12.3214 2.5C10.2471 2.5 8.25765 3.32404 6.79084 4.79084C5.32404 6.25765 4.5 8.24706 4.5 10.3214V10.5234H6.60714C7.31123 10.5234 7.98648 10.8031 8.48434 11.301C8.98221 11.7989 9.2619 12.4741 9.2619 13.1782V16.0353C9.2619 16.7394 8.98221 17.4147 8.48434 17.9125C7.98648 18.4104 7.31123 18.6901 6.60714 18.6901H5.65476C4.95068 18.6901 4.27543 18.4104 3.77756 17.9125C3.2797 17.4147 3 16.7394 3 16.0353V10.3214C3 7.84923 3.98208 5.47829 5.73018 3.73018C7.47829 1.98208 9.84923 1 12.3214 1C14.7936 1 17.1646 1.98208 18.9127 3.73018C20.6608 5.47829 21.6429 7.84923 21.6429 10.3214V16.0353C21.6429 16.3943 21.5702 16.7458 21.4329 17.0701C20.9788 18.734 19.8322 19.9915 18.4274 20.8612C16.6197 21.9806 14.3339 22.5 12.3214 22.5C11.9072 22.5 11.5714 22.1642 11.5714 21.75C11.5714 21.3358 11.9072 21 12.3214 21C14.1102 21 16.1102 20.5318 17.6378 19.5859C18.0648 19.3215 18.4507 19.0233 18.7846 18.6901H18.0357C17.3316 18.6901 16.6564 18.4104 16.1585 17.9125C15.6606 17.4147 15.381 16.7394 15.381 16.0353V13.1782C15.381 12.4741 15.6606 11.7989 16.1585 11.301C16.6564 10.8031 17.3316 10.5234 18.0357 10.5234L20.1429 10.5237V10.3214C20.1429 8.24706 19.3188 6.25765 17.852 4.79084C16.3852 3.32404 14.3958 2.5 12.3214 2.5ZM20.0122 16.569C19.9583 16.6724 19.8886 16.7679 19.8046 16.8519C19.5881 17.0684 19.2944 17.1901 18.9881 17.1901H18.0357C17.7295 17.1901 17.4357 17.0684 17.2192 16.8519C17.0026 16.6353 16.881 16.3416 16.881 16.0353V13.1782C16.881 12.8719 17.0026 12.5782 17.2192 12.3617C17.4357 12.1451 17.7294 12.0235 18.0356 12.0234C18.0356 12.0234 18.0356 12.0234 18.0356 12.0234L20.1429 12.0237V15.4643C20.1429 15.8537 20.0977 16.2218 20.0122 16.569ZM4.5 16.0353C4.5 16.3416 4.62166 16.6353 4.83822 16.8519C5.05478 17.0684 5.3485 17.1901 5.65476 17.1901H6.60714C6.9134 17.1901 7.20712 17.0684 7.42368 16.8519C7.64024 16.6353 7.7619 16.3416 7.7619 16.0353V13.1782C7.7619 12.8719 7.64024 12.5782 7.42368 12.3617C7.20712 12.1451 6.9134 12.0234 6.60714 12.0234H4.5V16.0353Z" fill="#383641"/>
</svg>
