<svg width="24" height="24" viewBox="0 0 24 24" fill="none" xmlns="http://www.w3.org/2000/svg">
<path fill-rule="evenodd" clip-rule="evenodd" d="M11.75 2.5C6.64137 2.5 2.5 6.64137 2.5 11.75C2.5 16.8586 6.64137 21 11.75 21C16.8586 21 21 16.8586 21 11.75C21 6.64137 16.8586 2.5 11.75 2.5ZM1 11.75C1 5.81294 5.81294 1 11.75 1C17.6871 1 22.5 5.81294 22.5 11.75C22.5 17.6871 17.6871 22.5 11.75 22.5C5.81294 22.5 1 17.6871 1 11.75Z" fill="#383641"/>
<path fill-rule="evenodd" clip-rule="evenodd" d="M11.75 11C12.1642 11 12.5 11.3358 12.5 11.75V15.75C12.5 16.1642 12.1642 16.5 11.75 16.5C11.3358 16.5 11 16.1642 11 15.75V11.75C11 11.3358 11.3358 11 11.75 11Z" fill="#383641"/>
<path fill-rule="evenodd" clip-rule="evenodd" d="M11 7.75C11 7.33579 11.3358 7 11.75 7H11.76C12.1742 7 12.51 7.33579 12.51 7.75C12.51 8.16421 12.1742 8.5 11.76 8.5H11.75C11.3358 8.5 11 8.16421 11 7.75Z" fill="#383641"/>
</svg>
