<svg width="24" height="24" viewBox="0 0 24 24" fill="none" xmlns="http://www.w3.org/2000/svg">
<mask id="mask0_512_1006" style="mask-type:alpha" maskUnits="userSpaceOnUse" x="3" y="5" width="17" height="14">
<path fill-rule="evenodd" clip-rule="evenodd" d="M19.25 12C19.25 11.5858 18.9142 11.25 18.5 11.25L6.31066 11.25L10.5303 7.03033C10.8232 6.73744 10.8232 6.26256 10.5303 5.96967C10.2374 5.67678 9.76256 5.67678 9.46967 5.96967L3.96967 11.4697C3.67678 11.7626 3.67678 12.2374 3.96967 12.5303L9.46967 18.0303C9.76256 18.3232 10.2374 18.3232 10.5303 18.0303C10.8232 17.7374 10.8232 17.2626 10.5303 16.9697L6.31066 12.75L18.5 12.75C18.9142 12.75 19.25 12.4142 19.25 12Z" fill="#383641"/>
</mask>
<g mask="url(#mask0_512_1006)">
<rect width="24" height="24" fill="#383641"/>
</g>
</svg>
