<svg width="24" height="24" viewBox="0 0 24 24" fill="none" xmlns="http://www.w3.org/2000/svg">
<mask id="mask0_512_1032" style="mask-type:alpha" maskUnits="userSpaceOnUse" x="5" y="4" width="13" height="16">
<path fill-rule="evenodd" clip-rule="evenodd" d="M11.5 4.25C11.9142 4.25 12.25 4.58579 12.25 5V17.1893L16.4697 12.9697C16.7626 12.6768 17.2374 12.6768 17.5303 12.9697C17.8232 13.2626 17.8232 13.7374 17.5303 14.0303L12.0303 19.5303C11.7374 19.8232 11.2626 19.8232 10.9697 19.5303L5.46967 14.0303C5.17678 13.7374 5.17678 13.2626 5.46967 12.9697C5.76256 12.6768 6.23744 12.6768 6.53033 12.9697L10.75 17.1893V5C10.75 4.58579 11.0858 4.25 11.5 4.25Z" fill="#383641"/>
</mask>
<g mask="url(#mask0_512_1032)">
<rect width="24" height="24" fill="#383641"/>
</g>
</svg>
