<svg width="24" height="24" viewBox="0 0 24 24" fill="none" xmlns="http://www.w3.org/2000/svg">
<mask id="mask0_512_1009" style="mask-type:alpha" maskUnits="userSpaceOnUse" x="3" y="5" width="17" height="14">
<path fill-rule="evenodd" clip-rule="evenodd" d="M3.75 12C3.75 12.4142 4.08579 12.75 4.5 12.75L16.6893 12.75L12.4697 16.9697C12.1768 17.2626 12.1768 17.7374 12.4697 18.0303C12.7626 18.3232 13.2374 18.3232 13.5303 18.0303L19.0303 12.5303C19.3232 12.2374 19.3232 11.7626 19.0303 11.4697L13.5303 5.96967C13.2374 5.67678 12.7626 5.67678 12.4697 5.96967C12.1768 6.26256 12.1768 6.73744 12.4697 7.03033L16.6893 11.25L4.5 11.25C4.08579 11.25 3.75 11.5858 3.75 12Z" fill="#383641"/>
</mask>
<g mask="url(#mask0_512_1009)">
<rect width="24" height="24" fill="#383641"/>
</g>
</svg>
