<svg width="24" height="24" viewBox="0 0 24 24" fill="none" xmlns="http://www.w3.org/2000/svg">
<mask id="mask0_565_4818" style="mask-type:alpha" maskUnits="userSpaceOnUse" x="0" y="2" width="24" height="20">
<path d="M14.2123 2.24899C12.5647 1.8762 10.8495 1.92686 9.22684 2.39623C7.60928 2.86411 6.13615 3.73285 4.94399 4.92178L2 7.68811V4.00006C2 3.44778 1.55228 3.00006 1 3.00006C0.447715 3.00006 0 3.44778 0 4.00006V10.0001C0 10.5523 0.447715 11.0001 1 11.0001H7C7.55228 11.0001 8 10.5523 8 10.0001C8 9.44778 7.55228 9.00006 7 9.00006H3.52445L6.32466 6.36883C6.33228 6.36167 6.33978 6.3544 6.34717 6.34701C7.3025 5.3912 8.48439 4.69297 9.78256 4.31747C11.0807 3.94198 12.4529 3.90145 13.7709 4.19968C15.089 4.49791 16.31 5.12517 17.3201 6.02293C18.3302 6.9207 19.0964 8.0597 19.5472 9.33367C19.7314 9.85432 20.3028 10.127 20.8235 9.94279C21.3441 9.75855 21.6168 9.18713 21.4326 8.66648C20.8691 7.07402 19.9113 5.65026 18.6488 4.52806C17.3862 3.40585 15.8599 2.62177 14.2123 2.24899Z" fill="#383641"/>
<path d="M20.4754 15.0001H17C16.4477 15.0001 16 14.5523 16 14.0001C16 13.4478 16.4477 13.0001 17 13.0001H23C23.5523 13.0001 24 13.4478 24 14.0001V20.0001C24 20.5523 23.5523 21.0001 23 21.0001C22.4477 21.0001 22 20.5523 22 20.0001V16.3118L19.0558 19.0784C17.8636 20.2673 16.3905 21.136 14.7729 21.6039C13.1502 22.0733 11.4351 22.1239 9.78749 21.7512C8.13991 21.3784 6.61361 20.5943 5.35102 19.4721C4.08843 18.3499 3.13069 16.9261 2.56717 15.3337C2.38293 14.813 2.65564 14.2416 3.17629 14.0574C3.69694 13.8731 4.26836 14.1458 4.4526 14.6665C4.90342 15.9404 5.66961 17.0795 6.67968 17.9772C7.68976 18.875 8.9108 19.5022 10.2289 19.8005C11.5469 20.0987 12.9191 20.0582 14.2172 19.6827C15.5154 19.3072 16.6973 18.609 17.6526 17.6531L17.6661 17.6399L17.6751 17.6313L20.4754 15.0001Z" fill="#383641"/>
</mask>
<g mask="url(#mask0_565_4818)">
<rect width="24" height="24" fill="#383641"/>
</g>
</svg>
