<svg width="24" height="24" viewBox="0 0 24 24" fill="none" xmlns="http://www.w3.org/2000/svg">
<path fill-rule="evenodd" clip-rule="evenodd" d="M2.69489 9.22955C2.2818 9.19896 1.97174 8.83929 2.00233 8.42621L2.50085 1.69464C2.53144 1.28156 2.89111 0.97149 3.30419 1.00208C3.71728 1.03267 4.02735 1.39234 3.99675 1.80543L3.63117 6.74194C3.71123 6.67395 3.79317 6.60445 3.87654 6.53383C4.76068 5.78497 5.81811 4.90016 6.47348 4.38984C8.21021 3.0375 10.395 2.2316 12.7659 2.2316C16.6712 2.2316 20.0652 4.41587 21.7949 7.62583C21.9914 7.99047 21.855 8.44536 21.4904 8.64185C21.1258 8.83833 20.6709 8.70202 20.4744 8.33737C18.9959 5.59362 16.0978 3.7316 12.7659 3.7316C10.7405 3.7316 8.87771 4.41885 7.39505 5.57336C6.76778 6.0618 5.73321 6.92699 4.84602 7.67844C4.77014 7.74271 4.69543 7.80606 4.62227 7.86818L9.53724 8.23217C9.95032 8.26276 10.2604 8.62243 10.2298 9.03551C10.1992 9.4486 9.83954 9.75867 9.42645 9.72808L2.69489 9.22955ZM21.1899 14.2336C21.603 14.2642 21.913 14.6239 21.8824 15.037L21.3839 21.7686C21.3533 22.1816 20.9937 22.4917 20.5806 22.4611C20.1675 22.4305 19.8574 22.0709 19.888 21.6578L20.2536 16.7213C20.1735 16.7892 20.0916 16.8588 20.0082 16.9294C19.1241 17.6782 18.0667 18.563 17.4113 19.0734C15.6746 20.4257 13.4898 21.2316 11.1188 21.2316C7.21356 21.2316 3.81958 19.0473 2.0899 15.8374C1.89341 15.4727 2.02973 15.0178 2.39437 14.8214C2.75902 14.6249 3.2139 14.7612 3.41039 15.1258C4.88886 17.8696 7.78697 19.7316 11.1188 19.7316C13.1443 19.7316 15.0071 19.0443 16.4897 17.8898C17.117 17.4014 18.1516 16.5362 19.0388 15.7848C19.1146 15.7205 19.1893 15.6571 19.2625 15.595L14.3475 15.231C13.9345 15.2004 13.6244 14.8408 13.655 14.4277C13.6856 14.0146 14.0452 13.7045 14.4583 13.7351L21.1899 14.2336Z" fill="#383641"/>
</svg>
