<svg width="24" height="24" viewBox="0 0 24 24" fill="none" xmlns="http://www.w3.org/2000/svg">
<mask id="mask0_565_4816" style="mask-type:alpha" maskUnits="userSpaceOnUse" x="1" y="1" width="22" height="22">
<path fill-rule="evenodd" clip-rule="evenodd" d="M1.69464 9.22955C1.28156 9.19896 0.971491 8.83929 1.00208 8.42621L1.50061 1.69464C1.5312 1.28156 1.89087 0.97149 2.30395 1.00208C2.71703 1.03267 3.0271 1.39234 2.99651 1.80543L2.63092 6.74194C2.71098 6.67395 2.79293 6.60445 2.8763 6.53383C3.76044 5.78497 4.81786 4.90016 5.47324 4.38984C7.20997 3.0375 9.39476 2.2316 11.7657 2.2316C17.4266 2.2316 22.0157 6.82068 22.0157 12.4816C22.0157 18.1425 17.4266 22.7316 11.7657 22.7316C6.98857 22.7316 2.97647 19.4643 1.83865 15.0435C1.7354 14.6424 1.97689 14.2335 2.37803 14.1303C2.77917 14.027 3.18806 14.2685 3.2913 14.6697C4.26269 18.4438 7.68956 21.2316 11.7657 21.2316C16.5982 21.2316 20.5157 17.3141 20.5157 12.4816C20.5157 7.64911 16.5982 3.7316 11.7657 3.7316C9.74026 3.7316 7.87747 4.41885 6.39481 5.57336C5.76753 6.0618 4.73297 6.92699 3.84577 7.67844C3.76989 7.74271 3.69519 7.80606 3.62202 7.86818L8.53699 8.23217C8.95007 8.26276 9.26014 8.62243 9.22955 9.03551C9.19896 9.4486 8.83929 9.75867 8.42621 9.72808L1.69464 9.22955Z" fill="#383641"/>
</mask>
<g mask="url(#mask0_565_4816)">
<rect width="24" height="24" fill="#383641"/>
</g>
</svg>
