<svg width="24" height="24" viewBox="0 0 24 24" fill="none" xmlns="http://www.w3.org/2000/svg">
<mask id="mask0_565_4816" style="mask-type:alpha" maskUnits="userSpaceOnUse" x="0" y="2" width="22" height="21">
<path d="M16.8366 3.25754C14.9392 2.20862 12.7523 1.80476 10.6054 2.10682C8.46356 2.40816 6.47734 3.39576 4.94449 4.92128L2 7.68809V3.99994C2 3.44765 1.55228 2.99994 1 2.99994C0.447715 2.99994 0 3.44765 0 3.99994V9.99994C0 10.5522 0.447715 10.9999 1 10.9999H7C7.55228 10.9999 8 10.5522 8 9.99994C8 9.44765 7.55228 8.99994 7 8.99994H3.52456L6.32478 6.3687C6.33213 6.3618 6.33937 6.35478 6.34651 6.34765C7.57399 5.12225 9.16647 4.32896 10.884 4.08731C12.6015 3.84567 14.3511 4.16875 15.869 5.00789C17.387 5.84703 18.5911 7.15676 19.3 8.73974C20.0088 10.3227 20.184 12.0932 19.7992 13.7844C19.4143 15.4756 18.4902 16.996 17.1662 18.1163C15.8421 19.2367 14.1898 19.8964 12.4583 19.9961C10.7267 20.0957 9.0096 19.6299 7.56576 18.6689C6.12192 17.7078 5.02953 16.3035 4.45318 14.6677C4.26965 14.1468 3.69861 13.8733 3.1777 14.0568C2.6568 14.2403 2.3833 14.8113 2.56682 15.3322C3.28726 17.3771 4.65275 19.1324 6.45755 20.3338C8.26235 21.5351 10.4087 22.1173 12.5732 21.9928C14.7377 21.8682 16.803 21.0435 18.4581 19.6431C20.1131 18.2426 21.2682 16.3422 21.7493 14.2282C22.2304 12.1142 22.0114 9.90109 21.1253 7.92236C20.2392 5.94363 18.7341 4.30646 16.8366 3.25754Z" fill="#383641"/>
</mask>
<g mask="url(#mask0_565_4816)">
<rect width="24" height="24" fill="#383641"/>
</g>
</svg>
