<svg width="24" height="24" viewBox="0 0 24 24" fill="none" xmlns="http://www.w3.org/2000/svg">
<path d="M11.9145 0.120117C6.94191 0.120117 5.48763 0.125246 5.20494 0.148697C4.18449 0.233521 3.5495 0.394191 2.85772 0.738617C2.32459 1.00335 1.90413 1.31022 1.48917 1.74038C0.733452 2.52487 0.275439 3.48999 0.109638 4.63722C0.0290278 5.19417 0.00557758 5.30775 0.000814245 8.15256C-0.00101781 9.10083 0.000814245 10.3488 0.000814245 12.0228C0.000814245 16.9913 0.0063104 18.4441 0.0301271 18.7262C0.112569 19.7192 0.268294 20.3439 0.598063 21.0273C1.22829 22.3354 2.43195 23.3174 3.84996 23.6838C4.34095 23.8102 4.88323 23.8798 5.57941 23.9128C5.87437 23.9256 8.88077 23.9348 11.889 23.9348C14.8972 23.9348 17.9055 23.9311 18.1931 23.9165C18.9992 23.8785 19.4673 23.8157 19.9848 23.6819C20.6879 23.5016 21.3432 23.17 21.9049 22.7102C22.4666 22.2505 22.9211 21.6736 23.2367 21.02C23.5601 20.3531 23.7241 19.7046 23.7983 18.7634C23.8144 18.5582 23.8212 15.2868 23.8212 12.0197C23.8212 8.75201 23.8138 5.48656 23.7977 5.28137C23.7226 4.32504 23.5586 3.68199 23.2248 3.0023C22.9509 2.44591 22.6468 2.0304 22.2053 1.60554C21.4173 0.852937 20.4537 0.394924 19.3053 0.229307C18.7489 0.14888 18.6381 0.125063 15.7911 0.120117H11.9145Z" fill="url(#paint0_radial_315_142)"/>
<path d="M11.9145 0.120117C6.94191 0.120117 5.48763 0.125246 5.20494 0.148697C4.18449 0.233521 3.5495 0.394191 2.85772 0.738617C2.32459 1.00335 1.90413 1.31022 1.48917 1.74038C0.733452 2.52487 0.275439 3.48999 0.109638 4.63722C0.0290278 5.19417 0.00557758 5.30775 0.000814245 8.15256C-0.00101781 9.10083 0.000814245 10.3488 0.000814245 12.0228C0.000814245 16.9913 0.0063104 18.4441 0.0301271 18.7262C0.112569 19.7192 0.268294 20.3439 0.598063 21.0273C1.22829 22.3354 2.43195 23.3174 3.84996 23.6838C4.34095 23.8102 4.88323 23.8798 5.57941 23.9128C5.87437 23.9256 8.88077 23.9348 11.889 23.9348C14.8972 23.9348 17.9055 23.9311 18.1931 23.9165C18.9992 23.8785 19.4673 23.8157 19.9848 23.6819C20.6879 23.5016 21.3432 23.17 21.9049 22.7102C22.4666 22.2505 22.9211 21.6736 23.2367 21.02C23.5601 20.3531 23.7241 19.7046 23.7983 18.7634C23.8144 18.5582 23.8212 15.2868 23.8212 12.0197C23.8212 8.75201 23.8138 5.48656 23.7977 5.28137C23.7226 4.32504 23.5586 3.68199 23.2248 3.0023C22.9509 2.44591 22.6468 2.0304 22.2053 1.60554C21.4173 0.852937 20.4537 0.394924 19.3053 0.229307C18.7489 0.14888 18.6381 0.125063 15.7911 0.120117H11.9145Z" fill="url(#paint1_radial_315_142)"/>
<path d="M11.909 3.2346C9.52071 3.2346 9.22099 3.24505 8.28298 3.28773C7.3468 3.3306 6.70778 3.47882 6.14864 3.69628C5.57026 3.92089 5.07964 4.22135 4.59085 4.71032C4.10169 5.19911 3.80123 5.68973 3.57589 6.26793C3.35787 6.82726 3.20948 7.46646 3.16734 8.40227C3.12557 9.34028 3.11458 9.64019 3.11458 12.0284C3.11458 14.4167 3.1252 14.7155 3.16771 15.6535C3.21076 16.5897 3.35897 17.2287 3.57625 17.7879C3.80105 18.3662 4.1015 18.8569 4.59048 19.3457C5.07909 19.8348 5.56971 20.136 6.14772 20.3606C6.70723 20.5781 7.34643 20.7263 8.28243 20.7692C9.22044 20.8119 9.51998 20.8223 11.9081 20.8223C14.2965 20.8223 14.5953 20.8119 15.5333 20.7692C16.4695 20.7263 17.1093 20.5781 17.6688 20.3606C18.247 20.136 18.7369 19.8348 19.2255 19.3457C19.7146 18.8569 20.0151 18.3662 20.2404 17.7881C20.4566 17.2287 20.605 16.5895 20.649 15.6537C20.6911 14.7157 20.7021 14.4167 20.7021 12.0284C20.7021 9.64019 20.6911 9.34046 20.649 8.40245C20.605 7.46628 20.4566 6.82726 20.2404 6.26811C20.0151 5.68973 19.7146 5.19911 19.2255 4.71032C18.7363 4.22116 18.2471 3.92071 17.6682 3.69628C17.1076 3.47882 16.4682 3.3306 15.532 3.28773C14.594 3.24505 14.2954 3.2346 11.9064 3.2346H11.9092H11.909ZM11.1201 4.81933C11.3542 4.81896 11.6155 4.81933 11.909 4.81933C14.2569 4.81933 14.5352 4.82775 15.4624 4.86989C16.3198 4.9091 16.7852 5.05236 17.0951 5.17273C17.5055 5.33212 17.7981 5.52265 18.1057 5.83044C18.4135 6.13822 18.604 6.43135 18.7638 6.84173C18.8841 7.15135 19.0276 7.61669 19.0666 8.47409C19.1088 9.4011 19.1179 9.67958 19.1179 12.0264C19.1179 14.3733 19.1088 14.6518 19.0666 15.5788C19.0274 16.4362 18.8841 16.9015 18.7638 17.2111C18.6044 17.6215 18.4135 17.9137 18.1057 18.2213C17.7979 18.5291 17.5057 18.7197 17.0951 18.879C16.7855 19 16.3198 19.1429 15.4624 19.1821C14.5354 19.2242 14.2569 19.2334 11.909 19.2334C9.56084 19.2334 9.28255 19.2242 8.35553 19.1821C7.49813 19.1425 7.03279 18.9992 6.72262 18.8789C6.31224 18.7195 6.01911 18.5289 5.71133 18.2212C5.40354 17.9134 5.21301 17.621 5.05326 17.2104C4.93289 16.9008 4.78944 16.4354 4.75042 15.578C4.70828 14.651 4.69985 14.3726 4.69985 12.0242C4.69985 9.67591 4.70828 9.39891 4.75042 8.47189C4.78962 7.61449 4.93289 7.14915 5.05326 6.83916C5.21264 6.42878 5.40354 6.13566 5.71133 5.82787C6.01911 5.52009 6.31224 5.32955 6.72262 5.1698C7.0326 5.04888 7.49813 4.90598 8.35553 4.86659C9.16676 4.82995 9.48114 4.81896 11.1201 4.81713V4.81933ZM16.6031 6.27947C16.3943 6.27947 16.1903 6.34137 16.0167 6.45734C15.8432 6.57331 15.7079 6.73814 15.6281 6.93099C15.5482 7.12383 15.5274 7.33603 15.5681 7.54074C15.6088 7.74545 15.7094 7.93348 15.857 8.08105C16.0046 8.22861 16.1927 8.32909 16.3974 8.36976C16.6021 8.41044 16.8143 8.38949 17.0071 8.30956C17.2 8.22964 17.3647 8.09432 17.4807 7.92074C17.5966 7.74715 17.6584 7.54309 17.6583 7.33437C17.6583 6.75177 17.1857 6.27911 16.6031 6.27911V6.27947ZM11.909 7.51244C9.415 7.51244 7.39297 9.53448 7.39297 12.0284C7.39297 14.5224 9.415 16.5435 11.909 16.5435C14.4029 16.5435 16.4244 14.5224 16.4244 12.0284C16.4244 9.53448 14.4028 7.51244 11.9088 7.51244H11.909ZM11.909 9.09717C13.5278 9.09717 14.8403 10.4095 14.8403 12.0284C14.8403 13.6473 13.5278 14.9597 11.909 14.9597C10.29 14.9597 8.97769 13.6473 8.97769 12.0284C8.97769 10.4095 10.29 9.09717 11.909 9.09717Z" fill="white"/>
<defs>
<radialGradient id="paint0_radial_315_142" cx="0" cy="0" r="1" gradientUnits="userSpaceOnUse" gradientTransform="translate(6.30254 25.7756) rotate(-90) scale(23.6021 21.9579)">
<stop stop-color="#FFDD55"/>
<stop offset="0.1" stop-color="#FFDD55"/>
<stop offset="0.5" stop-color="#FF543E"/>
<stop offset="1" stop-color="#C837AB"/>
</radialGradient>
<radialGradient id="paint1_radial_315_142" cx="0" cy="0" r="1" gradientUnits="userSpaceOnUse" gradientTransform="translate(-3.99013 1.83565) rotate(78.6776) scale(10.5503 43.4999)">
<stop stop-color="#3771C8"/>
<stop offset="0.13" stop-color="#3771C8"/>
<stop offset="1" stop-color="#6600FF" stop-opacity="0"/>
</radialGradient>
</defs>
</svg>
