<svg width="24" height="24" viewBox="0 0 24 24" fill="none" xmlns="http://www.w3.org/2000/svg">
<path d="M20.4339 20.4343H16.8805V14.8696C16.8805 13.5426 16.8568 11.8344 15.0323 11.8344C13.1816 11.8344 12.8985 13.2802 12.8985 14.773V20.434H9.34506V8.99061H12.7563V10.5545H12.8041C13.4987 9.36682 14.7949 8.65492 16.1698 8.70596C19.7713 8.70596 20.4354 11.0749 20.4354 14.1567L20.4339 20.4343ZM5.33565 7.42635H5.33529C4.20408 7.42635 3.27319 6.49551 3.27319 5.36425C3.27319 4.23304 4.20408 3.3022 5.33529 3.3022C6.46637 3.3022 7.39716 4.23281 7.39734 5.36389V5.36425C7.39734 6.49538 6.46673 7.42617 5.33565 7.42635ZM7.11233 20.4343H3.55526V8.99061H7.11233V20.4343ZM22.2054 0.00233391H1.76966C0.810294 -0.00848873 0.0117283 0.771557 0 1.73092V22.2514C0.0113208 23.2112 0.809842 23.9921 1.76966 23.9818H22.2054C23.1672 23.9939 23.9688 23.2131 23.9821 22.2514V1.72943C23.9684 0.76816 23.1667 -0.0117944 22.2054 0.000884852" fill="#0A66C2"/>
</svg>
