<svg width="24" height="24" viewBox="0 0 24 24" fill="none" xmlns="http://www.w3.org/2000/svg">
<path d="M7.54752 21.7045C16.6042 21.7045 21.5578 14.2012 21.5578 7.69429C21.5578 7.48117 21.5578 7.26901 21.5434 7.05781C22.507 6.36077 23.3389 5.4977 24 4.50901C23.1013 4.90722 22.148 5.16837 21.1718 5.28373C22.1998 4.66836 22.9691 3.70048 23.3366 2.56021C22.3701 3.13377 21.3126 3.53799 20.2099 3.75541C18.6835 2.13244 16.2583 1.73519 14.2939 2.78649C12.3297 3.83769 11.3148 6.07602 11.8186 8.24629C9.86088 8.14815 7.94572 7.63941 6.19741 6.7531C4.4491 5.86679 2.90672 4.62272 1.6704 3.10165C0.363456 5.35151 1.03104 8.22988 3.19488 9.67477C2.41127 9.65155 1.64475 9.44016 0.96 9.05845V9.12085C0.960672 11.4648 2.61293 13.4836 4.9104 13.9477C4.18547 14.1454 3.42488 14.1743 2.68704 14.0322C3.33216 16.038 5.18074 17.4122 7.28736 17.4517C5.54375 18.8221 3.38982 19.566 1.17216 19.5637C0.780387 19.563 0.388996 19.5393 0 19.4927C2.25181 20.9378 4.87192 21.7043 7.54752 21.7007" fill="#1DA1F2"/>
</svg>
