<svg width="24" height="24" viewBox="0 0 24 24" fill="none" xmlns="http://www.w3.org/2000/svg">
<path d="M17.3462 16.2493V14.6339C17.3527 14.3698 17.262 14.1126 17.0912 13.911C16.9205 13.7095 16.6816 13.5777 16.42 13.5408C15.903 13.4726 15.3955 13.3462 14.9069 13.1639C14.7142 13.0915 14.5047 13.0758 14.3034 13.1187C14.102 13.1617 13.9172 13.2614 13.7708 13.4062L13.0869 14.0901C11.7389 13.3235 10.6227 12.2073 9.85616 10.8593L10.54 10.1754C10.6848 10.029 10.7845 9.8442 10.8275 9.64283C10.8704 9.44147 10.8548 9.23201 10.7823 9.03928C10.6 8.55075 10.4736 8.04316 10.4054 7.52621C10.3688 7.26745 10.2394 7.03081 10.0413 6.86042C9.84312 6.69002 9.58979 6.59748 9.32847 6.60005H7.71308C7.56357 6.60019 7.41573 6.63146 7.27897 6.69187C7.14221 6.75228 7.01952 6.8405 6.91873 6.95093C6.81793 7.06135 6.74123 7.19155 6.69351 7.33323C6.64578 7.47492 6.62809 7.625 6.64154 7.7739C6.81829 9.43828 7.38461 11.0376 8.29462 12.4424C9.12134 13.7434 10.2244 14.8464 11.5254 15.6731C12.9238 16.58 14.5154 17.1462 16.1723 17.3262C16.3217 17.3397 16.4722 17.3219 16.6143 17.2738C16.7563 17.2258 16.8868 17.1486 16.9973 17.0472C17.1078 16.9458 17.1959 16.8225 17.256 16.6851C17.3161 16.5477 17.3468 16.3992 17.3462 16.2493Z" fill="#383641"/>
<path fill-rule="evenodd" clip-rule="evenodd" d="M12.1 1C6.08011 1 1.20001 5.8801 1.20001 11.9C1.20001 14.2979 1.97536 16.5169 3.28831 18.3171L1.47435 23.0334L6.34656 21.1594C8.01685 22.1993 9.98953 22.8 12.1 22.8C18.1199 22.8 23 17.9199 23 11.9C23 5.8801 18.1199 1 12.1 1ZM3.20001 11.9C3.20001 6.98467 7.18468 3 12.1 3C17.0153 3 21 6.98467 21 11.9C21 16.8153 17.0153 20.8 12.1 20.8C10.217 20.8 8.47331 20.2163 7.03617 19.2201L6.60132 18.9186L4.95645 19.5513L5.56487 17.9694L5.19833 17.5198C3.94864 15.9871 3.20001 14.0323 3.20001 11.9Z" fill="#383641"/>
</svg>
