<svg width="24" height="24" viewBox="0 0 24 24" fill="none" xmlns="http://www.w3.org/2000/svg">
<path d="M23.4985 6.24051C23.2225 5.20114 22.4093 4.38269 21.3765 4.10505C19.505 3.6001 12 3.6001 12 3.6001C12 3.6001 4.49496 3.6001 2.62336 4.10492C1.59068 4.38282 0.777273 5.20128 0.501409 6.24051C0 8.12423 0 12.0546 0 12.0546C0 12.0546 0 15.9849 0.501409 17.8689C0.777409 18.9081 1.59068 19.7266 2.62323 20.0045C4.49509 20.5092 12 20.5092 12 20.5092C12 20.5092 19.505 20.5092 21.3764 20.0046C22.4093 19.7266 23.2225 18.9083 23.4985 17.8689C24 15.9849 24 12.0546 24 12.0546C24 12.0546 24 8.12423 23.4985 6.24051Z" fill="#FF0000"/>
<path d="M9.54549 15.6231L15.8182 12.0545L9.54549 8.48584V15.6231Z" fill="white"/>
</svg>
