<svg width="36" height="30" viewBox="0 0 36 30" fill="none" xmlns="http://www.w3.org/2000/svg">
<circle cx="26" cy="13" r="10" fill="#D4EDDA"/>
<path d="M10.8707 4.17163C8.55681 4.58482 8.01172 5.20143 7.65018 7.8522C7.62237 8.04926 7.37207 8.04926 7.34982 7.8522C6.98828 5.20779 6.44875 4.58482 4.12932 4.17163C3.95689 4.13985 3.95689 3.85379 4.12932 3.82837C6.44875 3.41518 6.98828 2.79857 7.34982 0.147795C7.37763 -0.049265 7.62793 -0.049265 7.65018 0.147795C8.01172 2.79221 8.55125 3.41518 10.8707 3.82837C11.0431 3.86015 11.0431 4.13985 10.8707 4.17163Z" fill="#FFC470"/>
<path d="M3.9261 11.6073C2.60389 11.8655 2.29241 12.2509 2.08582 13.9076C2.06992 14.0308 1.9269 14.0308 1.91418 13.9076C1.70759 12.2549 1.39928 11.8655 0.0738975 11.6073C-0.0246325 11.5874 -0.0246325 11.4086 0.0738975 11.3927C1.39928 11.1345 1.70759 10.7491 1.91418 9.09237C1.93008 8.96921 2.0731 8.96921 2.08582 9.09237C2.29241 10.7451 2.60072 11.1345 3.9261 11.3927C4.02463 11.4126 4.02463 11.5874 3.9261 11.6073Z" fill="#FFC470"/>
<path d="M28.4983 15.3212L26.7578 17.0487C26.9628 17.7648 27.0743 18.5041 27.0896 19.2485C27.1753 21.4408 26.3173 23.5655 24.7306 25.0904C24.6293 25.191 24.5253 25.2777 24.4213 25.3699L21.4267 22.393C20.9318 22.8878 20.4342 23.3797 19.9365 23.8745L22.692 26.6138C21.5052 27.248 20.1816 27.5875 18.8343 27.6032C16.6318 27.694 14.4954 26.8447 12.9633 25.2693C11.3534 23.7327 10.4315 21.6179 10.4045 19.3994C10.3209 17.2138 11.1779 15.0962 12.7608 13.577C14.3102 11.9829 16.4359 11.0702 18.6655 11.0418C20.8677 10.9525 23.0036 11.8016 24.5365 13.3758C24.5872 13.4261 24.6293 13.4764 24.6771 13.5239L18.584 19.5811L14.5125 15.5337L13.0195 17.0151L18.8708 22.8319L33 8.74699L31.2398 7L26.2067 12.0034C26.1589 11.9531 26.1168 11.9055 26.0662 11.8552C24.0882 9.82485 21.3538 8.69788 18.5109 8.74139C15.6658 8.70237 12.9309 9.83318 10.9528 11.8664C8.93248 13.8172 7.86085 16.5422 8.01452 19.3379C8.08035 22.1903 9.27449 24.9019 11.338 26.8849C13.3152 28.9164 16.0502 30.0436 18.8933 29.9987C21.7349 30.0401 24.4677 28.9134 26.4457 26.8849C28.4709 24.934 29.5475 22.2072 29.3981 19.4078C29.3621 18.0011 29.0568 16.6142 28.4983 15.3212Z" fill="#05944F"/>
</svg>
