<svg width="26" height="23" viewBox="0 0 26 23" fill="none" xmlns="http://www.w3.org/2000/svg">
<g clip-path="url(#clip0_5311_2082)">
<path opacity="0.9" d="M11.799 21.0004C17.3587 21.0004 21.8656 16.4934 21.8656 10.9338C21.8656 5.37416 17.3587 0.867188 11.799 0.867188C6.23939 0.867188 1.73242 5.37416 1.73242 10.9338C1.73242 16.4934 6.23939 21.0004 11.799 21.0004Z" fill="#FFD7D2"/>
<path d="M2.59256 10.056L5.69548 13.0899L0 18.6786L1.89849 20.5127L7.59397 14.9439L13.7181 20.9341L15.3948 19.1139L9.27758 13.0899L15.6032 7.08585L13.7181 5.26562L7.59397 11.2558L1.89849 5.687L0 7.52109L1.89849 9.39732" fill="#E11900"/>
<path opacity="0.6" d="M25.1383 14.7337C25.6171 14.7337 26.0052 14.3456 26.0052 13.8668C26.0052 13.3881 25.6171 13 25.1383 13C24.6596 13 24.2715 13.3881 24.2715 13.8668C24.2715 14.3456 24.6596 14.7337 25.1383 14.7337Z" fill="#E11900"/>
<path d="M18.207 2.90625H19.8504" stroke="#383641"/>
<path d="M21.1143 5.81257V4.16919" stroke="#383641"/>
<path d="M24.0205 2.90625H22.3771" stroke="#383641"/>
<path d="M21.1143 0V1.64338" stroke="#383641"/>
</g>
<defs>
<clipPath id="clip0_5311_2082">
<rect width="26" height="23" fill="white"/>
</clipPath>
</defs>
</svg>
