<svg width="29" height="27" viewBox="0 0 29 27" fill="none" xmlns="http://www.w3.org/2000/svg">
<path d="M16.6129 26.2258C23.0265 26.2258 28.2258 21.0265 28.2258 14.6129C28.2258 8.19927 23.0265 3 16.6129 3C10.1993 3 5 8.19927 5 14.6129C5 21.0265 10.1993 26.2258 16.6129 26.2258Z" fill="#F5F5F5"/>
<path fill-rule="evenodd" clip-rule="evenodd" d="M14.4245 7.5026V21.6693H26.3033V9.72438L23.4661 7.5026H14.4245ZM13.576 5.83594C13.1074 5.83594 12.7275 6.20903 12.7275 6.66927V22.5026C12.7275 22.9628 13.1074 23.3359 13.576 23.3359H27.1518C27.6204 23.3359 28.0003 22.9628 28.0003 22.5026V9.52777C28.0003 9.27878 27.8869 9.04285 27.6912 8.88455L24.1578 6.02605C24.0059 5.90314 23.8152 5.83594 23.6184 5.83594H13.576Z" fill="#AFAFB3"/>
<path d="M10.8707 6.17163C8.55681 6.58482 8.01172 7.20143 7.65018 9.8522C7.62237 10.0493 7.37207 10.0493 7.34982 9.8522C6.98828 7.20779 6.44875 6.58482 4.12932 6.17163C3.95689 6.13985 3.95689 5.85379 4.12932 5.82837C6.44875 5.41518 6.98828 4.79857 7.34982 2.14779C7.37763 1.95074 7.62793 1.95074 7.65018 2.14779C8.01172 4.79221 8.55125 5.41518 10.8707 5.82837C11.0431 5.86015 11.0431 6.13985 10.8707 6.17163Z" fill="#D7D7D9"/>
<path d="M3.9261 13.6073C2.60389 13.8655 2.29241 14.2509 2.08582 15.9076C2.06992 16.0308 1.9269 16.0308 1.91418 15.9076C1.70759 14.2549 1.39928 13.8655 0.0738975 13.6073C-0.0246325 13.5874 -0.0246325 13.4086 0.0738975 13.3927C1.39928 13.1345 1.70759 12.7491 1.91418 11.0924C1.93008 10.9692 2.0731 10.9692 2.08582 11.0924C2.29241 12.7451 2.60072 13.1345 3.9261 13.3927C4.02463 13.4126 4.02463 13.5874 3.9261 13.6073Z" fill="#D7D7D9"/>
</svg>
