<svg width="36" height="30" viewBox="0 0 36 30" fill="none" xmlns="http://www.w3.org/2000/svg">
<path opacity="0.5" d="M21.9687 29.9998C29.6157 29.9998 35.8148 23.8007 35.8148 16.1537C35.8148 8.50673 29.6157 2.30762 21.9687 2.30762C14.3217 2.30762 8.12256 8.50673 8.12256 16.1537C8.12256 23.8007 14.3217 29.9998 21.9687 29.9998Z" fill="white"/>
<path d="M22.8006 13.2002H6.00058C4.6751 13.2002 3.60059 14.2747 3.60059 15.6002V24.0002C3.60059 25.3257 4.6751 26.4002 6.00058 26.4002H22.8006C24.126 26.4002 25.2006 25.3257 25.2006 24.0002V15.6002C25.2006 14.2747 24.126 13.2002 22.8006 13.2002Z" stroke="black" stroke-linecap="round" stroke-linejoin="round"/>
<path d="M22.8006 13.2002H6.00058C4.6751 13.2002 3.60059 14.2747 3.60059 15.6002V24.0002C3.60059 25.3257 4.6751 26.4002 6.00058 26.4002H22.8006C24.126 26.4002 25.2006 25.3257 25.2006 24.0002V15.6002C25.2006 14.2747 24.126 13.2002 22.8006 13.2002Z" fill="#AFAFB3" stroke="black" stroke-linecap="round" stroke-linejoin="round"/>
<path d="M8.40112 13.1999V8.39989C8.40112 6.8086 9.03326 5.28248 10.1585 4.15726C11.2837 3.03204 12.8098 2.3999 14.4011 2.3999C15.9924 2.3999 17.5185 3.03204 18.6438 4.15726C19.769 5.28248 20.4011 6.8086 20.4011 8.39989V13.1999" stroke="black" stroke-linecap="round" stroke-linejoin="round"/>
</svg>
