<svg width="36" height="30" viewBox="0 0 36 30" fill="none" xmlns="http://www.w3.org/2000/svg">
<path opacity="0.5" d="M21.9687 29.9998C29.6157 29.9998 35.8148 23.8007 35.8148 16.1537C35.8148 8.50673 29.6157 2.30762 21.9687 2.30762C14.3217 2.30762 8.12256 8.50673 8.12256 16.1537C8.12256 23.8007 14.3217 29.9998 21.9687 29.9998Z" fill="#EBEAEC"/>
<path d="M22.8006 13.2002H6.00058C4.6751 13.2002 3.60059 14.2747 3.60059 15.6002V24.0002C3.60059 25.3257 4.6751 26.4002 6.00058 26.4002H22.8006C24.126 26.4002 25.2006 25.3257 25.2006 24.0002V15.6002C25.2006 14.2747 24.126 13.2002 22.8006 13.2002Z" stroke="black" stroke-linecap="round" stroke-linejoin="round"/>
<path d="M22.8006 13.2002H6.00058C4.6751 13.2002 3.60059 14.2747 3.60059 15.6002V24.0002C3.60059 25.3257 4.6751 26.4002 6.00058 26.4002H22.8006C24.126 26.4002 25.2006 25.3257 25.2006 24.0002V15.6002C25.2006 14.2747 24.126 13.2002 22.8006 13.2002Z" fill="#FFB142" stroke="black" stroke-linecap="round" stroke-linejoin="round"/>
<path d="M18.7108 6.09786C18.765 6.36864 19.0284 6.54425 19.2992 6.49009C19.5699 6.43593 19.7456 6.17252 19.6914 5.90174L18.7108 6.09786ZM8.90112 13.1998V7.1998H7.90112V13.1998H8.90112ZM8.90112 7.1998C8.90112 4.47594 11.0773 2.2998 13.8011 2.2998V1.2998C10.525 1.2998 7.90112 3.92365 7.90112 7.1998H8.90112ZM13.8011 2.2998C15.5791 2.2998 16.7495 3.02785 17.5074 3.86122C18.2801 4.71076 18.6262 5.67494 18.7108 6.09786L19.6914 5.90174C19.576 5.32465 19.1571 4.18884 18.2472 3.18839C17.3226 2.17175 15.893 1.2998 13.8011 1.2998V2.2998Z" fill="black"/>
</svg>
