<svg width="36" height="30" viewBox="0 0 36 30" fill="none" xmlns="http://www.w3.org/2000/svg">
<g clip-path="url(#clip0_5311_2104)">
<path opacity="0.5" d="M21.9687 29.9998C29.6157 29.9998 35.8148 23.8007 35.8148 16.1537C35.8148 8.50673 29.6157 2.30762 21.9687 2.30762C14.3217 2.30762 8.12256 8.50673 8.12256 16.1537C8.12256 23.8007 14.3217 29.9998 21.9687 29.9998Z" fill="#EBEAEC"/>
<mask id="mask0_5311_2104" style="mask-type:luminance" maskUnits="userSpaceOnUse" x="0" y="0" width="29" height="29">
<path d="M28.8 0H0V28.8H28.8V0Z" fill="white"/>
</mask>
<g mask="url(#mask0_5311_2104)">
<path d="M19.697 13.2002H2.89707C1.57159 13.2002 0.49707 14.2747 0.49707 15.6002V24.0002C0.49707 25.3257 1.57159 26.4002 2.89707 26.4002H19.697C21.0225 26.4002 22.097 25.3257 22.097 24.0002V15.6002C22.097 14.2747 21.0225 13.2002 19.697 13.2002Z" stroke="black" stroke-linecap="round" stroke-linejoin="round"/>
<path d="M19.697 13.2002H2.89707C1.57159 13.2002 0.49707 14.2747 0.49707 15.6002V24.0002C0.49707 25.3257 1.57159 26.4002 2.89707 26.4002H19.697C21.0225 26.4002 22.097 25.3257 22.097 24.0002V15.6002C22.097 14.2747 21.0225 13.2002 19.697 13.2002Z" fill="#FFB142" stroke="black" stroke-linecap="round" stroke-linejoin="round"/>
<path d="M5.29761 13.1999V8.39989C5.29761 6.8086 5.92975 5.28248 7.05496 4.15726C8.18018 3.03204 9.7063 2.3999 11.2976 2.3999C12.8889 2.3999 14.415 3.03204 15.5402 4.15726C16.6655 5.28248 17.2976 6.8086 17.2976 8.39989V13.1999" stroke="black" stroke-linecap="round" stroke-linejoin="round"/>
</g>
</g>
<defs>
<clipPath id="clip0_5311_2104">
<rect width="36" height="30" fill="white"/>
</clipPath>
</defs>
</svg>
