<svg width="31" height="31" viewBox="0 0 31 31" fill="none" xmlns="http://www.w3.org/2000/svg">
<g clip-path="url(#clip0_5311_2073)">
<path opacity="0.5" d="M18.308 31.0011C24.6809 31.0011 29.847 25.8349 29.847 19.4621C29.847 13.0893 24.6809 7.9231 18.308 7.9231C11.9352 7.9231 6.76904 13.0893 6.76904 19.4621C6.76904 25.8349 11.9352 31.0011 18.308 31.0011Z" fill="#FFD599"/>
<path d="M9.29005 7.55811L23.2271 21.3481L1.18005 29.7801L9.29005 7.55811Z" fill="white" stroke="#383641" stroke-miterlimit="10"/>
<path d="M16.6021 1C16.6021 1 21.6851 6.014 16.6021 11.997" stroke="#FF793F" stroke-miterlimit="10"/>
<path d="M13.06 4.58991C13.06 4.58991 14.374 6.69791 13.004 8.34991M29.34 1.28491C29.34 1.28491 28.758 4.24791 25.537 4.77191C24.84 4.88591 24.177 5.13691 23.629 5.56991C22.978 6.07091 22.315 6.90291 22.029 8.23591" stroke="#FFB142" stroke-miterlimit="10"/>
<path d="M11.6331 1.05699L12.8671 2.27699M21.3421 1.01099L22.5761 2.24199" stroke="#383641" stroke-miterlimit="10"/>
<path d="M29.9 14.22C29.9 14.22 24.85 9.17098 18.876 14.265" stroke="#FF793F" stroke-miterlimit="10"/>
<path d="M26.268 17.6839C26.268 17.6839 24.634 16.1799 22.498 17.7519" stroke="#FFB142" stroke-miterlimit="10"/>
<path d="M29.864 19.177L28.63 17.957M29.864 9.49002L28.63 8.27002" stroke="#383641" stroke-miterlimit="10"/>
<path d="M18.231 16.74L7.08196 14.115L5.11496 19.361L18.231 22.641L22.821 21.329L18.231 16.74ZM11.673 25.265L3.61796 23.452L1.38196 29.512L11.673 25.265Z" fill="#FFB142" stroke="#383641"/>
</g>
<defs>
<clipPath id="clip0_5311_2073">
<rect width="31" height="31" fill="white"/>
</clipPath>
</defs>
</svg>
