<svg width="24" height="24" viewBox="0 0 24 24" fill="none" xmlns="http://www.w3.org/2000/svg">
<path fill-rule="evenodd" clip-rule="evenodd" d="M6.57828 5.42822H2.3C1.7201 5.42822 1.25 5.89832 1.25 6.47822V20.9C1.25 21.4799 1.7201 21.95 2.3 21.95H21.7066C22.2865 21.95 22.7566 21.4799 22.7566 20.9V6.47822C22.7566 5.89832 22.2865 5.42822 21.7066 5.42822H17.5429C17.4831 4.29359 17.0534 3.30397 16.462 2.57662C15.8428 1.81503 14.9636 1.25 14.057 1.25H10.1099C8.76683 1.25 7.89466 2.12608 7.383 3.01259C6.91735 3.81939 6.67425 4.74875 6.57828 5.42822ZM8.09752 5.42822H16.0399C15.9824 4.65897 15.6856 3.99935 15.2982 3.52291C14.847 2.96799 14.3548 2.75 14.057 2.75H10.1099C9.52613 2.75 9.06027 3.10725 8.68214 3.76241C8.37838 4.28871 8.19052 4.91838 8.09752 5.42822ZM2.75 6.92822V12.2992H9.33347V11.463C9.33347 10.8831 9.80357 10.413 10.3835 10.413H13.5558C14.1357 10.413 14.6058 10.8831 14.6058 11.463V12.2992H21.2566V6.92822H2.75ZM21.2566 13.7992H14.6058V14.6353C14.6058 15.2152 14.1356 15.6853 13.5558 15.6853H10.3835C9.80357 15.6853 9.33347 15.2152 9.33347 14.6353V13.7992H2.75V20.45H21.2566V13.7992ZM10.8335 11.913V14.1853H13.1058V11.913H10.8335Z" fill="#383641"/>
</svg>
