<svg width="24" height="24" viewBox="0 0 24 24" fill="none" xmlns="http://www.w3.org/2000/svg">
<path fill-rule="evenodd" clip-rule="evenodd" d="M1 18.9V4.6C1 3.71635 1.71634 3 2.6 3H9.19458C9.74624 3 10.259 3.28419 10.5514 3.752L11.6885 5.57143H20.4C21.2837 5.57143 22 6.28779 22 7.17143V18.9C22 19.7836 21.2837 20.5 20.4 20.5H2.6C1.71633 20.5 1 19.7836 1 18.9ZM2.5 4.6V18.9C2.5 18.9552 2.54477 19 2.6 19H20.4C20.4552 19 20.5 18.9552 20.5 18.9V7.17143C20.5 7.1162 20.4552 7.07143 20.4 7.07143H10.9126C10.8781 7.07143 10.846 7.05367 10.8278 7.02443L9.27938 4.547C9.2611 4.51776 9.22905 4.5 9.19458 4.5H2.6C2.54477 4.5 2.5 4.54477 2.5 4.6Z" fill="#383641"/>
</svg>
