<svg width="24" height="24" viewBox="0 0 24 24" fill="none" xmlns="http://www.w3.org/2000/svg">
<mask id="mask0_39_21" style="mask-type:alpha" maskUnits="userSpaceOnUse" x="1" y="2" width="22" height="21">
<path fill-rule="evenodd" clip-rule="evenodd" d="M10.85 18.325C10.85 17.897 11.197 17.55 11.625 17.55C12.053 17.55 12.4 17.897 12.4 18.325V21.25H10.85V18.325Z" fill="#383641"/>
<path fill-rule="evenodd" clip-rule="evenodd" d="M4.12782 12.8967C4.48489 12.5873 5.01511 12.5873 5.37218 12.8967L8.17218 15.3234C8.38039 15.5038 8.5 15.7658 8.5 16.0413V21.35C8.5 21.8746 8.07467 22.3 7.55 22.3H1.95C1.42533 22.3 1 21.8746 1 21.35V16.0413C1 15.7658 1.11961 15.5038 1.32782 15.3234L4.12782 12.8967ZM4.75 14.3424L2.5 16.2924V20.8H7V16.2924L4.75 14.3424Z" fill="#383641"/>
<path fill-rule="evenodd" clip-rule="evenodd" d="M18.1278 12.8967C18.4849 12.5873 19.0151 12.5873 19.3722 12.8967L22.1722 15.3234C22.3804 15.5038 22.5 15.7658 22.5 16.0413V21.35C22.5 21.8746 22.0747 22.3 21.55 22.3H15.95C15.4253 22.3 15 21.8746 15 21.35V16.0413C15 15.7658 15.1196 15.5038 15.3278 15.3234L18.1278 12.8967ZM18.75 14.3424L16.5 16.2924V20.8H21V16.2924L18.75 14.3424Z" fill="#383641"/>
<path fill-rule="evenodd" clip-rule="evenodd" d="M6.6 2.95C6.6 2.42533 7.02533 2 7.55 2H11.7C12.2247 2 12.65 2.42533 12.65 2.95V8.75H11.15V6.7H7.55C7.02533 6.7 6.6 6.27467 6.6 5.75V2.95ZM11.15 5.2V3.5H8.1V5.2H11.15Z" fill="#383641"/>
<path fill-rule="evenodd" clip-rule="evenodd" d="M11.2323 8.39203C11.5471 8.18739 11.9529 8.18739 12.2677 8.39203L16.0677 10.862C16.3373 11.0373 16.5 11.337 16.5 11.6586V21.35C16.5 21.8747 16.0747 22.3 15.55 22.3H7.95C7.42533 22.3 7 21.8747 7 21.35V11.6585C7 11.337 7.16266 11.0373 7.43226 10.862L11.2323 8.39203ZM11.75 9.84453L8.5 11.957V20.8H15V11.957L11.75 9.84453Z" fill="#383641"/>
<path d="M12.95 13.35C12.95 14.0128 12.4127 14.55 11.75 14.55C11.0873 14.55 10.55 14.0128 10.55 13.35C10.55 12.6873 11.0873 12.15 11.75 12.15C12.4127 12.15 12.95 12.6873 12.95 13.35Z" fill="#383641"/>
</mask>
<g mask="url(#mask0_39_21)">
<rect width="24" height="24" fill="#383641"/>
</g>
</svg>
