<svg width="24" height="24" viewBox="0 0 24 24" fill="none" xmlns="http://www.w3.org/2000/svg">
<mask id="mask0_1725_508" style="mask-type:alpha" maskUnits="userSpaceOnUse" x="2" y="1" width="20" height="22">
<path fill-rule="evenodd" clip-rule="evenodd" d="M2.25 1.94995C2.25 1.53574 2.58579 1.19995 3 1.19995H21C21.4142 1.19995 21.75 1.53574 21.75 1.94995V21.95C21.75 22.3642 21.4142 22.7 21 22.7C20.5858 22.7 20.25 22.3642 20.25 21.95V20.3499H7.00297C7.00198 20.3499 7.00099 20.3499 7.00001 20.3499C6.99902 20.3499 6.99803 20.3499 6.99705 20.3499H3.75V21.95C3.75 22.3642 3.41421 22.7 3 22.7C2.58579 22.7 2.25 22.3642 2.25 21.95V1.94995ZM3.75 18.8499H6.25001V14.9999C6.25001 14.5857 6.58579 14.2499 7.00001 14.2499C7.41422 14.2499 7.75001 14.5857 7.75001 14.9999V18.8499H10.25V13.95C10.25 13.5357 10.5858 13.2 11 13.2C11.4142 13.2 11.75 13.5357 11.75 13.95V18.8499H20.25V11.5H3.75V18.8499ZM3.75 9.99995H12.25V4.99995C12.25 4.58573 12.5858 4.24995 13 4.24995C13.4142 4.24995 13.75 4.58573 13.75 4.99995V9.99995H16.25V6.69994C16.25 6.28572 16.5858 5.94994 17 5.94994C17.4142 5.94994 17.75 6.28572 17.75 6.69994V9.99995H20.25V2.69995H3.75V9.99995Z" fill="#383641"/>
</mask>
<g mask="url(#mask0_1725_508)">
<rect width="24" height="24" fill="#383641"/>
</g>
</svg>
