<svg width="24" height="24" viewBox="0 0 24 24" fill="none" xmlns="http://www.w3.org/2000/svg">
<path fill-rule="evenodd" clip-rule="evenodd" d="M11.6903 2.12186C11.935 1.9622 12.2502 1.95921 12.4979 2.11418L22.2479 8.21418C22.599 8.43388 22.7056 8.89664 22.4859 9.24779C22.2662 9.59894 21.8034 9.70551 21.4523 9.48582L20.9 9.1403V21.1H21.7001C22.1143 21.1 22.4501 21.4358 22.4501 21.85C22.4501 22.2642 22.1143 22.6 21.7001 22.6H4.66987C4.58614 22.6323 4.49516 22.65 4.40004 22.65C4.30492 22.65 4.21394 22.6323 4.13021 22.6H2.85008C2.43587 22.6 2.10008 22.2642 2.10008 21.85C2.10008 21.4358 2.43587 21.1 2.85008 21.1H3.65004V9.15836L3.15989 9.47814C2.81298 9.70447 2.34827 9.60672 2.12195 9.2598C1.89562 8.91289 1.99337 8.44819 2.34028 8.22186L11.6903 2.12186ZM5.15004 9.4V21.1H9.05009V9.4H5.15004ZM10.5501 9.4V21.1H14.2001V9.4H10.5501ZM15.7001 9.4V21.1H19.4V9.4H15.7001ZM18.9176 7.9H5.57884L12.1085 3.63998L18.9176 7.9Z" fill="#383641"/>
</svg>
