<svg width="24" height="24" viewBox="0 0 24 24" fill="none" xmlns="http://www.w3.org/2000/svg">
<mask id="mask0_39_20" style="mask-type:alpha" maskUnits="userSpaceOnUse" x="2" y="2" width="21" height="21">
<path fill-rule="evenodd" clip-rule="evenodd" d="M13.3999 4.29999C12.7096 4.29999 12.1499 4.85963 12.1499 5.54999C12.1499 6.24034 12.7096 6.79999 13.3999 6.79999C14.0903 6.79999 14.6499 6.24034 14.6499 5.54999C14.6499 4.85963 14.0903 4.29999 13.3999 4.29999Z" fill="#383641"/>
<path fill-rule="evenodd" clip-rule="evenodd" d="M13.4641 11.9064C13.4649 11.9055 13.4658 11.9047 13.4666 11.9038C13.4673 11.9032 13.4679 11.9025 13.4686 11.9019C13.4691 11.9014 13.4696 11.9009 13.47 11.9004C13.5755 11.7944 13.6884 11.678 13.8066 11.5526C13.8349 11.5226 13.8634 11.4924 13.8922 11.4619C14.0558 11.2885 14.2285 11.1055 14.4058 10.9137C14.4073 10.9121 14.4088 10.9104 14.4103 10.9088C15.6899 9.52403 17.2029 7.68662 17.2029 5.77778C17.2029 3.25 15.2864 2 13.37 2C11.4535 2 9.75002 3.40625 9.75002 5.77778C9.75002 7.68555 11.1824 9.44738 12.3919 10.8573C12.3926 10.8582 12.3934 10.859 12.3941 10.8599C12.4589 10.9354 12.523 11.0099 12.5862 11.0833C12.7168 11.235 12.8436 11.3823 12.9644 11.5248M13.4281 9.7606C12.9685 9.22266 12.5199 8.67926 12.1304 8.09242C11.553 7.22247 11.25 6.45836 11.25 5.77778C11.25 4.27196 12.2442 3.5 13.37 3.5C14.0171 3.5 14.6092 3.71292 15.0176 4.07012C15.3963 4.40128 15.7029 4.92726 15.7029 5.77778C15.7029 6.44183 15.3871 7.22328 14.7745 8.1119C14.3737 8.6932 13.9021 9.24255 13.4281 9.7606ZM13.3703 11.9867L13.2808 11.896C13.2808 11.896 13.2808 11.896 13.2808 11.896M13.3637 11.9927C13.3671 11.9966 13.3731 11.9969 13.3768 11.9933C13.4047 11.9658 13.4331 11.9374 13.4622 11.9083C13.4628 11.9077 13.4634 11.907 13.4641 11.9064" fill="#383641"/>
<path fill-rule="evenodd" clip-rule="evenodd" d="M5.78092 4.77039H6.233C6.677 4.77039 7.0449 4.96005 7.27023 5.28132C7.41378 5.48601 7.47392 5.70711 7.49006 5.89436C7.49111 5.89436 7.49216 5.89435 7.4932 5.89435H8.75003V7.39435H7.50717C7.28398 7.40142 6.95481 7.36148 6.65037 7.18601C6.34336 7.00906 6.08389 6.70104 6.01302 6.27039H5.949C5.94837 6.27378 5.94733 6.27716 5.94665 6.28055C5.90835 6.47208 5.80944 6.7253 5.61726 6.94569C5.40824 7.1854 5.07659 7.39435 4.63221 7.39435H3.97382C4.13912 8.09342 4.22431 8.54634 4.24951 8.71014C4.27443 8.87218 4.24558 9.03791 4.16737 9.18199L3.60459 10.2187C3.90848 10.4282 4.31625 10.6734 4.59243 10.833H6.57358C6.77829 10.833 7.08461 10.8795 7.36689 11.0507C7.68868 11.2458 7.97072 11.607 7.97072 12.128V12.7406C7.97072 12.7717 7.96878 12.8032 7.96492 12.8341C7.9284 13.1263 7.73961 13.5336 7.34058 13.8439C7.16106 13.9836 6.79786 14.2582 6.50615 14.4779V17.8159C6.50615 18.007 6.43324 18.1908 6.3023 18.3299C6.16212 18.4789 5.84648 18.7903 5.49853 19.0549C5.50706 19.0635 5.51542 19.0718 5.52353 19.0796L6.58081 19.8726C6.66516 19.9358 6.73522 20.0162 6.78643 20.1083L7.33751 21.1003L8.32525 20.1125C8.4659 19.9719 8.65667 19.8929 8.85558 19.8929H10.9581C11.4518 19.8817 12.5505 20.0025 13.7697 20.497C13.8093 20.412 13.854 20.3021 13.902 20.1617C14.2398 19.1743 14.9747 18.6171 15.5832 18.3402C15.532 18.2886 15.49 18.2478 15.4563 18.216C15.4066 18.1993 15.3563 18.1774 15.3062 18.1493C15.0723 18.018 14.9349 17.8028 14.8779 17.5847C14.7827 17.2197 14.9022 16.83 15.0478 16.4951C15.3107 15.8906 16.4821 12.8076 17.0433 11.3185C17.1078 11.1474 17.2326 11.0057 17.3942 10.9202L20.8683 9.08094C20.8715 9.07924 20.8747 9.07757 20.8779 9.07593V8.75733L18.0517 8.75674V7.25674H20.9808C21.3871 7.25674 21.775 7.36219 22.0553 7.64002C22.3105 7.89283 22.3984 8.21359 22.3779 8.48691V9.16477C22.3779 9.90734 21.9048 10.312 21.4972 10.4452L18.3467 12.1131C17.7686 13.6444 16.7103 16.4265 16.4314 17.0747C16.5427 17.176 16.6933 17.3254 16.8958 17.5414C17.2059 17.8721 17.3973 18.2938 17.299 18.7502C17.2099 19.1644 16.9201 19.417 16.7016 19.5335C16.6336 19.5698 16.5604 19.5954 16.4846 19.6093C16.2173 19.6586 15.5585 19.9537 15.3213 20.6472C15.1323 21.1997 14.9023 21.6304 14.5867 21.884C14.4151 22.0219 14.1866 22.1312 13.9175 22.1286C13.7221 22.1267 13.5494 22.0658 13.41 21.9736C12.2914 21.4783 11.2888 21.3844 10.9875 21.3926L10.9673 21.3929H9.16624L8.19382 22.3653C8.02076 22.5383 7.80848 22.6682 7.56161 22.7227C7.31581 22.7768 7.08874 22.7445 6.90342 22.6782C6.55936 22.5552 6.32237 22.3056 6.19927 22.1312C6.18376 22.1092 6.16945 22.0865 6.15638 22.0629L5.55286 20.9766L4.5909 20.2551C4.5716 20.2407 4.55301 20.2253 4.5352 20.209C4.37101 20.0591 4.12176 19.7914 3.97126 19.4797C3.89707 19.326 3.80704 19.081 3.83938 18.7957C3.87758 18.4587 4.07294 18.1815 4.36226 18.0162C4.48926 17.9437 4.65575 17.8167 4.82705 17.6672C4.89112 17.6113 4.95167 17.5559 5.00615 17.5045V14.1034C5.00615 13.8673 5.1173 13.6451 5.30615 13.5034C5.58026 13.2978 6.18072 12.8458 6.41966 12.6599C6.44293 12.6418 6.45938 12.6245 6.47072 12.6103V12.333H4.39377C4.26545 12.333 4.13927 12.3001 4.02731 12.2374C3.73974 12.0763 3.03593 11.6649 2.58787 11.3363C2.25302 11.0908 2.01955 10.7497 2.00115 10.3375C1.98727 10.0267 2.10117 9.76958 2.23834 9.59141L2.72323 8.69819C2.67768 8.4656 2.59715 8.08548 2.47264 7.56965C2.34672 7.04796 2.38587 6.43611 2.90209 6.07713C3.25386 5.83252 3.64974 5.84612 3.89896 5.89435H4.47917C4.53478 5.53363 4.71604 5.24294 4.97364 5.04656C5.24665 4.83842 5.55611 4.77216 5.78092 4.77039ZM7.44001 21.2809C7.44 21.2809 7.43958 21.2806 7.43877 21.28L7.44001 21.2809Z" fill="#383641"/>
</mask>
<g mask="url(#mask0_39_20)">
<rect width="24" height="24" fill="#383641"/>
</g>
</svg>
