<svg width="24" height="24" viewBox="0 0 24 24" fill="none" xmlns="http://www.w3.org/2000/svg">
<g clip-path="url(#clip0_39_21)">
<mask id="mask0_39_21" style="mask-type:alpha" maskUnits="userSpaceOnUse" x="0" y="0" width="25" height="25">
<path fill-rule="evenodd" clip-rule="evenodd" d="M3.68247 7.15856C4.18077 7.63306 4.84617 7.89176 5.53412 7.87844V7.90667C6.22563 7.91801 6.8934 7.65461 7.39096 7.17425C7.88852 6.6939 8.17524 6.0358 8.18824 5.34432C8.17524 4.65284 7.88852 3.99475 7.39096 3.51439C6.8934 3.03403 6.22563 2.77063 5.53412 2.78197C4.84194 2.77061 4.17342 3.03379 3.67473 3.51396C3.17605 3.99412 2.88778 4.65221 2.87294 5.34432C2.89327 6.03209 3.18418 6.68406 3.68247 7.15856ZM4.90741 3.84897C5.10673 3.76994 5.31973 3.73117 5.53412 3.73491V3.76315C5.96112 3.75743 6.37318 3.92018 6.68102 4.21614C6.98887 4.5121 7.16772 4.91743 7.17882 5.34432C7.15142 5.76282 6.96585 6.15522 6.65976 6.44193C6.35367 6.72863 5.94998 6.88817 5.53059 6.88817C5.11119 6.88817 4.70751 6.72863 4.40141 6.44193C4.09532 6.15522 3.90975 5.76282 3.88235 5.34432C3.88418 5.12991 3.92847 4.91799 4.01265 4.72078C4.09683 4.52358 4.21925 4.34501 4.37282 4.19537C4.52639 4.04574 4.70808 3.92801 4.90741 3.84897Z" fill="#383641"/>
<path fill-rule="evenodd" clip-rule="evenodd" d="M5.03898 13.3119C5.19551 13.3786 5.36396 13.4129 5.53412 13.4126C5.7031 13.4135 5.87059 13.3809 6.02689 13.3167C6.18319 13.2525 6.32521 13.1579 6.44471 13.0384C7.21412 12.2055 11.0612 7.93491 11.0612 5.3302C11.0333 3.89108 10.4358 2.52175 9.39964 1.52264C8.36347 0.523529 6.9733 -0.0237776 5.53412 0.000792947C4.09186 -0.0237629 2.69884 0.525252 1.66115 1.52721C0.623461 2.52916 0.0259836 3.90209 0 5.34432C0 7.94903 3.84706 12.2196 4.62353 13.0243C4.74111 13.1473 4.88245 13.2452 5.03898 13.3119ZM2.37654 2.20819C3.22339 1.39309 4.3589 0.947049 5.53412 0.967852V0.996087C6.70334 0.977073 7.83286 1.42009 8.67739 2.22893C9.52192 3.03777 10.0133 4.14713 10.0447 5.31609C10.0447 7.18668 7.30588 10.6384 5.68941 12.3749C5.64713 12.4167 5.59006 12.4402 5.53059 12.4402C5.47112 12.4402 5.41405 12.4167 5.37176 12.3749C3.75529 10.6314 1.01647 7.17962 1.01647 5.31609C1.04058 4.14094 1.52968 3.0233 2.37654 2.20819Z" fill="#383641"/>
<path fill-rule="evenodd" clip-rule="evenodd" d="M17.6471 8.62701H10.7012L10.56 8.88818C9.50484 10.6557 8.27262 12.3113 6.88235 13.8294C6.72214 13.994 6.52986 14.1241 6.31739 14.2115C6.10492 14.2989 5.87677 14.3419 5.64706 14.3376C5.41384 14.3429 5.18211 14.2991 4.96688 14.2091C4.75165 14.1191 4.55772 13.9849 4.39765 13.8152C4.36638 13.7809 4.32963 13.7412 4.28813 13.6963C4.03918 13.4268 3.61909 12.9721 3.18353 12.4035L2.47765 11.5847L0.494117 20.4717C0.442159 20.7125 0.464242 20.9634 0.557466 21.1914C0.650689 21.4194 0.810695 21.6139 1.01647 21.7494C1.22628 21.886 1.47197 21.9573 1.72235 21.9541C1.97488 21.9577 2.22204 21.8811 2.42823 21.7352L18.3882 10.8576C18.6068 10.713 18.772 10.5009 18.8587 10.2537C18.9453 10.0064 18.9487 9.73754 18.8682 9.48818C18.7862 9.23877 18.6272 9.02176 18.4142 8.86831C18.2011 8.71486 17.9449 8.63285 17.6824 8.63406L17.6471 8.62701ZM17.6824 9.68583C17.7198 9.6844 17.7567 9.69446 17.7883 9.71464C17.8198 9.73483 17.8444 9.76419 17.8588 9.79877C17.8696 9.8318 17.8684 9.86756 17.8555 9.89981C17.8426 9.93206 17.8188 9.95876 17.7882 9.97524L1.82118 20.8317C1.78679 20.843 1.74968 20.843 1.71529 20.8317C1.67851 20.8431 1.63913 20.8431 1.60235 20.8317C1.57469 20.8158 1.55288 20.7915 1.54016 20.7622C1.52744 20.733 1.5245 20.7004 1.53176 20.6694L3.05647 13.9211C3.13833 14.0126 3.21362 14.0975 3.28234 14.175C3.41509 14.3248 3.52334 14.4469 3.60706 14.5352C3.86814 14.8132 4.18454 15.0335 4.53589 15.1818C4.88724 15.3301 5.26575 15.4032 5.64706 15.3964C6.026 15.4013 6.40181 15.3272 6.75058 15.1789C7.09936 15.0307 7.41347 14.8115 7.67294 14.5352C9.03126 13.0374 10.2438 11.4136 11.2941 9.68583H17.6824Z" fill="#383641"/>
<path fill-rule="evenodd" clip-rule="evenodd" d="M22.1718 22.0035C22.3509 22.0955 22.5492 22.1439 22.7506 22.1447H22.7788C22.9632 22.1452 23.1455 22.1047 23.3123 22.026C23.4791 21.9474 23.6263 21.8326 23.7432 21.69C23.8601 21.5474 23.9438 21.3806 23.9882 21.2016C24.0327 21.0226 24.0367 20.836 24 20.6552L21.8329 11.1188C21.7897 10.9206 21.6971 10.7365 21.5639 10.5835C21.4306 10.4305 21.261 10.3136 21.0706 10.2435C20.88 10.1707 20.6746 10.1448 20.4718 10.1682C20.2691 10.1915 20.075 10.2633 19.9059 10.3776L12.8471 15.1564C12.6713 15.2741 12.5294 15.4357 12.4353 15.6251C12.3412 15.8145 12.2982 16.0253 12.3106 16.2364C12.3318 16.4456 12.4057 16.646 12.5254 16.8189C12.6452 16.9917 12.8069 17.1313 12.9953 17.2247L22.1718 22.0035ZM20.4635 11.1541C20.505 11.1415 20.5492 11.1415 20.5906 11.1541C20.6155 11.1451 20.6422 11.1427 20.6682 11.147C20.7014 11.1582 20.7311 11.1777 20.7546 11.2036C20.7781 11.2296 20.7945 11.2611 20.8024 11.2952L22.92 20.8882C22.929 20.9289 22.9258 20.9715 22.9107 21.0104C22.8957 21.0493 22.8694 21.0829 22.8353 21.107C22.803 21.1322 22.7633 21.1459 22.7224 21.1459C22.6814 21.1459 22.6417 21.1322 22.6094 21.107L13.4329 16.3282C13.4009 16.3106 13.3737 16.2852 13.354 16.2543C13.3342 16.2235 13.3226 16.1882 13.32 16.1517C13.3185 16.1159 13.3261 16.0802 13.3422 16.0481C13.3582 16.016 13.3822 15.9885 13.4118 15.9682L20.4635 11.1541Z" fill="#383641"/>
<path fill-rule="evenodd" clip-rule="evenodd" d="M3.81178 24.0011H20.0471C20.3244 24.0036 20.5946 23.9132 20.8146 23.7444C21.0347 23.5755 21.1919 23.3379 21.2612 23.0694C21.3296 22.8035 21.3054 22.5222 21.1924 22.272C21.0795 22.0217 20.8847 21.8175 20.64 21.6929L11.4635 16.9141C11.2599 16.8095 11.032 16.7615 10.8035 16.7752C10.575 16.7888 10.3544 16.8636 10.1647 16.9917L3.1059 21.7705C2.88735 21.9151 2.72213 22.1272 2.63545 22.3745C2.54878 22.6217 2.54542 22.8906 2.62589 23.1399C2.70953 23.3889 2.86868 23.6057 3.08122 23.76C3.29376 23.9144 3.54912 23.9986 3.81178 24.0011ZM10.7435 17.8246C10.7806 17.798 10.8249 17.7832 10.8706 17.7823L10.8494 17.7682C10.8912 17.7666 10.9327 17.7764 10.9694 17.7964L20.1459 22.5752C20.1883 22.5952 20.2222 22.6296 20.2416 22.6723C20.261 22.7149 20.2646 22.7631 20.2518 22.8082C20.2419 22.8549 20.2161 22.8966 20.1787 22.9263C20.1413 22.9559 20.0948 22.9716 20.0471 22.9705H3.81178C3.76718 22.9707 3.72375 22.9563 3.68807 22.9296C3.65239 22.9028 3.62643 22.8652 3.61413 22.8223C3.59891 22.7804 3.5983 22.7346 3.61239 22.6923C3.62649 22.65 3.65446 22.6137 3.69178 22.5894L10.7435 17.8246Z" fill="#383641"/>
</mask>
<g mask="url(#mask0_39_21)">
<rect width="24" height="24" fill="#383641"/>
</g>
</g>
<defs>
<clipPath id="clip0_39_21">
<rect width="24" height="24" fill="white"/>
</clipPath>
</defs>
</svg>
