<svg width="24" height="24" viewBox="0 0 24 24" fill="none" xmlns="http://www.w3.org/2000/svg">
<path fill-rule="evenodd" clip-rule="evenodd" d="M1 5.75C1 4.7835 1.7835 4 2.75 4H20.75C21.7165 4 22.5 4.7835 22.5 5.75V18.75C22.5 19.7165 21.7165 20.5 20.75 20.5H2.75C1.7835 20.5 1 19.7165 1 18.75V5.75ZM2.70617 5.50383L11.75 11.8345L20.7938 5.50383C20.7796 5.50131 20.765 5.5 20.75 5.5H2.75C2.73505 5.5 2.7204 5.50131 2.70617 5.50383ZM21 7.19049L12.1801 13.3644C11.9219 13.5452 11.5781 13.5452 11.3199 13.3644L2.5 7.19049V18.75C2.5 18.8881 2.61193 19 2.75 19H20.75C20.8881 19 21 18.8881 21 18.75V7.19049Z" fill="#383641"/>
</svg>
