<svg width="24" height="24" viewBox="0 0 24 24" fill="none" xmlns="http://www.w3.org/2000/svg">
<path fill-rule="evenodd" clip-rule="evenodd" d="M12.25 1C12.5407 1 12.8052 1.168 12.9288 1.43112L13.8422 3.37559L15.865 3.68942C16.1423 3.73245 16.3724 3.92667 16.4613 4.19281C16.5503 4.45895 16.4832 4.75248 16.2875 4.9536L14.8073 6.47481L15.1564 8.63008C15.2023 8.91331 15.0825 9.1979 14.848 9.36314C14.6134 9.52838 14.3051 9.54531 14.0539 9.40676L12.25 8.41203L10.4461 9.40676C10.1949 9.54531 9.88659 9.52838 9.65203 9.36314C9.41747 9.1979 9.29773 8.91331 9.34361 8.63008L9.69271 6.47481L8.21248 4.9536C8.01678 4.75248 7.94973 4.45895 8.03868 4.19281C8.12763 3.92667 8.35772 3.73245 8.63501 3.68942L10.6578 3.37559L11.5712 1.43112C11.6948 1.168 11.9593 1 12.25 1ZM12.25 3.514L11.8458 4.37443C11.7398 4.60018 11.5284 4.75845 11.282 4.79669L10.3009 4.94891L11.0309 5.69918C11.1965 5.86932 11.2717 6.1078 11.2337 6.34214L11.0706 7.34946L11.8878 6.89879C12.1133 6.77448 12.3867 6.77448 12.6122 6.89879L13.4294 7.34946L13.2663 6.34214C13.2283 6.1078 13.3035 5.86932 13.4691 5.69918L14.1991 4.94891L13.218 4.79669C12.9716 4.75845 12.7602 4.60018 12.6542 4.37443L12.25 3.514ZM3.34766 8.11705C3.56418 7.97942 3.83602 7.96201 4.06833 8.07091L11.7514 11.6724L19.4341 8.10389C19.6663 7.99601 19.9376 8.01409 20.1534 8.15185C20.3693 8.28961 20.5 8.528 20.5 8.78409V11.8864C20.5 12.1747 20.3347 12.4374 20.0749 12.5623L12.0362 16.426C11.8299 16.5251 11.5897 16.5247 11.3838 16.4247L3.42255 12.5611C3.1641 12.4357 3 12.1736 3 11.8864V8.75C3 8.49344 3.13114 8.25468 3.34766 8.11705ZM4.5 9.92987V11.4167L11.7129 14.9171L19 11.4147V9.95942L12.0659 13.1802C11.8648 13.2737 11.6325 13.2732 11.4317 13.1791L4.5 9.92987ZM3.36451 14.1067C3.59063 13.9712 3.87127 13.9643 4.10372 14.0887L11.7516 18.1791L19.3988 14.1262C19.6313 14.003 19.9113 14.0106 20.1367 14.1463C20.3621 14.2819 20.5 14.5258 20.5 14.7889V18.3416C20.5 18.6154 20.3507 18.8675 20.1106 18.9992L12.0719 23.4076C11.8463 23.5313 11.5731 23.5308 11.348 23.4061L3.38668 18.9977C3.14807 18.8656 3 18.6143 3 18.3416V14.75C3 14.4864 3.13839 14.2421 3.36451 14.1067ZM4.5 16.0017V17.8996L11.713 21.8937L19 17.8975V16.0352L12.1012 19.6915C11.8807 19.8083 11.6164 19.8078 11.3963 19.6901L4.5 16.0017Z" fill="#383641"/>
</svg>
