<svg width="24" height="24" viewBox="0 0 24 24" fill="none" xmlns="http://www.w3.org/2000/svg">
<mask id="mask0_1725_504" style="mask-type:alpha" maskUnits="userSpaceOnUse" x="4" y="1" width="17" height="22">
<path fill-rule="evenodd" clip-rule="evenodd" d="M12.6596 1C12.9318 1 13.1794 1.15727 13.2952 1.4036L14.1503 3.22395L16.0439 3.51776C16.3035 3.55803 16.5189 3.73986 16.6022 3.98901C16.6854 4.23816 16.6227 4.51296 16.4395 4.70124L15.0537 6.12535L15.3805 8.14306C15.4235 8.40821 15.3114 8.67463 15.0918 8.82932C14.8722 8.98401 14.5836 8.99987 14.3484 8.87016L12.6596 7.93892L10.9709 8.87016C10.7357 8.99987 10.4471 8.98401 10.2275 8.82932C10.0079 8.67463 9.89583 8.40821 9.93877 8.14306L10.2656 6.12535L8.87984 4.70124C8.69664 4.51296 8.63386 4.23816 8.71714 3.98901C8.80041 3.73986 9.01581 3.55803 9.2754 3.51776L11.169 3.22395L12.0241 1.4036C12.1399 1.15727 12.3875 1 12.6596 1ZM12.6596 3.35353L12.2813 4.15904C12.182 4.37039 11.9841 4.51855 11.7534 4.55435L10.8349 4.69685L11.5184 5.39923C11.6734 5.55851 11.7438 5.78177 11.7083 6.00115L11.5555 6.94417L12.3206 6.52227C12.5317 6.40589 12.7876 6.40589 12.9987 6.52227L13.7638 6.94417L13.611 6.00115C13.5755 5.78177 13.6459 5.55852 13.8009 5.39923L14.4844 4.69685L13.5659 4.55435C13.3352 4.51855 13.1373 4.37039 13.038 4.15904L12.6596 3.35353Z" fill="#383641"/>
<path fill-rule="evenodd" clip-rule="evenodd" d="M4.32547 7.66281C4.52817 7.53396 4.78266 7.51766 5.00013 7.6196L12.1928 10.9912L19.3851 7.65048C19.6025 7.54948 19.8564 7.56641 20.0585 7.69538C20.2607 7.82435 20.383 8.04752 20.383 8.28727V11.1915C20.383 11.4614 20.2283 11.7074 19.985 11.8244L12.4594 15.4414C12.2663 15.5342 12.0414 15.5337 11.8487 15.4402L4.39558 11.8232C4.15362 11.7058 4 11.4605 4 11.1915V8.25535C4 8.01517 4.12277 7.79165 4.32547 7.66281ZM5.40426 9.35991V10.7518L12.1567 14.0288L18.9787 10.75V9.38757L12.4873 12.4028C12.2989 12.4903 12.0815 12.4899 11.8935 12.4017L5.40426 9.35991Z" fill="#383641"/>
<path fill-rule="evenodd" clip-rule="evenodd" d="M4.34124 14.2063C4.55293 14.0794 4.81566 14.0731 5.03327 14.1894L12.193 18.0188L19.3521 14.2246C19.5697 14.1093 19.8318 14.1164 20.0429 14.2434C20.2539 14.3704 20.383 14.5987 20.383 14.845V18.1709C20.383 18.4273 20.2433 18.6633 20.0185 18.7865L12.4929 22.9136C12.2817 23.0294 12.0258 23.0289 11.8151 22.9122L4.362 18.7851C4.13862 18.6614 4 18.4262 4 18.1709V14.8086C4 14.5618 4.12955 14.3331 4.34124 14.2063ZM5.40426 15.9803V17.7571L12.1569 21.4963L18.9787 17.7552V16.0117L12.5203 19.4346C12.3138 19.544 12.0664 19.5436 11.8603 19.4334L5.40426 15.9803Z" fill="#383641"/>
</mask>
<g mask="url(#mask0_1725_504)">
<rect width="24" height="24" fill="#383641"/>
</g>
</svg>
