<svg width="24" height="24" viewBox="0 0 24 24" fill="none" xmlns="http://www.w3.org/2000/svg">
<path fill-rule="evenodd" clip-rule="evenodd" d="M2 4.75C2 3.23122 3.23122 2 4.75 2H18.75C20.2688 2 21.5 3.23122 21.5 4.75V17.75C21.5 19.2688 20.2688 20.5 18.75 20.5H17.5V21.75C17.5 22.1642 17.1642 22.5 16.75 22.5C16.3358 22.5 16 22.1642 16 21.75V20.5H7.5V21.75C7.5 22.1642 7.16421 22.5 6.75 22.5C6.33579 22.5 6 22.1642 6 21.75V20.5H4.75C3.23122 20.5 2 19.2688 2 17.75V4.75ZM3.5 12.5V17.75C3.5 18.4404 4.05964 19 4.75 19H18.75C19.4404 19 20 18.4404 20 17.75V12.5H3.5ZM20 11H3.5V4.75C3.5 4.05964 4.05964 3.5 4.75 3.5H18.75C19.4404 3.5 20 4.05964 20 4.75V11Z" fill="#383641"/>
<path d="M7.75 15.75C7.75 16.3023 7.30228 16.75 6.75 16.75C6.19772 16.75 5.75 16.3023 5.75 15.75C5.75 15.1977 6.19772 14.75 6.75 14.75C7.30228 14.75 7.75 15.1977 7.75 15.75Z" fill="#383641"/>
<path d="M17.75 15.75C17.75 16.3023 17.3023 16.75 16.75 16.75C16.1977 16.75 15.75 16.3023 15.75 15.75C15.75 15.1977 16.1977 14.75 16.75 14.75C17.3023 14.75 17.75 15.1977 17.75 15.75Z" fill="#383641"/>
</svg>
