<svg width="24" height="24" viewBox="0 0 24 24" fill="none" xmlns="http://www.w3.org/2000/svg">
<g clip-path="url(#clip0_4330_144)">
<mask id="mask0_4330_144" style="mask-type:alpha" maskUnits="userSpaceOnUse" x="1" y="-1" width="22" height="25">
<path fill-rule="evenodd" clip-rule="evenodd" d="M8.08245 15.9741L8.78833 12.9952L6.4448 10.9835C6.32783 10.8913 6.243 10.7646 6.20243 10.6213C6.16186 10.478 6.16763 10.3256 6.21892 10.1858C6.26688 10.0444 6.35534 9.92013 6.4733 9.82853C6.59126 9.73692 6.73353 9.68198 6.88245 9.67053L10.0095 9.38817L11.2589 6.56464C11.3193 6.42785 11.4182 6.31161 11.5435 6.23012C11.6689 6.14864 11.8153 6.10544 11.9648 6.10582C12.1141 6.10633 12.2601 6.14988 12.3853 6.23126C12.5105 6.31264 12.6096 6.42839 12.6707 6.56464L13.913 9.38817L17.0401 9.67053C17.1894 9.68327 17.332 9.7386 17.4509 9.82993C17.5697 9.92127 17.6599 10.0448 17.7107 10.1858C17.7568 10.3261 17.7599 10.4771 17.7197 10.6192C17.6794 10.7613 17.5976 10.8882 17.4848 10.9835L15.1201 12.9952L15.826 15.9741C15.8634 16.1172 15.855 16.2685 15.8018 16.4065C15.7486 16.5446 15.6533 16.6625 15.5295 16.7435C15.4015 16.8364 15.2491 16.8899 15.0911 16.8975C14.9331 16.905 14.7763 16.8662 14.6401 16.7858L11.9366 15.2258L9.24009 16.7858C9.10789 16.8589 8.9579 16.8937 8.80701 16.8862C8.65611 16.8788 8.5103 16.8293 8.38598 16.7435C8.26088 16.6634 8.16421 16.546 8.10971 16.4079C8.05522 16.2697 8.04568 16.1179 8.08245 15.9741ZM10.9815 10.7381C10.8699 10.8175 10.739 10.8657 10.6024 10.8776L8.80245 11.0258L10.1577 12.1835C10.2609 12.2662 10.3388 12.3762 10.3824 12.501C10.4261 12.6258 10.4339 12.7604 10.4048 12.8893L10.0095 14.5976L11.5554 13.7082C11.6769 13.6388 11.8143 13.6024 11.9542 13.6024C12.0941 13.6024 12.2315 13.6388 12.353 13.7082L13.8848 14.6046L13.4895 12.8964C13.4596 12.7681 13.4663 12.6339 13.5087 12.5092C13.5511 12.3844 13.6276 12.2741 13.7295 12.1905L15.0848 11.0329L13.2919 10.8776C13.1545 10.8655 13.0228 10.8173 12.91 10.738C12.7972 10.6587 12.7074 10.551 12.6495 10.4258L11.9436 8.81641L11.2377 10.4258C11.1817 10.5509 11.0932 10.6587 10.9815 10.7381Z" fill="#383641"/>
<path fill-rule="evenodd" clip-rule="evenodd" d="M12.233 23.9505C12.0574 24.0142 11.8651 24.0142 11.6895 23.9505C10.7154 23.6046 6.10596 21.1341 3.8189 17.9788C1.61654 14.9435 1.56713 8.83758 1.77184 3.86111C1.77471 3.761 1.79886 3.66265 1.84268 3.57259C1.88649 3.48252 1.94897 3.40282 2.02596 3.33876C2.18216 3.20338 2.38413 3.13269 2.59066 3.14111C5.80507 3.32995 8.96909 2.27611 11.4283 0.197583C11.5731 0.0685892 11.7603 -0.00268555 11.9542 -0.00268555C12.1481 -0.00268555 12.3353 0.0685892 12.4801 0.197583C14.9353 2.28323 18.1023 3.33804 21.3177 3.14111C21.5247 3.1297 21.7277 3.20077 21.8824 3.33876C21.9594 3.40282 22.0219 3.48252 22.0657 3.57259C22.1095 3.66265 22.1337 3.761 22.1365 3.86111C22.3412 8.84464 22.3554 14.8305 20.0895 17.9788C17.8236 21.127 13.2565 23.5623 12.233 23.9505ZM3.28243 4.66582V4.94111C3.0636 11.1529 3.65654 15.1411 5.08243 17.1388C6.8189 19.5317 10.3695 21.6846 11.8165 22.3905L11.9365 22.4541L12.0636 22.3905C13.3201 21.7764 16.9977 19.6376 18.8189 17.1317C20.2165 15.2117 20.8236 11.1105 20.6189 4.94111V4.65876H20.3577C17.3888 4.64057 14.504 3.67072 12.1271 1.8917L11.9507 1.75758L11.7812 1.8917C9.39894 3.67664 6.50626 4.64912 3.52949 4.66582H3.28243Z" fill="#383641"/>
</mask>
<g mask="url(#mask0_4330_144)">
<rect width="24" height="24" fill="#383641"/>
</g>
</g>
<defs>
<clipPath id="clip0_4330_144">
<rect width="24" height="24" fill="white"/>
</clipPath>
</defs>
</svg>
