<svg width="24" height="24" viewBox="0 0 24 24" fill="none" xmlns="http://www.w3.org/2000/svg">
<g clip-path="url(#clip0_1_68)">
<path fill-rule="evenodd" clip-rule="evenodd" d="M11.5339 4.61406C9.91428 5.75303 7.90083 6.61485 6.27794 7.19862C5.39588 7.5159 4.61571 7.75573 4.05537 7.91645C3.77501 7.99687 3.54917 8.05762 3.39254 8.09849C3.39142 8.09878 3.3903 8.09907 3.38919 8.09936L1.81781 10.3169L4.73642 12.5513H18.3119L21.1808 10.2927L19.6919 8.2414C17.442 7.64346 15.3395 6.69528 13.791 5.89235C12.9879 5.47587 12.3287 5.09579 11.8691 4.81906C11.7417 4.74237 11.6296 4.67356 11.5339 4.61406ZM17.9246 13.8752H5.12289L5.11418 15.2117H17.9246V13.8752ZM3.78873 15.4547L3.80145 13.5028L0 10.5925L2.59398 6.93184L2.83588 6.87391L2.83838 6.87331L2.84836 6.87088L2.89046 6.86047C2.92813 6.85106 2.9847 6.83673 3.05835 6.81752C3.20568 6.77908 3.42119 6.72113 3.69037 6.64392C4.22912 6.48939 4.98081 6.25832 5.82985 5.95291C7.5411 5.33737 9.5947 4.43843 11.1073 3.28619L11.483 3L11.8757 3.26208L11.8774 3.26321L11.8848 3.26808L11.9166 3.28895C11.9453 3.30768 11.9889 3.33587 12.0464 3.37248C12.1614 3.44572 12.3322 3.55262 12.552 3.68494C12.9917 3.94971 13.6262 4.31562 14.4005 4.71712C15.9534 5.5224 18.0484 6.46016 20.2509 7.01883L20.4831 7.07774L23 10.5453L19.2484 13.4989V15.4026C19.5424 15.5498 19.7752 15.7905 19.9026 16.0924C20.1302 16.6317 19.9729 17.2573 19.4492 17.6533C17.8755 18.8433 15.2444 20.096 11.6662 20.096C8.12127 20.096 5.4008 18.8666 3.72688 17.697C3.17781 17.3133 2.99598 16.6803 3.21442 16.1252C3.32578 15.8422 3.5286 15.6099 3.78873 15.4547ZM11.4645 8.22416C10.9091 8.22416 10.4403 8.68491 10.4403 9.27629C10.4403 9.86768 10.9091 10.3284 11.4645 10.3284C12.0199 10.3284 12.4887 9.86768 12.4887 9.27629C12.4887 8.68491 12.0199 8.22416 11.4645 8.22416ZM9.11648 9.27629C9.11648 7.97439 10.1575 6.90032 11.4645 6.90032C12.7715 6.90032 13.8125 7.97439 13.8125 9.27629C13.8125 10.5782 12.7715 11.6523 11.4645 11.6523C10.1575 11.6523 9.11648 10.5782 9.11648 9.27629ZM4.4627 16.5943C4.46844 16.5994 4.4758 16.6053 4.48514 16.6118C5.97306 17.6515 8.43369 18.7722 11.6662 18.7722C14.9249 18.7722 17.2806 17.6334 18.6507 16.5973C18.6545 16.5944 18.658 16.5917 18.661 16.5891C18.6441 16.5793 18.6105 16.5658 18.5535 16.5658H4.58115C4.51556 16.5658 4.48021 16.5829 4.46491 16.5928C4.46415 16.5933 4.46341 16.5938 4.4627 16.5943Z" fill="#383641"/>
</g>
<defs>
<clipPath id="clip0_1_68">
<rect width="24" height="24" fill="white"/>
</clipPath>
</defs>
</svg>
