<svg width="24" height="24" viewBox="0 0 24 24" fill="none" xmlns="http://www.w3.org/2000/svg">
<path d="M1 3.50857V16.9914C1 17.8246 1.71633 18.5 2.6 18.5C2.6 18.5 7 18.5 8 18.5C9 18.5 8.6746 17.0857 8 17.0857C6.5 17 2.6 17.0857 2.6 17.0857C2.54477 17.0857 2.5 17.0435 2.5 16.9914V3.50857C2.5 3.4565 2.54477 3.41429 2.6 3.41429H8.19458C8.22905 3.41429 8.2611 3.43103 8.27938 3.4586L9.82777 5.79446C9.84604 5.82203 9.87809 5.83878 9.91257 5.83878H17.4C17.4552 5.83878 17.5 5.88099 17.5 5.93306C17.5 5.93306 17.5 6 17.5 7C17.5 8 19 8 19 7C19 6 19 5.93306 19 5.93306C19 5.09991 18.2837 4.42449 17.4 4.42449H10.6885L9.55137 2.70903C9.25899 2.26795 8.74624 2 8.19458 2H2.6C1.71634 2 1 2.67541 1 3.50857Z" fill="#383641"/>
<path fill-rule="evenodd" clip-rule="evenodd" d="M16 9.46512C15.8921 9.46512 15.7885 9.50799 15.7122 9.58432C15.6359 9.66064 15.593 9.76416 15.593 9.87209V9.97188C15.5917 10.2981 15.4951 10.6168 15.3149 10.8888C15.1348 11.1607 14.8791 11.3741 14.5793 11.5026C14.5227 11.5269 14.4635 11.5438 14.403 11.5532C14.1349 11.6442 13.8473 11.6659 13.5671 11.6151C13.2383 11.5554 12.9348 11.3987 12.6959 11.165L12.6901 11.1593L12.656 11.1251C12.6182 11.0873 12.573 11.0569 12.5236 11.0365C12.4742 11.016 12.4212 11.0054 12.3677 11.0054C12.3142 11.0054 12.2613 11.016 12.2119 11.0365C12.1625 11.0569 12.1176 11.087 12.0798 11.1248C12.042 11.1626 12.0114 11.2081 11.9909 11.2575C11.9704 11.3069 11.9599 11.3598 11.9599 11.4133C11.9599 11.4668 11.9704 11.5198 11.9909 11.5692C12.0114 11.6186 12.0414 11.6635 12.0792 11.7013L12.1194 11.7414C12.3531 11.9804 12.5099 12.2838 12.5695 12.6127C12.6277 12.9339 12.5907 13.2651 12.4631 13.5652C12.3458 13.8711 12.1412 14.1359 11.8745 14.3267C11.6015 14.5219 11.276 14.6306 10.9405 14.6384L10.9234 14.6386H10.8721C10.7642 14.6386 10.6606 14.6815 10.5843 14.7578C10.508 14.8341 10.4651 14.9376 10.4651 15.0456C10.4651 15.1535 10.508 15.257 10.5843 15.3334C10.6606 15.4097 10.7642 15.4526 10.8721 15.4526H10.9719C11.2981 15.4539 11.6168 15.5505 11.8888 15.7306C12.1597 15.91 12.3724 16.1644 12.5011 16.4627C12.6348 16.7675 12.6745 17.1053 12.6151 17.4329C12.5554 17.7617 12.3987 18.0652 12.165 18.3041L12.1593 18.3099L12.1251 18.344C12.0873 18.3818 12.0569 18.427 12.0365 18.4764C12.016 18.5258 12.0054 18.5788 12.0054 18.6323C12.0054 18.6857 12.016 18.7387 12.0365 18.7881C12.0569 18.8375 12.087 18.8824 12.1248 18.9202C12.1626 18.958 12.2081 18.9886 12.2575 19.0091C12.3069 19.0296 12.3598 19.0401 12.4133 19.0401C12.4668 19.0401 12.5198 19.0296 12.5692 19.0091C12.6186 18.9886 12.6635 18.9586 12.7013 18.9208L12.7414 18.8806C12.9804 18.6469 13.2838 18.4901 13.6127 18.4305C13.9339 18.3723 14.265 18.4093 14.5652 18.5369C14.8711 18.6542 15.1359 18.8588 15.3267 19.1255C15.5219 19.3985 15.6306 19.724 15.6384 20.0595L15.6386 20.0766V20.1279C15.6386 20.2358 15.6815 20.3394 15.7578 20.4157C15.8341 20.492 15.9376 20.5349 16.0456 20.5349C16.1535 20.5349 16.257 20.492 16.3334 20.4157C16.4097 20.3394 16.4526 20.2358 16.4526 20.1279V20.031L16.4526 20.0281C16.4539 19.7019 16.5505 19.3832 16.7306 19.1112C16.91 18.8403 17.1644 18.6276 17.4627 18.4989C17.7675 18.3652 18.1053 18.3255 18.4329 18.3849C18.7617 18.4446 19.0652 18.6013 19.3041 18.835L19.3099 18.8407L19.344 18.8749C19.3818 18.9128 19.427 18.9431 19.4764 18.9635C19.5258 18.984 19.5788 18.9946 19.6323 18.9946C19.6857 18.9946 19.7387 18.984 19.7881 18.9635C19.8375 18.9431 19.8824 18.913 19.9202 18.8752C19.958 18.8374 19.9886 18.7919 20.0091 18.7425C20.0296 18.6931 20.0401 18.6402 20.0401 18.5867C20.0401 18.5332 20.0296 18.4802 20.0091 18.4308C19.9886 18.3814 19.9586 18.3365 19.9208 18.2987L19.8806 18.2586C19.6469 18.0196 19.4901 17.7162 19.4305 17.3873C19.3711 17.0598 19.4108 16.722 19.5445 16.4172C19.6732 16.1189 19.8859 15.8645 20.1568 15.6851C20.4288 15.5049 20.7475 15.4083 21.0737 15.407L21.0766 15.407L21.1279 15.407C21.2358 15.407 21.3394 15.3641 21.4157 15.2878C21.492 15.2115 21.5349 15.1079 21.5349 15C21.5349 14.8921 21.492 14.7885 21.4157 14.7122C21.3394 14.6359 21.2358 14.593 21.1279 14.593H21.031L21.0281 14.593C20.7019 14.5917 20.3832 14.4951 20.1112 14.3149C19.8393 14.1348 19.6259 13.8791 19.4974 13.5793C19.4731 13.5227 19.4562 13.4635 19.4468 13.403C19.3558 13.1349 19.3341 12.8473 19.3849 12.5671C19.4446 12.2383 19.6013 11.9348 19.835 11.6959L19.8407 11.6901C19.9131 11.6177 19.9463 11.5651 19.9635 11.5236C19.984 11.4742 19.9946 11.4212 19.9946 11.3677C19.9946 11.3143 19.984 11.2613 19.9635 11.2119C19.9232 11.1146 19.8399 11.0312 19.7425 10.9909C19.6931 10.9704 19.6402 10.9599 19.5867 10.9599C19.5332 10.9599 19.4802 10.9704 19.4308 10.9909C19.3814 11.0114 19.3365 11.0414 19.2987 11.0792L19.2586 11.1194C19.0196 11.3531 18.7162 11.5099 18.3873 11.5695C18.0597 11.6289 17.7219 11.5892 17.4171 11.4555C17.1188 11.3268 16.8645 11.1141 16.6851 10.8432C16.5049 10.5712 16.4083 10.2525 16.407 9.92629L16.407 9.92337C16.407 9.75953 16.3576 9.65411 16.2878 9.58432C16.2115 9.50799 16.1079 9.46512 16 9.46512ZM14.6762 8.54832C15.0273 8.19724 15.5035 8 16 8C16.4965 8 16.9727 8.19724 17.3238 8.54832C17.716 8.9405 17.8721 9.44393 17.8721 9.92337L17.8721 9.92045C17.8722 9.96093 17.8842 10.0005 17.9066 10.0342C17.9289 10.068 17.9607 10.0945 17.9979 10.1104L18.0051 10.1135C18.043 10.1302 18.0851 10.1353 18.1259 10.1279C18.1659 10.1206 18.2028 10.1018 18.2322 10.0738L18.2622 10.0438C18.436 9.86974 18.6425 9.73166 18.8698 9.63745C19.0971 9.54324 19.3407 9.49474 19.5867 9.49474C19.8327 9.49474 20.0763 9.54324 20.3036 9.63745C20.7596 9.82649 21.1279 10.1948 21.317 10.6508C21.4112 10.8781 21.4597 11.1217 21.4597 11.3677C21.4597 11.6138 21.4112 11.8574 21.317 12.0846C21.2062 12.3518 21.0432 12.5589 20.8808 12.722C20.8527 12.7514 20.8338 12.7884 20.8265 12.8285C20.8191 12.8693 20.8241 12.9114 20.8409 12.9493C20.8563 12.9843 20.869 13.0204 20.8787 13.0572C20.8908 13.071 20.9048 13.0832 20.9202 13.0934C20.9537 13.1156 20.9929 13.1276 21.033 13.1279H21.1279C21.6244 13.1279 22.1006 13.3251 22.4517 13.6762C22.8028 14.0273 23 14.5035 23 15C23 15.4965 22.8028 15.9727 22.4517 16.3238C22.1006 16.6749 21.6244 16.8721 21.1279 16.8721H21.0786C21.0385 16.8724 20.9993 16.8844 20.9658 16.9066C20.932 16.9289 20.9055 16.9607 20.8896 16.9979L20.8865 17.0051C20.8698 17.043 20.8647 17.0851 20.8721 17.1259C20.8794 17.1659 20.8982 17.2028 20.9262 17.2322L20.9562 17.2622C21.1303 17.436 21.2683 17.6425 21.3626 17.8698C21.4568 18.0971 21.5053 18.3407 21.5053 18.5867C21.5053 18.8327 21.4568 19.0763 21.3626 19.3036C21.2684 19.5307 21.1304 19.7371 20.9565 19.9109C20.7827 20.0848 20.5763 20.2228 20.3492 20.317C20.1219 20.4112 19.8783 20.4597 19.6323 20.4597C19.3862 20.4597 19.1426 20.4112 18.9154 20.317C18.6881 20.2228 18.4816 20.0847 18.3078 19.9106L18.2778 19.8806C18.2484 19.8526 18.2115 19.8338 18.1715 19.8265C18.1307 19.8191 18.0886 19.8241 18.0507 19.8409L18.0435 19.8441C18.0063 19.86 17.9745 19.8864 17.9522 19.9202C17.93 19.9537 17.918 19.9929 17.9177 20.0331V20.1279C17.9177 20.6244 17.7204 21.1006 17.3694 21.4517C17.0183 21.8028 16.5421 22 16.0456 22C15.5491 22 15.0729 21.8028 14.7218 21.4517C14.3707 21.1006 14.1735 20.6244 14.1735 20.1279V20.0883C14.1715 20.0486 14.1582 20.0103 14.135 19.9779C14.1108 19.944 14.0769 19.9182 14.0378 19.9038C14.0233 19.8985 14.009 19.8927 13.9949 19.8865C13.957 19.8697 13.9149 19.8647 13.8741 19.8721C13.8341 19.8794 13.7972 19.8982 13.7678 19.9262L13.7378 19.9562C13.564 20.1301 13.3574 20.2684 13.1302 20.3626C12.9029 20.4568 12.6593 20.5053 12.4133 20.5053C12.1673 20.5053 11.9237 20.4568 11.6964 20.3626C11.4694 20.2684 11.2631 20.1306 11.0894 19.9568C10.9155 19.783 10.7772 19.5763 10.683 19.3492C10.5888 19.1219 10.5403 18.8783 10.5403 18.6323C10.5403 18.3862 10.5888 18.1426 10.683 17.9154C10.7772 17.6881 10.9153 17.4816 11.0894 17.3078L11.1194 17.2777C11.1474 17.2484 11.1662 17.2115 11.1735 17.1715C11.1809 17.1307 11.1759 17.0886 11.1591 17.0507L11.1559 17.0435C11.14 17.0063 11.1136 16.9745 11.0798 16.9522C11.0463 16.93 11.0071 16.918 10.9669 16.9177H10.8721C10.3756 16.9177 9.89941 16.7204 9.54832 16.3694C9.19724 16.0183 9 15.5421 9 15.0456C9 14.5491 9.19724 14.0729 9.54832 13.7218C9.89941 13.3707 10.3756 13.1735 10.8721 13.1735H10.9117C10.9514 13.1715 10.9897 13.1582 11.0221 13.135C11.056 13.1108 11.0818 13.0769 11.0962 13.0378C11.1015 13.0233 11.1073 13.009 11.1135 12.9949C11.1303 12.957 11.1353 12.9149 11.1279 12.8741C11.1206 12.8341 11.1018 12.7972 11.0738 12.7678L11.0438 12.7378C10.8699 12.564 10.7316 12.3574 10.6374 12.1302C10.5432 11.9029 10.4947 11.6593 10.4947 11.4133C10.4947 11.1673 10.5432 10.9237 10.6374 10.6964C10.7316 10.4693 10.8696 10.2629 11.0435 10.0891C11.2173 9.91517 11.4237 9.77719 11.6508 9.68303C11.8781 9.58882 12.1217 9.54032 12.3677 9.54032C12.6138 9.54032 12.8574 9.58882 13.0846 9.68303C13.3118 9.77719 13.5181 9.91517 13.6919 10.0891L13.7222 10.1194C13.7516 10.1474 13.7885 10.1662 13.8285 10.1735C13.8693 10.1809 13.9114 10.1759 13.9493 10.1591C13.9843 10.1437 14.0204 10.131 14.0572 10.1213C14.071 10.1092 14.0832 10.0952 14.0934 10.0798C14.1156 10.0463 14.1276 10.0071 14.1279 9.96699V9.87209C14.1279 9.37558 14.3251 8.89941 14.6762 8.54832ZM16.0001 14.0233C15.4606 14.0233 15.0233 14.4606 15.0233 15.0001C15.0233 15.5395 15.4606 15.9768 16.0001 15.9768C16.5395 15.9768 16.9768 15.5395 16.9768 15.0001C16.9768 14.4606 16.5395 14.0233 16.0001 14.0233ZM13.5582 15.0001C13.5582 13.6515 14.6515 12.5582 16.0001 12.5582C17.3487 12.5582 18.4419 13.6515 18.4419 15.0001C18.4419 16.3487 17.3487 17.4419 16.0001 17.4419C14.6515 17.4419 13.5582 16.3487 13.5582 15.0001Z" fill="#383641"/>
</svg>
