<svg width="24" height="24" viewBox="0 0 24 24" fill="none" xmlns="http://www.w3.org/2000/svg">
<mask id="mask0_1725_513" style="mask-type:alpha" maskUnits="userSpaceOnUse" x="0" y="2" width="24" height="21">
<path d="M19.4 4.1V7.8H23.5L22.9 9.6H21.8L22.1 8.8H18.5V5.1H10.7L9.8 3H1V18.6H9.1V19.6H0V2H10.4L11.4 4.1H19.4Z" fill="#383641"/>
<path d="M17 6.40002H2.30005V16.5L5.10005 9.00002H17V6.40002Z" fill="#383641"/>
<path fill-rule="evenodd" clip-rule="evenodd" d="M17.2 19.2C16.7 19.2 16.1 19.1 15.7 18.8C14.8 18.3 14.3 17.3 14.3 16.3C14.3 14.7 15.6 13.4 17.2 13.4C17.7 13.4 18.2 13.5 18.6 13.7C19.6 14.2 20.2 15.2 20.2 16.3C20.2 17.3 19.6 18.3 18.8 18.8C18.3 19 17.8 19.2 17.2 19.2ZM17.2 14.3C16.1 14.3 15.3 15.2 15.3 16.2C15.3 16.9 15.7 17.5 16.2 17.9C16.8 18.3 17.6 18.3 18.2 17.9C18.8 17.5 19.2 16.9 19.2 16.2C19.2 15.5 18.8 14.8 18.2 14.5C17.9 14.3 17.6 14.3 17.2 14.3Z" fill="#383641"/>
<path fill-rule="evenodd" clip-rule="evenodd" d="M16.1 22.5L15.9 20.9C15.6033 20.8259 15.3617 20.6967 15.0934 20.5533C15 20.5034 14.9033 20.4517 14.8 20.4L13.5 21.4L12 19.9L13 18.6V18.5C12.8385 18.2578 12.7422 17.9504 12.6585 17.6831C12.6385 17.6193 12.6192 17.5578 12.6 17.5L11 17.3V15.1L12.6 14.9C12.6742 14.6034 12.8033 14.3617 12.9467 14.0935C12.9967 14 13.0483 13.9034 13.1 13.8L12.1 12.5L13.6 11L14.9 12C15.0748 11.8835 15.2835 11.8009 15.5064 11.7128C15.6661 11.6496 15.833 11.5835 16 11.5L16.2 9.90002H18.4L18.6 11.5C19 11.6 19.4 11.8 19.7 12L21 11L22.6 12.6L21.6 13.9C21.65 14.05 21.725 14.175 21.8 14.3C21.875 14.425 21.95 14.55 22 14.7C22 14.75 22.025 14.8 22.05 14.85C22.075 14.9 22.1 14.95 22.1 15L23.7 15.2V17.4L22 17.5C21.9258 17.7967 21.7967 18.0383 21.6533 18.3066C21.6033 18.4 21.5517 18.4967 21.5 18.6L22.5 19.9L20.9 21.5L19.6 20.5C19.4252 20.6165 19.2165 20.6991 18.9937 20.7873C18.834 20.8505 18.667 20.9165 18.5 21L18.3 22.5H16.1ZM16.7 20.6L17 21.5H17.4L17.5 20.7C17.5 20.3 17.8 20.1 18.1 20C18.1577 19.9808 18.2191 19.9615 18.2828 19.9416C18.5501 19.8579 18.8578 19.7615 19.1 19.6C19.4 19.4 19.8 19.4 20.1 19.7L20.7 20.2L21 19.9L20.5 19.3C20.3 19 20.3 18.6 20.4 18.3C20.6 18 20.7 17.7 20.8 17.3C20.9 17 21.2 16.7 21.5 16.7L22.3 16.6V16L21.5 15.9C21.1 15.9 20.9 15.6 20.8 15.3C20.8 15.25 20.775 15.2 20.75 15.15C20.725 15.1 20.7 15.05 20.7 15C20.65 14.9 20.6 14.775 20.55 14.65C20.5 14.525 20.45 14.4 20.4 14.3C20.2 14 20.2 13.6 20.5 13.3L21 12.7L20.7 12.4L20.1 12.9C19.8 13.1 19.4 13.1 19.1 13C18.8 12.8 18.5 12.7 18.1 12.6C17.7 12.5 17.5 12.2 17.4 11.9L17.3 11.1H17L16.9 11.9C16.9 12.3 16.6 12.5 16.3 12.6C16.2422 12.6193 16.1807 12.6385 16.117 12.6585C15.8496 12.7422 15.5422 12.8385 15.3 13C15 13.2 14.6 13.2 14.3 12.9L13.7 12.4L13.4 12.7L13.9 13.3C14.1 13.6 14.1 14 14 14.3C13.8 14.6 13.7 14.9 13.6 15.3C13.5 15.6 13.2 15.9 12.9 15.9L11.9 16V16.5L12.7 16.6C13.1 16.6 13.3 16.9 13.4 17.2L13.7 18.1L13.8 18.2C14 18.5 14 18.9 13.7 19.2L13.2 19.8L13.5 20.1L14.1 19.6C14.4 19.4 14.8 19.4 15.1 19.5C15.4 19.7 15.7 19.8 16.1 19.9C16.4 20 16.7 20.3 16.7 20.6Z" fill="#383641"/>
</mask>
<g mask="url(#mask0_1725_513)">
<rect width="24" height="24" fill="#383641"/>
</g>
</svg>
