<svg width="24" height="24" viewBox="0 0 24 24" fill="none" xmlns="http://www.w3.org/2000/svg">
<mask id="mask0_3844_3809" style="mask-type:alpha" maskUnits="userSpaceOnUse" x="1" y="1" width="22" height="22">
<path fill-rule="evenodd" clip-rule="evenodd" d="M4.6855 1.53693C5.02231 1.27568 5.51596 1.02222 5.99999 1.02222C7.16537 1.02222 7.91065 1.35079 8.51559 1.64509C8.54844 1.66106 8.58051 1.67672 8.61191 1.69204C9.14663 1.95301 9.48226 2.11681 9.99999 2.11681C10.6035 2.11681 11.1195 1.94481 11.6679 1.73354C11.722 1.71269 11.778 1.69064 11.8359 1.6679C12.3082 1.48215 12.8985 1.24998 13.5 1.24998C14.1189 1.24998 14.6148 1.50955 14.9629 1.79493C15.3049 2.07521 15.544 2.41092 15.6708 2.66457C15.7877 2.89826 15.7745 3.17591 15.636 3.39747L13.4744 6.85603L16.7839 9.75187C16.8553 9.75063 16.9273 9.75 17 9.75C18.4881 9.75 19.7416 10.0155 20.6816 10.3578C21.1509 10.5286 21.5503 10.7216 21.866 10.9166C22.1603 11.0984 22.4502 11.3233 22.624 11.584C22.7062 11.7072 22.75 11.8519 22.75 12V20C22.75 20.2249 22.649 20.438 22.4749 20.5805C20.8979 21.8707 19.3097 22.4919 17.824 22.6766C17.7259 22.7237 17.616 22.75 17.5 22.75C16.8346 22.75 16.0209 22.7615 15.1362 22.7739C13.7595 22.7933 12.2106 22.8151 10.7796 22.8C9.59105 22.7874 8.44596 22.7496 7.4898 22.6625C6.57354 22.5791 5.70735 22.4422 5.16459 22.1708C4.09743 21.6372 3.09268 20.9349 2.36793 19.8002C1.64425 18.6672 1.25 17.1826 1.25 15.1719C1.25 13.4014 2.19708 11.5606 3.26179 10.0487C4.16745 8.76265 5.22123 7.62688 6.05201 6.84667L4.01232 3.23567C3.94875 3.12313 3.91534 2.99607 3.91534 2.86681C3.91534 2.53784 4.04759 2.25972 4.18368 2.05989C4.32364 1.8544 4.50325 1.6783 4.6855 1.53693ZM7.28484 7.75C6.4973 8.46356 5.40646 9.60842 4.48821 10.9123C3.46959 12.3588 2.75 13.8799 2.75 15.1719C2.75 16.9893 3.10575 18.1688 3.63207 18.9928C4.15732 19.8151 4.90257 20.3628 5.83541 20.8292C6.09265 20.9578 6.68896 21.0834 7.62583 21.1687C8.52279 21.2504 9.62145 21.2876 10.7954 21.3C11.237 21.3047 11.684 21.3059 12.1307 21.3048C11.7499 21.0549 11.4226 20.7959 11.1574 20.5488C11.0051 20.4069 10.9186 20.2082 10.9186 20V12C10.9186 11.7449 11.0482 11.5073 11.2628 11.3693C11.8738 10.9762 13.03 10.3079 14.7505 9.96576L12.2182 7.75H7.28484ZM12.0843 6.25L14.0964 3.03068C14.0701 3.005 14.042 2.97956 14.012 2.95502C13.8519 2.82374 13.6811 2.74998 13.5 2.74998C13.1989 2.74998 12.8858 2.87101 12.3407 3.08169C12.2976 3.09832 12.2532 3.11551 12.2071 3.13325C11.6305 3.3554 10.8964 3.61681 9.99999 3.61681C9.12342 3.61681 8.49777 3.30837 7.98822 3.05717C7.94445 3.0356 7.90154 3.01444 7.8594 2.99394C7.33934 2.74094 6.83462 2.52222 5.99999 2.52222C6.00185 2.52222 6.00219 2.52187 5.99999 2.52222C5.99106 2.52363 5.94819 2.53072 5.8735 2.56242C5.78773 2.59882 5.69216 2.65445 5.60484 2.72218C5.5629 2.75471 5.52733 2.78656 5.49807 2.81608L7.43774 6.25H12.0843ZM21.25 15.6496V13.3759C20.2696 13.8436 18.8382 14.25 17 14.25C14.8113 14.25 13.3385 13.8592 12.4186 13.5042V15.8702C13.045 16.1744 14.4538 16.75 17 16.75C19.2563 16.75 20.6763 16.0589 21.25 15.6496ZM12.4186 17.5042C13.3385 17.8592 14.8113 18.25 17 18.25C18.8382 18.25 20.2696 17.8436 21.25 17.3759V19.6368C19.3152 21.1106 17.4507 21.3931 15.8946 21.1701C14.4049 20.9566 13.1687 20.2739 12.4186 19.6594V17.5042ZM12.9892 12.1166C13.8704 11.693 15.1977 11.25 17 11.25C18.3119 11.25 19.3918 11.4845 20.1684 11.7672C20.3619 11.8377 20.5346 11.9104 20.6858 11.9821C19.9409 12.3526 18.7109 12.75 17 12.75C15.0478 12.75 13.7642 12.4116 12.9892 12.1166Z" fill="#383641"/>
</mask>
<g mask="url(#mask0_3844_3809)">
<rect width="24" height="24" fill="#383641"/>
</g>
</svg>
