<svg width="24" height="24" viewBox="0 0 24 24" fill="none" xmlns="http://www.w3.org/2000/svg">
<path fill-rule="evenodd" clip-rule="evenodd" d="M5.11007 3.08723L7.1913 6.83345H11.8087L13.8002 3.24881C13.5698 3.08096 13.3847 3.00421 13.2375 2.97024C13.0153 2.91894 12.7898 2.94379 12.4872 3.04466C12.3318 3.09643 12.1693 3.16363 11.979 3.24516C11.9495 3.25782 11.9191 3.27089 11.8881 3.28428C11.7273 3.3535 11.5475 3.43095 11.363 3.50191C10.9137 3.67474 10.379 3.83315 9.7502 3.83318M11.938 8.33345H6.98747C5.28327 9.54073 2.5 11.753 2.5 15.5835C2.5 17.5697 3.24215 18.8244 4.12425 19.6113C5.0164 20.4071 6.08962 20.7556 6.7894 20.8335H10.5V12.5831C10.5 12.1689 10.8358 11.8332 11.2499 11.8331C12.2339 11.8331 13.608 11.8331 15.0953 11.8331C14.9588 11.6659 14.7983 11.472 14.615 11.2554C13.9787 10.5035 13.0691 9.47797 11.938 8.33345ZM16.5836 11.8332C16.5836 11.8332 16.5836 11.8332 16.5836 11.8332C16.85 11.6333 16.8499 11.6333 16.8499 11.6332L16.8482 11.6309L16.8442 11.6256L16.8297 11.6065C16.8171 11.5899 16.7987 11.5659 16.7748 11.5348C16.7268 11.4725 16.6563 11.3819 16.5642 11.2658C16.38 11.0335 16.1093 10.6992 15.76 10.2864C15.1365 9.54959 14.2613 8.56123 13.1789 7.45585L15.4056 3.44768C15.5682 3.15499 15.5171 2.78997 15.2804 2.55318C14.7163 1.989 14.1599 1.64373 13.575 1.50869C12.9847 1.3724 12.4602 1.4725 12.0128 1.62163C11.7932 1.69485 11.5807 1.7839 11.3881 1.86645C11.354 1.88109 11.3205 1.8955 11.2875 1.90968C11.1271 1.97875 10.9789 2.04252 10.8245 2.10191C10.4614 2.24158 10.1211 2.33318 9.75 2.33318C9.57741 2.33323 9.29166 2.23439 8.80413 1.99066C8.70672 1.94196 8.60142 1.88757 8.4903 1.83016C8.12024 1.63901 7.68565 1.41452 7.26335 1.25615C6.70406 1.04642 6.01644 0.889181 5.31574 1.0994C4.58814 1.31768 4.01383 1.87869 3.57917 2.74805C3.46846 2.96948 3.47416 3.23127 3.59438 3.44768L5.76877 7.36157C3.96806 8.67662 1 11.244 1 15.5835C1 17.9972 1.92452 19.6591 3.12575 20.7306C4.30183 21.7797 5.70731 22.2329 6.67537 22.3297C6.70017 22.3322 6.72508 22.3335 6.75 22.3335H21.75C22.1642 22.3335 22.5 21.9977 22.5 21.5835V12.5832C22.5 12.3842 22.421 12.1935 22.2803 12.0528C22.1396 11.9122 21.9489 11.8332 21.75 11.8332C20.4176 11.8333 18.6874 11.8332 16.9573 11.8332C16.9325 11.7632 16.8967 11.6957 16.8499 11.6332L16.5836 11.8332ZM21 14.8331V13.3332C19.5515 13.3333 17.7866 13.3332 16.087 13.3331C14.5861 13.3331 13.1362 13.3331 12 13.3331V14.8331H21ZM12 16.3331H21V17.8331H12V16.3331ZM12 19.3331V20.8335H21V19.3331H12ZM5.11007 3.08723C5.3543 2.7167 5.57939 2.58635 5.74676 2.53613C5.98356 2.46509 6.29594 2.49538 6.73665 2.66065C7.06817 2.78497 7.38845 2.9502 7.73979 3.13146C7.8663 3.19673 7.99684 3.26407 8.13337 3.33233C8.58329 3.55726 9.17286 3.83327 9.7502 3.83318" fill="#383641"/>
</svg>
