<svg width="24" height="24" viewBox="0 0 24 24" fill="none" xmlns="http://www.w3.org/2000/svg">
<path fill-rule="evenodd" clip-rule="evenodd" d="M1 4.75C1 3.23122 2.23122 2 3.75 2H19.75C21.2688 2 22.5 3.23122 22.5 4.75V14.75C22.5 16.2688 21.2688 17.5 19.75 17.5H12.5V20H15.75C16.1642 20 16.5 20.3358 16.5 20.75C16.5 21.1642 16.1642 21.5 15.75 21.5H7.75C7.33579 21.5 7 21.1642 7 20.75C7 20.3358 7.33579 20 7.75 20H11V17.5H3.75C2.23122 17.5 1 16.2688 1 14.75V4.75ZM19.75 16C20.4404 16 21 15.4404 21 14.75V4.75C21 4.05964 20.4404 3.5 19.75 3.5H3.75C3.05964 3.5 2.5 4.05964 2.5 4.75V14.75C2.5 15.4404 3.05964 16 3.75 16H19.75Z" fill="#383641"/>
</svg>
