<svg width="24" height="24" viewBox="0 0 24 24" fill="none" xmlns="http://www.w3.org/2000/svg">
<g clip-path="url(#clip0_1_75)">
<mask id="mask0_1_75" style="mask-type:alpha" maskUnits="userSpaceOnUse" x="0" y="0" width="24" height="24">
<path fill-rule="evenodd" clip-rule="evenodd" d="M9.80471 8.08941H13.1012C13.1639 8.08942 13.226 8.07695 13.2838 8.05275C13.3417 8.02854 13.3941 7.99307 13.4381 7.9484C13.4821 7.90374 13.5168 7.85076 13.5402 7.79257C13.5635 7.73437 13.5751 7.67211 13.5741 7.60941V4.31294C13.5751 4.25024 13.5635 4.18798 13.5402 4.12978C13.5168 4.07159 13.4821 4.01861 13.4381 3.97395C13.3941 3.92928 13.3417 3.89381 13.2838 3.8696C13.226 3.8454 13.1639 3.83293 13.1012 3.83294H9.80471C9.6774 3.83294 9.55531 3.88351 9.4653 3.97353C9.37528 4.06355 9.32471 4.18564 9.32471 4.31294V7.60941C9.32471 7.73671 9.37528 7.8588 9.4653 7.94882C9.55531 8.03884 9.6774 8.08941 9.80471 8.08941ZM10.2776 4.78588H12.6282V7.13647H10.2776V4.78588Z" fill="#383641"/>
<path fill-rule="evenodd" clip-rule="evenodd" d="M13.5741 14.2165V10.9129C13.5741 10.7875 13.5243 10.6672 13.4356 10.5785C13.3469 10.4898 13.2266 10.44 13.1012 10.44H9.80471C9.67862 10.44 9.55758 10.4896 9.46777 10.5781C9.37795 10.6666 9.32656 10.7869 9.32471 10.9129V14.2165C9.32656 14.3425 9.37795 14.4628 9.46777 14.5513C9.55758 14.6398 9.67862 14.6894 9.80471 14.6894H13.1012C13.1633 14.6894 13.2248 14.6772 13.2822 14.6534C13.3395 14.6296 13.3917 14.5948 13.4356 14.5509C13.4795 14.507 13.5144 14.4548 13.5381 14.3975C13.5619 14.3401 13.5741 14.2786 13.5741 14.2165ZM12.6282 13.7435H10.2776V11.3929H12.6282V13.7435Z" fill="#383641"/>
<path fill-rule="evenodd" clip-rule="evenodd" d="M19.6941 8.08941H16.3976C16.3349 8.08942 16.2729 8.07695 16.215 8.05275C16.1572 8.02854 16.1047 7.99307 16.0607 7.9484C16.0167 7.90374 15.982 7.85076 15.9587 7.79257C15.9353 7.73437 15.9238 7.67211 15.9247 7.60941V4.31294C15.9238 4.25024 15.9353 4.18798 15.9587 4.12978C15.982 4.07159 16.0167 4.01861 16.0607 3.97395C16.1047 3.92928 16.1572 3.89381 16.215 3.8696C16.2729 3.8454 16.3349 3.83293 16.3976 3.83294H19.6941C19.7568 3.83293 19.8189 3.8454 19.8768 3.8696C19.9346 3.89381 19.987 3.92928 20.0311 3.97395C20.0751 4.01861 20.1098 4.07159 20.1331 4.12978C20.1565 4.18798 20.168 4.25024 20.1671 4.31294V7.60941C20.168 7.67211 20.1565 7.73437 20.1331 7.79257C20.1098 7.85076 20.0751 7.90374 20.0311 7.9484C19.987 7.99307 19.9346 8.02854 19.8768 8.05275C19.8189 8.07695 19.7568 8.08942 19.6941 8.08941ZM19.2212 4.78588H16.8706V7.13647H19.2212V4.78588Z" fill="#383641"/>
<path fill-rule="evenodd" clip-rule="evenodd" d="M16.3977 14.6894H19.6941C19.8196 14.6894 19.9398 14.6396 20.0285 14.5509C20.1172 14.4622 20.1671 14.3419 20.1671 14.2165V10.9129C20.1671 10.7875 20.1172 10.6672 20.0285 10.5785C19.9398 10.4898 19.8196 10.44 19.6941 10.44H16.3977C16.2722 10.44 16.1519 10.4898 16.0632 10.5785C15.9745 10.6672 15.9247 10.7875 15.9247 10.9129V14.2165C15.9247 14.3419 15.9745 14.4622 16.0632 14.5509C16.1519 14.6396 16.2722 14.6894 16.3977 14.6894ZM16.8706 11.3929H19.2212V13.7435H16.8706V11.3929Z" fill="#383641"/>
<path fill-rule="evenodd" clip-rule="evenodd" d="M6.35294 0H23.2447C23.445 0 23.6371 0.0795754 23.7788 0.221221C23.9204 0.362866 24 0.554978 24 0.755294V23.2447C24 23.445 23.9204 23.6371 23.7788 23.7788C23.6371 23.9204 23.445 24 23.2447 24H0.755294C0.554978 24 0.362866 23.9204 0.221221 23.7788C0.0795754 23.6371 0 23.445 0 23.2447V8.62588C0 8.42557 0.0795754 8.23345 0.221221 8.09181C0.362866 7.95016 0.554978 7.87059 0.755294 7.87059H5.64706V0.755294C5.64831 0.563739 5.72162 0.379675 5.85242 0.239722C5.98322 0.0997685 6.16191 0.0141855 6.35294 0ZM1.51765 22.4824H5.64706V9.38824H1.51765V22.4824ZM12.4871 22.4824H17.1671L17.1388 18.1059H12.4871V22.4824ZM18.1341 22.4824H22.5106L22.4824 1.51765H7.13647V22.5106H11.5129V17.6471C11.5129 17.5834 11.5256 17.5204 11.5501 17.4617C11.5747 17.403 11.6107 17.3498 11.656 17.3051C11.7013 17.2605 11.7551 17.2253 11.8141 17.2016C11.8732 17.1778 11.9364 17.1661 12 17.1671H17.6471C17.7107 17.1661 17.7739 17.1778 17.8329 17.2016C17.892 17.2253 17.9457 17.2605 17.991 17.3051C18.0364 17.3498 18.0724 17.403 18.0969 17.4617C18.1215 17.5204 18.1341 17.5834 18.1341 17.6471V22.4824Z" fill="#383641"/>
</mask>
<g mask="url(#mask0_1_75)">
<rect width="24" height="24" fill="#383641"/>
</g>
</g>
<defs>
<clipPath id="clip0_1_75">
<rect width="24" height="24" fill="white"/>
</clipPath>
</defs>
</svg>
