<svg width="24" height="24" viewBox="0 0 24 24" fill="none" xmlns="http://www.w3.org/2000/svg">
<mask id="mask0_4384_150" style="mask-type:alpha" maskUnits="userSpaceOnUse" x="2" y="1" width="21" height="23">
<mask id="path-1-inside-1_4384_150" fill="white">
<path fill-rule="evenodd" clip-rule="evenodd" d="M11.6697 1.21968C11.9225 0.966884 12.3186 0.927664 12.616 1.12597C13.3576 1.62038 14.7265 2.38275 16.3692 3.01945C18.0158 3.65768 19.8876 4.15001 21.65 4.15001C22.0642 4.15001 22.4 4.4858 22.4 4.90001V11.2C22.4 16.2227 19.8707 19.3165 17.3641 21.1268C16.1183 22.0265 14.8768 22.6122 13.9484 22.9732C13.4831 23.1542 13.0936 23.2798 12.8174 23.3609C12.6792 23.4015 12.5691 23.431 12.4918 23.4508C12.4532 23.4606 12.4227 23.4681 12.401 23.4733L12.3751 23.4793L12.3672 23.4811L12.3645 23.4818L12.3635 23.482C12.3631 23.4821 12.3627 23.4822 12.2 22.75C12.0373 23.4822 12.0369 23.4821 12.0365 23.482L12.0355 23.4818L12.0328 23.4811L12.0249 23.4793L11.999 23.4733C11.9773 23.4681 11.9468 23.4606 11.9082 23.4508C11.8309 23.431 11.7208 23.4015 11.5826 23.3609C11.3064 23.2798 10.9169 23.1542 10.4516 22.9732C9.52321 22.6122 8.28171 22.0265 7.03588 21.1268C4.52929 19.3165 2 16.2227 2 11.2V4.90001C2 4.67252 2.10325 4.45733 2.2807 4.31498C2.45816 4.17263 2.69063 4.11852 2.9127 4.16787C3.57335 4.31468 4.9802 4.37578 6.63364 3.98625C8.27279 3.60008 10.1075 2.78185 11.6697 1.21968ZM12.2 22.75L12.0365 23.482C12.1437 23.5058 12.2563 23.5058 12.3635 23.482L12.2 22.75ZM12.2 21.9766C12.2532 21.9623 12.3185 21.9441 12.3947 21.9217C12.6353 21.8511 12.984 21.7388 13.4047 21.5752C14.2482 21.2472 15.3692 20.7172 16.4859 19.9108C18.7043 18.3086 20.9 15.6274 20.9 11.2V5.62526C19.1265 5.5103 17.3516 5.00896 15.8271 4.41807C14.3968 3.8637 13.1532 3.21725 12.2924 2.69615C10.597 4.22436 8.68125 5.04492 6.97761 5.44628C5.64762 5.75961 4.42221 5.82319 3.5 5.7574V11.2C3.5 15.6274 5.69571 18.3086 7.91412 19.9108C9.03078 20.7172 10.1518 21.2472 10.9953 21.5752C11.416 21.7388 11.7647 21.8511 12.0053 21.9217C12.0815 21.9441 12.1468 21.9623 12.2 21.9766Z"/>
<path d="M12.2004 5.95021L14.3556 9.28387L18.192 10.3034L15.6875 13.3833L15.9034 17.347L12.2004 15.9168L8.49734 17.347L8.71325 13.3833L6.20873 10.3034L10.0452 9.28387L12.2004 5.95021Z"/>
</mask>
<path d="M12.616 1.12597L13.4481 -0.122101L13.4481 -0.122101L12.616 1.12597ZM11.6697 1.21968L12.7303 2.28034V2.28034L11.6697 1.21968ZM16.3692 3.01945L15.8271 4.41807H15.8271L16.3692 3.01945ZM17.3641 21.1268L16.4859 19.9108L17.3641 21.1268ZM13.9484 22.9732L14.4921 24.3712L13.9484 22.9732ZM12.8174 23.3609L12.3947 21.9217L12.8174 23.3609ZM12.4918 23.4508L12.8632 24.9041H12.8632L12.4918 23.4508ZM12.401 23.4733L12.7436 24.9336L12.7488 24.9324L12.401 23.4733ZM12.3751 23.4793L12.7091 24.9417L12.7176 24.9397L12.3751 23.4793ZM12.3672 23.4811L12.6969 24.9445L12.7012 24.9435L12.3672 23.4811ZM12.3645 23.4818L12.6914 24.9457L12.6942 24.9451L12.3645 23.4818ZM12.3635 23.482L12.6889 24.9463L12.6904 24.9459L12.3635 23.482ZM12.2 22.75L13.6639 22.423C13.5108 21.7375 12.9024 21.25 12.2 21.25C11.4976 21.25 10.8892 21.7375 10.7361 22.423L12.2 22.75ZM12.0365 23.482L11.7096 24.9459L11.7111 24.9463L12.0365 23.482ZM12.0355 23.4818L11.7058 24.9451L11.7086 24.9457L12.0355 23.4818ZM12.0328 23.4811L11.6988 24.9435L11.7031 24.9445L12.0328 23.4811ZM12.0249 23.4793L11.6824 24.9397L11.6909 24.9417L12.0249 23.4793ZM11.999 23.4733L11.6512 24.9324L11.6565 24.9336L11.999 23.4733ZM11.9082 23.4508L11.5368 24.9041H11.5368L11.9082 23.4508ZM11.5826 23.3609L12.0053 21.9217L11.5826 23.3609ZM10.4516 22.9732L9.90793 24.3712L9.90793 24.3712L10.4516 22.9732ZM7.03588 21.1268L7.91412 19.9108H7.91412L7.03588 21.1268ZM2.2807 4.31498L3.2193 5.48504L3.2193 5.48504L2.2807 4.31498ZM2.9127 4.16787L2.5873 5.63215H2.5873L2.9127 4.16787ZM6.63364 3.98625L6.28967 2.52622L6.63364 3.98625ZM12.3947 21.9217L11.9721 20.4825L11.9721 20.4825L12.3947 21.9217ZM12.2 21.9766L11.8105 23.4251C12.0656 23.4937 12.3343 23.4937 12.5895 23.4251L12.2 21.9766ZM13.4047 21.5752L12.8611 20.1772H12.8611L13.4047 21.5752ZM16.4859 19.9108L15.6076 18.6947H15.6076L16.4859 19.9108ZM20.9 5.62526H22.4C22.4 4.8345 21.7861 4.17955 20.997 4.1284L20.9 5.62526ZM15.8271 4.41807L16.3692 3.01945H16.3692L15.8271 4.41807ZM12.2924 2.69615L13.0693 1.41297C12.5033 1.07032 11.7796 1.13898 11.2881 1.58197L12.2924 2.69615ZM6.97761 5.44628L6.63364 3.98625L6.97761 5.44628ZM3.5 5.7574L3.60674 4.2612C3.19143 4.23158 2.78249 4.3759 2.47777 4.65965C2.17306 4.9434 2 5.34103 2 5.7574H3.5ZM7.91412 19.9108L8.79235 18.6947H8.79235L7.91412 19.9108ZM10.9953 21.5752L11.5389 20.1772H11.5389L10.9953 21.5752ZM12.0053 21.9217L12.4279 20.4825L12.4279 20.4825L12.0053 21.9217ZM12.2004 5.95021L13.4601 5.13584C13.1837 4.70836 12.7094 4.45021 12.2004 4.45021C11.6914 4.45021 11.2171 4.70836 10.9407 5.13584L12.2004 5.95021ZM14.3556 9.28387L13.0959 10.0982C13.2983 10.4113 13.61 10.6378 13.9703 10.7336L14.3556 9.28387ZM18.192 10.3034L19.3558 11.2498C19.677 10.8548 19.7759 10.324 19.6186 9.83988C19.4613 9.35576 19.0693 8.98445 18.5773 8.85372L18.192 10.3034ZM15.6875 13.3833L14.5238 12.4369C14.2885 12.7261 14.1695 13.0926 14.1898 13.4648L15.6875 13.3833ZM15.9034 17.347L15.363 18.7463C15.8379 18.9297 16.3733 18.8597 16.7851 18.5605C17.1969 18.2613 17.4289 17.7737 17.4012 17.2654L15.9034 17.347ZM12.2004 15.9168L12.7408 14.5175C12.3931 14.3832 12.0077 14.3832 11.66 14.5175L12.2004 15.9168ZM8.49734 17.347L6.99956 17.2654C6.97188 17.7737 7.20385 18.2613 7.61567 18.5605C8.02748 18.8597 8.56293 18.9297 9.03777 18.7463L8.49734 17.347ZM8.71325 13.3833L10.211 13.4648C10.2313 13.0926 10.1122 12.7261 9.87702 12.4369L8.71325 13.3833ZM6.20873 10.3034L5.82348 8.85372C5.33153 8.98445 4.93945 9.35576 4.78215 9.83988C4.62485 10.324 4.7238 10.8548 5.04496 11.2498L6.20873 10.3034ZM10.0452 9.28387L10.4305 10.7336C10.7908 10.6378 11.1025 10.4113 11.3049 10.0982L10.0452 9.28387ZM13.4481 -0.122101C12.5557 -0.717034 11.3674 -0.599373 10.609 0.159023L12.7303 2.28034C12.4775 2.53314 12.0814 2.57236 11.784 2.37405L13.4481 -0.122101ZM16.9113 1.62084C15.3694 1.02322 14.0979 0.311128 13.4481 -0.122101L11.784 2.37405C12.6174 2.92964 14.0835 3.74228 15.8271 4.41807L16.9113 1.62084ZM21.65 2.65001C20.1428 2.65001 18.465 2.22304 16.9113 1.62084L15.8271 4.41807C17.5667 5.09233 19.6324 5.65001 21.65 5.65001V2.65001ZM23.9 4.90001C23.9 3.65737 22.8926 2.65001 21.65 2.65001V5.65001C21.2358 5.65001 20.9 5.31423 20.9 4.90001H23.9ZM23.9 11.2V4.90001H20.9V11.2H23.9ZM18.2424 22.3428C21.0366 20.3248 23.9 16.8185 23.9 11.2H20.9C20.9 15.6268 18.7049 18.3082 16.4859 19.9108L18.2424 22.3428ZM14.4921 24.3712C15.5054 23.9772 16.8674 23.3358 18.2424 22.3428L16.4859 19.9108C15.3692 20.7172 14.2482 21.2472 13.4047 21.5752L14.4921 24.3712ZM13.24 24.8002C13.5519 24.7086 13.9823 24.5695 14.4921 24.3712L13.4047 21.5752C12.984 21.7388 12.6353 21.8511 12.3947 21.9217L13.24 24.8002ZM12.8632 24.9041C12.9566 24.8802 13.0838 24.846 13.24 24.8002L12.3947 21.9217C12.2745 21.957 12.1816 21.9818 12.1204 21.9975L12.8632 24.9041ZM12.7488 24.9324C12.7781 24.9254 12.8165 24.916 12.8632 24.9041L12.1204 21.9975C12.0899 22.0053 12.0673 22.0108 12.0532 22.0141L12.7488 24.9324ZM12.7176 24.9397L12.7435 24.9336L12.0585 22.0129L12.0325 22.019L12.7176 24.9397ZM12.7012 24.9435L12.7091 24.9417L12.041 22.017L12.0331 22.0188L12.7012 24.9435ZM12.6942 24.9451L12.6969 24.9445L12.0374 22.0178L12.0348 22.0184L12.6942 24.9451ZM12.6904 24.9459L12.6914 24.9457L12.0376 22.0178L12.0366 22.018L12.6904 24.9459ZM10.7357 23.0754C10.817 23.4413 10.8581 23.6255 10.8788 23.7183C10.8889 23.7634 10.8952 23.791 10.8991 23.808C10.8998 23.8111 10.9048 23.833 10.911 23.8568C10.9129 23.8642 10.9168 23.8791 10.9222 23.8977C10.9258 23.9103 10.9387 23.9549 10.9596 24.0103C10.97 24.0381 10.9913 24.0924 11.0244 24.1579C11.0516 24.2118 11.1235 24.3484 11.2553 24.4929C11.405 24.6569 11.6751 24.8765 12.0782 24.9546C12.2626 24.9903 12.4199 24.9849 12.5285 24.9729C12.5808 24.9671 12.6228 24.9596 12.6484 24.9547C12.6584 24.9527 12.6733 24.9496 12.6783 24.9486C12.6832 24.9475 12.6882 24.9464 12.6882 24.9464L12.0388 22.0175C12.0017 22.0258 12.2984 21.9415 12.6487 22.0093C13.0519 22.0874 13.322 22.307 13.4716 22.471C13.6034 22.6155 13.6753 22.752 13.7025 22.8059C13.7355 22.8714 13.7567 22.9256 13.7672 22.9533C13.788 23.0086 13.8008 23.0528 13.8043 23.0651C13.8096 23.0833 13.8133 23.0976 13.8151 23.1044C13.8205 23.1253 13.8241 23.1416 13.8222 23.1333C13.8209 23.1274 13.8168 23.1093 13.8064 23.0628C13.7862 22.9727 13.7457 22.7909 13.6643 22.4246L10.7357 23.0754ZM11.7118 24.9464C11.7118 24.9464 11.7168 24.9475 11.7217 24.9486C11.7267 24.9496 11.7416 24.9527 11.7516 24.9547C11.7772 24.9596 11.8192 24.9671 11.8715 24.9729C11.9801 24.9849 12.1374 24.9903 12.3218 24.9546C12.7249 24.8765 12.995 24.6569 13.1447 24.4929C13.2765 24.3484 13.3484 24.2118 13.3756 24.1579C13.4087 24.0924 13.43 24.0381 13.4404 24.0103C13.4613 23.9549 13.4742 23.9103 13.4778 23.8977C13.4832 23.8791 13.4871 23.8642 13.489 23.8568C13.4952 23.833 13.5002 23.8111 13.5009 23.808C13.5048 23.791 13.5111 23.7634 13.5212 23.7183C13.5419 23.6255 13.583 23.4413 13.6643 23.0754L10.7357 22.4246C10.6543 22.7909 10.6138 22.9727 10.5936 23.0628C10.5832 23.1093 10.5791 23.1274 10.5778 23.1333C10.5759 23.1416 10.5795 23.1253 10.5849 23.1044C10.5867 23.0976 10.5904 23.0833 10.5957 23.0651C10.5992 23.0528 10.612 23.0086 10.6328 22.9533C10.6433 22.9256 10.6645 22.8714 10.6975 22.8059C10.7247 22.752 10.7966 22.6155 10.9284 22.471C11.078 22.307 11.3481 22.0874 11.7513 22.0093C12.1016 21.9415 12.3983 22.0258 12.3612 22.0175L11.7118 24.9464ZM11.7086 24.9457L11.7096 24.9459L12.3634 22.018L12.3624 22.0178L11.7086 24.9457ZM11.7031 24.9445L11.7058 24.9451L12.3652 22.0184L12.3626 22.0178L11.7031 24.9445ZM11.6909 24.9417L11.6988 24.9435L12.3669 22.0188L12.359 22.017L11.6909 24.9417ZM11.6565 24.9336L11.6824 24.9397L12.3675 22.019L12.3415 22.0129L11.6565 24.9336ZM11.5368 24.9041C11.5835 24.916 11.6219 24.9254 11.6512 24.9324L12.3468 22.0141C12.3327 22.0108 12.3101 22.0053 12.2796 21.9975L11.5368 24.9041ZM11.16 24.8002C11.3162 24.846 11.4434 24.8802 11.5368 24.9041L12.2796 21.9975C12.2184 21.9818 12.1255 21.957 12.0053 21.9217L11.16 24.8002ZM9.90793 24.3712C10.4177 24.5695 10.8481 24.7086 11.16 24.8002L12.0053 21.9217C11.7647 21.8511 11.416 21.7388 10.9953 21.5752L9.90793 24.3712ZM6.15765 22.3428C7.53264 23.3358 8.89464 23.9772 9.90793 24.3712L10.9953 21.5752C10.1518 21.2472 9.03079 20.7172 7.91412 19.9108L6.15765 22.3428ZM0.5 11.2C0.5 16.8185 3.36344 20.3248 6.15765 22.3428L7.91412 19.9108C5.69514 18.3082 3.5 15.6268 3.5 11.2H0.5ZM0.5 4.90001V11.2H3.5V4.90001H0.5ZM1.34211 3.14492C0.809758 3.57196 0.5 4.21754 0.5 4.90001H3.5C3.5 5.1275 3.39675 5.3427 3.2193 5.48504L1.34211 3.14492ZM3.23809 2.70359C2.57188 2.55554 1.87447 2.71788 1.34211 3.14492L3.2193 5.48504C3.04184 5.62739 2.80937 5.6815 2.5873 5.63215L3.23809 2.70359ZM6.28967 2.52622C4.82066 2.8723 3.64509 2.79404 3.23809 2.70359L2.5873 5.63215C3.50161 5.83533 5.13975 5.87926 6.97761 5.44628L6.28967 2.52622ZM10.609 0.159022C9.28244 1.48559 7.71577 2.19024 6.28967 2.52622L6.97761 5.44628C8.82981 5.00992 10.9326 4.07811 12.7303 2.28034L10.609 0.159022ZM10.7361 22.423L10.5726 23.155L13.5004 23.809L13.6639 23.077L10.7361 22.423ZM11.7111 24.9463C12.0326 25.0177 12.3674 25.0177 12.6889 24.9463L12.0381 22.0177C12.1452 21.9939 12.2548 21.9939 12.3619 22.0177L11.7111 24.9463ZM13.8274 23.155L13.6639 22.423L10.7361 23.077L10.8996 23.809L13.8274 23.155ZM11.9721 20.4825C11.9073 20.5015 11.8531 20.5166 11.8105 20.528L12.5895 23.4251C12.6532 23.408 12.7296 23.3867 12.8174 23.3609L11.9721 20.4825ZM12.8611 20.1772C12.4849 20.3235 12.1771 20.4223 11.9721 20.4825L12.8174 23.3609C13.0936 23.2798 13.4832 23.1542 13.9484 22.9732L12.8611 20.1772ZM15.6076 18.6947C14.6201 19.4079 13.6196 19.8822 12.8611 20.1772L13.9484 22.9732C14.8768 22.6122 16.1183 22.0265 17.3641 21.1268L15.6076 18.6947ZM19.4 11.2C19.4 15.0327 17.5372 17.3011 15.6076 18.6947L17.3641 21.1268C19.8713 19.316 22.4 16.222 22.4 11.2H19.4ZM19.4 5.62526V11.2H22.4V5.62526H19.4ZM15.285 5.81669C16.896 6.44111 18.8268 6.99403 20.803 7.12212L20.997 4.1284C19.4262 4.02658 17.8072 3.57682 16.3692 3.01945L15.285 5.81669ZM11.5156 3.97932C12.4457 4.5424 13.7676 5.22854 15.285 5.81669L16.3692 3.01945C15.0261 2.49887 13.8607 1.89211 13.0693 1.41297L11.5156 3.97932ZM7.32158 6.90631C9.22094 6.45884 11.379 5.53889 13.2967 3.81032L11.2881 1.58197C9.81499 2.90983 8.14157 3.631 6.63364 3.98625L7.32158 6.90631ZM3.39326 7.2536C4.46552 7.3301 5.84293 7.25466 7.32158 6.90631L6.63364 3.98625C5.45232 4.26455 4.3789 4.31629 3.60674 4.2612L3.39326 7.2536ZM5 11.2V5.7574H2V11.2H5ZM8.79235 18.6947C6.86276 17.3011 5 15.0327 5 11.2H2C2 16.222 4.52865 19.316 7.03588 21.1268L8.79235 18.6947ZM11.5389 20.1772C10.7804 19.8822 9.77985 19.4079 8.79235 18.6947L7.03588 21.1268C8.28172 22.0265 9.52322 22.6122 10.4516 22.9732L11.5389 20.1772ZM12.4279 20.4825C12.2229 20.4223 11.9151 20.3235 11.5389 20.1772L10.4516 22.9732C10.9168 23.1542 11.3064 23.2798 11.5826 23.3609L12.4279 20.4825ZM12.5895 20.528C12.547 20.5166 12.4927 20.5015 12.4279 20.4825L11.5826 23.3609C11.6703 23.3867 11.7467 23.408 11.8105 23.4251L12.5895 20.528ZM10.9407 6.76458L13.0959 10.0982L15.6152 8.46949L13.4601 5.13584L10.9407 6.76458ZM13.9703 10.7336L17.8068 11.7531L18.5773 8.85372L14.7408 7.83418L13.9703 10.7336ZM17.0283 9.35703L14.5238 12.4369L16.8513 14.3296L19.3558 11.2498L17.0283 9.35703ZM14.1898 13.4648L14.4057 17.4286L17.4012 17.2654L17.1853 13.3017L14.1898 13.4648ZM16.4439 15.9478L12.7408 14.5175L11.66 17.3161L15.363 18.7463L16.4439 15.9478ZM11.66 14.5175L7.95691 15.9478L9.03777 18.7463L12.7408 17.3161L11.66 14.5175ZM9.99512 17.4286L10.211 13.4648L7.21547 13.3017L6.99956 17.2654L9.99512 17.4286ZM9.87702 12.4369L7.37251 9.35703L5.04496 11.2498L7.54947 14.3296L9.87702 12.4369ZM6.59398 11.7531L10.4305 10.7336L9.65997 7.83418L5.82348 8.85372L6.59398 11.7531ZM11.3049 10.0982L13.4601 6.76458L10.9407 5.13584L8.78553 8.4695L11.3049 10.0982Z" fill="#383641" mask="url(#path-1-inside-1_4384_150)"/>
</mask>
<g mask="url(#mask0_4384_150)">
<rect width="24" height="24" fill="#383641"/>
</g>
</svg>
