<svg width="24" height="24" viewBox="0 0 24 24" fill="none" xmlns="http://www.w3.org/2000/svg">
<path fill-rule="evenodd" clip-rule="evenodd" d="M11.6697 1.21968C11.9225 0.966884 12.3186 0.927664 12.616 1.12597C13.3576 1.62038 14.7265 2.38275 16.3692 3.01945C18.0158 3.65768 19.8876 4.15001 21.65 4.15001C22.0642 4.15001 22.4 4.4858 22.4 4.90001V11.2C22.4 16.2227 19.8707 19.3165 17.3641 21.1268C16.1183 22.0265 14.8768 22.6122 13.9484 22.9732C13.4831 23.1542 13.0936 23.2798 12.8174 23.3609C12.6792 23.4015 12.5691 23.431 12.4918 23.4508C12.4532 23.4606 12.4227 23.4681 12.401 23.4733L12.3751 23.4793L12.3672 23.4811L12.3645 23.4818L12.3635 23.482C12.3635 23.482 12.3627 23.4822 12.2 22.75C12.0373 23.4822 12.0365 23.482 12.0365 23.482L12.0355 23.4818L12.0328 23.4811L12.0249 23.4793L11.999 23.4733C11.9773 23.4681 11.9468 23.4606 11.9082 23.4508C11.8309 23.431 11.7208 23.4015 11.5826 23.3609C11.3064 23.2798 10.9169 23.1542 10.4516 22.9732C9.52321 22.6122 8.28171 22.0265 7.03588 21.1268C4.52929 19.3165 2 16.2227 2 11.2V4.90001C2 4.67252 2.10325 4.45733 2.2807 4.31498C2.45816 4.17263 2.69063 4.11852 2.9127 4.16787C3.57335 4.31468 4.9802 4.37578 6.63364 3.98625C8.27279 3.60008 10.1075 2.78185 11.6697 1.21968ZM12.2 22.75L12.0365 23.482C12.1437 23.5058 12.2563 23.5058 12.3635 23.482L12.2 22.75ZM12.2 21.9766C12.2532 21.9623 12.3185 21.9441 12.3947 21.9217C12.6353 21.8511 12.984 21.7388 13.4047 21.5752C14.2482 21.2472 15.3692 20.7172 16.4859 19.9108C18.7043 18.3086 20.9 15.6274 20.9 11.2V5.62526C19.1265 5.5103 17.3516 5.00896 15.8271 4.41807C14.3968 3.8637 13.1532 3.21725 12.2924 2.69615C10.597 4.22436 8.68125 5.04492 6.97761 5.44628C5.64762 5.75961 4.42221 5.82319 3.5 5.7574V11.2C3.5 15.6274 5.69571 18.3086 7.91412 19.9108C9.03078 20.7172 10.1518 21.2472 10.9953 21.5752C11.416 21.7388 11.7647 21.8511 12.0053 21.9217C12.0815 21.9441 12.1468 21.9623 12.2 21.9766Z" fill="#383641"/>
<path fill-rule="evenodd" clip-rule="evenodd" d="M14.3556 9.28385L12.2004 5.9502L10.0452 9.28385L6.20874 10.3034L8.71325 13.3832L8.49735 17.347L12.2004 15.9168L15.9034 17.347L15.6875 13.3832L18.1921 10.3034L14.3556 9.28385ZM15.5644 11.1572L13.9703 10.7335C13.61 10.6378 13.2983 10.4113 13.0959 10.0982L12.2004 8.71306L11.3049 10.0982C11.1025 10.4113 10.7908 10.6378 10.4305 10.7335L8.83638 11.1572L9.87703 12.4369C10.1122 12.7261 10.2313 13.0926 10.211 13.4648L10.1213 15.1118L11.66 14.5175C12.0077 14.3832 12.3931 14.3832 12.7408 14.5175L14.2795 15.1118L14.1898 13.4648C14.1695 13.0926 14.2886 12.7261 14.5238 12.4369L15.5644 11.1572Z" fill="#383641"/>
</svg>
