<svg width="24" height="24" viewBox="0 0 24 24" fill="none" xmlns="http://www.w3.org/2000/svg">
<path fill-rule="evenodd" clip-rule="evenodd" d="M11.5456 3.21967C11.8385 2.92678 12.3134 2.92678 12.6063 3.21967L16.5405 7.1539C16.8334 7.44679 16.8334 7.92167 16.5405 8.21456C16.2476 8.50745 15.7727 8.50745 15.4798 8.21456L14.1938 6.92858L11.8299 9.29248L21.8064 19.1006C22.1017 19.391 22.1058 19.8658 21.8154 20.1612C21.525 20.4566 21.0501 20.4606 20.7547 20.1702L10.7692 10.3532L8.57372 12.5487L9.85971 13.8347C10.1526 14.1276 10.1526 14.6025 9.85971 14.8954C9.56682 15.1883 9.09195 15.1883 8.79905 14.8954L4.79059 10.8869C4.4977 10.594 4.4977 10.1191 4.79059 9.82624C5.08349 9.53334 5.55836 9.53334 5.85125 9.82624L7.51306 11.488L13.1332 5.86792L11.5456 4.28033C11.2527 3.98744 11.2527 3.51256 11.5456 3.21967ZM2 20.0758C2 19.6616 2.33579 19.3258 2.75 19.3258H14.15C14.5642 19.3258 14.9 19.6616 14.9 20.0758C14.9 20.49 14.5642 20.8258 14.15 20.8258H2.75C2.33579 20.8258 2 20.49 2 20.0758Z" fill="#383641"/>
</svg>
