<svg width="24" height="24" viewBox="0 0 24 24" fill="none" xmlns="http://www.w3.org/2000/svg">
<mask id="mask0_1_81" style="mask-type:alpha" maskUnits="userSpaceOnUse" x="1" y="3" width="22" height="19">
<path fill-rule="evenodd" clip-rule="evenodd" d="M10.9184 4.5H10.1091C10.1088 4.5 10.1095 4.5 10.1091 4.5L5.6374 4.5L8.02001 10.5519C8.05446 10.6394 8.07214 10.7326 8.07214 10.8266C8.07214 12.7796 6.48899 14.3627 4.53607 14.3627C2.58315 14.3627 1 12.7796 1 10.8266C1 10.7326 1.01769 10.6394 1.05214 10.5519L3.83823 3.47525C3.95113 3.18851 4.22793 3 4.5361 3L9.43878 3C9.43851 3 9.43905 3 9.43878 3L18.8008 3C19.109 3 19.3858 3.18851 19.4987 3.47525L22.2847 10.5519C22.3192 10.6394 22.3369 10.7326 22.3369 10.8266C22.3369 12.7795 20.7537 14.3627 18.8008 14.3627C16.8479 14.3627 15.2647 12.7795 15.2647 10.8266C15.2647 10.7326 15.2824 10.6394 15.3169 10.5519L17.6995 4.5L12.4184 4.5V19.9393H17.6863C18.1005 19.9393 18.4363 20.2751 18.4363 20.6893C18.4363 21.1035 18.1005 21.4393 17.6863 21.4393H5.87338C5.45917 21.4393 5.12338 21.1035 5.12338 20.6893C5.12338 20.2751 5.45917 19.9393 5.87338 19.9393H10.9184V4.5ZM18.8008 5.79732L20.8327 10.9583C20.7648 12.0214 19.8811 12.8627 18.8008 12.8627C17.7205 12.8627 16.8368 12.0214 16.7689 10.9583L18.8008 5.79732ZM4.53609 5.79732L6.56796 10.9583C6.50009 12.0214 5.61633 12.8627 4.53607 12.8627C3.45582 12.8627 2.57205 12.0214 2.50419 10.9583L4.53609 5.79732Z" fill="#383641"/>
</mask>
<g mask="url(#mask0_1_81)">
<rect width="24" height="24" fill="#383641"/>
</g>
</svg>
