<svg width="24" height="24" viewBox="0 0 24 24" fill="none" xmlns="http://www.w3.org/2000/svg">
<path fill-rule="evenodd" clip-rule="evenodd" d="M1 2H1.75C5.41643 2 7.85088 3.54226 9.36979 5.50073C10.7297 7.25425 11.337 9.31292 11.4999 10.8354H11.5001C11.663 9.31292 12.2703 7.25425 13.6302 5.50073C15.1491 3.54226 17.5836 2 21.25 2H22V2.75C22 4.30535 21.5139 6.61476 20.0398 8.55442C18.5385 10.5298 16.0558 12.061 12.2134 12.061H12.1222V18.1806C15.3566 18.2875 18.3752 19.2544 20.9546 20.8602C21.3062 21.0791 21.4138 21.5416 21.1949 21.8932C20.9759 22.2449 20.5134 22.3525 20.1618 22.1335C17.6544 20.5726 14.6945 19.6707 11.5216 19.6707C8.47915 19.6707 5.63268 20.4999 3.1933 21.9441C2.83687 22.1552 2.37686 22.0373 2.16583 21.6809C1.95481 21.3244 2.07268 20.8644 2.42911 20.6534C4.85135 19.2193 7.64148 18.3408 10.6222 18.193V12.06C6.87319 12.017 4.43993 10.5014 2.9602 8.55442C1.48606 6.61476 1 4.30535 1 2.75V2ZM9.94547 10.5325C9.74188 9.29672 9.21263 7.7457 8.18448 6.42C7.04417 4.94969 5.27141 3.72767 2.54489 3.52843C2.68135 4.76183 3.14512 6.31874 4.15444 7.6468C5.26051 9.10215 7.05699 10.3324 9.94547 10.5325ZM13.0545 10.5325C15.943 10.3324 17.7395 9.10215 18.8456 7.6468C19.8549 6.31874 20.3186 4.76183 20.4551 3.52843C17.7286 3.72767 15.9558 4.94969 14.8155 6.42C13.7874 7.7457 13.2581 9.29672 13.0545 10.5325Z" fill="#383641"/>
</svg>
