<svg width="24" height="24" viewBox="0 0 24 24" fill="none" xmlns="http://www.w3.org/2000/svg">
<path fill-rule="evenodd" clip-rule="evenodd" d="M11.7303 1.91188C12.2413 1.47944 12.9205 1.25 13.75 1.25C14.5682 1.25 15.2458 1.44592 15.7627 1.84238C16.2819 2.2406 16.5614 2.78154 16.6918 3.32497C16.8451 3.96364 16.8045 4.64829 16.6875 5.25H19.5C20.7444 5.25 21.5946 5.78532 22.1087 6.49927C22.5952 7.17498 22.75 7.96332 22.75 8.5V11.9999C22.75 12.2598 22.6154 12.5012 22.3943 12.6379C22.1732 12.7745 21.8971 12.787 21.6646 12.6707C20.7721 12.2245 20.0118 12.1825 19.5384 12.3797C19.1403 12.5456 18.75 12.9657 18.75 13.9999C18.75 14.4654 18.8845 14.7163 19.026 14.8639C19.1791 15.0238 19.4183 15.1426 19.7483 15.1976C20.0778 15.2526 20.4523 15.235 20.8034 15.1634C21.1612 15.0906 21.4374 14.9736 21.584 14.8759C21.8141 14.7224 22.11 14.7081 22.3539 14.8386C22.5978 14.9692 22.75 15.2233 22.75 15.4999V18.4999C22.75 19.8918 22.2573 20.8588 21.5528 21.4674C20.8755 22.0526 20.068 22.2499 19.5 22.2499H9C7.55556 22.2499 6.5804 21.6312 5.99135 20.8131C5.42984 20.0332 5.25 19.1199 5.25 18.4999V16.3183C3.40358 16.91 1.25 15.6908 1.25 13.4999C1.25 11.3091 3.40363 10.0899 5.25 10.6817V9.5C5.25 7.94471 5.7175 6.86485 6.40506 6.17179C7.07735 5.49412 7.89901 5.25 8.5 5.25H10.7937C10.6975 4.6923 10.6847 4.05366 10.8263 3.45293C10.9557 2.90366 11.2261 2.33862 11.7303 1.91188ZM12.2862 3.79707C12.1238 4.48634 12.2922 5.30739 12.4708 5.66459C12.5871 5.89708 12.5746 6.17319 12.438 6.3943C12.3013 6.61541 12.0599 6.75 11.8 6.75H8.5C8.26765 6.75 7.83931 6.85588 7.46994 7.22821C7.11584 7.58515 6.75 8.25529 6.75 9.5V12C6.75 12.3033 6.56727 12.5768 6.28701 12.6929C6.00676 12.809 5.68417 12.7448 5.46967 12.5303C4.39471 11.4554 2.75 12.2345 2.75 13.4999C2.75 14.7654 4.39464 15.5446 5.46967 14.4696C5.68417 14.2551 6.00676 14.1909 6.28701 14.307C6.56727 14.4231 6.75 14.6966 6.75 14.9999V18.4999C6.75 18.8799 6.87016 19.4665 7.20865 19.9367C7.5196 20.3685 8.04444 20.7499 9 20.7499H19.5C19.7653 20.7499 20.2078 20.6472 20.5722 20.3324C20.9094 20.041 21.25 19.508 21.25 18.4999V16.6009C21.2011 16.6124 21.1521 16.6232 21.1028 16.6333C20.6102 16.7336 20.0472 16.7681 19.5017 16.6772C18.9567 16.5864 18.3834 16.3615 17.9428 15.9016C17.4905 15.4294 17.25 14.7845 17.25 13.9999C17.25 12.534 17.8597 11.4542 18.9616 10.9951C19.6618 10.7033 20.4611 10.7074 21.25 10.9151V8.5C21.25 8.20335 21.1548 7.74168 20.8913 7.37573C20.6554 7.04802 20.2556 6.75 19.5 6.75H15.7C15.454 6.75 15.2237 6.62938 15.0836 6.4272C14.9434 6.22502 14.9114 5.96698 14.9978 5.73666C15.2253 5.12987 15.3825 4.29727 15.2332 3.67503C15.1636 3.38513 15.0369 3.17607 14.8498 3.03262C14.6605 2.88741 14.3318 2.75 13.75 2.75C13.2045 2.75 12.8899 2.89556 12.6994 3.05687C12.502 3.22388 12.363 3.47134 12.2862 3.79707Z" fill="#383641"/>
</svg>
