<svg width="24" height="24" viewBox="0 0 24 24" fill="none" xmlns="http://www.w3.org/2000/svg">
<g clip-path="url(#clip0_1_83)">
<mask id="mask0_1_83" style="mask-type:alpha" maskUnits="userSpaceOnUse" x="0" y="1" width="25" height="22">
<path d="M12.847 10.1577V11.5695C12.847 11.7941 12.7578 12.0096 12.5989 12.1684C12.4401 12.3273 12.2246 12.4165 12 12.4165C11.7753 12.4165 11.5599 12.3273 11.401 12.1684C11.2422 12.0096 11.1529 11.7941 11.1529 11.5695V10.1577H9.74116C9.51651 10.1577 9.30106 10.0685 9.1422 9.9096C8.98335 9.75074 8.8941 9.53529 8.8941 9.31064C8.8941 9.08598 8.98335 8.87053 9.1422 8.71168C9.30106 8.55282 9.51651 8.46358 9.74116 8.46358H11.1529V7.05181C11.1529 6.82716 11.2422 6.61171 11.401 6.45285C11.5599 6.294 11.7753 6.20475 12 6.20475C12.2246 6.20475 12.4401 6.294 12.5989 6.45285C12.7578 6.61171 12.847 6.82716 12.847 7.05181V8.46358H14.2588C14.4835 8.46358 14.6989 8.55282 14.8578 8.71168C15.0166 8.87053 15.1059 9.08598 15.1059 9.31064C15.1059 9.53529 15.0166 9.75074 14.8578 9.9096C14.6989 10.0685 14.4835 10.1577 14.2588 10.1577H12.847Z" fill="#383641"/>
<path fill-rule="evenodd" clip-rule="evenodd" d="M22.7678 4.44687C22.8315 4.55699 22.869 4.68022 22.8776 4.80711L24 18.1695C23.9972 18.2 23.9972 18.2307 24 18.2612V21.5789C24.0051 21.7152 23.9769 21.8507 23.9179 21.9737C23.8588 22.0967 23.7707 22.2035 23.6612 22.2848C23.555 22.3629 23.4324 22.4156 23.3027 22.4388C23.1729 22.4621 23.0396 22.4553 22.9129 22.4189C19.3576 21.4212 15.6916 20.871 12 20.7812C8.30839 20.871 4.64242 21.4212 1.08706 22.4189C0.960755 22.4562 0.827489 22.4635 0.697848 22.4403C0.568206 22.4171 0.44576 22.364 0.340235 22.2852C0.23471 22.2064 0.149013 22.1041 0.0899514 21.9864C0.0308899 21.8687 9.0622e-05 21.7388 0 21.6071V18.2824L1.12235 4.80711C1.13229 4.67974 1.17116 4.55631 1.23599 4.44622C1.30082 4.33613 1.3899 4.24228 1.49647 4.17181C1.65 4.072 5.14471 1.80005 12 1.80005C18.7417 1.80005 22.2325 3.99683 22.499 4.16454C22.504 4.16769 22.5079 4.17012 22.5106 4.17181C22.6162 4.24266 22.7042 4.33675 22.7678 4.44687ZM2.90118 5.3224L2.76706 5.38593L1.8 16.9483L2.19529 16.8071C5.34931 15.7205 8.6641 15.174 12 15.1906C15.3355 15.1717 18.6503 15.7158 21.8047 16.8L22.2 16.9412L21.2329 5.38593L21.0988 5.31534C20.0118 4.77181 16.9412 3.48711 12 3.48711C7.05882 3.48711 3.98824 4.77181 2.90118 5.3224ZM12 19.0942C15.3637 19.1412 18.7106 19.577 21.9741 20.393L22.3129 20.4706V18.8118L22.1435 18.7412C18.9075 17.4952 15.4676 16.8632 12 16.8777C8.53248 16.864 5.09271 17.496 1.85647 18.7412L1.68706 18.8118V20.4706L2.02588 20.4212C5.2883 19.5958 8.63525 19.1504 12 19.0942Z" fill="#383641"/>
</mask>
<g mask="url(#mask0_1_83)">
<rect width="24" height="24" fill="#383641"/>
</g>
</g>
<defs>
<clipPath id="clip0_1_83">
<rect width="24" height="24" fill="white"/>
</clipPath>
</defs>
</svg>
