<svg width="24" height="24" viewBox="0 0 24 24" fill="none" xmlns="http://www.w3.org/2000/svg">
<g clip-path="url(#clip0_1_91)">
<mask id="mask0_1_91" style="mask-type:alpha" maskUnits="userSpaceOnUse" x="2" y="-1" width="20" height="25">
<path fill-rule="evenodd" clip-rule="evenodd" d="M10.3303 15.8401C10.2318 15.8049 10.1418 15.7496 10.0659 15.6777C9.99066 15.607 9.93061 15.5217 9.88936 15.4271C9.8481 15.3324 9.8265 15.2304 9.82587 15.1272V13.1789C9.8297 13.0366 9.87645 12.8989 9.95998 12.7836C10.0137 12.7063 10.0841 12.6421 10.1659 12.5957C10.2478 12.5493 10.339 12.5218 10.4329 12.5154H12V11.1036C11.9965 11.0029 12.0145 10.9026 12.053 10.8095C12.0914 10.7163 12.1494 10.6325 12.223 10.5636C12.2965 10.4947 12.384 10.4424 12.4794 10.4101C12.5749 10.3779 12.6762 10.3664 12.7765 10.3766H14.3576C14.4931 10.3446 14.634 10.344 14.7697 10.3745C14.9055 10.4051 15.0325 10.4661 15.1412 10.553C15.2374 10.6577 15.3099 10.7818 15.3537 10.9171C15.3976 11.0523 15.4118 11.1954 15.3953 11.3366V11.4142C15.4097 11.5172 15.4097 11.6218 15.3953 11.7248V12.5789H16.8C16.8995 12.5669 17.0005 12.5762 17.0962 12.6062C17.1919 12.6363 17.28 12.6864 17.3548 12.7532C17.4296 12.8199 17.4894 12.9019 17.53 12.9936C17.5707 13.0852 17.5913 13.1845 17.5906 13.2848V15.1907C17.591 15.289 17.5708 15.3863 17.5315 15.4763C17.4921 15.5664 17.4343 15.6472 17.3619 15.7137C17.2895 15.7801 17.204 15.8307 17.1108 15.8622C17.0177 15.8937 16.9191 15.9054 16.8212 15.8966H15.4094V17.3083C15.4138 17.4059 15.3978 17.5034 15.3626 17.5945C15.3274 17.6856 15.2736 17.7685 15.2047 17.8377C15.1354 17.9066 15.0526 17.9604 14.9615 17.9957C14.8703 18.0309 14.7729 18.0468 14.6753 18.0424H12.7623C12.6504 18.0474 12.5389 18.0257 12.437 17.9791C12.3351 17.9324 12.2458 17.8622 12.1765 17.7742C12.0705 17.6274 12.025 17.4454 12.0494 17.266C12.0353 17.0073 12.0353 16.7481 12.0494 16.4895V15.8824H10.6376C10.5333 15.8898 10.4287 15.8753 10.3303 15.8401ZM12.2753 13.7436H12.127L11.0894 13.7719V14.6895H11.9435C12.2041 14.6653 12.4664 14.6653 12.727 14.6895C12.873 14.7101 13.0064 14.783 13.1025 14.8947C13.1986 15.0064 13.2508 15.1492 13.2494 15.2966V16.8001H14.1953V15.3107C14.1963 15.1908 14.2305 15.0735 14.2941 14.9719C14.3708 14.8583 14.4771 14.768 14.6016 14.7107C14.7261 14.6534 14.8639 14.6315 15 14.6472H16.3412V13.7366H14.8235C14.7121 13.7361 14.6029 13.7058 14.5073 13.6487C14.4117 13.5915 14.3331 13.5097 14.28 13.4119C14.2061 13.2606 14.1721 13.0929 14.1812 12.9248V11.5836H13.2635V12.7554C13.2794 12.889 13.2648 13.0245 13.2207 13.1516C13.1767 13.2787 13.1044 13.3942 13.0092 13.4893C12.9141 13.5845 12.7986 13.6568 12.6715 13.7008C12.5444 13.7449 12.4089 13.7595 12.2753 13.7436Z" fill="#383641"/>
<path fill-rule="evenodd" clip-rule="evenodd" d="M21.3953 4.54597C21.3953 4.56009 21.4024 4.58833 21.4024 4.58833V23.4001C21.4024 23.5592 21.3391 23.7118 21.2266 23.8244C21.1141 23.9369 20.9615 24.0001 20.8024 24.0001H5.20236C4.51277 24.0001 3.85132 23.7266 3.36305 23.2397C2.87477 22.7527 2.59952 22.092 2.59766 21.4024V2.59774C2.59952 1.90815 2.87477 1.24745 3.36305 0.760494C3.85132 0.273543 4.51277 8.84272e-05 5.20236 9.27085e-05H20.8024C20.9487 -0.0267631 21.0998 0.00170274 21.2263 0.0799641C21.3528 0.158225 21.4458 0.280701 21.4871 0.42362C21.5325 0.533466 21.5447 0.654227 21.5221 0.770926C21.4995 0.887624 21.4431 0.995124 21.36 1.08009C21.1519 1.28676 20.9868 1.53255 20.8741 1.80331C20.7614 2.07408 20.7034 2.36446 20.7034 2.65774C20.7034 2.95102 20.7614 3.2414 20.8741 3.51216C20.9868 3.78292 21.1519 4.02872 21.36 4.23538H21.3953V4.54597ZM19.673 1.20009H5.20236C4.82794 1.20009 4.46885 1.34883 4.20409 1.61359C3.93934 1.87834 3.7906 2.23743 3.7906 2.61186C3.7906 2.98628 3.93934 3.34537 4.20409 3.61012C4.46885 3.87488 4.82794 4.02362 5.20236 4.02362H19.673C19.4708 3.58041 19.3662 3.09897 19.3662 2.61186C19.3662 2.12474 19.4708 1.6433 19.673 1.20009ZM5.20236 22.8001H6.02119V5.20244H5.20236C4.70152 5.20224 4.21136 5.05764 3.7906 4.78597V21.3883C3.7906 21.7627 3.93934 22.1218 4.20409 22.3866C4.46885 22.6514 4.82794 22.8001 5.20236 22.8001ZM7.22119 22.8001H20.2024V5.20244H7.22119V22.8001Z" fill="#383641"/>
</mask>
<g mask="url(#mask0_1_91)">
<path d="M0 0H24V24H0V0Z" fill="#383641"/>
</g>
</g>
<defs>
<clipPath id="clip0_1_91">
<rect width="24" height="24" fill="white"/>
</clipPath>
</defs>
</svg>
