<svg width="24" height="24" viewBox="0 0 24 24" fill="none" xmlns="http://www.w3.org/2000/svg">
<mask id="mask0_1_88" style="mask-type:alpha" maskUnits="userSpaceOnUse" x="0" y="0" width="24" height="24">
<path fill-rule="evenodd" clip-rule="evenodd" d="M9.99534 16.1717H7.76475C7.68229 16.1717 7.60067 16.1552 7.52474 16.123C7.44882 16.0908 7.38015 16.0437 7.32284 15.9844C7.26553 15.9251 7.22075 15.8549 7.19116 15.7779C7.16157 15.701 7.14779 15.6188 7.15063 15.5364V12.7129C7.15063 12.6322 7.16652 12.5524 7.19738 12.4779C7.22824 12.4033 7.27348 12.3356 7.3305 12.2786C7.38753 12.2216 7.45523 12.1764 7.52974 12.1455C7.60425 12.1146 7.6841 12.0988 7.76475 12.0988H9.97416V9.86816C9.97323 9.78692 9.98842 9.70631 10.0189 9.63098C10.0493 9.55566 10.0944 9.48712 10.1515 9.42934C10.2086 9.37157 10.2767 9.3257 10.3516 9.2944C10.4266 9.2631 10.507 9.24698 10.5883 9.24699H13.4118C13.4954 9.24501 13.5786 9.26015 13.6562 9.29147C13.7338 9.32279 13.8041 9.36963 13.863 9.42912C13.9218 9.48861 13.9678 9.55949 13.9983 9.63741C14.0287 9.71534 14.043 9.79867 14.04 9.88228V12.0917H16.2777C16.4406 12.0917 16.5968 12.1564 16.7119 12.2716C16.8271 12.3867 16.8918 12.5429 16.8918 12.7058V15.5576C16.8918 15.7204 16.8271 15.8767 16.7119 15.9918C16.5968 16.107 16.4406 16.1717 16.2777 16.1717H14.0471V18.4023C14.0471 18.4829 14.0312 18.5628 14.0004 18.6373C13.9695 18.7118 13.9243 18.7795 13.8672 18.8365C13.8102 18.8936 13.7425 18.9388 13.668 18.9697C13.5935 19.0005 13.5136 19.0164 13.433 19.0164H10.6095C10.4466 19.0164 10.2904 18.9517 10.1752 18.8365C10.06 18.7214 9.99534 18.5652 9.99534 18.4023V16.1717ZM10.5883 13.3482H8.37887L8.34357 14.9152H10.5742C10.7377 14.9152 10.8946 14.9797 11.0109 15.0947C11.1272 15.2096 11.1935 15.3658 11.1953 15.5293V17.7882H12.7906V15.5505C12.7925 15.387 12.8588 15.2308 12.975 15.1158C13.0913 15.0009 13.2483 14.9364 13.4118 14.9364H15.6706V13.3199H13.44C13.2765 13.3199 13.1196 13.2555 13.0033 13.1405C12.887 13.0255 12.8207 12.8693 12.8189 12.7058V10.4823H11.2095V12.734C11.2076 12.8976 11.1413 13.0538 11.025 13.1687C10.9087 13.2837 10.7518 13.3482 10.5883 13.3482Z" fill="#383641"/>
<path fill-rule="evenodd" clip-rule="evenodd" d="M16.8988 4.98346H20.4706C21.3994 4.98339 22.2907 5.34942 22.9514 6.00218C23.6121 6.65494 23.9889 7.54182 24 8.47052V19.7646C24 20.7007 23.6282 21.5984 22.9663 22.2603C22.3044 22.9222 21.4066 23.294 20.4706 23.294H3.52941C2.59335 23.294 1.69563 22.9222 1.03374 22.2603C0.371848 21.5984 0 20.7007 0 19.7646V8.51287C0 7.57681 0.371848 6.67909 1.03374 6.0172C1.69563 5.3553 2.59335 4.98346 3.52941 4.98346H7.10118V3.03522C7.10118 2.41742 7.3466 1.82493 7.78345 1.38808C8.22029 0.95123 8.81279 0.705811 9.43059 0.705811H14.5694C14.8759 0.705809 15.1794 0.766294 15.4625 0.883799C15.7456 1.0013 16.0027 1.17352 16.2191 1.39057C16.4355 1.60763 16.6069 1.86525 16.7235 2.14869C16.8402 2.43212 16.8998 2.73578 16.8988 3.04228V4.98346ZM2.50588 21.8258L2.89412 22.0164V6.23287L2.50588 6.42346C2.12378 6.6123 1.80184 6.90386 1.57617 7.26543C1.3505 7.62701 1.23002 8.0443 1.22824 8.47052V19.7646C1.22739 20.1932 1.34663 20.6135 1.57245 20.9778C1.79827 21.3421 2.12163 21.6359 2.50588 21.8258ZM8.41772 2.62141C8.36315 2.75497 8.33554 2.89801 8.33647 3.04228V4.98346H15.6635V3.04228C15.6645 2.89801 15.6368 2.75497 15.5823 2.62141C15.5277 2.48785 15.4473 2.3664 15.3456 2.26406C15.2439 2.16171 15.123 2.08048 14.9897 2.02506C14.8565 1.96963 14.7137 1.9411 14.5694 1.9411H9.43059C9.28631 1.9411 9.14346 1.96963 9.01025 2.02506C8.87704 2.08048 8.75611 2.16171 8.65442 2.26406C8.55273 2.3664 8.47229 2.48785 8.41772 2.62141ZM4.12235 22.0587H19.8776V6.21169H4.12235V22.0587ZM22.4238 20.9697C22.6495 20.6081 22.77 20.1908 22.7718 19.7646V8.47052C22.7661 8.04791 22.6438 7.63509 22.4183 7.2776C22.1929 6.92012 21.873 6.63186 21.4941 6.44463L21.1059 6.25405V22.0023L21.4941 21.8117C21.8762 21.6228 22.1982 21.3313 22.4238 20.9697Z" fill="#383641"/>
</mask>
<g mask="url(#mask0_1_88)">
<rect width="24" height="24" fill="#383641"/>
</g>
</svg>
