<svg width="24" height="24" viewBox="0 0 24 24" fill="none" xmlns="http://www.w3.org/2000/svg">
<mask id="mask0_1_94" style="mask-type:alpha" maskUnits="userSpaceOnUse" x="1" y="3" width="22" height="19">
<path fill-rule="evenodd" clip-rule="evenodd" d="M20.15 19.95C20.7575 19.95 21.25 19.4575 21.25 18.85C21.25 18.2425 20.7575 17.75 20.15 17.75C19.5425 17.75 19.05 18.2425 19.05 18.85C19.05 19.4575 19.5425 19.95 20.15 19.95ZM20.15 21.45C21.5859 21.45 22.75 20.2859 22.75 18.85C22.75 17.4141 21.5859 16.25 20.15 16.25C18.7141 16.25 17.55 17.4141 17.55 18.85C17.55 20.2859 18.7141 21.45 20.15 21.45Z" fill="#383641"/>
<path fill-rule="evenodd" clip-rule="evenodd" d="M1 3.75C1 3.33579 1.33579 3 1.75 3H3.75C4.16421 3 4.5 3.33579 4.5 3.75C4.5 4.16421 4.16421 4.5 3.75 4.5H2.5V7.75C2.5 8.27729 2.68479 9.10138 3.2328 9.77793C3.75507 10.4227 4.65931 11 6.25 11C7.84069 11 8.74493 10.4227 9.2672 9.77793C9.81521 9.10138 10 8.27729 10 7.75V4.5H8.25C7.83579 4.5 7.5 4.16421 7.5 3.75C7.5 3.33579 7.83579 3 8.25 3H10.75C11.1642 3 11.5 3.33579 11.5 3.75V7.75C11.5 8.55605 11.2348 9.73195 10.4328 10.7221C9.71263 11.6112 8.60031 12.299 7 12.4628V17.249C7.00119 17.6164 7.12867 18.1944 7.49506 18.6631C7.83519 19.0982 8.42596 19.5 9.50397 19.5C10.8983 19.5 11.4451 18.9853 11.6983 18.5563C11.9924 18.058 12 17.4907 12 17.25V14.2565C11.9894 13.5962 12.2149 12.6593 12.9095 11.877C13.6285 11.0673 14.7811 10.5 16.4718 10.5C18.1627 10.5 19.3209 11.0672 20.0499 11.8712C20.7578 12.6518 21 13.589 21 14.25V16.75C21 17.1642 20.6642 17.5 20.25 17.5C19.8358 17.5 19.5 17.1642 19.5 16.75V14.25C19.5 13.911 19.3644 13.3482 18.9388 12.8788C18.5344 12.4328 17.8034 12 16.4718 12C15.1399 12 14.4221 12.4327 14.0312 12.873C13.6186 13.3377 13.4935 13.8966 13.4999 14.2359L13.5001 14.25L13.5 17.261C13.5001 17.5349 13.5005 18.454 12.9901 19.3187C12.4318 20.2647 11.3557 21 9.50397 21C7.98515 21 6.95025 20.4018 6.31327 19.5869C5.70287 18.806 5.50168 17.8847 5.5 17.252L5.5 17.25V12.4628C3.89969 12.299 2.78737 11.6112 2.0672 10.7221C1.26521 9.73195 1 8.55605 1 7.75V3.75Z" fill="#383641"/>
</mask>
<g mask="url(#mask0_1_94)">
<rect width="24" height="24" fill="#383641"/>
</g>
</svg>
