<svg width="24" height="24" viewBox="0 0 24 24" fill="none" xmlns="http://www.w3.org/2000/svg">
<path fill-rule="evenodd" clip-rule="evenodd" d="M10.4776 3.5C9.90566 3.5 9.5 3.93575 9.5 4.40024V6.1084H14V4.40024C14 3.93575 13.5943 3.5 13.0224 3.5H10.4776ZM15.5 6.1084V4.40024C15.5 3.0433 14.3573 2 13.0224 2H10.4776C9.14273 2 8 3.0433 8 4.40024V6.1084H4.68999C2.67939 6.1084 1 7.67914 1 9.68254V18.9258C1 20.9292 2.67939 22.4999 4.68999 22.4999H18.81C20.8195 22.4999 22.5 20.9303 22.5 18.9322V9.68254C22.5 7.67914 20.8206 6.1084 18.81 6.1084H15.5ZM4.68999 7.6084C3.45041 7.6084 2.5 8.56383 2.5 9.68254V18.9258C2.5 20.0445 3.45041 20.9999 4.68999 20.9999H18.81C20.0507 20.9999 21 20.0434 21 18.9322V9.68254C21 8.56383 20.0496 7.6084 18.81 7.6084H4.68999ZM9.59892 9.75C9.59892 9.33579 9.93471 9 10.3489 9H13.1511C13.5653 9 13.9011 9.33579 13.9011 9.75V11.5989H15.75C16.1642 11.5989 16.5 11.9347 16.5 12.3489V15.1511C16.5 15.5653 16.1642 15.9011 15.75 15.9011H13.9011V17.75C13.9011 18.1642 13.5653 18.5 13.1511 18.5H10.3489C9.93471 18.5 9.59892 18.1642 9.59892 17.75V15.9011H7.75C7.33579 15.9011 7 15.5653 7 15.1511V12.3489C7 11.9347 7.33579 11.5989 7.75 11.5989H9.59892V9.75ZM11.0989 10.5V12.3489C11.0989 12.7631 10.7631 13.0989 10.3489 13.0989H8.5V14.4011H10.3489C10.7631 14.4011 11.0989 14.7369 11.0989 15.1511V17H12.4011V15.1511C12.4011 14.7369 12.7369 14.4011 13.1511 14.4011H15V13.0989H13.1511C12.7369 13.0989 12.4011 12.7631 12.4011 12.3489V10.5H11.0989Z" fill="#383641"/>
</svg>
