<svg width="24" height="24" viewBox="0 0 24 24" fill="none" xmlns="http://www.w3.org/2000/svg">
<path fill-rule="evenodd" clip-rule="evenodd" d="M1.71002 4.53495C2.57966 3.76184 3.91464 3.83496 4.69128 4.70075L7.78706 8.15274H20.382C21.5474 8.15274 22.4998 9.08868 22.4998 10.2594C22.4998 11.4301 21.5474 12.3661 20.382 12.3661H19.9998V15H21.2498C21.664 15 21.9998 15.3358 21.9998 15.75C21.9998 16.1642 21.664 16.5 21.2498 16.5H20.9423C21.5285 16.9449 21.9081 17.6468 21.9081 18.4403C21.9081 19.7938 20.8036 20.8807 19.454 20.8807C18.1043 20.8807 16.9998 19.7938 16.9998 18.4403C16.9998 17.6468 17.3795 16.9449 17.9656 16.5H8.94235C9.52846 16.9449 9.90811 17.6468 9.90811 18.4403C9.90811 19.7938 8.8036 20.8807 7.45397 20.8807C6.10435 20.8807 4.99983 19.7938 4.99983 18.4403C4.99983 17.6468 5.37949 16.9449 5.9656 16.5H4.74978C4.33557 16.5 3.99978 16.1642 3.99978 15.75C3.99978 15.3358 4.33557 15 4.74978 15H6.49978V12.3661H5.91771L5.67842 12.1287L1.53882 7.51152C0.755596 6.63878 0.837811 5.30591 1.71002 4.53495ZM7.99978 12.3661V15H18.4998V12.3661H7.99978ZM3.57463 5.7023C3.35128 5.45338 2.96092 5.4296 2.70627 5.65633L2.70382 5.65852C2.45303 5.87985 2.42971 6.25853 2.65493 6.50937L6.56102 10.8661H20.382C20.7305 10.8661 20.9998 10.5902 20.9998 10.2594C20.9998 9.92858 20.7305 9.65274 20.382 9.65274H7.34082L7.02328 9.54776L3.57463 5.7023C3.57465 5.70232 3.57461 5.70228 3.57463 5.7023ZM7.45397 17.5C6.92126 17.5 6.49983 17.9267 6.49983 18.4403C6.49983 18.9539 6.92126 19.3807 7.45397 19.3807C7.98669 19.3807 8.40811 18.9539 8.40811 18.4403C8.40811 17.9267 7.98669 17.5 7.45397 17.5ZM19.454 17.5C18.9213 17.5 18.4998 17.9267 18.4998 18.4403C18.4998 18.9539 18.9213 19.3807 19.454 19.3807C19.9867 19.3807 20.4081 18.9539 20.4081 18.4403C20.4081 17.9267 19.9867 17.5 19.454 17.5Z" fill="#383641"/>
</svg>
