<svg width="24" height="24" viewBox="0 0 24 24" fill="none" xmlns="http://www.w3.org/2000/svg">
<mask id="mask0_1_86" style="mask-type:alpha" maskUnits="userSpaceOnUse" x="0" y="2" width="24" height="22">
<path d="M23.1318 7.81415H6.52949V5.37885C6.52765 5.22029 6.46385 5.06874 6.35172 4.95662C6.2396 4.84449 6.08805 4.78069 5.92949 4.77885H1.46831V3.36709C1.46831 3.20796 1.4051 3.05535 1.29257 2.94283C1.18005 2.8303 1.02744 2.76709 0.868311 2.76709C0.709181 2.76709 0.556568 2.8303 0.444046 2.94283C0.331525 3.05535 0.268311 3.20796 0.268311 3.36709V12.473C0.268311 12.6321 0.331525 12.7847 0.444046 12.8972C0.556568 13.0098 0.709181 13.073 0.868311 13.073H2.28008V17.9506H1.87772C1.79893 17.9506 1.72091 17.9661 1.64811 17.9963C1.57532 18.0264 1.50917 18.0706 1.45346 18.1264C1.39774 18.1821 1.35355 18.2482 1.32339 18.321C1.29324 18.3938 1.27772 18.4718 1.27772 18.5506C1.27792 18.6893 1.32791 18.8233 1.4186 18.9283C1.50929 19.0332 1.63464 19.1021 1.77184 19.1224L2.27302 19.2141L1.91302 19.5741C1.66342 19.8188 1.47825 20.1214 1.37405 20.4551C1.26984 20.7887 1.24983 21.1429 1.31581 21.4861C1.38178 21.8294 1.53168 22.1509 1.75214 22.4222C1.9726 22.6934 2.25676 22.9058 2.57928 23.0405C2.90179 23.1752 3.25263 23.228 3.6005 23.1941C3.94838 23.1603 4.28246 23.0408 4.57295 22.8465C4.86344 22.6521 5.10132 22.3889 5.26534 22.0803C5.42937 21.7716 5.51446 21.4272 5.51302 21.0777C5.52068 20.804 5.4741 20.5315 5.37597 20.2758C5.27784 20.0202 5.1301 19.7865 4.94125 19.5883L4.5036 19.1365H19.5318L19.0942 19.5883C18.9007 19.782 18.7474 20.012 18.6432 20.2652C18.5391 20.5184 18.486 20.7898 18.4871 21.0636C18.4857 21.4131 18.5708 21.7575 18.7348 22.0661C18.8988 22.3748 19.1367 22.638 19.4272 22.8324C19.7177 23.0267 20.0518 23.1461 20.3996 23.18C20.7475 23.2139 21.0984 23.1611 21.4209 23.0264C21.7434 22.8917 22.0276 22.6793 22.248 22.408C22.4685 22.1368 22.6184 21.8153 22.6843 21.472C22.7503 21.1288 22.7303 20.7746 22.6261 20.441C22.5219 20.1073 22.3367 19.8047 22.0871 19.56L21.7271 19.2L22.2283 19.1083C22.3655 19.088 22.4909 19.0191 22.5816 18.9141C22.6722 18.8092 22.7222 18.6752 22.7224 18.5365C22.7224 18.3774 22.6592 18.2248 22.5467 18.1122C22.4342 17.9997 22.2816 17.9365 22.1224 17.9365H21.713V13.0589H23.1248C23.2036 13.0589 23.2816 13.0433 23.3544 13.0132C23.4272 12.983 23.4933 12.9388 23.549 12.8831C23.6048 12.8274 23.649 12.7613 23.6791 12.6885C23.7093 12.6157 23.7248 12.5376 23.7248 12.4589V8.41415C23.7248 8.25623 23.6625 8.10468 23.5515 7.99236C23.4405 7.88004 23.2897 7.81601 23.1318 7.81415ZM1.46831 5.97885H5.32949V7.81415H1.46831V5.97885ZM3.39537 21.9812C3.21388 21.9812 3.03646 21.9274 2.88555 21.8266C2.73465 21.7257 2.61703 21.5824 2.54757 21.4147C2.47812 21.247 2.45995 21.0625 2.49535 20.8845C2.53076 20.7065 2.61816 20.543 2.74649 20.4147C2.87483 20.2863 3.03834 20.199 3.21635 20.1635C3.39435 20.1281 3.57886 20.1463 3.74654 20.2158C3.91422 20.2852 4.05753 20.4028 4.15836 20.5537C4.2592 20.7046 4.31302 20.8821 4.31302 21.0636C4.31302 21.3069 4.21634 21.5403 4.04424 21.7124C3.87215 21.8845 3.63874 21.9812 3.39537 21.9812ZM3.48713 17.9365V13.0589H20.513V17.9365H3.48713ZM20.6048 21.9812C20.4233 21.9812 20.2459 21.9274 20.095 21.8266C19.9441 21.7257 19.8264 21.5824 19.757 21.4147C19.6875 21.247 19.6694 21.0625 19.7048 20.8845C19.7402 20.7065 19.8276 20.543 19.9559 20.4147C20.0842 20.2863 20.2477 20.199 20.4258 20.1635C20.6038 20.1281 20.7883 20.1463 20.9559 20.2158C21.1236 20.2852 21.2669 20.4028 21.3678 20.5537C21.4686 20.7046 21.5224 20.8821 21.5224 21.0636C21.5224 21.3069 21.4257 21.5403 21.2537 21.7124C21.0816 21.8845 20.8482 21.9812 20.6048 21.9812ZM22.5318 11.8589H1.46831V9.03532H22.5318V11.8589Z" fill="#383641"/>
</mask>
<g mask="url(#mask0_1_86)">
<rect width="24" height="24" fill="#383641"/>
</g>
</svg>
