<svg width="24" height="24" viewBox="0 0 24 24" fill="none" xmlns="http://www.w3.org/2000/svg">
<mask id="mask0_1_88" style="mask-type:alpha" maskUnits="userSpaceOnUse" x="1" y="3" width="21" height="18">
<path fill-rule="evenodd" clip-rule="evenodd" d="M9.52406 9C9.52406 8.58579 9.85984 8.25 10.2741 8.25H12.7259C13.1402 8.25 13.4759 8.58579 13.4759 9V10.5241H15C15.4142 10.5241 15.75 10.8598 15.75 11.2741V13.7259C15.75 14.1402 15.4142 14.4759 15 14.4759H13.4759V16C13.4759 16.4142 13.1402 16.75 12.7259 16.75H10.2741C9.85984 16.75 9.52406 16.4142 9.52406 16V14.4759H8C7.58579 14.4759 7.25 14.1402 7.25 13.7259V11.2741C7.25 10.8598 7.58579 10.5241 8 10.5241H9.52406V9ZM11.0241 9.75V11.2741C11.0241 11.6883 10.6883 12.0241 10.2741 12.0241H8.75V12.9759H10.2741C10.6883 12.9759 11.0241 13.3117 11.0241 13.7259V15.25H11.9759V13.7259C11.9759 13.3117 12.3117 12.9759 12.7259 12.9759H14.25V12.0241H12.7259C12.3117 12.0241 11.9759 11.6883 11.9759 11.2741V9.75H11.0241Z" fill="#383641"/>
<path fill-rule="evenodd" clip-rule="evenodd" d="M1 18.9V4.6C1 3.71635 1.71634 3 2.6 3H9.19458C9.74624 3 10.259 3.28419 10.5514 3.752L11.6885 5.57143H20.4C21.2837 5.57143 22 6.28779 22 7.17143V18.9C22 19.7836 21.2837 20.5 20.4 20.5H2.6C1.71633 20.5 1 19.7836 1 18.9ZM2.5 4.6V18.9C2.5 18.9552 2.54477 19 2.6 19H20.4C20.4552 19 20.5 18.9552 20.5 18.9V7.17143C20.5 7.1162 20.4552 7.07143 20.4 7.07143H10.9126C10.8781 7.07143 10.846 7.05367 10.8278 7.02443L9.27938 4.547C9.2611 4.51776 9.22905 4.5 9.19458 4.5H2.6C2.54477 4.5 2.5 4.54477 2.5 4.6Z" fill="#383641"/>
</mask>
<g mask="url(#mask0_1_88)">
<rect width="24" height="24" fill="#383641"/>
</g>
</svg>
