<svg width="24" height="24" viewBox="0 0 24 24" fill="none" xmlns="http://www.w3.org/2000/svg">
<path fill-rule="evenodd" clip-rule="evenodd" d="M3 2.75C3 1.23122 4.23122 0 5.75 0H18.75C20.2688 0 21.5 1.23122 21.5 2.75V20.75C21.5 22.2688 20.2688 23.5 18.75 23.5H5.75C4.23122 23.5 3 22.2688 3 20.75V2.75ZM5.75 1.5C5.05964 1.5 4.5 2.05964 4.5 2.75V20.75C4.5 21.4404 5.05964 22 5.75 22H18.75C19.4404 22 20 21.4404 20 20.75V2.75C20 2.05964 19.4404 1.5 18.75 1.5H5.75ZM7.94919 3.75C7.94919 3.33579 8.28498 3 8.69919 3H10.8008C11.215 3 11.5508 3.33579 11.5508 3.75V4.94919H12.75C13.1642 4.94919 13.5 5.28498 13.5 5.69919V7.80081C13.5 8.21502 13.1642 8.55081 12.75 8.55081H11.5508V9.75C11.5508 10.1642 11.215 10.5 10.8008 10.5H8.69919C8.28498 10.5 7.94919 10.1642 7.94919 9.75V8.55081H6.75C6.33579 8.55081 6 8.21502 6 7.80081V5.69919C6 5.28498 6.33579 4.94919 6.75 4.94919H7.94919V3.75ZM9.44919 4.5V5.69919C9.44919 6.11341 9.11341 6.44919 8.69919 6.44919H7.5V7.05081H8.69919C9.11341 7.05081 9.44919 7.3866 9.44919 7.80081V9H10.0508V7.80081C10.0508 7.3866 10.3866 7.05081 10.8008 7.05081H12V6.44919H10.8008C10.3866 6.44919 10.0508 6.11341 10.0508 5.69919V4.5H9.44919ZM6 12.75C6 12.3358 6.33579 12 6.75 12H17.75C18.1642 12 18.5 12.3358 18.5 12.75C18.5 13.1642 18.1642 13.5 17.75 13.5H6.75C6.33579 13.5 6 13.1642 6 12.75ZM6 15.75C6 15.3358 6.33579 15 6.75 15H17.75C18.1642 15 18.5 15.3358 18.5 15.75C18.5 16.1642 18.1642 16.5 17.75 16.5H6.75C6.33579 16.5 6 16.1642 6 15.75ZM6 18.75C6 18.3358 6.33579 18 6.75 18H17.75C18.1642 18 18.5 18.3358 18.5 18.75C18.5 19.1642 18.1642 19.5 17.75 19.5H6.75C6.33579 19.5 6 19.1642 6 18.75Z" fill="#383641"/>
</svg>
