<svg width="24" height="24" viewBox="0 0 24 24" fill="none" xmlns="http://www.w3.org/2000/svg">
<mask id="mask0_1_96" style="mask-type:alpha" maskUnits="userSpaceOnUse" x="2" y="3" width="21" height="19">
<path fill-rule="evenodd" clip-rule="evenodd" d="M18.4151 3.76641C17.7896 3.27899 17.0217 3.00981 16.2288 3C15.0098 3 13.9365 3.62018 13.186 4.23103C12.8977 4.4657 12.657 4.69901 12.4739 4.89524C12.2909 4.69901 12.0502 4.4657 11.7619 4.23103C11.0113 3.62018 9.93809 3 8.71911 3C7.92618 3.00981 7.15827 3.27899 6.53276 3.76641C5.99507 4.1616 5.57651 4.69714 5.32291 5.31437C5.06932 5.9316 4.99046 6.60671 5.095 7.26576C5.4277 10.1294 8.24382 13.1356 12.2601 14.8824C12.3977 14.9355 12.5502 14.9355 12.6878 14.8824C16.7041 13.1356 19.5202 10.1294 19.8529 7.26576C19.9574 6.60671 19.8786 5.9316 19.625 5.31437C19.3714 4.69714 18.9528 4.1616 18.4151 3.76641ZM12.4739 13.3337C16.0362 11.6738 18.128 9.11468 18.3629 7.09266L18.3665 7.06164L18.3714 7.03079C18.4328 6.64362 18.3865 6.24702 18.2375 5.88443C18.0885 5.52183 17.8426 5.20722 17.5268 4.97507L17.5098 4.96257L17.4931 4.9496C17.1285 4.6655 16.6815 4.50775 16.2195 4.50002C15.1891 4.50466 14.1633 5.28323 13.5708 5.91838L12.4739 7.09433L11.377 5.91838C10.7846 5.28323 9.75881 4.50466 8.72835 4.50002C8.26637 4.50775 7.81934 4.6655 7.45475 4.9496L7.4381 4.96257L7.4211 4.97507C7.10524 5.20722 6.85935 5.52183 6.71037 5.88443C6.56139 6.24702 6.51507 6.64362 6.57648 7.03079L6.58137 7.06164L6.58497 7.09266C6.8199 9.11468 8.91168 11.6738 12.4739 13.3337Z" fill="#383641"/>
<path fill-rule="evenodd" clip-rule="evenodd" d="M2.67543 9.00372C3.08759 8.96251 3.45512 9.26321 3.49633 9.67537C3.68606 11.5726 5.22136 12.9898 7.02273 14.4925C7.10978 14.5651 7.1975 14.638 7.28556 14.7112C8.06312 15.3575 8.86803 16.0265 9.48887 16.726C10.1848 17.51 10.747 18.4369 10.747 19.55V20.65C10.747 21.0642 10.4112 21.4 9.99701 21.4C9.5828 21.4 9.24701 21.0642 9.24701 20.65V19.55C9.24701 18.971 8.95962 18.3893 8.36704 17.7217C7.82673 17.113 7.11397 16.5199 6.3169 15.8567C6.23278 15.7867 6.14773 15.716 6.06184 15.6443C4.35223 14.2181 2.26405 12.4274 2.00378 9.82463C1.96256 9.41247 2.26327 9.04494 2.67543 9.00372ZM22.1091 9.05237C22.522 9.08493 22.8303 9.44607 22.7978 9.859C22.5982 12.39 20.7448 14.1822 19.2107 15.627C19.1395 15.694 19.069 15.7602 18.9992 15.8258C18.2806 16.501 17.6379 17.105 17.1511 17.7236C16.6239 18.3936 16.3531 18.9925 16.3531 19.6V20.7001C16.3531 21.1143 16.0174 21.4501 15.6031 21.4501C15.1889 21.4501 14.8531 21.1143 14.8531 20.7001V19.6C14.8531 18.5155 15.3449 17.5933 15.9723 16.796C16.5333 16.0831 17.2612 15.3998 17.9607 14.7432C18.035 14.6735 18.109 14.6041 18.1823 14.535C19.7849 13.0258 21.1551 11.6101 21.3024 9.74109C21.335 9.32816 21.6961 9.01981 22.1091 9.05237Z" fill="#383641"/>
</mask>
<g mask="url(#mask0_1_96)">
<rect width="24" height="24" fill="#383641"/>
</g>
</svg>
