<svg width="24" height="24" viewBox="0 0 24 24" fill="none" xmlns="http://www.w3.org/2000/svg">
<mask id="mask0_39_18" style="mask-type:alpha" maskUnits="userSpaceOnUse" x="1" y="4" width="22" height="17">
<path fill-rule="evenodd" clip-rule="evenodd" d="M2.24927 4.89135C2.92498 4.40484 3.71332 4.25 4.25 4.25H13.25C13.6642 4.25 14 4.58579 14 5C14 5.41421 13.6642 5.75 13.25 5.75H4.25C3.95335 5.75 3.49168 5.84516 3.12573 6.10865C2.79802 6.3446 2.5 6.74444 2.5 7.5V16C2.5 16.2966 2.59516 16.7583 2.85865 17.1243C3.0946 17.452 3.49444 17.75 4.25 17.75H13.25C13.6642 17.75 14 18.0858 14 18.5C14 18.9142 13.6642 19.25 13.25 19.25H4.25C3.00556 19.25 2.1554 18.7147 1.64135 18.0007C1.15484 17.325 1 16.5367 1 16V7.5C1 6.25556 1.53532 5.4054 2.24927 4.89135ZM5 10C5 9.58579 5.33579 9.25 5.75 9.25H12.75C13.1642 9.25 13.5 9.58579 13.5 10C13.5 10.4142 13.1642 10.75 12.75 10.75H5.75C5.33579 10.75 5 10.4142 5 10ZM5 14C5 13.5858 5.33579 13.25 5.75 13.25H13.75C14.1642 13.25 14.5 13.5858 14.5 14C14.5 14.4142 14.1642 14.75 13.75 14.75H5.75C5.33579 14.75 5 14.4142 5 14Z" fill="#383641"/>
<path fill-rule="evenodd" clip-rule="evenodd" d="M18.75 10.5C20.1307 10.5 21.25 9.38071 21.25 8C21.25 6.61929 20.1307 5.5 18.75 5.5C17.3693 5.5 16.25 6.61929 16.25 8C16.25 9.38071 17.3693 10.5 18.75 10.5ZM18.75 12C20.9591 12 22.75 10.2091 22.75 8C22.75 5.79086 20.9591 4 18.75 4C16.5409 4 14.75 5.79086 14.75 8C14.75 10.2091 16.5409 12 18.75 12Z" fill="#383641"/>
<path fill-rule="evenodd" clip-rule="evenodd" d="M18.5353 12.5L17.0033 18.3281L17.7155 18.0044C18.3728 17.7056 19.1272 17.7056 19.7845 18.0044L20.4967 18.3281L18.9648 12.5H18.5353ZM18.1497 11C17.6953 11 17.2981 11.3063 17.1826 11.7458L15.2851 18.9645C15.0708 19.7795 15.8989 20.4778 16.666 20.1291L18.3362 19.3699C18.5991 19.2504 18.9009 19.2504 19.1638 19.3699L20.834 20.1291C21.6012 20.4778 22.4292 19.7795 22.215 18.9645L20.3175 11.7458C20.202 11.3063 19.8047 11 19.3503 11H18.1497Z" fill="#383641"/>
</mask>
<g mask="url(#mask0_39_18)">
<rect width="24" height="24" fill="#383641"/>
</g>
</svg>
