<svg width="24" height="24" viewBox="0 0 24 24" fill="none" xmlns="http://www.w3.org/2000/svg">
<mask id="mask0_3261_3541" style="mask-type:alpha" maskUnits="userSpaceOnUse" x="2" y="2" width="20" height="20">
<path fill-rule="evenodd" clip-rule="evenodd" d="M19.2331 7.25156C17.2856 3.68103 13.241 3.28994 11.4252 3.56929C8.73443 3.98321 6.40919 5.75919 4.96776 7.68112C4.24894 8.63956 3.78235 9.59238 3.5937 10.3713C3.39576 11.1886 3.54197 11.6107 3.71263 11.7814C4.09609 12.1649 4.56933 12.1817 5.29571 12.2076C5.37015 12.2102 5.44725 12.213 5.52718 12.2162C5.87542 12.2304 6.41003 12.2602 6.84256 12.554C7.35702 12.9034 7.54511 13.4736 7.54511 14.1181C7.54511 14.7529 7.33724 15.2355 7.01174 15.6153C6.75581 15.9138 6.42638 16.1413 6.18507 16.308C6.15385 16.3295 6.12412 16.3501 6.0962 16.3696C5.81829 16.5641 5.63436 16.7116 5.50501 16.897C5.38997 17.0619 5.2871 17.3037 5.2871 17.7309C5.2871 18.0865 5.61727 18.883 6.74318 19.4625C7.84114 20.0276 9.68128 20.3596 12.4973 19.7097C15.1902 19.0883 17.5112 17.1033 18.8374 14.6631C20.1653 12.2198 20.4321 9.44965 19.2331 7.25156ZM11.1971 2.08673C13.2952 1.76395 18.1621 2.15563 20.55 6.53328C22.0606 9.3028 21.6499 12.6293 20.1554 15.3794C18.659 18.1327 16.0124 20.438 12.8346 21.1713C9.77975 21.8763 7.55548 21.5676 6.05674 20.7962C4.58594 20.0392 3.7871 18.8034 3.7871 17.7309C3.7871 17.0291 3.96649 16.4807 4.27482 16.0387C4.56885 15.6173 4.94942 15.3414 5.23601 15.1408C5.26576 15.1199 5.29432 15.1 5.32175 15.0809C5.59008 14.8936 5.75096 14.7813 5.87285 14.6391C5.97073 14.5249 6.04511 14.3866 6.04511 14.1181C6.04511 13.9307 6.01825 13.8406 6.00412 13.807C6.00128 13.8003 5.999 13.7959 5.99753 13.7933C5.96164 13.7705 5.84396 13.7303 5.46633 13.715C5.40182 13.7124 5.32981 13.711 5.2515 13.7095C4.59187 13.6967 3.4851 13.6752 2.65197 12.842C1.91943 12.1095 1.89629 11.0074 2.13584 10.0183C2.38468 8.99081 2.96242 7.85493 3.76775 6.78113C5.37463 4.63859 8.01701 2.57592 11.1971 2.08673Z" fill="#383641"/>
<path fill-rule="evenodd" clip-rule="evenodd" d="M9.16698 10.2377C9.54404 10.1904 10.0125 9.98495 10.4265 9.57095C10.8405 9.15695 11.046 8.68845 11.0933 8.31139C11.1403 7.93684 11.0324 7.733 10.9352 7.63582C10.838 7.53863 10.6342 7.43075 10.2596 7.47772C9.88257 7.525 9.41408 7.73049 9.00008 8.14449C8.58608 8.55849 8.38059 9.02699 8.33331 9.40405C8.28634 9.7786 8.39422 9.98244 8.4914 10.0796C8.58859 10.1768 8.79242 10.2847 9.16698 10.2377ZM7.43074 11.1403C8.41043 12.12 10.2266 11.8922 11.4872 10.6316C12.7478 9.37098 12.9756 7.55485 11.9959 6.57516C11.0162 5.59547 9.20005 5.82321 7.93942 7.08383C6.6788 8.34446 6.45105 10.1606 7.43074 11.1403Z" fill="#383641"/>
<path d="M18.5375 9.82816C18.5375 10.7011 17.8298 11.4088 16.9569 11.4088C16.0839 11.4088 15.3763 10.7011 15.3763 9.82816C15.3763 8.95522 16.0839 8.24756 16.9569 8.24756C17.8298 8.24756 18.5375 8.95522 18.5375 9.82816Z" fill="#383641"/>
<path d="M16.7308 14.3438C16.7308 15.2167 16.0232 15.9244 15.1502 15.9244C14.2773 15.9244 13.5696 15.2167 13.5696 14.3438C13.5696 13.4708 14.2773 12.7632 15.1502 12.7632C16.0232 12.7632 16.7308 13.4708 16.7308 14.3438Z" fill="#383641"/>
<path d="M12.2152 17.0537C12.2152 17.9267 11.5076 18.6344 10.6346 18.6344C9.76168 18.6344 9.05402 17.9267 9.05402 17.0537C9.05402 16.1808 9.76168 15.4731 10.6346 15.4731C11.5076 15.4731 12.2152 16.1808 12.2152 17.0537Z" fill="#383641"/>
</mask>
<g mask="url(#mask0_3261_3541)">
<rect width="24" height="24" fill="#383641"/>
</g>
</svg>
