<svg width="24" height="24" viewBox="0 0 24 24" fill="none" xmlns="http://www.w3.org/2000/svg">
<mask id="mask0_3261_3541" style="mask-type:alpha" maskUnits="userSpaceOnUse" x="0" y="0" width="23" height="23">
<path fill-rule="evenodd" clip-rule="evenodd" d="M8.46312 4.18066C6.20252 5.48288 4.59313 7.59211 3.79598 9.05343L3.79123 9.06213L3.78632 9.07073C2.70551 10.9619 2.98982 11.7127 3.15861 11.9467C3.38785 12.2645 3.95341 12.4633 4.56707 12.4249C5.39329 12.3733 6.02192 12.4385 6.51148 12.6425C7.06528 12.8732 7.32046 13.2323 7.45802 13.4387L7.47122 13.4585L7.48346 13.4789C8.05553 14.4322 7.8957 15.4163 7.47449 16.1851C7.0714 16.9209 6.40529 17.5289 5.75459 17.9627C5.3948 18.2025 5.29714 18.3948 5.26734 18.49C5.23728 18.586 5.23536 18.7142 5.30943 18.901C5.47481 19.318 5.9171 19.7542 6.26674 19.9697C8.91389 21.3863 11.4406 21.1799 13.5773 20.3236C15.7357 19.4586 17.4619 17.9376 18.3781 16.8122C20.9642 13.1365 21.187 10.2641 20.5689 8.21772C19.935 6.11915 18.3599 4.69333 17.0327 4.05753C13.5302 2.37963 10.6696 2.90963 8.46312 4.18066ZM7.46482 2.44763C10.191 0.877205 13.7481 0.266392 17.8968 2.25382C19.6417 3.08974 21.6606 4.91522 22.4834 7.63942C23.3205 10.4108 22.8655 13.9236 19.9931 17.9925L19.9744 18.019L19.954 18.0442C18.8684 19.3882 16.8676 21.1596 14.3213 22.18C11.7435 23.2132 8.57382 23.4834 5.29632 21.7188L5.27585 21.7077L5.25592 21.6958C4.65748 21.3368 3.82877 20.5926 3.45031 19.6383C3.25102 19.1359 3.15996 18.5273 3.35868 17.8925C3.55767 17.2568 4.00672 16.7242 4.64526 16.2986C5.1354 15.9718 5.5246 15.5817 5.72047 15.2242C5.89251 14.9101 5.8819 14.7086 5.77905 14.526C5.76835 14.5104 5.76151 14.5009 5.75745 14.4955C5.75398 14.4938 5.74902 14.4915 5.74226 14.4887C5.66139 14.455 5.38682 14.3776 4.69183 14.421C3.78427 14.4778 2.3532 14.2488 1.5366 13.1168C0.660736 11.9026 0.848268 10.1847 2.04498 8.08696C2.96081 6.41132 4.79737 3.98421 7.46482 2.44763Z" fill="#383641"/>
<path d="M12.7994 17.4973C12.7994 18.4919 11.9931 19.2983 10.9984 19.2983C10.0037 19.2983 9.19733 18.4919 9.19733 17.4973C9.19733 16.5026 10.0037 15.6962 10.9984 15.6962C11.9931 15.6962 12.7994 16.5026 12.7994 17.4973Z" fill="#383641"/>
<path d="M17.3024 14.7956C17.3024 15.7903 16.4961 16.5967 15.5014 16.5967C14.5067 16.5967 13.7003 15.7903 13.7003 14.7956C13.7003 13.8009 14.5067 12.9946 15.5014 12.9946C16.4961 12.9946 17.3024 13.8009 17.3024 14.7956Z" fill="#383641"/>
<path d="M19.1504 10.2456C19.1504 11.2403 18.3441 12.0466 17.3494 12.0466C16.3547 12.0466 15.5483 11.2403 15.5483 10.2456C15.5483 9.25087 16.3547 8.44451 17.3494 8.44451C18.3441 8.44451 19.1504 9.25087 19.1504 10.2456Z" fill="#383641"/>
<path fill-rule="evenodd" clip-rule="evenodd" d="M8.91325 10.5826C9.23997 10.5909 9.68467 10.4746 10.113 10.1468C10.5413 9.81895 10.7698 9.42008 10.8471 9.10253C10.9232 8.78981 10.8454 8.63928 10.8031 8.58411C10.7609 8.52893 10.636 8.41445 10.3142 8.40624C9.9875 8.39789 9.54279 8.51425 9.11446 8.84207C8.68613 9.16989 8.45764 9.56876 8.38035 9.88631C8.30423 10.199 8.38209 10.3496 8.42432 10.4047C8.46654 10.4599 8.59151 10.5744 8.91325 10.5826ZM6.83609 11.6203C7.78315 12.8577 9.79449 12.9091 11.3285 11.735C12.8626 10.5609 13.3384 8.606 12.3914 7.36857C11.4443 6.13113 9.43297 6.07977 7.89892 7.25384C6.36487 8.42792 5.88903 10.3828 6.83609 11.6203Z" fill="#383641"/>
</mask>
<g mask="url(#mask0_3261_3541)">
<rect width="24" height="24" fill="#383641"/>
</g>
</svg>
