<svg width="24" height="24" viewBox="0 0 24 24" fill="none" xmlns="http://www.w3.org/2000/svg">
<mask id="mask0_4368_2606" style="mask-type:alpha" maskUnits="userSpaceOnUse" x="4" y="1" width="16" height="22">
<path fill-rule="evenodd" clip-rule="evenodd" d="M11.5735 2.5C8.2192 2.5 5.5 5.2192 5.5 8.57351C5.5 10.8507 6.75319 12.8351 8.60751 13.8748C8.61314 13.8778 8.61872 13.881 8.62425 13.8841C9.49753 14.3702 10.5032 14.647 11.5735 14.647C12.7746 14.647 13.8942 14.2984 14.8367 13.6968C14.8427 13.6929 14.8487 13.689 14.8547 13.6853C16.5344 12.6048 17.647 10.7191 17.647 8.57351C17.647 5.2192 14.9278 2.5 11.5735 2.5ZM16.054 14.6802C17.9296 13.3017 19.147 11.0798 19.147 8.57351C19.147 4.39078 15.7562 1 11.5735 1C7.39078 1 4 4.39078 4 8.57351C4 11.2224 5.35993 13.5537 7.4197 14.9073L6.11169 22.0861C6.0597 22.3714 6.17687 22.6611 6.41257 22.8301C6.64827 22.999 6.96026 23.017 7.21377 22.8761L11.5735 20.4541L15.9332 22.8761C16.181 23.0138 16.4853 23 16.7196 22.8405C16.9539 22.6809 17.0782 22.4029 17.041 22.1219L16.054 14.6802ZM14.6491 15.4965C13.7093 15.9146 12.6685 16.147 11.5735 16.147C10.5995 16.147 9.66837 15.9631 8.81304 15.6282L7.87168 20.7947L11.2093 18.9405C11.4358 18.8146 11.7112 18.8146 11.9377 18.9405L15.3579 20.8406L14.6491 15.4965Z" fill="#383641"/>
</mask>
<g mask="url(#mask0_4368_2606)">
<rect width="24" height="24" fill="#383641"/>
</g>
</svg>
