<svg width="24" height="24" viewBox="0 0 24 24" fill="none" xmlns="http://www.w3.org/2000/svg">
<mask id="mask0_512_1034" style="mask-type:alpha" maskUnits="userSpaceOnUse" x="5" y="1" width="14" height="22">
<path fill-rule="evenodd" clip-rule="evenodd" d="M12 1C8.13401 1 5 4.13401 5 8C5 10.3799 6.18769 12.4824 8.00269 13.7472C7.99035 13.7929 7.98112 13.8401 7.97526 13.8885L7.00726 21.8797C6.96043 22.2663 7.14228 22.6449 7.4733 22.85C7.80432 23.0551 8.22429 23.0494 8.54962 22.8354L12 20.5654L15.4504 22.8354C15.7757 23.0494 16.1956 23.0551 16.5266 22.8501C16.8577 22.645 17.0395 22.2664 16.9928 21.8799L16.0248 13.8799C16.0192 13.834 16.0106 13.7893 15.9993 13.7458C17.8132 12.4809 19 10.3791 19 8C19 4.13401 15.866 1 12 1ZM7 8C7 5.23858 9.23858 3 12 3C14.7614 3 17 5.23858 17 8C17 10.7614 14.7614 13 12 13C9.23858 13 7 10.7614 7 8ZM14.1067 14.6774C13.4418 14.887 12.7341 15 12 15C11.2662 15 10.5589 14.8871 9.89427 14.6777L9.25209 19.9792L11.4504 18.533C11.7839 18.3135 12.2161 18.3135 12.5496 18.533L14.7482 19.9794L14.1067 14.6774Z" fill="#383641"/>
</mask>
<g mask="url(#mask0_512_1034)">
<rect width="24" height="24" fill="#383641"/>
</g>
</svg>
