<svg width="24" height="24" viewBox="0 0 24 24" fill="none" xmlns="http://www.w3.org/2000/svg">
<path fill-rule="evenodd" clip-rule="evenodd" d="M11.75 2C12.1642 2 12.5 2.33579 12.5 2.75V20.75C12.5 21.1642 12.1642 21.5 11.75 21.5C11.3358 21.5 11 21.1642 11 20.75V2.75C11 2.33579 11.3358 2 11.75 2ZM18.75 8.75C19.1642 8.75 19.5 9.08579 19.5 9.5V20.75C19.5 21.1642 19.1642 21.5 18.75 21.5C18.3358 21.5 18 21.1642 18 20.75V9.5C18 9.08579 18.3358 8.75 18.75 8.75ZM4.75 15.5C5.16421 15.5 5.5 15.8358 5.5 16.25V20.75C5.5 21.1642 5.16421 21.5 4.75 21.5C4.33579 21.5 4 21.1642 4 20.75V16.25C4 15.8358 4.33579 15.5 4.75 15.5Z" fill="#383641"/>
</svg>
