<svg width="24" height="24" viewBox="0 0 24 24" fill="none" xmlns="http://www.w3.org/2000/svg">
<path fill-rule="evenodd" clip-rule="evenodd" d="M19.2498 2C19.664 2 19.9998 2.33579 19.9998 2.75V20.75C19.9998 21.1642 19.664 21.5 19.2498 21.5C18.8356 21.5 18.4998 21.1642 18.4998 20.75V2.75C18.4998 2.33579 18.8356 2 19.2498 2ZM12.5001 8.75014C12.9144 8.75014 13.2501 9.08593 13.2501 9.50014V20.7501C13.2501 21.1644 12.9144 21.5001 12.5001 21.5001C12.0859 21.5001 11.7501 21.1644 11.7501 20.7501V9.50014C11.7501 9.08593 12.0859 8.75014 12.5001 8.75014ZM5.75 15.5C6.16421 15.5 6.5 15.8358 6.5 16.25V20.75C6.5 21.1642 6.16421 21.5 5.75 21.5C5.33579 21.5 5 21.1642 5 20.75V16.25C5 15.8358 5.33579 15.5 5.75 15.5Z" fill="#383641"/>
</svg>
