<svg width="24" height="24" viewBox="0 0 24 24" fill="none" xmlns="http://www.w3.org/2000/svg">
<path fill-rule="evenodd" clip-rule="evenodd" d="M6.75 3.5C6.41848 3.5 6.10054 3.6317 5.86612 3.86612C5.6317 4.10054 5.5 4.41848 5.5 4.75V19.2926L11.3141 15.1397C11.5748 14.9534 11.9252 14.9534 12.1859 15.1397L18 19.2926V4.75C18 4.41848 17.8683 4.10054 17.6339 3.86612C17.3995 3.6317 17.0815 3.5 16.75 3.5H6.75ZM4.80546 2.80546C5.32118 2.28973 6.02065 2 6.75 2H16.75C17.4793 2 18.1788 2.28973 18.6945 2.80546C19.2103 3.32118 19.5 4.02065 19.5 4.75V20.75C19.5 21.0309 19.343 21.2883 19.0932 21.4169C18.8434 21.5454 18.5427 21.5236 18.3141 21.3603L11.75 16.6717L5.18593 21.3603C4.95732 21.5236 4.65662 21.5454 4.40681 21.4169C4.15701 21.2883 4 21.0309 4 20.75V4.75C4 4.02065 4.28973 3.32118 4.80546 2.80546Z" fill="#383641"/>
</svg>
