<svg width="24" height="24" viewBox="0 0 24 24" fill="none" xmlns="http://www.w3.org/2000/svg">
<mask id="mask0_565_4811" style="mask-type:alpha" maskUnits="userSpaceOnUse" x="3" y="2" width="18" height="20">
<path fill-rule="evenodd" clip-rule="evenodd" d="M8.25 2C8.66421 2 9 2.33579 9 2.75V3.79991H14.6992V2.75C14.6992 2.33579 15.035 2 15.4492 2C15.8634 2 16.1992 2.33579 16.1992 2.75V3.79991H18.15C19.5583 3.79991 20.7 4.94158 20.7 6.34991V18.9499C20.7 20.3582 19.5583 21.4999 18.15 21.4999H5.55C4.14167 21.4999 3 20.3582 3 18.9499V6.34991C3 4.94158 4.14167 3.79991 5.55 3.79991H7.5V2.75C7.5 2.33579 7.83579 2 8.25 2ZM7.5 5.29991H5.55C4.9701 5.29991 4.5 5.77001 4.5 6.34991V9.20009H19.2V6.34991C19.2 5.77001 18.7299 5.29991 18.15 5.29991H16.1992V6.35C16.1992 6.76421 15.8634 7.1 15.4492 7.1C15.035 7.1 14.6992 6.76421 14.6992 6.35V5.29991H9V6.35C9 6.76421 8.66421 7.1 8.25 7.1C7.83579 7.1 7.5 6.76421 7.5 6.35V5.29991ZM19.2 10.7001H4.5V18.9499C4.5 19.5298 4.9701 19.9999 5.55 19.9999H18.15C18.7299 19.9999 19.2 19.5298 19.2 18.9499V10.7001Z" fill="#383641"/>
</mask>
<g mask="url(#mask0_565_4811)">
<rect width="24" height="24" fill="#383641"/>
</g>
</svg>
