<svg width="24" height="24" viewBox="0 0 24 24" fill="none" xmlns="http://www.w3.org/2000/svg">
<path fill-rule="evenodd" clip-rule="evenodd" d="M9.03505 3.33397C9.17415 3.12533 9.40833 3 9.65909 3H14.8409C15.0917 3 15.3258 3.12533 15.4649 3.33397L16.9696 5.59091H20.0227C20.6797 5.59091 21.3098 5.85191 21.7744 6.31649C22.239 6.78106 22.5 7.41117 22.5 8.06818V17.5682C22.5 18.2252 22.239 18.8553 21.7744 19.3199C21.3098 19.7845 20.6797 20.0455 20.0227 20.0455H4.47727C3.82026 20.0455 3.19015 19.7845 2.72558 19.3199C2.261 18.8553 2 18.2252 2 17.5682V8.06818C2 7.41117 2.261 6.78106 2.72558 6.31649C3.19016 5.85191 3.82026 5.59091 4.47727 5.59091H7.53043L9.03505 3.33397ZM10.0605 4.5L8.55586 6.75693C8.41676 6.96558 8.18258 7.09091 7.93182 7.09091H4.47727C4.21808 7.09091 3.96951 7.19387 3.78624 7.37715C3.60296 7.56042 3.5 7.80899 3.5 8.06818V17.5682C3.5 17.8274 3.60296 18.0759 3.78624 18.2592C3.96951 18.4425 4.21808 18.5455 4.47727 18.5455H20.0227C20.2819 18.5455 20.5305 18.4425 20.7138 18.2592C20.897 18.0759 21 17.8274 21 17.5682V8.06818C21 7.80899 20.897 7.56042 20.7138 7.37715C20.5305 7.19387 20.2819 7.09091 20.0227 7.09091H16.5682C16.3174 7.09091 16.0832 6.96558 15.9441 6.75693L14.4395 4.5H10.0605ZM12.2514 9.68262C10.7577 9.68262 9.54688 10.8935 9.54688 12.3872C9.54688 13.8808 10.7577 15.0917 12.2514 15.0917C13.7451 15.0917 14.956 13.8808 14.956 12.3872C14.956 10.8935 13.7451 9.68262 12.2514 9.68262ZM8.04688 12.3872C8.04688 10.0651 9.92931 8.18262 12.2514 8.18262C14.5735 8.18262 16.456 10.0651 16.456 12.3872C16.456 14.7093 14.5735 16.5917 12.2514 16.5917C9.92931 16.5917 8.04688 14.7093 8.04688 12.3872Z" fill="#383641"/>
</svg>
