<svg width="24" height="24" viewBox="0 0 24 24" fill="none" xmlns="http://www.w3.org/2000/svg">
<mask id="mask0_512_1010" style="mask-type:alpha" maskUnits="userSpaceOnUse" x="2" y="2" width="20" height="20">
<path d="M13 7C13 6.44772 12.5523 6 12 6C11.4477 6 11 6.44772 11 7V12C11 12.3788 11.214 12.725 11.5528 12.8944L14.5528 14.3944C15.0468 14.6414 15.6474 14.4412 15.8944 13.9472C16.1414 13.4532 15.9412 12.8526 15.4472 12.6056L13 11.382V7Z" fill="#383641"/>
<path fill-rule="evenodd" clip-rule="evenodd" d="M12 2C6.47715 2 2 6.47715 2 12C2 17.5228 6.47715 22 12 22C17.5228 22 22 17.5228 22 12C22 6.47715 17.5228 2 12 2ZM4 12C4 7.58172 7.58172 4 12 4C16.4183 4 20 7.58172 20 12C20 16.4183 16.4183 20 12 20C7.58172 20 4 16.4183 4 12Z" fill="#383641"/>
</mask>
<g mask="url(#mask0_512_1010)">
<rect width="24" height="24" fill="#383641"/>
</g>
</svg>
