<svg width="24" height="24" viewBox="0 0 24 24" fill="none" xmlns="http://www.w3.org/2000/svg">
<path fill-rule="evenodd" clip-rule="evenodd" d="M5.98959 18.0104C9.30905 21.3299 14.691 21.3299 18.0104 18.0104C21.3299 14.691 21.3299 9.30905 18.0104 5.98959C14.691 2.67014 9.30905 2.67014 5.98959 5.98959C2.67014 9.30905 2.67014 14.691 5.98959 18.0104ZM4.92893 19.0711C8.83418 22.9763 15.1658 22.9763 19.0711 19.0711C22.9763 15.1658 22.9763 8.83418 19.0711 4.92893C15.1658 1.02369 8.83418 1.02369 4.92893 4.92893C1.02369 8.83418 1.02369 15.1658 4.92893 19.0711Z" fill="#383641"/>
<path d="M17.6493 19.3579C14.4962 22.5109 8.97735 22.1041 5.32253 18.4493C1.6677 14.7945 1.26093 9.27563 4.41398 6.12258C8.62527 10.3337 13.4381 15.1465 17.6493 19.3579Z" fill="#383641"/>
</svg>
