<svg width="24" height="24" viewBox="0 0 24 24" fill="none" xmlns="http://www.w3.org/2000/svg">
<path fill-rule="evenodd" clip-rule="evenodd" d="M12 22.8C17.9647 22.8 22.8 17.9646 22.8 12C22.8 6.03528 17.9647 1.19995 12 1.19995C6.03534 1.19995 1.20001 6.03528 1.20001 12C1.20001 17.9646 6.03534 22.8 12 22.8ZM15.4726 8.42212C15.0529 8.22878 14.5783 8.19022 14.1329 8.31327C13.6875 8.43632 13.3 8.71304 13.0391 9.09441C12.7584 9.50463 12.1983 9.60965 11.7881 9.32896C11.3778 9.04828 11.2728 8.48819 11.5535 8.07797C12.0545 7.34577 12.7985 6.8145 13.6536 6.57826C14.5088 6.34201 15.4199 6.41604 16.2257 6.78724C17.0316 7.15843 17.68 7.80283 18.0562 8.6063C18.4323 9.40959 18.5121 10.32 18.2814 11.1765C17.9166 12.5366 16.684 13.2157 15.8205 13.5444C15.3938 13.7069 14.9879 13.8109 14.6775 13.8759L14.5808 14.2368C14.4521 14.717 13.9586 15.0019 13.4785 14.8732C12.9984 14.7446 12.7134 14.2511 12.8421 13.771L13.0885 12.8512C13.1852 12.4903 13.4949 12.2267 13.8666 12.1888L13.8823 12.1869C13.8979 12.185 13.9233 12.1818 13.9573 12.1769C14.0254 12.167 14.127 12.1507 14.2519 12.1257C14.5042 12.0753 14.8388 11.9922 15.1799 11.8623C15.9203 11.5804 16.4146 11.1889 16.5429 10.7099L16.5433 10.7086C16.6635 10.2624 16.622 9.7881 16.4261 9.3696C16.2301 8.9511 15.8924 8.61546 15.4726 8.42212ZM13.2688 15.7193C12.6947 15.5655 12.1046 15.9062 11.9508 16.4803C11.797 17.0543 12.1377 17.6444 12.7117 17.7982C13.2858 17.9521 13.8759 17.6114 14.0297 17.0373C14.1835 16.4632 13.8428 15.8731 13.2688 15.7193ZM8.12644 10.0881C7.87995 10.1109 7.64945 10.2201 7.47578 10.3965C7.3021 10.5729 7.19645 10.805 7.17755 11.0518C7.14464 11.4813 6.76977 11.8029 6.34024 11.77C5.91072 11.7371 5.5892 11.3622 5.6221 10.9327C5.66915 10.3185 5.93203 9.74084 6.36419 9.30195C6.79635 8.86305 7.36989 8.59126 7.98324 8.53472C8.59659 8.47818 9.21015 8.64053 9.71526 8.99302C10.2202 9.34539 10.5842 9.86503 10.7428 10.46C11.0026 11.4304 10.4805 12.2712 10.0977 12.7414C9.93846 12.937 9.77459 13.1042 9.63395 13.2356L9.78152 13.8285C9.88556 14.2466 9.63102 14.6698 9.21299 14.7738C8.79496 14.8778 8.37174 14.6233 8.2677 14.2053L8.00303 13.1418C7.92617 12.833 8.04465 12.5085 8.30229 12.3218L8.30833 12.3173C8.31523 12.3121 8.32708 12.3031 8.34308 12.2905C8.3752 12.2652 8.42341 12.226 8.48155 12.1749C8.59953 12.0712 8.7497 11.9262 8.88804 11.7564C9.1987 11.3748 9.29119 11.0698 9.23583 10.8632L9.23553 10.8621C9.17182 10.6229 9.02551 10.414 8.82251 10.2723C8.61951 10.1307 8.37293 10.0654 8.12644 10.0881ZM9.53676 15.5483C9.05413 15.6776 8.76772 16.1737 8.89704 16.6563C9.02636 17.139 9.52244 17.4254 10.0051 17.2961C10.4877 17.1667 10.7741 16.6707 10.6448 16.188C10.5155 15.7054 10.0194 15.419 9.53676 15.5483Z" fill="#9EBFF7"/>
</svg>
