<svg width="24" height="24" viewBox="0 0 24 24" fill="none" xmlns="http://www.w3.org/2000/svg">
<path d="M15.4727 8.42212C15.053 8.22878 14.5784 8.19022 14.1329 8.31327C13.6875 8.43632 13.3 8.71304 13.0391 9.09441C12.7584 9.50463 12.1983 9.60965 11.7881 9.32896C11.3779 9.04828 11.2729 8.48819 11.5535 8.07797C12.0545 7.34577 12.7985 6.8145 13.6536 6.57826C14.5088 6.34201 15.42 6.41604 16.2258 6.78724C17.0316 7.15843 17.68 7.80283 18.0562 8.6063C18.4324 9.40959 18.5121 10.32 18.2814 11.1765C17.9166 12.5366 16.684 13.2157 15.8205 13.5444C15.3939 13.7069 14.988 13.8109 14.6775 13.8759L14.5808 14.2368C14.4521 14.717 13.9586 15.0019 13.4785 14.8732C12.9984 14.7446 12.7135 14.2511 12.8421 13.771L13.0886 12.8512C13.1853 12.4903 13.4949 12.2267 13.8667 12.1888L13.8824 12.1869C13.8979 12.185 13.9234 12.1818 13.9574 12.1769C14.0255 12.167 14.127 12.1507 14.2519 12.1257C14.5043 12.0753 14.8388 11.9922 15.18 11.8623C15.9203 11.5804 16.4146 11.1889 16.543 10.7099L16.5433 10.7086C16.6636 10.2624 16.622 9.7881 16.4261 9.3696C16.2301 8.9511 15.8924 8.61546 15.4727 8.42212Z" fill="#383641"/>
<path d="M11.9508 16.4803C12.1046 15.9062 12.6947 15.5655 13.2688 15.7193C13.8429 15.8731 14.1836 16.4632 14.0297 17.0373C13.8759 17.6114 13.2858 17.9521 12.7118 17.7982C12.1377 17.6444 11.797 17.0543 11.9508 16.4803Z" fill="#383641"/>
<path d="M7.4758 10.3965C7.64948 10.2201 7.87997 10.1109 8.12646 10.0881C8.37296 10.0654 8.61954 10.1307 8.82253 10.2723C9.02553 10.414 9.17184 10.6229 9.23555 10.8621L9.23585 10.8632C9.29121 11.0698 9.19872 11.3748 8.88806 11.7564C8.74973 11.9262 8.59956 12.0712 8.48157 12.1749C8.42344 12.226 8.37522 12.2652 8.34311 12.2905C8.3271 12.3031 8.31525 12.3121 8.30836 12.3173L8.30231 12.3218C8.04467 12.5085 7.92619 12.833 8.00305 13.1418L8.26772 14.2053C8.37176 14.6233 8.79498 14.8778 9.21301 14.7738C9.63104 14.6698 9.88558 14.2466 9.78154 13.8285L9.63398 13.2356C9.77461 13.1042 9.93849 12.937 10.0978 12.7414C10.4805 12.2712 11.0026 11.4304 10.7428 10.46C10.5842 9.86503 10.2202 9.34539 9.71529 8.99302C9.21017 8.64053 8.59661 8.47818 7.98326 8.53472C7.36992 8.59126 6.79637 8.86305 6.36421 9.30195C5.93206 9.74084 5.66917 10.3185 5.62213 10.9327C5.58922 11.3622 5.91074 11.7371 6.34027 11.77C6.76979 11.8029 7.14466 11.4813 7.17757 11.0518C7.19648 10.805 7.30212 10.5729 7.4758 10.3965Z" fill="#383641"/>
<path d="M9.53677 15.5483C9.05415 15.6776 8.76774 16.1737 8.89706 16.6563C9.02637 17.139 9.52245 17.4254 10.0051 17.2961C10.4877 17.1667 10.7741 16.6707 10.6448 16.188C10.5155 15.7054 10.0194 15.419 9.53677 15.5483Z" fill="#383641"/>
<path fill-rule="evenodd" clip-rule="evenodd" d="M12.0321 23.4321C18.3281 23.4321 23.4321 18.3281 23.4321 12.0321C23.4321 5.73603 18.3281 0.63208 12.0321 0.63208C5.73603 0.63208 0.63208 5.73603 0.63208 12.0321C0.63208 18.3281 5.73603 23.4321 12.0321 23.4321ZM12.0321 21.5121C17.2677 21.5121 21.5121 17.2677 21.5121 12.0321C21.5121 6.79642 17.2677 2.55208 12.0321 2.55208C6.79642 2.55208 2.55208 6.79642 2.55208 12.0321C2.55208 17.2677 6.79642 21.5121 12.0321 21.5121Z" fill="#383641"/>
</svg>
