<svg width="24" height="24" viewBox="0 0 24 24" fill="none" xmlns="http://www.w3.org/2000/svg">
<mask id="mask0_512_1021" style="mask-type:alpha" maskUnits="userSpaceOnUse" x="2" y="5" width="20" height="14">
<path fill-rule="evenodd" clip-rule="evenodd" d="M12 8.5C10.067 8.5 8.5 10.067 8.5 12C8.5 13.933 10.067 15.5 12 15.5C13.933 15.5 15.5 13.933 15.5 12C15.5 10.067 13.933 8.5 12 8.5ZM10.5 12C10.5 11.1716 11.1716 10.5 12 10.5C12.8284 10.5 13.5 11.1716 13.5 12C13.5 12.8284 12.8284 13.5 12 13.5C11.1716 13.5 10.5 12.8284 10.5 12Z" fill="#383641"/>
<path fill-rule="evenodd" clip-rule="evenodd" d="M21.8775 11.5204C22.0403 11.8189 22.0407 12.1804 21.8779 12.4789L21 12C21.8779 12.4789 21.8773 12.48 21.8771 12.4804L21.8759 12.4825L21.8727 12.4883L21.8626 12.5064C21.8543 12.5212 21.8427 12.5417 21.8279 12.5673C21.7983 12.6186 21.7558 12.6908 21.7005 12.7808C21.5901 12.9608 21.4283 13.213 21.2166 13.5135C20.7945 14.1126 20.1677 14.9124 19.3468 15.715C17.7177 17.308 15.2301 19 12 19C8.76994 19 6.28233 17.308 4.65316 15.715C3.8323 14.9124 3.20551 14.1126 2.78337 13.5135C2.57172 13.213 2.40994 12.9608 2.29949 12.7808C2.24423 12.6908 2.2017 12.6186 2.1721 12.5673C2.15729 12.5417 2.14571 12.5212 2.13737 12.5064L2.1273 12.4883L2.12409 12.4825L2.12295 12.4804L2.1221 12.4789L3 12C2.12816 12.4755 2.12196 12.4785 2.1221 12.4789C1.9593 12.1804 1.9593 11.8196 2.1221 11.5211L3 12C2.12213 11.5212 2.12275 11.52 2.12295 11.5196L2.12409 11.5175L2.1273 11.5117L2.13737 11.4936C2.14571 11.4788 2.15729 11.4583 2.1721 11.4327C2.2017 11.3814 2.24423 11.3092 2.29949 11.2192C2.40994 11.0392 2.57172 10.787 2.78337 10.4865C3.20551 9.88738 3.8323 9.08761 4.65316 8.28499C6.28233 6.69203 8.76994 5 12 5C15.2301 5 17.7177 6.69203 19.3468 8.28499C20.1677 9.08761 20.7945 9.88738 21.2166 10.4865C21.4283 10.787 21.5901 11.0392 21.7005 11.2192C21.7558 11.3092 21.7983 11.3814 21.8279 11.4327C21.8356 11.446 21.8424 11.4579 21.8483 11.4683C21.8539 11.478 21.8586 11.4865 21.8626 11.4936L21.8727 11.5117L21.8759 11.5175L21.8775 11.5204ZM4.41833 12.3615C4.32442 12.2282 4.2424 12.1067 4.17251 12C4.2424 11.8933 4.32442 11.7718 4.41833 11.6385C4.78881 11.1126 5.33816 10.4124 6.05139 9.71501C7.4904 8.30798 9.50279 7 12 7C14.4972 7 16.5096 8.30798 17.9486 9.71501C18.6618 10.4124 19.2112 11.1126 19.5817 11.6385C19.6756 11.7718 19.7576 11.8933 19.8275 12C19.7576 12.1067 19.6756 12.2282 19.5817 12.3615C19.2112 12.8874 18.6618 13.5876 17.9486 14.285C16.5096 15.692 14.4972 17 12 17C9.50279 17 7.4904 15.692 6.05139 14.285C5.33816 13.5876 4.78881 12.8874 4.41833 12.3615ZM21 12C21.8779 11.5211 21.8777 11.5208 21.8775 11.5204L21 12Z" fill="#383641"/>
</mask>
<g mask="url(#mask0_512_1021)">
<rect width="24" height="24" fill="#383641"/>
</g>
</svg>
