<svg width="24" height="24" viewBox="0 0 24 24" fill="none" xmlns="http://www.w3.org/2000/svg">
<mask id="mask0_512_1039" style="mask-type:alpha" maskUnits="userSpaceOnUse" x="2" y="3" width="20" height="18">
<path fill-rule="evenodd" clip-rule="evenodd" d="M4.70711 3.29289C4.31658 2.90237 3.68342 2.90237 3.29289 3.29289C2.90237 3.68342 2.90237 4.31658 3.29289 4.70711L5.84641 7.26062C4.34239 8.44494 3.08288 9.87897 2.13699 11.4948C1.95979 11.7975 1.95415 12.1709 2.1221 12.4789L3 12C2.1221 12.4789 2.12275 12.48 2.12295 12.4804L2.12409 12.4825L2.1273 12.4883L2.13737 12.5064C2.14571 12.5213 2.15729 12.5417 2.1721 12.5673C2.2017 12.6186 2.24423 12.6908 2.29949 12.7808C2.40994 12.9608 2.57172 13.2131 2.78337 13.5135C3.20551 14.1126 3.8323 14.9124 4.65316 15.715C6.28233 17.308 8.76994 19 12 19L12.015 18.9999C13.6931 18.9747 15.0506 18.56 16.3643 17.7785L19.2929 20.7071C19.6834 21.0976 20.3166 21.0976 20.7071 20.7071C21.0976 20.3166 21.0976 19.6834 20.7071 19.2929L17.2075 15.7933C17.2073 15.793 17.2077 15.7935 17.2075 15.7933L4.70711 3.29289ZM4.41833 12.3616C4.32498 12.229 4.24338 12.1082 4.17377 12.0019C4.94252 10.82 5.91608 9.75564 7.05898 8.85146L8.86234 10.5768C8.83976 10.6184 8.81808 10.6606 8.79734 10.7032C8.60083 11.1075 8.49344 11.5478 8.48479 11.9972C8.47614 12.4466 8.56652 12.8907 8.74777 13.302C8.92888 13.7131 9.19572 14.0802 9.52742 14.3843C9.85893 14.6882 10.249 14.9234 10.6723 15.0802C11.0955 15.2369 11.5462 15.313 11.9982 15.3057C12.4503 15.2983 12.8982 15.2077 13.3159 15.0371C13.3618 15.0183 13.4106 14.9984 13.4612 14.9766L14.8663 16.321C13.9856 16.7635 13.0864 16.9827 11.9926 17C9.49879 16.9974 7.48897 15.6906 6.05139 14.285C5.33816 13.5876 4.78881 12.8874 4.41833 12.3616ZM10.578 12.4956C10.5258 12.3771 10.4956 12.2542 10.4869 12.131L11.6968 13.2886C11.5832 13.272 11.4724 13.2437 11.3667 13.2046C11.1787 13.135 11.0135 13.0334 10.8789 12.91C10.7444 12.7867 10.6438 12.6449 10.578 12.4956Z" fill="#383641"/>
<path fill-rule="evenodd" clip-rule="evenodd" d="M12.0011 5.00002C11.3521 4.9987 10.7048 5.0665 10.072 5.20227C9.71158 5.27961 9.42291 5.549 9.32088 5.90325C9.21885 6.2575 9.32 6.63916 9.58409 6.89638L18.3023 15.3879C18.4959 15.5765 18.7577 15.6787 19.028 15.6711C19.2982 15.6636 19.5539 15.5469 19.7367 15.3478C20.4539 14.5664 21.3246 13.4284 21.8639 12.5037C22.0402 12.2013 22.0456 11.8286 21.8779 11.5212L21.8759 11.5175L21.8727 11.5117L21.8626 11.4936C21.8543 11.4788 21.8427 11.4583 21.8279 11.4327C21.7983 11.3814 21.7558 11.3092 21.7005 11.2192C21.5901 11.0392 21.4283 10.787 21.2166 10.4866C20.7945 9.8874 20.1677 9.08762 19.3468 8.28501C17.7179 6.69222 15.2306 5.00039 12.0011 5.00002ZM18.9328 13.2101L12.5813 7.0238C14.8108 7.2068 16.623 8.41888 17.9486 9.71502C18.6618 10.4124 19.2112 11.1126 19.5817 11.6385C19.6741 11.7696 19.7549 11.8893 19.8241 11.9948C19.5612 12.3912 19.2486 12.8153 18.9328 13.2101ZM21 12L21.8779 11.5212C21.8781 11.5215 21.8779 11.5212 21 12ZM12.0011 5.00002H12V6.00002L12.0022 5.00002L12.0011 5.00002Z" fill="#383641"/>
</mask>
<g mask="url(#mask0_512_1039)">
<rect width="24" height="24" fill="#383641"/>
</g>
</svg>
