<svg width="24" height="24" viewBox="0 0 24 24" fill="none" xmlns="http://www.w3.org/2000/svg">
<mask id="mask0_512_1029" style="mask-type:alpha" maskUnits="userSpaceOnUse" x="2" y="3" width="20" height="18">
<path fill-rule="evenodd" clip-rule="evenodd" d="M4.8 5C4.58385 5 4.37901 5.08492 4.22991 5.23218C4.08123 5.37903 4 5.57553 4 5.77778V18.2222C4 18.4245 4.08123 18.621 4.22991 18.7678C4.37901 18.9151 4.58385 19 4.8 19H19.2C19.4162 19 19.621 18.9151 19.7701 18.7678C19.9188 18.621 20 18.4245 20 18.2222V8.44444C20 8.2422 19.9188 8.0457 19.7701 7.89885C19.621 7.75159 19.4162 7.66667 19.2 7.66667H11.1C10.7677 7.66667 10.4571 7.50158 10.2712 7.22614L8.76851 5H4.8ZM2.82451 3.80921C3.35054 3.28968 4.06137 3 4.8 3H9.3C9.63232 3 9.94293 3.16509 10.1288 3.44053L11.6315 5.66667H19.2C19.9386 5.66667 20.6495 5.95635 21.1755 6.47588C21.7019 6.99583 22 7.70369 22 8.44444V18.2222C22 18.963 21.7019 19.6708 21.1755 20.1908C20.6495 20.7103 19.9386 21 19.2 21H4.8C4.06137 21 3.35054 20.7103 2.82451 20.1908C2.29806 19.6708 2 18.963 2 18.2222V5.77778C2 5.03703 2.29806 4.32916 2.82451 3.80921Z" fill="#383641"/>
</mask>
<g mask="url(#mask0_512_1029)">
<rect width="24" height="24" fill="#383641"/>
</g>
</svg>
