<svg width="24" height="24" viewBox="0 0 24 24" fill="none" xmlns="http://www.w3.org/2000/svg">
<path fill-rule="evenodd" clip-rule="evenodd" d="M4 4.75C3.66848 4.75 3.35054 4.8817 3.11612 5.11612C2.8817 5.35054 2.75 5.66848 2.75 6V18C2.75 18.3315 2.8817 18.6495 3.11612 18.8839C3.35054 19.1183 3.66848 19.25 4 19.25H20C20.3315 19.25 20.6495 19.1183 20.8839 18.8839C21.1183 18.6495 21.25 18.3315 21.25 18V9C21.25 8.66848 21.1183 8.35054 20.8839 8.11612C20.6495 7.8817 20.3315 7.75 20 7.75H11C10.7492 7.75 10.5151 7.62467 10.376 7.41603L8.59861 4.75H4ZM2.05546 4.05546C2.57118 3.53973 3.27065 3.25 4 3.25H9C9.25076 3.25 9.48494 3.37533 9.62404 3.58397L11.4014 6.25H20C20.7293 6.25 21.4288 6.53973 21.9445 7.05546C22.4603 7.57118 22.75 8.27065 22.75 9V18C22.75 18.7293 22.4603 19.4288 21.9445 19.9445C21.4288 20.4603 20.7293 20.75 20 20.75H4C3.27065 20.75 2.57118 20.4603 2.05546 19.9445C1.53973 19.4288 1.25 18.7293 1.25 18V6C1.25 5.27065 1.53973 4.57118 2.05546 4.05546Z" fill="#383641"/>
</svg>
