<svg width="24" height="24" viewBox="0 0 24 24" fill="none" xmlns="http://www.w3.org/2000/svg">
<mask id="mask0_565_4813" style="mask-type:alpha" maskUnits="userSpaceOnUse" x="1" y="1" width="22" height="22">
<path fill-rule="evenodd" clip-rule="evenodd" d="M7.24944 2.5C6.78531 2.5 6.34019 2.68437 6.012 3.01256C5.68382 3.34075 5.49944 3.78587 5.49944 4.25C5.49944 4.71413 5.68382 5.15925 6.012 5.48744C6.34019 5.81563 6.78531 6 7.24944 6H10.7599C10.6214 5.59304 10.4237 5.0997 10.1551 4.6115C9.51135 3.44129 8.5824 2.5 7.24944 2.5ZM11 7.5V11H2.5V7.5H11ZM4.51081 6C4.17947 5.48145 3.99944 4.875 3.99944 4.25C3.99944 3.38805 4.34185 2.5614 4.95134 1.9519C5.56084 1.34241 6.38749 1 7.24944 1C9.41649 1 10.7378 2.55871 11.4694 3.8885C11.5718 4.07482 11.6652 4.26061 11.7499 4.44244C11.8346 4.26063 11.9279 4.07485 12.0303 3.88856C12.7617 2.55874 14.0829 1 16.25 1C17.112 1 17.9386 1.34241 18.5481 1.9519C19.1576 2.5614 19.5 3.38805 19.5 4.25C19.5 4.875 19.32 5.48145 18.9886 6H21.75C22.1642 6 22.5 6.33579 22.5 6.75V11.75C22.5 12.1642 22.1642 12.5 21.75 12.5H20.5006V21.75C20.5006 22.1642 20.1648 22.5 19.7506 22.5H3.75056C3.33634 22.5 3.00056 22.1642 3.00056 21.75V12.5H1.75C1.33579 12.5 1 12.1642 1 11.75V6.75C1 6.33579 1.33579 6 1.75 6H4.51081ZM4.50056 12.5V21H11V12.5H4.50056ZM12.5 12.5V21H19.0006V12.5H12.5ZM21 11V7.5H12.5V11H21ZM16.25 6C16.7141 6 17.1592 5.81563 17.4874 5.48744C17.8156 5.15925 18 4.71413 18 4.25C18 3.78587 17.8156 3.34075 17.4874 3.01256C17.1592 2.68437 16.7141 2.5 16.25 2.5C14.9171 2.5 13.9883 3.44126 13.3447 4.61144C13.0761 5.09967 12.8784 5.59303 12.74 6H16.25Z" fill="#383641"/>
</mask>
<g mask="url(#mask0_565_4813)">
<rect width="24" height="24" fill="#383641"/>
</g>
</svg>
