<svg width="24" height="24" viewBox="0 0 24 24" fill="none" xmlns="http://www.w3.org/2000/svg">
<mask id="mask0_610_152" style="mask-type:alpha" maskUnits="userSpaceOnUse" x="1" y="2" width="22" height="20">
<path d="M16.5464 2.7998C15.7774 2.7998 15.0159 2.95182 14.3055 3.24709C13.5952 3.54235 12.9499 3.97515 12.4066 4.5204L11.9997 4.92862L11.5927 4.52027C10.4952 3.41929 9.0062 2.8003 7.45304 2.8003C5.89988 2.8003 4.41086 3.41929 3.31339 4.52027C2.21602 5.62116 1.59998 7.11375 1.59998 8.66955C1.59998 10.2253 2.21602 11.7179 3.31339 12.8188L11.4331 20.9646C11.5832 21.1152 11.7871 21.1998 11.9997 21.1998C12.2123 21.1998 12.4162 21.1152 12.5663 20.9646L20.6861 12.8188C21.2296 12.2738 21.6606 11.6268 21.9546 10.915C22.2487 10.203 22.4 9.44003 22.4 8.66955C22.4 7.89907 22.2487 7.13607 21.9546 6.42414C21.6606 5.71231 21.2294 5.06513 20.6859 4.52013C20.1427 3.97495 19.4975 3.54232 18.7873 3.24709C18.077 2.95182 17.3155 2.7998 16.5464 2.7998Z" fill="#EC7D7D"/>
</mask>
<g mask="url(#mask0_610_152)">
<rect width="24" height="24" fill="#EC7D7D"/>
</g>
</svg>
