<svg width="24" height="24" viewBox="0 0 24 24" fill="none" xmlns="http://www.w3.org/2000/svg">
<mask id="mask0_565_4809" style="mask-type:alpha" maskUnits="userSpaceOnUse" x="0" y="2" width="23" height="21">
<path d="M11.4 22.225C11.1 22.225 10.9 22.125 10.7 21.925L1.9 13.125C0.7 11.925 0 10.225 0 8.525C0 6.825 0.7 5.125 1.9 3.925C3.1 2.725 4.7 2.025 6.4 2.025C8.1 2.025 9.8 2.725 11 3.925L11.4 4.325L11.8 3.925C12.4 3.325 13.1 2.825 13.9 2.525C15.5 1.825 17.3 1.825 18.9 2.525C19.7 2.825 20.4 3.325 21 3.925C21.6 4.525 22 5.225 22.4 6.025C22.7 6.825 22.9 7.625 22.9 8.525C22.9 9.425 22.7 10.225 22.4 11.025C22.1 11.825 21.6 12.525 21 13.125L12.2 21.925C11.9 22.125 11.7 22.225 11.4 22.225ZM6.4 4.025C5.2 4.025 4.1 4.525 3.3 5.325C2.5 6.125 2 7.325 2 8.525C2 9.725 2.5 10.825 3.3 11.725L11.4 19.825L19.5 11.725C19.9 11.325 20.3 10.825 20.5 10.225C20.7 9.725 20.8 9.125 20.8 8.525C20.8 7.925 20.7 7.325 20.5 6.825C20.3 6.325 19.9 5.825 19.5 5.325C19.1 4.925 18.6 4.625 18 4.325C16.9 3.825 15.7 3.825 14.6 4.325C14.1 4.525 13.6 4.925 13.1 5.325L12 6.425C11.6 6.825 11 6.825 10.6 6.425L9.5 5.325C8.8 4.525 7.7 4.025 6.4 4.025Z" fill="#383641"/>
</mask>
<g mask="url(#mask0_565_4809)">
<rect width="24" height="24" fill="#383641"/>
</g>
</svg>
