<svg width="24" height="24" viewBox="0 0 24 24" fill="none" xmlns="http://www.w3.org/2000/svg">
<mask id="mask0_512_985" style="mask-type:alpha" maskUnits="userSpaceOnUse" x="0" y="2" width="24" height="21">
<path d="M5.30111 10.0882C6.20645 6.58647 9.38706 4 13.1718 4C17.6613 4 21.3007 7.63945 21.3007 12.1289C21.3007 16.6184 17.6613 20.2579 13.1718 20.2579C10.2231 20.2579 7.64008 18.6886 6.21386 16.3348C5.92766 15.8624 5.31274 15.7115 4.8404 15.9978C4.36806 16.284 4.21716 16.8989 4.50337 17.3712C6.27693 20.2982 9.49503 22.2579 13.1718 22.2579C18.7658 22.2579 23.3007 17.723 23.3007 12.1289C23.3007 6.53488 18.7658 2 13.1718 2C8.61626 2 4.76316 5.00736 3.4895 9.14504L2.86823 8.05783C2.59422 7.57831 1.98337 7.41172 1.50385 7.68573C1.02433 7.95974 0.857735 8.57059 1.13174 9.05011L3.17458 12.6251C3.3121 12.8657 3.54332 13.0385 3.81307 13.1022C4.08283 13.1659 4.36691 13.1147 4.59753 12.961L8.04482 10.6628C8.50435 10.3564 8.62852 9.73557 8.32217 9.27604C8.01582 8.81651 7.39495 8.69234 6.93542 8.99869L5.30111 10.0882Z" fill="#383641"/>
<path d="M13.9802 7.78796C13.9802 7.23568 13.5325 6.78796 12.9802 6.78796C12.428 6.78796 11.9802 7.23568 11.9802 7.78796V12.607L15.6566 16.2834C16.0471 16.6739 16.6803 16.6739 17.0708 16.2834C17.4613 15.8929 17.4613 15.2597 17.0708 14.8692L13.9802 11.7786V7.78796Z" fill="#383641"/>
</mask>
<g mask="url(#mask0_512_985)">
<rect width="24" height="24" fill="#383641"/>
</g>
</svg>
