<svg width="24" height="24" viewBox="0 0 24 24" fill="none" xmlns="http://www.w3.org/2000/svg">
<path fill-rule="evenodd" clip-rule="evenodd" d="M1.74954 9.74473C1.33532 9.74447 0.999744 9.40848 1 8.99427L1.00418 4.24427C1.00443 3.83005 1.34043 3.49448 1.75464 3.49473C2.16885 3.49499 2.50443 3.83098 2.50418 4.2452L2.50111 7.19522C2.57598 7.12156 2.65262 7.04624 2.73059 6.96971C3.55751 6.15811 4.54729 5.19823 5.16353 4.64128C6.79655 3.16538 8.91646 2.20163 11.281 2.02799C16.9267 1.61339 21.8396 5.85405 22.2542 11.4998C22.6688 17.1455 18.4281 22.0583 12.7824 22.4729C8.01811 22.8228 3.77749 19.8581 2.31896 15.5326C2.18661 15.1401 2.39751 14.7146 2.79001 14.5822C3.18251 14.4499 3.60798 14.6608 3.74033 15.0533C4.98552 18.7461 8.60737 21.2755 12.6725 20.977C17.4921 20.623 21.1121 16.4291 20.7582 11.6096C20.4043 6.79011 16.2104 3.17004 11.3909 3.52396C9.37089 3.6723 7.56343 4.49413 6.16931 5.75412C5.57949 6.28719 4.61106 7.22583 3.78129 8.04024C3.71032 8.10989 3.64046 8.17855 3.57204 8.24586L6.50046 8.24891C6.91468 8.24916 7.25026 8.58516 7.25 8.99937C7.24974 9.41358 6.91375 9.74916 6.49954 9.74891L1.74954 9.74473Z" fill="#383641"/>
<path fill-rule="evenodd" clip-rule="evenodd" d="M11.2207 7.03906C11.6349 7.03906 11.9707 7.37485 11.9707 7.78906V12.4784L15.251 15.7587C15.5439 16.0516 15.5439 16.5265 15.251 16.8194C14.9581 17.1123 14.4833 17.1123 14.1904 16.8194L10.4707 13.0997V7.78906C10.4707 7.37485 10.8065 7.03906 11.2207 7.03906Z" fill="#383641"/>
</svg>
