<svg width="24" height="24" viewBox="0 0 24 24" fill="none" xmlns="http://www.w3.org/2000/svg">
<path fill-rule="evenodd" clip-rule="evenodd" d="M13.0702 3.54373C14.1074 2.54198 15.4965 1.98768 16.9384 2.00021C18.3803 2.01274 19.7597 2.5911 20.7793 3.61072C21.7989 4.63035 22.3773 6.00965 22.3898 7.45157C22.4023 8.89348 21.848 10.2826 20.8463 11.3198L20.8372 11.3292L17.9876 14.1786C17.4301 14.7363 16.7592 15.1676 16.0203 15.4432C15.2815 15.7189 14.492 15.8323 13.7054 15.776C12.9189 15.7197 12.1536 15.4948 11.4616 15.1168C10.7696 14.7387 10.1669 14.2162 9.69459 13.5847C9.44648 13.253 9.51424 12.783 9.84593 12.5349C10.1776 12.2868 10.6476 12.3545 10.8957 12.6862C11.2392 13.1455 11.6775 13.5254 12.1808 13.8004C12.684 14.0754 13.2406 14.2389 13.8126 14.2798C14.3846 14.3208 14.9587 14.2383 15.4961 14.0378C16.0334 13.8374 16.5213 13.5238 16.9268 13.1182L19.7717 10.2733C20.4974 9.51946 20.8989 8.51114 20.8898 7.4646C20.8807 6.41598 20.4601 5.4129 19.7186 4.67138C18.9771 3.92987 17.974 3.50926 16.9254 3.50015C15.8785 3.49105 14.8699 3.89282 14.116 4.61906L12.4862 6.23935C12.1925 6.53139 11.7176 6.53001 11.4256 6.23626C11.1335 5.94251 11.1349 5.46764 11.4287 5.1756L13.0702 3.54373ZM8.36967 8.92787C9.10852 8.65226 9.898 8.53877 10.6846 8.5951C11.4711 8.65144 12.2364 8.87627 12.9284 9.25436C13.6204 9.63245 14.2231 10.1549 14.6954 10.7864C14.9435 11.1181 14.8758 11.5881 14.5441 11.8362C14.2124 12.0843 13.7424 12.0166 13.4943 11.6849C13.1508 11.2257 12.7125 10.8457 12.2092 10.5707C11.706 10.2957 11.1494 10.1322 10.5774 10.0913C10.0054 10.0503 9.43125 10.1328 8.89393 10.3333C8.35661 10.5337 7.86868 10.8474 7.46324 11.253L4.61835 14.0978C3.89256 14.8516 3.49106 15.86 3.50015 16.9065C3.50926 17.9551 3.92987 18.9582 4.67138 19.6997C5.4129 20.4412 6.41598 20.8619 7.4646 20.871C8.51114 20.8801 9.51946 20.4786 10.2733 19.7528L11.8927 18.1333C12.1856 17.8404 12.6605 17.8404 12.9534 18.1333C13.2463 18.4262 13.2463 18.9011 12.9534 19.194L11.3199 20.8275C10.2827 21.8292 8.89348 22.3834 7.45157 22.3709C6.00965 22.3584 4.63035 21.78 3.61072 20.7604C2.5911 19.7408 2.01274 18.3615 2.00021 16.9195C1.98768 15.4776 2.54198 14.0885 3.54373 13.0513L3.55279 13.0419L6.40239 10.1925C6.40235 10.1925 6.40242 10.1925 6.40239 10.1925C6.95988 9.63482 7.63087 9.20347 8.36967 8.92787Z" fill="#383641"/>
</svg>
