<svg width="24" height="24" viewBox="0 0 24 24" fill="none" xmlns="http://www.w3.org/2000/svg">
<mask id="mask0_565_4814" style="mask-type:alpha" maskUnits="userSpaceOnUse" x="1" y="1" width="22" height="22">
<path d="M16.9958 1.06663C15.4226 1.05296 13.907 1.65773 12.7754 2.75068L12.7651 2.7608L11.0451 4.4708C10.6534 4.86018 10.6516 5.49335 11.041 5.88501C11.4303 6.27667 12.0635 6.27851 12.4552 5.88913L14.1698 4.1845C14.9236 3.45887 15.9319 3.05746 16.9784 3.06656C18.0272 3.07567 19.0305 3.49635 19.7721 4.23798C20.5137 4.97961 20.9344 5.98286 20.9435 7.03165C20.9526 8.0777 20.5516 9.08557 19.8265 9.83934L16.833 12.8329C16.4275 13.2385 15.9394 13.5523 15.402 13.7528C14.8646 13.9533 14.2903 14.0358 13.7182 13.9949C13.1461 13.9539 12.5895 13.7903 12.0861 13.5153C11.5828 13.2403 11.1444 12.8603 10.8009 12.401C10.4701 11.9587 9.84339 11.8684 9.40114 12.1992C8.95889 12.53 8.86855 13.1567 9.19936 13.5989C9.7147 14.2879 10.3722 14.858 11.1272 15.2705C11.8822 15.683 12.7172 15.9283 13.5753 15.9897C14.4335 16.0512 15.2949 15.9274 16.101 15.6267C16.9071 15.326 17.6391 14.8554 18.2474 14.2469L21.2472 11.2471L21.2594 11.2347C22.3524 10.1031 22.9571 8.58745 22.9435 7.01427C22.9298 5.44109 22.2988 3.93621 21.1863 2.82377C20.0739 1.71132 18.569 1.0803 16.9958 1.06663Z" fill="#383641"/>
<path d="M10.4248 8.01014C9.56663 7.94868 8.70528 8.0725 7.89917 8.3732C7.09311 8.67389 6.36102 9.14452 5.75278 9.75294L2.75291 12.7528L2.74073 12.7652C1.64778 13.8968 1.04301 15.4124 1.05668 16.9856C1.07035 18.5588 1.70137 20.0637 2.81382 21.1761C3.92627 22.2886 5.43114 22.9196 7.00432 22.9333C8.5775 22.9469 10.0931 22.3422 11.2247 21.2492L11.2371 21.237L12.9471 19.527C13.3376 19.1365 13.3376 18.5033 12.9471 18.1128C12.5566 17.7223 11.9234 17.7223 11.5329 18.1128L9.82938 19.8163C9.07561 20.5414 8.06775 20.9424 7.0217 20.9333C5.97291 20.9242 4.96966 20.5035 4.22803 19.7619C3.4864 19.0203 3.06572 18.017 3.05661 16.9682C3.04752 15.9222 3.44857 14.9143 4.17361 14.1605L7.16725 11.1669C7.57276 10.7612 8.06077 10.4475 8.59818 10.2471C9.13558 10.0466 9.70982 9.96406 10.2819 10.005C10.854 10.046 11.4107 10.2095 11.914 10.4845C12.4174 10.7596 12.8557 11.1396 13.1993 11.5989C13.5301 12.0411 14.1567 12.1315 14.599 11.8007C15.0412 11.4699 15.1316 10.8432 14.8008 10.4009C14.2854 9.71199 13.628 9.14192 12.8729 8.72941C12.1179 8.31691 11.283 8.0716 10.4248 8.01014Z" fill="#383641"/>
</mask>
<g mask="url(#mask0_565_4814)">
<rect width="24" height="24" fill="#383641"/>
</g>
</svg>
