<svg width="24" height="24" viewBox="0 0 24 24" fill="none" xmlns="http://www.w3.org/2000/svg">
<path fill-rule="evenodd" clip-rule="evenodd" d="M2 5.75C2 5.33579 2.33579 5 2.75 5H2.76C3.17421 5 3.51 5.33579 3.51 5.75C3.51 6.16421 3.17421 6.5 2.76 6.5H2.75C2.33579 6.5 2 6.16421 2 5.75ZM7 5.75C7 5.33579 7.33579 5 7.75 5H20.75C21.1642 5 21.5 5.33579 21.5 5.75C21.5 6.16421 21.1642 6.5 20.75 6.5H7.75C7.33579 6.5 7 6.16421 7 5.75ZM2 11.75C2 11.3358 2.33579 11 2.75 11H2.76C3.17421 11 3.51 11.3358 3.51 11.75C3.51 12.1642 3.17421 12.5 2.76 12.5H2.75C2.33579 12.5 2 12.1642 2 11.75ZM7 11.75C7 11.3358 7.33579 11 7.75 11H20.75C21.1642 11 21.5 11.3358 21.5 11.75C21.5 12.1642 21.1642 12.5 20.75 12.5H7.75C7.33579 12.5 7 12.1642 7 11.75ZM2 17.75C2 17.3358 2.33579 17 2.75 17H2.76C3.17421 17 3.51 17.3358 3.51 17.75C3.51 18.1642 3.17421 18.5 2.76 18.5H2.75C2.33579 18.5 2 18.1642 2 17.75ZM7 17.75C7 17.3358 7.33579 17 7.75 17H20.75C21.1642 17 21.5 17.3358 21.5 17.75C21.5 18.1642 21.1642 18.5 20.75 18.5H7.75C7.33579 18.5 7 18.1642 7 17.75Z" fill="#383641"/>
</svg>
