<svg width="24" height="24" viewBox="0 0 24 24" fill="none" xmlns="http://www.w3.org/2000/svg">
<mask id="mask0_512_1003" style="mask-type:alpha" maskUnits="userSpaceOnUse" x="1" y="1" width="22" height="22">
<path d="M13 2C13 1.44772 12.5523 1 12 1C11.4477 1 11 1.44772 11 2V6C11 6.55228 11.4477 7 12 7C12.5523 7 13 6.55228 13 6V2Z" fill="#383641"/>
<path d="M13 18C13 17.4477 12.5523 17 12 17C11.4477 17 11 17.4477 11 18V22C11 22.5523 11.4477 23 12 23C12.5523 23 13 22.5523 13 22V18Z" fill="#383641"/>
<path d="M4.22307 4.22282C4.61359 3.8323 5.24676 3.8323 5.63728 4.22282L8.46728 7.05282C8.85781 7.44335 8.85781 8.07651 8.46728 8.46704C8.07676 8.85756 7.44359 8.85756 7.05307 8.46704L4.22307 5.63704C3.83254 5.24651 3.83254 4.61335 4.22307 4.22282Z" fill="#383641"/>
<path d="M16.9471 15.5329C16.5566 15.1424 15.9234 15.1424 15.5329 15.5329C15.1424 15.9234 15.1424 16.5566 15.5329 16.9471L18.3629 19.7771C18.7534 20.1676 19.3866 20.1676 19.7771 19.7771C20.1676 19.3866 20.1676 18.7534 19.7771 18.3629L16.9471 15.5329Z" fill="#383641"/>
<path d="M1 12C1 11.4477 1.44772 11 2 11H6C6.55228 11 7 11.4477 7 12C7 12.5523 6.55228 13 6 13H2C1.44772 13 1 12.5523 1 12Z" fill="#383641"/>
<path d="M18 11C17.4477 11 17 11.4477 17 12C17 12.5523 17.4477 13 18 13H22C22.5523 13 23 12.5523 23 12C23 11.4477 22.5523 11 22 11H18Z" fill="#383641"/>
<path d="M8.46728 15.5329C8.85781 15.9234 8.85781 16.5566 8.46728 16.9471L5.63728 19.7771C5.24676 20.1676 4.61359 20.1676 4.22307 19.7771C3.83254 19.3866 3.83254 18.7534 4.22307 18.3629L7.05307 15.5329C7.44359 15.1424 8.07676 15.1424 8.46728 15.5329Z" fill="#383641"/>
<path d="M19.7771 5.63704C20.1676 5.24651 20.1676 4.61335 19.7771 4.22282C19.3866 3.8323 18.7534 3.8323 18.3629 4.22283L15.5329 7.05282C15.1424 7.44335 15.1424 8.07652 15.5329 8.46704C15.9234 8.85756 16.5566 8.85756 16.9471 8.46704L19.7771 5.63704Z" fill="#383641"/>
</mask>
<g mask="url(#mask0_512_1003)">
<rect width="24" height="24" fill="#383641"/>
</g>
</svg>
