<svg width="24" height="24" viewBox="0 0 24 24" fill="none" xmlns="http://www.w3.org/2000/svg">
<path fill-rule="evenodd" clip-rule="evenodd" d="M11.75 1.25C12.1642 1.25 12.5 1.58579 12.5 2V6C12.5 6.41421 12.1642 6.75 11.75 6.75C11.3358 6.75 11 6.41421 11 6V2C11 1.58579 11.3358 1.25 11.75 1.25ZM4.14936 4.39936C4.44225 4.10646 4.91712 4.10646 5.21002 4.39936L8.04002 7.22936C8.33291 7.52225 8.33291 7.99712 8.04002 8.29002C7.74712 8.58291 7.27225 8.58291 6.97936 8.29002L4.14936 5.46002C3.85646 5.16712 3.85646 4.69225 4.14936 4.39936ZM19.3506 4.39936C19.6435 4.69225 19.6435 5.16712 19.3506 5.46002L16.5206 8.29002C16.2277 8.58291 15.7528 8.58291 15.4599 8.29002C15.167 7.99712 15.167 7.52225 15.4599 7.22936L18.2899 4.39936C18.5828 4.10646 19.0577 4.10646 19.3506 4.39936ZM1 12C1 11.5858 1.33579 11.25 1.75 11.25H5.75C6.16421 11.25 6.5 11.5858 6.5 12C6.5 12.4142 6.16421 12.75 5.75 12.75H1.75C1.33579 12.75 1 12.4142 1 12ZM17 12C17 11.5858 17.3358 11.25 17.75 11.25H21.75C22.1642 11.25 22.5 11.5858 22.5 12C22.5 12.4142 22.1642 12.75 21.75 12.75H17.75C17.3358 12.75 17 12.4142 17 12ZM8.04002 15.7099C8.33291 16.0028 8.33291 16.4777 8.04002 16.7706L5.21002 19.6006C4.91712 19.8935 4.44225 19.8935 4.14936 19.6006C3.85646 19.3077 3.85646 18.8328 4.14936 18.5399L6.97936 15.7099C7.27225 15.417 7.74712 15.417 8.04002 15.7099ZM15.4599 15.7099C15.7528 15.417 16.2277 15.417 16.5206 15.7099L19.3506 18.5399C19.6435 18.8328 19.6435 19.3077 19.3506 19.6006C19.0577 19.8935 18.5828 19.8935 18.2899 19.6006L15.4599 16.7706C15.167 16.4777 15.167 16.0028 15.4599 15.7099ZM11.75 17.25C12.1642 17.25 12.5 17.5858 12.5 18V22C12.5 22.4142 12.1642 22.75 11.75 22.75C11.3358 22.75 11 22.4142 11 22V18C11 17.5858 11.3358 17.25 11.75 17.25Z" fill="#383641"/>
</svg>
