<svg width="24" height="24" viewBox="0 0 24 24" fill="none" xmlns="http://www.w3.org/2000/svg">
<mask id="mask0_2227_2512" style="mask-type:alpha" maskUnits="userSpaceOnUse" x="2" y="0" width="20" height="23">
<path d="M19 9.99986H8V6.99986C8 5.99986 8.4 5.09986 9 4.29986C9.7 3.59986 10.6 3.09986 11.6 2.99986C12.6 2.89986 13.6 3.19986 14.4 3.79986C15.2 4.39986 15.7 5.29986 15.9 6.19986C16 6.69986 16.6 7.09986 17.1 6.99986C17.6 6.89986 18 6.39986 17.9 5.79986C17.6 4.29986 16.8 2.99986 15.6 2.19986C14.4 1.29986 12.9 0.899863 11.4 0.999863C9.9 1.19986 8.5 1.89986 7.5 2.99986C6.5 4.09986 6 5.49986 6 6.99986V9.99986H5C3.3 9.99986 2 11.2999 2 12.9999V19.9999C2 21.6999 3.3 22.9999 5 22.9999H19C20.7 22.9999 22 21.6999 22 19.9999V12.9999C22 11.3999 20.7 9.99986 19 9.99986ZM20 19.9999C20 20.5999 19.6 20.9999 19 20.9999H5C4.4 20.9999 4 20.5999 4 19.9999V12.9999C4 12.3999 4.4 11.9999 5 11.9999H19C19.6 11.9999 20 12.3999 20 12.9999V19.9999Z" fill="#383641"/>
</mask>
<g mask="url(#mask0_2227_2512)">
<rect width="24" height="24" fill="#383641"/>
</g>
</svg>
