<svg width="24" height="24" viewBox="0 0 24 24" fill="none" xmlns="http://www.w3.org/2000/svg">
<mask id="mask0_512_1016" style="mask-type:alpha" maskUnits="userSpaceOnUse" x="3" y="3" width="18" height="18">
<path d="M5.66667 5C5.51144 5 5.34844 5.06518 5.21769 5.20464C5.0849 5.34628 5 5.55142 5 5.77778V18.2222C5 18.4486 5.0849 18.6537 5.21769 18.7954C5.34844 18.9348 5.51144 19 5.66667 19H9C9.55228 19 10 19.4477 10 20C10 20.5523 9.55228 21 9 21H5.66667C4.93783 21 4.253 20.6906 3.75862 20.1632C3.26629 19.6381 3 18.9389 3 18.2222V5.77778C3 5.06114 3.26629 4.36191 3.75862 3.83676C4.253 3.30942 4.93783 3 5.66667 3H9C9.55228 3 10 3.44772 10 4C10 4.55228 9.55228 5 9 5H5.66667Z" fill="#383641"/>
<path d="M15.2929 7.29289C15.6834 6.90237 16.3166 6.90237 16.7071 7.29289L20.7071 11.2929C21.0976 11.6834 21.0976 12.3166 20.7071 12.7071L16.7071 16.7071C16.3166 17.0976 15.6834 17.0976 15.2929 16.7071C14.9024 16.3166 14.9024 15.6834 15.2929 15.2929L17.5858 13H9C8.44772 13 8 12.5523 8 12C8 11.4477 8.44772 11 9 11H17.5858L15.2929 8.70711C14.9024 8.31658 14.9024 7.68342 15.2929 7.29289Z" fill="#383641"/>
</mask>
<g mask="url(#mask0_512_1016)">
<rect width="24" height="24" fill="#383641"/>
</g>
</svg>
