<svg width="24" height="24" viewBox="0 0 24 24" fill="none" xmlns="http://www.w3.org/2000/svg">
<path fill-rule="evenodd" clip-rule="evenodd" d="M2.55176 5.39574L11.75 11.8345L20.9482 5.39574C20.794 4.8802 20.313 4.5 19.75 4.5H3.75C3.18705 4.5 2.70602 4.8802 2.55176 5.39574ZM21 7.19049L12.1801 13.3644C11.9219 13.5452 11.5781 13.5452 11.3199 13.3644L2.5 7.19049V17.75C2.5 18.4358 3.06421 19 3.75 19H19.75C20.4358 19 21 18.4358 21 17.75V7.19049ZM1 5.75C1 4.23579 2.23579 3 3.75 3H19.75C21.2642 3 22.5 4.23579 22.5 5.75V17.75C22.5 19.2642 21.2642 20.5 19.75 20.5H3.75C2.23579 20.5 1 19.2642 1 17.75V5.75Z" fill="#383641"/>
</svg>
