<svg width="24" height="24" viewBox="0 0 24 24" fill="none" xmlns="http://www.w3.org/2000/svg">
<path d="M19.7992 2.7L21.4992 4.4C21.8992 4.8 22.1992 5.4 22.1992 6C22.1992 6.6 21.9992 7.2 21.5992 7.6L11.0992 19.4L4.69922 13L16.4992 2.6C16.9992 2.2 17.4992 2 18.1992 2C18.7992 2 19.3992 2.3 19.7992 2.7Z" fill="#F7C072"/>
<path d="M3.7 15.9999V14.5999L9.4 20.2999H8.1C7.7 20.2999 7.2 20.3999 6.8 20.4999C6.4 20.6999 6.1 20.8999 5.8 21.1999L5.7 21.2999L5.5 21.3999C5.45 21.3999 5.425 21.4249 5.4 21.4499C5.375 21.4749 5.35 21.4999 5.3 21.4999C5.18284 21.4999 5.06569 21.5343 4.96863 21.5627C4.9 21.5828 4.84142 21.5999 4.8 21.5999L1.9 21.4999C1.7 21.4999 1.5 21.3999 1.4 21.2999C1.2 21.1999 1.1 21.0999 1.1 20.8999C1 20.7999 1 20.5999 1 20.3999C1 20.1999 1.1 19.9999 1.3 19.8999L2.8 18.2999C2.9 18.1999 2.975 18.0749 3.05 17.9499C3.125 17.8249 3.2 17.6999 3.3 17.5999C3.35 17.5499 3.375 17.4999 3.4 17.4499C3.425 17.3999 3.45 17.3499 3.5 17.2999C3.7 16.8999 3.7 16.4999 3.7 15.9999Z" fill="#F7C072"/>
</svg>
