<svg width="24" height="24" viewBox="0 0 24 24" fill="none" xmlns="http://www.w3.org/2000/svg">
<path fill-rule="evenodd" clip-rule="evenodd" d="M9.57151 2.0174C10.343 1.3561 11.3678 1 12.4166 1C13.4654 1 14.4902 1.3561 15.2617 2.0174C16.0368 2.68176 16.5 3.60988 16.5 4.60714V12.2262C16.5 13.2235 16.0368 14.1516 15.2617 14.8159C14.4902 15.4772 13.4654 15.8333 12.4166 15.8333C11.3678 15.8333 10.343 15.4772 9.57151 14.8159C8.79642 14.1516 8.33329 13.2235 8.33329 12.2262V4.60714C8.33329 3.60988 8.79642 2.68176 9.57151 2.0174ZM12.4166 2.5C11.6973 2.5 11.0264 2.74594 10.5477 3.15628C10.0725 3.56356 9.83329 4.08888 9.83329 4.60714V12.2262C9.83329 12.7445 10.0725 13.2698 10.5477 13.6771C11.0264 14.0874 11.6973 14.3333 12.4166 14.3333C13.1359 14.3333 13.8068 14.0874 14.2856 13.6771C14.7607 13.2698 15 12.7445 15 12.2262V4.60714C15 4.08888 14.7607 3.56356 14.2856 3.15628C13.8068 2.74594 13.1359 2.5 12.4166 2.5ZM5.75 8.77781C6.16421 8.77781 6.5 9.11359 6.5 9.52781V11.5031C6.5 13.1464 7.12974 14.7172 8.2425 15.8712C9.35437 17.0242 10.8565 17.6667 12.4167 17.6667C13.9769 17.6667 15.479 17.0242 16.5908 15.8712C17.7036 14.7172 18.3333 13.1464 18.3333 11.5031V9.52781C18.3333 9.11359 18.6691 8.77781 19.0833 8.77781C19.4975 8.77781 19.8333 9.11359 19.8333 9.52781V11.5031C19.8333 13.527 19.0583 15.4732 17.6706 16.9124C16.4589 18.169 14.8659 18.9491 13.1667 19.1275L13.1667 21H15.75C16.1642 21 16.5 21.3358 16.5 21.75C16.5 22.1642 16.1642 22.5 15.75 22.5H9.08329C8.66908 22.5 8.33329 22.1642 8.33329 21.75C8.33329 21.3358 8.66908 21 9.08329 21H11.6667L11.6667 19.1275C9.96749 18.9491 8.37448 18.169 7.16274 16.9124C5.77502 15.4732 5 13.527 5 11.5031V9.52781C5 9.11359 5.33579 8.77781 5.75 8.77781Z" fill="#383641"/>
</svg>
