<svg width="24" height="24" viewBox="0 0 24 24" fill="none" xmlns="http://www.w3.org/2000/svg">
<mask id="mask0_512_1005" style="mask-type:alpha" maskUnits="userSpaceOnUse" x="3" y="10" width="18" height="4">
<path d="M5 10C3.89543 10 3 10.8954 3 12C3 13.1046 3.89543 14 5 14C6.10457 14 7 13.1046 7 12C7 10.8954 6.10457 10 5 10Z" fill="#383641"/>
<path d="M10 12C10 10.8954 10.8954 10 12 10C13.1046 10 14 10.8954 14 12C14 13.1046 13.1046 14 12 14C10.8954 14 10 13.1046 10 12Z" fill="#383641"/>
<path d="M17 12C17 10.8954 17.8954 10 19 10C20.1046 10 21 10.8954 21 12C21 13.1046 20.1046 14 19 14C17.8954 14 17 13.1046 17 12Z" fill="#383641"/>
</mask>
<g mask="url(#mask0_512_1005)">
<rect width="24" height="24" fill="#383641"/>
</g>
</svg>
