<svg width="24" height="24" viewBox="0 0 24 24" fill="none" xmlns="http://www.w3.org/2000/svg">
<mask id="mask0_565_4812" style="mask-type:alpha" maskUnits="userSpaceOnUse" x="1" y="0" width="22" height="23">
<path fill-rule="evenodd" clip-rule="evenodd" d="M15.78 2.3877C14.9837 2.3877 14.2201 2.704 13.6571 3.26703L4.46709 12.457C3.52878 13.3953 3.00165 14.668 3.00165 15.9949C3.00165 17.3219 3.52878 18.5945 4.46709 19.5328C5.4054 20.4711 6.67802 20.9983 8.00498 20.9983C9.33195 20.9983 10.6046 20.4711 11.5429 19.5328L20.7329 10.3428C21.1234 9.95229 21.7566 9.95229 22.1471 10.3428C22.5376 10.7333 22.5376 11.3665 22.1471 11.757L12.9571 20.947C11.6437 22.2604 9.86238 22.9983 8.00498 22.9983C6.14758 22.9983 4.36626 22.2604 3.05288 20.947C1.7395 19.6336 1.00165 17.8523 1.00165 15.9949C1.00165 14.1375 1.7395 12.3562 3.05288 11.0428L12.2429 1.85281C13.181 0.914714 14.4533 0.387695 15.78 0.387695C17.1067 0.387695 18.379 0.914714 19.3171 1.85281C20.2552 2.79091 20.7822 4.06325 20.7822 5.38992C20.7822 6.71659 20.2552 7.98893 19.3171 8.92703L10.1171 18.117C9.55427 18.6798 8.79093 18.996 7.99498 18.996C7.19904 18.996 6.43569 18.6798 5.87288 18.117C5.31006 17.5542 4.99387 16.7909 4.99387 15.9949C4.99387 15.199 5.31006 14.4356 5.87288 13.8728L14.3633 5.3924C14.754 5.0021 15.3872 5.00247 15.7775 5.39323C16.1678 5.78398 16.1674 6.41715 15.7767 6.80744L7.28709 15.287C7.09961 15.4747 6.99387 15.7296 6.99387 15.9949C6.99387 16.2604 7.09935 16.5151 7.28709 16.7028C7.47484 16.8906 7.72947 16.996 7.99498 16.996C8.2605 16.996 8.51513 16.8906 8.70288 16.7028L17.9029 7.51281C18.4657 6.94982 18.7822 6.18598 18.7822 5.38992C18.7822 4.59368 18.4659 3.83005 17.9029 3.26703C17.3399 2.704 16.5762 2.3877 15.78 2.3877Z" fill="#383641"/>
</mask>
<g mask="url(#mask0_565_4812)">
<rect width="24" height="24" fill="#383641"/>
</g>
</svg>
