<svg width="24" height="24" viewBox="0 0 24 24" fill="none" xmlns="http://www.w3.org/2000/svg">
<mask id="mask0_1016_201" style="mask-type:alpha" maskUnits="userSpaceOnUse" x="5" y="3" width="14" height="18">
<path fill-rule="evenodd" clip-rule="evenodd" d="M6 3C5.44772 3 5 3.44772 5 4V20C5 20.5523 5.44772 21 6 21H10C10.5523 21 11 20.5523 11 20V4C11 3.44772 10.5523 3 10 3H6ZM7 19V5H9V19H7Z" fill="#383641"/>
<path fill-rule="evenodd" clip-rule="evenodd" d="M14 3C13.4477 3 13 3.44772 13 4V20C13 20.5523 13.4477 21 14 21H18C18.5523 21 19 20.5523 19 20V4C19 3.44772 18.5523 3 18 3H14ZM15 19V5H17V19H15Z" fill="#383641"/>
</mask>
<g mask="url(#mask0_1016_201)">
<rect width="24" height="24" fill="#383641"/>
</g>
</svg>
