<svg width="24" height="24" viewBox="0 0 24 24" fill="none" xmlns="http://www.w3.org/2000/svg">
<path fill-rule="evenodd" clip-rule="evenodd" d="M2.73633 2.76986C3.18678 2.22933 3.77041 2 4.25 2H7.25C8.10225 2 8.80009 2.45366 9.31481 3.02626C9.83002 3.5994 10.2208 4.35116 10.4842 5.12322C10.749 5.89911 10.8999 6.73892 10.9046 7.51595C10.9091 8.27474 10.7743 9.06563 10.374 9.66603C10.3466 9.70712 10.3153 9.74541 10.2803 9.78033L9.62977 10.4309C10.0433 11.3124 10.8241 12.213 11.737 13.028C12.5647 13.767 13.4474 14.3883 14.1298 14.8095L14.7197 14.2197C14.9864 13.953 15.3373 13.8186 15.6488 13.7459C15.9722 13.6705 16.3334 13.6434 16.6996 13.6474C17.4334 13.6554 18.2794 13.79 19.0779 14.0102C19.8727 14.2294 20.6695 14.547 21.2861 14.9493C21.8523 15.3187 22.5 15.9152 22.5 16.75V19.75C22.5 20.7944 22.048 21.5196 21.4382 21.9587C20.8667 22.3702 20.2034 22.5 19.75 22.5C19.7132 22.5 19.6765 22.4973 19.6401 22.4919C12.6599 21.4578 8.2408 17.8265 5.57865 14.1254C4.25155 12.2805 3.36129 10.4196 2.80159 8.85405C2.24831 7.30647 2 5.99604 2 5.25C2 4.128 2.28148 3.31568 2.73633 2.76986ZM3.88867 3.73014C3.71852 3.93432 3.5 4.372 3.5 5.25C3.5 5.75396 3.68919 6.88103 4.21404 8.34908C4.73246 9.79917 5.56095 11.532 6.79635 13.2496C9.25143 16.6627 13.3144 20.0209 19.7982 20.9989C20.0117 20.9892 20.319 20.9162 20.5618 20.7414C20.7853 20.5804 21 20.3056 21 19.75V16.75C21 16.7338 20.9614 16.5285 20.4665 16.2056C20.022 15.9156 19.3831 15.6504 18.6791 15.4562C17.9787 15.263 17.2628 15.1537 16.6832 15.1473C16.3928 15.1441 16.1594 15.1671 15.9894 15.2068C15.8296 15.244 15.7782 15.2836 15.7777 15.283C15.7777 15.283 15.7778 15.2829 15.7779 15.2827L14.7803 16.2803C14.5435 16.5171 14.1785 16.5682 13.8858 16.4056C13.0929 15.9651 11.8714 15.1588 10.738 14.147C9.62091 13.1497 8.50138 11.8758 8.03849 10.4872C7.94865 10.2177 8.0188 9.92054 8.21967 9.71967L9.15939 8.77995C9.30565 8.52568 9.40805 8.10063 9.4046 7.52494C9.401 6.92456 9.28212 6.24514 9.06459 5.60757C8.84576 4.96616 8.54192 4.41022 8.19927 4.02904C7.85612 3.6473 7.53288 3.5 7.25 3.5H4.25C4.22959 3.5 4.06322 3.52067 3.88867 3.73014Z" fill="#383641"/>
</svg>
