<svg width="24" height="24" viewBox="0 0 24 24" fill="none" xmlns="http://www.w3.org/2000/svg">
<path fill-rule="evenodd" clip-rule="evenodd" d="M11.75 2.5C6.64137 2.5 2.5 6.64137 2.5 11.75C2.5 16.8586 6.64137 21 11.75 21C16.8586 21 21 16.8586 21 11.75C21 6.64137 16.8586 2.5 11.75 2.5ZM1 11.75C1 5.81294 5.81294 1 11.75 1C17.6871 1 22.5 5.81294 22.5 11.75C22.5 17.6871 17.6871 22.5 11.75 22.5C5.81294 22.5 1 17.6871 1 11.75ZM8 8.75C8 8.33579 8.33579 8 8.75 8H8.76C9.17421 8 9.51 8.33579 9.51 8.75C9.51 9.16421 9.17421 9.5 8.76 9.5H8.75C8.33579 9.5 8 9.16421 8 8.75ZM14 8.75C14 8.33579 14.3358 8 14.75 8H14.76C15.1742 8 15.51 8.33579 15.51 8.75C15.51 9.16421 15.1742 9.5 14.76 9.5H14.75C14.3358 9.5 14 9.16421 14 8.75ZM11.75 14.6201C9.64654 14.6201 8.63278 15.7816 8.42082 16.2055C8.23558 16.576 7.78507 16.7262 7.41459 16.5409C7.04411 16.3557 6.89394 15.9052 7.07918 15.5347C7.53389 14.6253 9.05346 13.1201 11.75 13.1201C14.4465 13.1201 15.9661 14.6253 16.4208 15.5347C16.6061 15.9052 16.4559 16.3557 16.0854 16.5409C15.7149 16.7262 15.2644 16.576 15.0792 16.2055C14.8672 15.7816 13.8535 14.6201 11.75 14.6201Z" fill="#383641"/>
</svg>
