<svg width="24" height="24" viewBox="0 0 24 24" fill="none" xmlns="http://www.w3.org/2000/svg">
<mask id="mask0_512_1043" style="mask-type:alpha" maskUnits="userSpaceOnUse" x="3" y="3" width="18" height="19">
<path fill-rule="evenodd" clip-rule="evenodd" d="M16.0958 17.5105C14.7206 18.5832 12.9905 19.2224 11.1112 19.2224C6.6315 19.2224 3 15.5909 3 11.1112C3 6.6315 6.6315 3 11.1112 3C15.5909 3 19.2224 6.6315 19.2224 11.1112C19.2224 12.9907 18.5831 14.721 17.5101 16.0963L20.7071 19.2933C21.0976 19.6839 21.0976 20.317 20.7071 20.7075C20.3166 21.0981 19.6834 21.0981 19.2929 20.7075L16.0958 17.5105ZM5 11.1112C5 7.73607 7.73607 5 11.1112 5C14.4863 5 17.2224 7.73607 17.2224 11.1112C17.2224 12.755 16.5734 14.2472 15.5176 15.3456C15.4859 15.3704 15.4554 15.3974 15.4262 15.4266C15.397 15.4558 15.37 15.4863 15.3452 15.518C14.2469 16.5735 12.7548 17.2224 11.1112 17.2224C7.73607 17.2224 5 14.4863 5 11.1112Z" fill="#383641"/>
</mask>
<g mask="url(#mask0_512_1043)">
<rect width="24" height="24" fill="#383641"/>
</g>
</svg>
