<svg width="24" height="24" viewBox="0 0 24 24" fill="none" xmlns="http://www.w3.org/2000/svg">
<mask id="mask0_512_1012" style="mask-type:alpha" maskUnits="userSpaceOnUse" x="1" y="1" width="22" height="22">
<path fill-rule="evenodd" clip-rule="evenodd" d="M11.75 2.5C11.4667 2.5 11.195 2.61254 10.9947 2.81286C10.7944 3.01319 10.6818 3.28488 10.6818 3.56818V3.72273L10.6818 3.72572C10.6801 4.16452 10.55 4.59323 10.3078 4.95908C10.0655 5.32493 9.7215 5.61195 9.31818 5.78481C9.24983 5.8141 9.17765 5.83301 9.10403 5.84103C8.73303 5.97412 8.3326 6.00772 7.94293 5.93706C7.50057 5.85685 7.09239 5.64597 6.77101 5.3316L6.76509 5.32582L6.71058 5.27124C6.61137 5.17192 6.49327 5.09284 6.3636 5.03908C6.23392 4.98533 6.09492 4.95766 5.95455 4.95766C5.81417 4.95766 5.67517 4.98533 5.5455 5.03908C5.41582 5.09284 5.29801 5.17163 5.19881 5.27094C5.09949 5.37015 5.02011 5.48855 4.96636 5.61822C4.9126 5.7479 4.88493 5.8869 4.88493 6.02727C4.88493 6.16765 4.9126 6.30665 4.96636 6.43632C5.02011 6.566 5.0989 6.68381 5.19822 6.78301L5.25891 6.8437C5.57328 7.16508 5.78413 7.5733 5.86434 8.01566C5.94313 8.45024 5.89226 8.89822 5.71833 9.30382C5.56097 9.71816 5.28465 10.077 4.92386 10.335C4.55664 10.5977 4.11889 10.7438 3.66754 10.7543L3.65 10.7545H3.56818C3.28488 10.7545 3.01319 10.8671 2.81286 11.0674C2.61254 11.2677 2.5 11.5394 2.5 11.8227C2.5 12.106 2.61254 12.3777 2.81286 12.578C3.01319 12.7784 3.28488 12.8909 3.56818 12.8909H3.72572C4.16452 12.8927 4.59323 13.0227 4.95908 13.265C5.3238 13.5065 5.61018 13.8491 5.7832 14.2508C5.96344 14.6612 6.01703 15.116 5.93706 15.5571C5.85685 15.9994 5.64597 16.4076 5.3316 16.729L5.32581 16.7349L5.27123 16.7894C5.17192 16.8886 5.09284 17.0067 5.03908 17.1364C4.98533 17.2661 4.95766 17.4051 4.95766 17.5455C4.95766 17.6858 4.98533 17.8248 5.03908 17.9545C5.09284 18.0842 5.17163 18.202 5.27094 18.3012C5.37015 18.4005 5.48855 18.4799 5.61822 18.5336C5.7479 18.5874 5.8869 18.6151 6.02727 18.6151C6.16765 18.6151 6.30665 18.5874 6.43632 18.5336C6.566 18.4799 6.68381 18.4011 6.78301 18.3018L6.8437 18.2411C7.16508 17.9267 7.5733 17.7159 8.01566 17.6357C8.45025 17.5569 8.89824 17.6077 9.30385 17.7817C9.71818 17.939 10.077 18.2154 10.335 18.5761C10.5977 18.9434 10.7438 19.3811 10.7543 19.8325L10.7545 19.85V19.9318C10.7545 20.2151 10.8671 20.4868 11.0674 20.6871C11.2677 20.8875 11.5394 21 11.8227 21C12.106 21 12.3777 20.8875 12.578 20.6871C12.7784 20.4868 12.8909 20.2151 12.8909 19.9318V19.7773L12.8909 19.7743C12.8927 19.3355 13.0227 18.9068 13.265 18.5409C13.5065 18.1762 13.8491 17.8898 14.2509 17.7168C14.6612 17.5366 15.116 17.483 15.5571 17.5629C15.9994 17.6431 16.4076 17.854 16.729 18.1684L16.7349 18.1742L16.7894 18.2288C16.8886 18.3281 17.0067 18.4072 17.1364 18.4609C17.2661 18.5147 17.4051 18.5423 17.5455 18.5423C17.6858 18.5423 17.8248 18.5147 17.9545 18.4609C18.0842 18.4072 18.202 18.3284 18.3012 18.2291C18.4005 18.1298 18.4799 18.0115 18.5336 17.8818C18.5874 17.7521 18.6151 17.6131 18.6151 17.4727C18.6151 17.3324 18.5874 17.1934 18.5336 17.0637C18.4799 16.934 18.4011 16.8162 18.3018 16.717L18.2411 16.6563C17.9267 16.3349 17.7159 15.9267 17.6357 15.4843C17.5557 15.0432 17.6093 14.5883 17.7896 14.1779C17.9626 13.7763 18.249 13.4337 18.6136 13.1922C18.9795 12.95 19.4082 12.8199 19.847 12.8182L19.85 12.8182L19.9318 12.8182C20.2151 12.8182 20.4868 12.7056 20.6871 12.5053C20.8875 12.305 21 12.0333 21 11.75C21 11.4667 20.8875 11.195 20.6871 10.9947C20.4868 10.7944 20.2151 10.6818 19.9318 10.6818H19.7773L19.7743 10.6818C19.3355 10.6801 18.9068 10.55 18.5409 10.3078C18.1751 10.0655 17.8881 9.7215 17.7152 9.31818C17.6859 9.24983 17.667 9.17765 17.659 9.10403C17.5259 8.73303 17.4923 8.33259 17.5629 7.94293C17.6431 7.50057 17.854 7.09239 18.1684 6.77101L18.1742 6.7651L18.2288 6.71058C18.3281 6.61138 18.4072 6.49327 18.4609 6.3636C18.5147 6.23392 18.5423 6.09492 18.5423 5.95455C18.5423 5.81417 18.5147 5.67517 18.4609 5.5455C18.4072 5.41582 18.3284 5.29801 18.2291 5.19881C18.1298 5.09949 18.0115 5.02011 17.8818 4.96636C17.7521 4.9126 17.6131 4.88493 17.4727 4.88493C17.3324 4.88493 17.1934 4.9126 17.0637 4.96636C16.934 5.02011 16.8162 5.0989 16.717 5.19822L16.6563 5.25891C16.3349 5.57328 15.9267 5.78413 15.4843 5.86434C15.0433 5.9443 14.5885 5.89072 14.1781 5.71049C13.7764 5.53746 13.4338 5.25108 13.1922 4.88635C12.95 4.5205 12.8199 4.09179 12.8182 3.65299L12.8182 3.65V3.56818C12.8182 3.28488 12.7056 3.01319 12.5053 2.81286C12.305 2.61254 12.0333 2.5 11.75 2.5ZM9.93402 1.7522C10.4156 1.27058 11.0689 1 11.75 1C12.4311 1 13.0844 1.27058 13.566 1.7522C14.0476 2.23383 14.3182 2.88706 14.3182 3.56818V3.64821C14.319 3.79405 14.3623 3.93651 14.4429 4.05813C14.5236 4.18008 14.6383 4.27575 14.7727 4.33337L14.7801 4.33654C14.9172 4.39705 15.0693 4.41514 15.2167 4.3884C15.3631 4.36187 15.4982 4.29244 15.6049 4.18898L15.6557 4.13815C15.8943 3.89937 16.1775 3.70994 16.4893 3.5807C16.801 3.45146 17.1352 3.38493 17.4727 3.38493C17.8102 3.38493 18.1444 3.45146 18.4562 3.5807C18.7677 3.70983 19.0507 3.89906 19.2891 4.13756C19.5279 4.37607 19.7173 4.65931 19.8466 4.97109C19.9758 5.28286 20.0423 5.61705 20.0423 5.95455C20.0423 6.29204 19.9758 6.62623 19.8466 6.93801C19.7173 7.24978 19.5279 7.53302 19.2891 7.77153L19.2383 7.82237C19.1348 7.92911 19.0654 8.06422 19.0389 8.21054C19.0121 8.358 19.0302 8.51008 19.0907 8.64718C19.1157 8.7038 19.1335 8.76314 19.1439 8.82384C19.2008 8.91673 19.2776 8.99649 19.3691 9.05714C19.4907 9.13766 19.6332 9.18099 19.779 9.18182H19.9318C20.6129 9.18182 21.2662 9.45239 21.7478 9.93402C22.2294 10.4156 22.5 11.0689 22.5 11.75C22.5 12.4311 22.2294 13.0844 21.7478 13.566C21.2662 14.0476 20.6129 14.3182 19.9318 14.3182H19.8518C19.7059 14.319 19.5635 14.3623 19.4419 14.4429C19.3199 14.5236 19.2242 14.6383 19.1666 14.7727L19.1635 14.7801C19.103 14.9172 19.0849 15.0693 19.1116 15.2167C19.1381 15.363 19.2075 15.4981 19.311 15.6049L19.3619 15.6557C19.6006 15.8943 19.7901 16.1775 19.9193 16.4893C20.0485 16.801 20.1151 17.1352 20.1151 17.4727C20.1151 17.8102 20.0485 18.1444 19.9193 18.4562C19.7901 18.7678 19.6008 19.051 19.3621 19.2894C19.1237 19.5281 18.8406 19.7174 18.5289 19.8466C18.2171 19.9758 17.883 20.0423 17.5455 20.0423C17.208 20.0423 16.8738 19.9758 16.562 19.8466C16.2502 19.7173 15.967 19.5279 15.7285 19.2891L15.6776 19.2383C15.5709 19.1348 15.4358 19.0654 15.2895 19.0389C15.142 19.0121 14.9899 19.0302 14.8528 19.0907L14.8455 19.0939C14.711 19.1516 14.5964 19.2472 14.5156 19.3691C14.435 19.4908 14.3917 19.6332 14.3909 19.7791V19.9318C14.3909 20.6129 14.1203 21.2662 13.6387 21.7478C13.1571 22.2294 12.5039 22.5 11.8227 22.5C11.1416 22.5 10.4884 22.2294 10.0067 21.7478C9.52512 21.2662 9.25455 20.6129 9.25455 19.9318V19.8603C9.24965 19.7124 9.20112 19.5692 9.11498 19.4488C9.02743 19.3264 8.90508 19.2331 8.76384 19.1812C8.74901 19.1757 8.73436 19.1698 8.7199 19.1634C8.58281 19.1029 8.43073 19.0849 8.28327 19.1116C8.13695 19.1381 8.00184 19.2076 7.8951 19.311L7.84426 19.3619C7.60575 19.6006 7.3225 19.7901 7.01073 19.9193C6.69896 20.0485 6.36477 20.1151 6.02727 20.1151C5.68978 20.1151 5.35559 20.0485 5.04381 19.9193C4.73204 19.7901 4.4488 19.6006 4.21028 19.3619C3.97178 19.1235 3.78256 18.8404 3.65343 18.5289C3.52418 18.2171 3.45766 17.883 3.45766 17.5455C3.45766 17.208 3.52418 16.8738 3.65343 16.562C3.78267 16.2502 3.97209 15.967 4.21087 15.7285L4.2617 15.6776C4.36517 15.5709 4.4346 15.4358 4.46113 15.2895C4.48786 15.142 4.46981 14.9899 4.40931 14.8528L4.40606 14.8455C4.34844 14.711 4.25281 14.5964 4.13086 14.5156C4.00924 14.435 3.86678 14.3917 3.72093 14.3909H3.56818C2.88706 14.3909 2.23383 14.1203 1.7522 13.6387C1.27058 13.1571 1 12.5039 1 11.8227C1 11.1416 1.27058 10.4884 1.7522 10.0067C2.23383 9.52512 2.88706 9.25455 3.56818 9.25455H3.63972C3.78761 9.24965 3.9308 9.20112 4.05123 9.11498C4.17364 9.02743 4.26688 8.90509 4.31883 8.76384C4.32428 8.74901 4.3302 8.73436 4.33658 8.7199C4.39709 8.58281 4.41514 8.43072 4.3884 8.28327C4.36187 8.13695 4.29244 8.00183 4.18897 7.89509L4.13815 7.84426C4.13805 7.84416 4.13825 7.84436 4.13815 7.84426C3.89951 7.60581 3.70989 7.32238 3.5807 7.01073C3.45146 6.69896 3.38493 6.36477 3.38493 6.02727C3.38493 5.68977 3.45146 5.35559 3.5807 5.04381C3.70989 4.73217 3.89921 4.44903 4.13785 4.21058C4.37631 3.97194 4.65944 3.78261 4.97109 3.65343C5.28286 3.52418 5.61705 3.45766 5.95455 3.45766C6.29204 3.45766 6.62623 3.52418 6.93801 3.65343C7.24965 3.78261 7.53279 3.97194 7.77124 4.21058C7.77114 4.21048 7.77134 4.21068 7.77124 4.21058L7.82236 4.2617C7.92911 4.36517 8.06422 4.4346 8.21054 4.46113C8.358 4.48786 8.51008 4.46981 8.64718 4.40931C8.7038 4.38432 8.76315 4.3665 8.82384 4.35614C8.91674 4.29919 8.99649 4.22243 9.05714 4.13086C9.13766 4.00926 9.18099 3.86684 9.18182 3.72102V3.56818C9.18182 2.88706 9.45239 2.23383 9.93402 1.7522ZM11.7507 9.77344C10.6587 9.77344 9.77344 10.6587 9.77344 11.7507C9.77344 12.8427 10.6587 13.728 11.7507 13.728C12.8427 13.728 13.728 12.8427 13.728 11.7507C13.728 10.6587 12.8427 9.77344 11.7507 9.77344ZM8.27344 11.7507C8.27344 9.83027 9.83027 8.27344 11.7507 8.27344C13.6712 8.27344 15.228 9.83026 15.228 11.7507C15.228 13.6712 13.6712 15.228 11.7507 15.228C9.83026 15.228 8.27344 13.6712 8.27344 11.7507Z" fill="#383641"/>
</mask>
<g mask="url(#mask0_512_1012)">
<rect width="24" height="24" fill="#383641"/>
</g>
</svg>
