<svg width="24" height="24" viewBox="0 0 24 24" fill="none" xmlns="http://www.w3.org/2000/svg">
<path fill-rule="evenodd" clip-rule="evenodd" d="M5.15 1.3C5.29164 1.11115 5.51393 1 5.75 1H17.75C17.9861 1 18.2084 1.11115 18.35 1.3L21.35 5.3C21.4474 5.42982 21.5 5.58772 21.5 5.75V19.75C21.5 20.4793 21.2103 21.1788 20.6945 21.6945C20.1788 22.2103 19.4793 22.5 18.75 22.5H4.75C4.02065 22.5 3.32118 22.2103 2.80546 21.6945C2.28973 21.1788 2 20.4793 2 19.75V5.75C2 5.58772 2.05263 5.42982 2.15 5.3L5.15 1.3ZM6.125 2.5L4.25 5H19.25L17.375 2.5H6.125ZM20 6.5H3.5V19.75C3.5 20.0815 3.6317 20.3995 3.86612 20.6339C4.10054 20.8683 4.41848 21 4.75 21H18.75C19.0815 21 19.3995 20.8683 19.6339 20.6339C19.8683 20.3995 20 20.0815 20 19.75V6.5ZM7.75 9C8.16421 9 8.5 9.33579 8.5 9.75C8.5 10.612 8.84241 11.4386 9.4519 12.0481C10.0614 12.6576 10.888 13 11.75 13C12.612 13 13.4386 12.6576 14.0481 12.0481C14.6576 11.4386 15 10.612 15 9.75C15 9.33579 15.3358 9 15.75 9C16.1642 9 16.5 9.33579 16.5 9.75C16.5 11.0098 15.9996 12.218 15.1088 13.1088C14.218 13.9996 13.0098 14.5 11.75 14.5C10.4902 14.5 9.28204 13.9996 8.39124 13.1088C7.50044 12.218 7 11.0098 7 9.75C7 9.33579 7.33579 9 7.75 9Z" fill="#383641"/>
</svg>
