<svg width="24" height="24" viewBox="0 0 24 24" fill="none" xmlns="http://www.w3.org/2000/svg">
<path fill-rule="evenodd" clip-rule="evenodd" d="M1 4.75C1 4.33579 1.33579 4 1.75 4L21.75 4C22.1642 4 22.5 4.33579 22.5 4.75V10.75C22.5 10.9489 22.421 11.1397 22.2803 11.2803C22.1397 11.421 21.9489 11.5 21.75 11.5L1.75 11.5C1.55109 11.5 1.36032 11.421 1.21967 11.2803C1.07902 11.1397 1 10.9489 1 10.75L1 4.75ZM2.5 5.5L2.5 10L21 10V5.5L2.5 5.5ZM1 13.75C1 13.3358 1.33579 13 1.75 13L21.75 13C22.1642 13 22.5 13.3358 22.5 13.75V19.75C22.5 19.9489 22.421 20.1397 22.2803 20.2803C22.1397 20.421 21.9489 20.5 21.75 20.5H1.75C1.55109 20.5 1.36032 20.421 1.21967 20.2803C1.07902 20.1397 1 19.9489 1 19.75L1 13.75ZM2.5 14.5L2.5 19L21 19V14.5L2.5 14.5Z" fill="#383641"/>
</svg>
