<svg width="24" height="24" viewBox="0 0 24 24" fill="none" xmlns="http://www.w3.org/2000/svg">
<mask id="mask0_512_996" style="mask-type:alpha" maskUnits="userSpaceOnUse" x="2" y="2" width="20" height="20">
<path fill-rule="evenodd" clip-rule="evenodd" d="M4 4.75C4 4.36215 4.33143 4 4.8 4H19.2C19.6686 4 20 4.36215 20 4.75V8.25C20 8.63785 19.6686 9 19.2 9H4.8C4.33143 9 4 8.63785 4 8.25V4.75ZM4.8 2C3.28034 2 2 3.20485 2 4.75V8.25C2 9.79515 3.28034 11 4.8 11H19.2C20.7197 11 22 9.79515 22 8.25V4.75C22 3.20485 20.7197 2 19.2 2H4.8ZM4 15.75C4 15.3622 4.33143 15 4.8 15H19.2C19.6686 15 20 15.3622 20 15.75V19.25C20 19.6378 19.6686 20 19.2 20H4.8C4.33143 20 4 19.6378 4 19.25V15.75ZM4.8 13C3.28034 13 2 14.2048 2 15.75V19.25C2 20.7952 3.28034 22 4.8 22H19.2C20.7197 22 22 20.7952 22 19.25V15.75C22 14.2048 20.7197 13 19.2 13H4.8Z" fill="#383641"/>
</mask>
<g mask="url(#mask0_512_996)">
<rect width="24" height="24" fill="#383641"/>
</g>
</svg>
