<svg width="24" height="24" viewBox="0 0 24 24" fill="none" xmlns="http://www.w3.org/2000/svg">
<path fill-rule="evenodd" clip-rule="evenodd" d="M12.4743 2.25C12.7597 2.25 13.0204 2.41205 13.1468 2.66803L15.9 8.24572L22.057 9.14566C22.3394 9.18694 22.5739 9.38494 22.6619 9.65645C22.75 9.92795 22.6763 10.2259 22.4718 10.425L18.0173 14.7637L19.0685 20.8932C19.1168 21.1746 19.0011 21.459 18.7701 21.6268C18.5392 21.7946 18.2329 21.8167 17.9803 21.6838L12.4743 18.7883L6.96827 21.6838C6.71558 21.8167 6.40936 21.7946 6.17838 21.6268C5.9474 21.459 5.83171 21.1746 5.87997 20.8932L6.93125 14.7637L2.47672 10.425C2.27226 10.2259 2.19855 9.92795 2.28659 9.65645C2.37462 9.38494 2.60913 9.18694 2.89155 9.14566L9.04852 8.24572L11.8017 2.66803C11.9281 2.41205 12.1888 2.25 12.4743 2.25ZM12.4743 4.69444L10.2193 9.26284C10.1101 9.48398 9.89921 9.63732 9.65519 9.67299L4.61133 10.4102L8.26044 13.9645C8.43735 14.1368 8.51809 14.3851 8.47635 14.6285L7.61532 19.6488L12.1252 17.2771C12.3437 17.1621 12.6048 17.1621 12.8233 17.2771L17.3332 19.6488L16.4722 14.6285C16.4304 14.3851 16.5112 14.1368 16.6881 13.9645L20.3372 10.4102L15.2933 9.67299C15.0493 9.63732 14.8384 9.48398 14.7293 9.26284L12.4743 4.69444Z" fill="#383641"/>
</svg>
