<svg width="24" height="24" viewBox="0 0 24 24" fill="none" xmlns="http://www.w3.org/2000/svg">
<mask id="mask0_512_1036" style="mask-type:alpha" maskUnits="userSpaceOnUse" x="2" y="2" width="20" height="20">
<path fill-rule="evenodd" clip-rule="evenodd" d="M2.25 3C2.25 2.58579 2.58579 2.25 3 2.25H12.3913C12.5903 2.25 12.781 2.32902 12.9217 2.46967L20.9904 10.5384C21.4799 11.0309 21.7547 11.697 21.7547 12.3914C21.7547 13.0857 21.4799 13.7518 20.9904 14.2443L20.9888 14.2459L14.2555 20.9792C14.2554 20.9793 14.2556 20.9791 14.2555 20.9792C14.0115 21.2234 13.7215 21.4174 13.4025 21.5497C13.0834 21.6819 12.7414 21.75 12.396 21.75C12.0507 21.75 11.7086 21.6819 11.3896 21.5497C11.0708 21.4175 10.7811 21.2239 10.5371 20.9798C10.5369 20.9796 10.5374 20.98 10.5371 20.9798L2.46998 12.922C2.32914 12.7813 2.25 12.5904 2.25 12.3914V3ZM3.75 3.75V12.0804L11.5972 19.9185C11.702 20.0234 11.827 20.1072 11.964 20.164C12.101 20.2208 12.2478 20.25 12.396 20.25C12.5443 20.25 12.6911 20.2208 12.8281 20.164C12.9651 20.1072 13.0895 20.024 13.1943 19.9191L19.9266 13.1868C19.9264 13.187 19.9268 13.1865 19.9266 13.1868C20.1363 12.9755 20.2547 12.6891 20.2547 12.3914C20.2547 12.0936 20.137 11.8079 19.9273 11.5966C19.9271 11.5964 19.9275 11.5969 19.9273 11.5966L12.0807 3.75H3.75Z" fill="#383641"/>
</mask>
<g mask="url(#mask0_512_1036)">
<rect width="24" height="24" fill="#383641"/>
</g>
</svg>
