<svg width="24" height="24" viewBox="0 0 24 24" fill="none" xmlns="http://www.w3.org/2000/svg">
<mask id="mask0_512_1010" style="mask-type:alpha" maskUnits="userSpaceOnUse" x="2" y="2" width="20" height="20">
<path fill-rule="evenodd" clip-rule="evenodd" d="M11.75 3.5C7.19365 3.5 3.5 7.19365 3.5 11.75C3.5 16.3063 7.19365 20 11.75 20C16.3063 20 20 16.3063 20 11.75C20 7.19365 16.3063 3.5 11.75 3.5ZM2 11.75C2 6.36522 6.36522 2 11.75 2C17.1348 2 21.5 6.36522 21.5 11.75C21.5 17.1348 17.1348 21.5 11.75 21.5C6.36522 21.5 2 17.1348 2 11.75ZM11.75 5.59981C12.1642 5.59981 12.5 5.9356 12.5 6.34981V11.2863L15.6854 12.879C16.0559 13.0642 16.2061 13.5147 16.0208 13.8852C15.8356 14.2557 15.3851 14.4059 15.0146 14.2206L11.4146 12.4206C11.1605 12.2936 11 12.0339 11 11.7498V6.34981C11 5.9356 11.3358 5.59981 11.75 5.59981Z" fill="#383641"/>
</mask>
<g mask="url(#mask0_512_1010)">
<rect width="24" height="24" fill="#383641"/>
</g>
</svg>
