<svg width="24" height="24" viewBox="0 0 24 24" fill="none" xmlns="http://www.w3.org/2000/svg">
<mask id="mask0_512_1007" style="mask-type:alpha" maskUnits="userSpaceOnUse" x="0" y="2" width="24" height="20">
<path fill-rule="evenodd" clip-rule="evenodd" d="M9.25 3.75C7.45507 3.75 6 5.20507 6 7C6 8.79493 7.45507 10.25 9.25 10.25C11.0449 10.25 12.5 8.79493 12.5 7C12.5 5.20507 11.0449 3.75 9.25 3.75ZM4.5 7C4.5 4.37665 6.62665 2.25 9.25 2.25C11.8734 2.25 14 4.37665 14 7C14 9.62335 11.8734 11.75 9.25 11.75C6.62665 11.75 4.5 9.62335 4.5 7ZM15.5234 2.94397C15.6262 2.5427 16.0348 2.3007 16.436 2.40344C17.4578 2.66505 18.3634 3.25927 19.0101 4.09243C19.6568 4.92559 20.0078 5.9503 20.0078 7.005C20.0078 8.0597 19.6568 9.08441 19.0101 9.91757C18.3634 10.7507 17.4578 11.345 16.436 11.6066C16.0348 11.7093 15.6262 11.4673 15.5234 11.066C15.4207 10.6648 15.6627 10.2562 16.064 10.1534C16.7631 9.97444 17.3827 9.56787 17.8252 8.99781C18.2677 8.42775 18.5078 7.72664 18.5078 7.005C18.5078 6.28336 18.2677 5.58225 17.8252 5.01219C17.3827 4.44213 16.7631 4.03556 16.064 3.85656C15.6627 3.75382 15.4207 3.34524 15.5234 2.94397ZM1.89124 15.6412C2.78204 14.7504 3.99022 14.25 5.25 14.25H13.25C14.5098 14.25 15.718 14.7504 16.6088 15.6412C17.4996 16.532 18 17.7402 18 19V21C18 21.4142 17.6642 21.75 17.25 21.75C16.8358 21.75 16.5 21.4142 16.5 21V19C16.5 18.138 16.1576 17.3114 15.5481 16.7019C14.9386 16.0924 14.112 15.75 13.25 15.75H5.25C4.38805 15.75 3.5614 16.0924 2.9519 16.7019C2.34241 17.3114 2 18.138 2 19V21C2 21.4142 1.66421 21.75 1.25 21.75C0.835786 21.75 0.5 21.4142 0.5 21V19C0.5 17.7402 1.00045 16.532 1.89124 15.6412ZM19.5238 14.9425C19.6274 14.5414 20.0364 14.3003 20.4375 14.4038C21.4565 14.6669 22.3593 15.261 23.0041 16.0928C23.6489 16.9246 23.9992 17.947 24 18.9994V21C24 21.4142 23.6642 21.75 23.25 21.75C22.8358 21.75 22.5 21.4142 22.5 21V19.0006C22.4995 18.2805 22.2598 17.5809 21.8186 17.0118C21.3774 16.4427 20.7597 16.0362 20.0625 15.8562C19.6614 15.7526 19.4203 15.3436 19.5238 14.9425Z" fill="#383641"/>
</mask>
<g mask="url(#mask0_512_1007)">
<rect width="24" height="24" fill="#383641"/>
</g>
</svg>
