<svg width="24" height="24" viewBox="0 0 24 24" fill="none" xmlns="http://www.w3.org/2000/svg">
<path fill-rule="evenodd" clip-rule="evenodd" d="M3.56818 6.5C2.97824 6.5 2.5 6.97824 2.5 7.56818V16.6591C2.5 17.249 2.97824 17.7273 3.56818 17.7273H13.5682C14.1581 17.7273 14.6364 17.249 14.6364 16.6591V7.56818C14.6364 6.97824 14.1581 6.5 13.5682 6.5H3.56818ZM1 7.56818C1 6.14981 2.14981 5 3.56818 5H13.5682C14.9865 5 16.1364 6.14981 16.1364 7.56818V10.6564L21.3142 6.95797C21.5429 6.79467 21.8436 6.77284 22.0934 6.90139C22.3432 7.02994 22.5002 7.28733 22.5002 7.56827V16.6592C22.5002 16.9401 22.3432 17.1975 22.0934 17.326C21.8436 17.4546 21.5429 17.4328 21.3142 17.2695L16.1364 13.571V16.6591C16.1364 18.0775 14.9865 19.2273 13.5682 19.2273H3.56818C2.14981 19.2273 1 18.0775 1 16.6591V7.56818ZM16.6769 12.1137L21.0002 15.2018V9.02566L16.6769 12.1137Z" fill="#383641"/>
</svg>
