<svg width="24" height="24" viewBox="0 0 24 24" fill="none" xmlns="http://www.w3.org/2000/svg">
<mask id="mask0_3265_3530" style="mask-type:alpha" maskUnits="userSpaceOnUse" x="0" y="4" width="24" height="16">
<path fill-rule="evenodd" clip-rule="evenodd" d="M3.75002 6.5835C3.28978 6.5835 2.91669 6.95659 2.91669 7.41683V16.5835C2.91669 17.0437 3.28978 17.4168 3.75002 17.4168H13.8334C14.2936 17.4168 14.6667 17.0437 14.6667 16.5835V7.41683C14.6667 6.95659 14.2936 6.5835 13.8334 6.5835H3.75002ZM16.6667 10.057V7.41683C16.6667 5.85202 15.3982 4.5835 13.8334 4.5835H3.75002C2.18521 4.5835 0.916687 5.85202 0.916687 7.41683V16.5835C0.916687 18.1483 2.18521 19.4168 3.75002 19.4168H13.8334C15.3982 19.4168 16.6667 18.1483 16.6667 16.5835V13.9434L21.5021 17.3972C21.8069 17.615 22.2079 17.6441 22.5409 17.4727C22.874 17.3013 23.0834 16.9581 23.0834 16.5835V7.41683C23.0834 7.04224 22.874 6.69907 22.5409 6.52766C22.2079 6.35626 21.8069 6.38537 21.5021 6.6031L16.6667 10.057ZM17.3872 12.0002L21.0834 14.6403V9.36002L17.3872 12.0002Z" fill="#383641"/>
</mask>
<g mask="url(#mask0_3265_3530)">
<rect width="24" height="24" fill="#383641"/>
</g>
</svg>
